  0
SECTION
  2
HEADER
  9
$ACADVER
  1
AC1015
  9
$ACADMAINTVER
 70
     6
  9
$DWGCODEPAGE
  3
ANSI_1251
  9
$INSBASE
 10
0.0
 20
0.0
 30
0.0
  9
$EXTMIN
 10
0.0
 20
-105.0
 30
0.0
  9
$EXTMAX
 10
1578.4413219709
 20
105.0
 30
0.0
  9
$LIMMIN
 10
0.0
 20
0.0
  9
$LIMMAX
 10
420.0
 20
297.0
  9
$ORTHOMODE
 70
     0
  9
$REGENMODE
 70
     1
  9
$FILLMODE
 70
     1
  9
$QTEXTMODE
 70
     0
  9
$MIRRTEXT
 70
     1
  9
$LTSCALE
 40
1.0
  9
$ATTMODE
 70
     1
  9
$TEXTSIZE
 40
4.0
  9
$TRACEWID
 40
1.0
  9
$TEXTSTYLE
  7
Standard
  9
$CLAYER
  8
0
  9
$CELTYPE
  6
ByLayer
  9
$CECOLOR
 62
   256
  9
$CELTSCALE
 40
1.0
  9
$DISPSILH
 70
     0
  9
$DIMSCALE
 40
1.0
  9
$DIMASZ
 40
6.0
  9
$DIMEXO
 40
0.0
  9
$DIMDLI
 40
3.75
  9
$DIMRND
 40
0.0
  9
$DIMDLE
 40
0.0
  9
$DIMEXE
 40
1.0
  9
$DIMTP
 40
0.0
  9
$DIMTM
 40
0.0
  9
$DIMTXT
 40
4.0
  9
$DIMCEN
 40
2.5
  9
$DIMTSZ
 40
0.0
  9
$DIMTOL
 70
     0
  9
$DIMLIM
 70
     0
  9
$DIMTIH
 70
     1
  9
$DIMTOH
 70
     1
  9
$DIMSE1
 70
     0
  9
$DIMSE2
 70
     0
  9
$DIMTAD
 70
     1
  9
$DIMZIN
 70
     0
  9
$DIMBLK
  1

  9
$DIMASO
 70
     1
  9
$DIMSHO
 70
     1
  9
$DIMPOST
  1

  9
$DIMAPOST
  1

  9
$DIMALT
 70
     0
  9
$DIMALTD
 70
     3
  9
$DIMALTF
 40
0.0393700787
  9
$DIMLFAC
 40
1.0
  9
$DIMTOFL
 70
     1
  9
$DIMTVP
 40
0.0
  9
$DIMTIX
 70
     0
  9
$DIMSOXD
 70
     0
  9
$DIMSAH
 70
     0
  9
$DIMBLK1
  1

  9
$DIMBLK2
  1

  9
$DIMSTYLE
  2
ISO-25
  9
$DIMCLRD
 70
     0
  9
$DIMCLRE
 70
     0
  9
$DIMCLRT
 70
     0
  9
$DIMTFAC
 40
1.0
  9
$DIMGAP
 40
3.0
  9
$DIMJUST
 70
     0
  9
$DIMSD1
 70
     0
  9
$DIMSD2
 70
     0
  9
$DIMTOLJ
 70
     0
  9
$DIMTZIN
 70
     0
  9
$DIMALTZ
 70
     0
  9
$DIMALTTZ
 70
     0
  9
$DIMUPT
 70
     0
  9
$DIMDEC
 70
     2
  9
$DIMTDEC
 70
     4
  9
$DIMALTU
 70
     2
  9
$DIMALTTD
 70
     3
  9
$DIMTXSTY
  7
Standard
  9
$DIMAUNIT
 70
     0
  9
$DIMADEC
 70
     2
  9
$DIMALTRND
 40
0.0
  9
$DIMAZIN
 70
     0
  9
$DIMDSEP
 70
    44
  9
$DIMATFIT
 70
     3
  9
$DIMFRAC
 70
     0
  9
$DIMLDRBLK
  1

  9
$DIMLUNIT
 70
     2
  9
$DIMLWD
 70
    -2
  9
$DIMLWE
 70
    -2
  9
$DIMTMOVE
 70
     0
  9
$LUNITS
 70
     2
  9
$LUPREC
 70
     2
  9
$SKETCHINC
 40
1.0
  9
$FILLETRAD
 40
10.0
  9
$AUNITS
 70
     0
  9
$AUPREC
 70
     2
  9
$MENU
  1
.
  9
$ELEVATION
 40
0.0
  9
$PELEVATION
 40
0.0
  9
$THICKNESS
 40
0.0
  9
$LIMCHECK
 70
     0
  9
$CHAMFERA
 40
0.0
  9
$CHAMFERB
 40
0.0
  9
$CHAMFERC
 40
0.0
  9
$CHAMFERD
 40
0.0
  9
$SKPOLY
 70
     0
  9
$TDCREATE
 40
2460056.555511296
  9
$TDUCREATE
 40
2460056.430511296
  9
$TDUPDATE
 40
2460056.55555603
  9
$TDUUPDATE
 40
2460056.43055603
  9
$TDINDWG
 40
0.0000000116
  9
$TDUSRTIMER
 40
0.0000000116
  9
$USRTIMER
 70
     1
  9
$ANGBASE
 50
0.0
  9
$ANGDIR
 70
     0
  9
$PDMODE
 70
     0
  9
$PDSIZE
 40
-1.0
  9
$PLINEWID
 40
0.0
  9
$SPLFRAME
 70
     0
  9
$SPLINETYPE
 70
     6
  9
$SPLINESEGS
 70
     8
  9
$HANDSEED
  5
85
  9
$SURFTAB1
 70
     6
  9
$SURFTAB2
 70
     6
  9
$SURFTYPE
 70
     6
  9
$SURFU
 70
     6
  9
$SURFV
 70
     6
  9
$UCSBASE
  2

  9
$UCSNAME
  2

  9
$UCSORG
 10
0.0
 20
0.0
 30
0.0
  9
$UCSXDIR
 10
1.0
 20
0.0
 30
0.0
  9
$UCSYDIR
 10
0.0
 20
1.0
 30
0.0
  9
$UCSORTHOREF
  2

  9
$UCSORTHOVIEW
 70
     0
  9
$UCSORGTOP
 10
0.0
 20
0.0
 30
0.0
  9
$UCSORGBOTTOM
 10
0.0
 20
0.0
 30
0.0
  9
$UCSORGLEFT
 10
0.0
 20
0.0
 30
0.0
  9
$UCSORGRIGHT
 10
0.0
 20
0.0
 30
0.0
  9
$UCSORGFRONT
 10
0.0
 20
0.0
 30
0.0
  9
$UCSORGBACK
 10
0.0
 20
0.0
 30
0.0
  9
$PUCSBASE
  2

  9
$PUCSNAME
  2

  9
$PUCSORG
 10
0.0
 20
0.0
 30
0.0
  9
$PUCSXDIR
 10
1.0
 20
0.0
 30
0.0
  9
$PUCSYDIR
 10
0.0
 20
1.0
 30
0.0
  9
$PUCSORTHOREF
  2

  9
$PUCSORTHOVIEW
 70
     0
  9
$PUCSORGTOP
 10
0.0
 20
0.0
 30
0.0
  9
$PUCSORGBOTTOM
 10
0.0
 20
0.0
 30
0.0
  9
$PUCSORGLEFT
 10
0.0
 20
0.0
 30
0.0
  9
$PUCSORGRIGHT
 10
0.0
 20
0.0
 30
0.0
  9
$PUCSORGFRONT
 10
0.0
 20
0.0
 30
0.0
  9
$PUCSORGBACK
 10
0.0
 20
0.0
 30
0.0
  9
$USERI1
 70
     0
  9
$USERI2
 70
     0
  9
$USERI3
 70
     0
  9
$USERI4
 70
     0
  9
$USERI5
 70
     0
  9
$USERR1
 40
0.0
  9
$USERR2
 40
0.0
  9
$USERR3
 40
0.0
  9
$USERR4
 40
0.0
  9
$USERR5
 40
0.0
  9
$WORLDVIEW
 70
     1
  9
$SHADEDGE
 70
     3
  9
$SHADEDIF
 70
    70
  9
$TILEMODE
 70
     1
  9
$MAXACTVP
 70
    64
  9
$PINSBASE
 10
0.0
 20
0.0
 30
0.0
  9
$PLIMCHECK
 70
     0
  9
$PEXTMIN
 10
1.0000000000E+20
 20
1.0000000000E+20
 30
1.0000000000E+20
  9
$PEXTMAX
 10
-1.0000000000E+20
 20
-1.0000000000E+20
 30
-1.0000000000E+20
  9
$PLIMMIN
 10
0.0
 20
0.0
  9
$PLIMMAX
 10
420.0
 20
297.0
  9
$UNITMODE
 70
     0
  9
$VISRETAIN
 70
     1
  9
$PLINEGEN
 70
     0
  9
$PSLTSCALE
 70
     1
  9
$TREEDEPTH
 70
  3020
  9
$CMLSTYLE
  2
Standard
  9
$CMLJUST
 70
     0
  9
$CMLSCALE
 40
20.0
  9
$PROXYGRAPHICS
 70
     1
  9
$MEASUREMENT
 70
     1
  9
$CELWEIGHT
370
    -1
  9
$ENDCAPS
280
     0
  9
$JOINSTYLE
280
     0
  9
$LWDISPLAY
290
     1
  9
$INSUNITS
 70
     4
  9
$HYPERLINKBASE
  1

  9
$STYLESHEET
  1

  9
$XEDIT
290
     1
  9
$CEPSNTYPE
380
     0
  9
$PSTYLEMODE
290
     1
  9
$FINGERPRINTGUID
  2
{61ec1dd2-10f3-4ae6-ab3c-1286e1cacf91}
  9
$VERSIONGUID
  2
{FAEB1C32-E019-11D5-929B-00C0DF256EC4}
  9
$EXTNAMES
290
     1
  9
$PSVPSCALE
 40
0.0
  9
$OLESTARTUP
290
     0
  0
ENDSEC
  0
SECTION
  2
CLASSES
  0
CLASS
  1
ACDBDICTIONARYWDFLT
  2
AcDbDictionaryWithDefault
  3
ObjectDBX Classes
 90
        0
280
     0
281
     0
  0
CLASS
  1
VISUALSTYLE
  2
AcDbVisualStyle
  3
ObjectDBX Classes
 90
     4095
280
     0
281
     0
  0
CLASS
  1
MATERIAL
  2
AcDbMaterial
  3
ObjectDBX Classes
 90
     1153
280
     0
281
     0
  0
CLASS
  1
SCALE
  2
AcDbScale
  3
ObjectDBX Classes
 90
     1153
280
     0
281
     0
  0
CLASS
  1
TABLESTYLE
  2
AcDbTableStyle
  3
ObjectDBX Classes
 90
     4095
280
     0
281
     0
  0
CLASS
  1
MLEADERSTYLE
  2
AcDbMLeaderStyle
  3
ACDB_MLEADERSTYLE_CLASS
 90
     4095
280
     0
281
     0
  0
CLASS
  1
SUN
  2
AcDbSun
  3
SCENEOE
 90
     1153
280
     0
281
     0
  0
CLASS
  1
ACDBPLACEHOLDER
  2
AcDbPlaceHolder
  3
ObjectDBX Classes
 90
        0
280
     0
281
     0
  0
CLASS
  1
LAYOUT
  2
AcDbLayout
  3
ObjectDBX Classes
 90
        0
280
     0
281
     0
  0
ENDSEC
  0
SECTION
  2
TABLES
  0
TABLE
  2
VPORT
  5
8
330
0
100
AcDbSymbolTable
 70
     1
  0
VPORT
  5
29
330
8
100
AcDbSymbolTableRecord
100
AcDbViewportTableRecord
  2
*Active
 70
     0
 10
0.0
 20
0.0
 11
1.0
 21
1.0
 12
789.2206609854
 22
0.0
 13
0.0
 23
0.0
 14
10.0
 24
10.0
 15
10.0
 25
10.0
 16
0.0
 26
0.0
 36
1.0
 17
0.0
 27
0.0
 37
0.0
 40
214.2
 41
7.5163872475
 42
50.0
 43
0.0
 44
0.0
 50
0.0
 51
0.0
 71
     0
 72
   100
 73
     1
 74
     3
 75
     0
 76
     0
 77
     0
 78
     0
281
     0
 65
     1
110
0.0
120
0.0
130
0.0
111
1.0
121
0.0
131
0.0
112
0.0
122
1.0
132
0.0
 79
     0
146
0.0
  0
ENDTAB
  0
TABLE
  2
LTYPE
  5
5
330
0
100
AcDbSymbolTable
 70
     6
  0
LTYPE
  5
14
330
5
100
AcDbSymbolTableRecord
100
AcDbLinetypeTableRecord
  2
ByBlock
 70
     0
  3

 72
    65
 73
     0
 40
0.0
  0
LTYPE
  5
15
330
5
100
AcDbSymbolTableRecord
100
AcDbLinetypeTableRecord
  2
ByLayer
 70
     0
  3

 72
    65
 73
     0
 40
0.0
  0
LTYPE
  5
16
330
5
100
AcDbSymbolTableRecord
100
AcDbLinetypeTableRecord
  2
Continuous
 70
     0
  3
Solid line
 72
    65
 73
     0
 40
0.0
  0
LTYPE
  5
6E
330
5
100
AcDbSymbolTableRecord
100
AcDbLinetypeTableRecord
  2
HIDDEN
 70
     0
  3
Hidden __ __ __ __ __ __ __ __ __ __ __ __ __ __
 72
    65
 73
     2
 40
1.905
 49
1.27
 74
     0
 49
-0.635
 74
     0
  0
LTYPE
  5
6F
330
5
100
AcDbSymbolTableRecord
100
AcDbLinetypeTableRecord
  2
PHANTOM
 70
     0
  3
Phantom ______  __  __  ______  __  __  ______
 72
    65
 73
     6
 40
12.7
 49
6.35
 74
     0
 49
-1.27
 74
     0
 49
1.27
 74
     0
 49
-1.27
 74
     0
 49
1.27
 74
     0
 49
-1.27
 74
     0
  0
LTYPE
  5
70
330
5
100
AcDbSymbolTableRecord
100
AcDbLinetypeTableRecord
  2
CENTER
 70
     0
  3
Center ____ _ ____ _ ____ _ ____ _ ____ _ ____
 72
    65
 73
     4
 40
10.16
 49
6.35
 74
     0
 49
-1.27
 74
     0
 49
1.27
 74
     0
 49
-1.27
 74
     0
  0
LTYPE
  5
71
330
5
100
AcDbSymbolTableRecord
100
AcDbLinetypeTableRecord
  2
CENTERX2
 70
     0
  3
Center (2x) ________  __  ________  __  _____
 72
    65
 73
     4
 40
20.32
 49
12.7
 74
     0
 49
-2.54
 74
     0
 49
2.54
 74
     0
 49
-2.54
 74
     0
  0
LTYPE
  5
72
330
5
100
AcDbSymbolTableRecord
100
AcDbLinetypeTableRecord
  2
DOT2
 70
     0
  3
Dot (.5x) ........................................
 72
    65
 73
     2
 40
0.635
 49
0.0
 74
     0
 49
-0.635
 74
     0
  0
ENDTAB
  0
TABLE
  2
LAYER
  5
2
330
0
100
AcDbSymbolTable
 70
     1
  0
LAYER
  5
10
330
2
100
AcDbSymbolTableRecord
100
AcDbLayerTableRecord
  2
0
 70
     0
 62
     7
  6
Continuous
370
    -3
390
F
  0
ENDTAB
  0
TABLE
  2
STYLE
  5
3
330
0
100
AcDbSymbolTable
 70
     1
  0
STYLE
  5
11
330
3
100
AcDbSymbolTableRecord
100
AcDbTextStyleTableRecord
  2
Standard
 70
     0
 40
0.0
 41
1.0
 50
0.0
 71
     0
 42
4.0
  3
txt
  4

  0
ENDTAB
  0
TABLE
  2
VIEW
  5
6
330
0
100
AcDbSymbolTable
 70
     0
  0
ENDTAB
  0
TABLE
  2
UCS
  5
7
330
0
100
AcDbSymbolTable
 70
     0
  0
ENDTAB
  0
TABLE
  2
APPID
  5
9
330
0
100
AcDbSymbolTable
 70
     1
  0
APPID
  5
12
330
9
100
AcDbSymbolTableRecord
100
AcDbRegAppTableRecord
  2
ACAD
 70
     0
  0
ENDTAB
  0
TABLE
  2
DIMSTYLE
  5
A
330
0
100
AcDbSymbolTable
 70
     1
100
AcDbDimStyleTable
  0
DIMSTYLE
105
27
330
A
100
AcDbSymbolTableRecord
100
AcDbDimStyleTableRecord
  2
ISO-25
 70
     0
 41
2.5
 42
0.625
 43
3.75
 44
1.25
 73
     0
 74
     0
 77
     1
 78
     8
140
2.5
141
2.5
143
0.0393700787
147
0.625
171
     3
172
     1
178
     0
271
     2
272
     2
274
     3
278
    44
283
     0
284
     8
340
11
  0
ENDTAB
  0
TABLE
  2
BLOCK_RECORD
  5
1
330
0
100
AcDbSymbolTable
 70
     1
  0
BLOCK_RECORD
  5
1F
330
1
100
AcDbSymbolTableRecord
100
AcDbBlockTableRecord
  2
*Model_Space
340
22
  0
BLOCK_RECORD
  5
1B
330
1
100
AcDbSymbolTableRecord
100
AcDbBlockTableRecord
  2
*Paper_Space
340
1E
  0
BLOCK_RECORD
  5
23
330
1
100
AcDbSymbolTableRecord
100
AcDbBlockTableRecord
  2
*Paper_Space0
340
26
  0
ENDTAB
  0
ENDSEC
  0
SECTION
  2
BLOCKS
  0
BLOCK
  5
20
330
1F
100
AcDbEntity
  8
0
100
AcDbBlockBegin
  2
*Model_Space
 70
     0
 10
0.0
 20
0.0
 30
0.0
  3
*Model_Space
  1

  0
ENDBLK
  5
21
330
1F
100
AcDbEntity
  8
0
100
AcDbBlockEnd
  0
BLOCK
  5
1C
330
1B
100
AcDbEntity
 67
     1
  8
0
100
AcDbBlockBegin
  2
*Paper_Space
 70
     0
 10
0.0
 20
0.0
 30
0.0
  3
*Paper_Space
  1

  0
ENDBLK
  5
1D
330
1B
100
AcDbEntity
 67
     1
  8
0
100
AcDbBlockEnd
  0
BLOCK
  5
24
330
23
100
AcDbEntity
  8
0
100
AcDbBlockBegin
  2
*Paper_Space0
 70
     0
 10
0.0
 20
0.0
 30
0.0
  3
*Paper_Space0
  1

  0
ENDBLK
  5
25
330
23
100
AcDbEntity
  8
0
100
AcDbBlockEnd
  0
ENDSEC
  0
SECTION
  2
ENTITIES
  0
SPLINE
  5
73
330
1F
100
AcDbEntity
  8
0
  6
Continuous
 62
     7
370
    25
100
AcDbSpline
210
0.0
220
0.0
230
1.0
 70
    11
 71
     3
 72
    39
 73
    35
 74
     0
 42
0.00000001
 43
0.00000001
 40
0.0
 40
0.0
 40
0.0
 40
0.0
 40
0.0312467716028263
 40
0.0625003089415954
 40
0.0937483029506965
 40
0.1250005636463142
 40
0.1562528020141096
 40
0.187500519292263
 40
0.2187502018937167
 40
0.2499999901960746
 40
0.2812383967932501
 40
0.3124995549517379
 40
0.3437324689673491
 40
0.3749995122557205
 40
0.4062383623025446
 40
0.4374997919494562
 40
0.4687424920514986
 40
0.4999999582695164
 40
0.5312409572341469
 40
0.562500189529546
 40
0.5937431731049517
 40
0.6250004134539898
 40
0.6562482128703543
 40
0.6875003410329107
 40
0.7187475490831451
 40
0.7499999535312574
 40
0.7812443938862894
 40
0.8124995831771039
 40
0.8437407527856169
 40
0.8749993940383721
 40
0.906237479616034
 40
0.9374995831906664
 40
0.9687425979691516
 40
1.0
 40
1.0
 40
1.0
 40
1.0
 10
392.4446731735583
 20
-83.99999943189945
 30
0.0
 10
391.8550313237996
 20
-84.00018723550214
 30
0.0
 10
390.6755911785299
 20
-83.88797715055634
 30
0.0
 10
388.9759371746089
 20
-83.36899269215829
 30
0.0
 10
387.4051705777917
 20
-82.53756802427813
 30
0.0
 10
386.032847625959
 20
-81.40829833150798
 30
0.0
 10
384.8993750313919
 20
-80.0394195530529
 30
0.0
 10
384.0637418144254
 20
-78.47091181186775
 30
0.0
 10
383.5411976953044
 20
-76.77228214924455
 30
0.0
 10
383.3708148875136
 20
-75.00343159872543
 30
0.0
 10
383.5399706380164
 20
-73.2342675074433
 30
0.0
 10
384.0610763778118
 20
-71.53547772154182
 30
0.0
 10
384.8956215519724
 20
-69.96615366739177
 30
0.0
 10
386.0279247932709
 20
-68.59662025075951
 30
0.0
 10
387.3995968334789
 20
-67.46613953103383
 30
0.0
 10
388.9695784627343
 20
-66.63364280424308
 30
0.0
 10
390.6690585758597
 20
-66.11328026355406
 30
0.0
 10
392.4379444822899
 20
-65.94367717341814
 30
0.0
 10
394.2072420425045
 20
-66.11201348134978
 30
0.0
 10
395.9068154115473
 20
-66.63093382769594
 30
0.0
 10
397.4776965391805
 20
-67.46236538059021
 30
0.0
 10
398.8499653711494
 20
-68.59157575465929
 30
0.0
 10
399.9835177163751
 20
-69.96050544887419
 30
0.0
 10
400.8191391792676
 20
-71.52896575605747
 30
0.0
 10
401.3417801153135
 20
-73.22765990807903
 30
0.0
 10
401.5121029413131
 20
-74.99662891820368
 30
0.0
 10
401.3430766346502
 20
-76.76586274593484
 30
0.0
 10
400.821757907469
 20
-78.46476266117999
 30
0.0
 10
399.9871695431284
 20
-80.03392081870767
 30
0.0
 10
398.8549427721972
 20
-81.40349234929737
 30
0.0
 10
397.4833138754263
 20
-82.53377956314742
 30
0.0
 10
395.9133811582693
 20
-83.36634517710678
 30
0.0
 10
394.2139002496189
 20
-83.88681168603371
 30
0.0
 10
393.0345156246885
 20
-83.9998115644043
 30
0.0
 10
392.4446731735582
 20
-83.99999943189945
 30
0.0
  0
SPLINE
  5
74
330
1F
100
AcDbEntity
  8
0
  6
Continuous
 62
     7
370
    25
100
AcDbSpline
210
0.0
220
0.0
230
1.0
 70
    11
 71
     3
 72
    35
 73
    31
 74
     0
 42
0.00000001
 43
0.00000001
 40
0.0
 40
0.0
 40
0.0
 40
0.0
 40
0.0624982249771075
 40
0.0625017086639785
 40
0.1249976497036868
 40
0.1250025770843138
 40
0.1874983229567879
 40
0.1875018086975595
 40
0.2499998170720511
 40
0.3124978183016581
 40
0.3125013025754593
 40
0.3749970397089059
 40
0.3750019656252861
 40
0.4374979035332829
 40
0.4375013855648552
 40
0.4999998602546565
 40
0.5624983437721042
 40
0.5625018267045
 40
0.6249977880650531
 40
0.6250027146949335
 40
0.6874984641499378
 40
0.6875019495861717
 40
0.7499999373339395
 40
0.8124979242831104
 40
0.8125014091746997
 40
0.8749971466960664
 40
0.8750020730081366
 40
0.9374980207918717
 40
0.9375015031054793
 40
1.0
 40
1.0
 40
1.0
 40
1.0
 10
354.0995011424205
 20
-18.79999999999487
 30
0.0
 10
354.0995011375426
 20
-18.34160239815629
 30
0.0
 10
354.1908988913632
 20
-17.88317927333289
 30
0.0
 10
354.542377805902
 20
-17.03643111384446
 30
0.0
 10
354.8024819902009
 20
-16.6480509488146
 30
0.0
 10
355.4514165126095
 20
-16.00046607851276
 30
0.0
 10
355.8403058787007
 20
-15.74120088102051
 30
0.0
 10
356.687543450231
 20
-15.39097978682103
 30
0.0
 10
357.6043239669881
 20
-15.20902561402622
 30
0.0
 10
358.5211044109346
 20
-15.39097922412769
 30
0.0
 10
359.36834243365
 20
-15.74119881733632
 30
0.0
 10
359.7572323287104
 20
-16.00046279222034
 30
0.0
 10
360.4061691507536
 20
-16.64804518598551
 30
0.0
 10
360.6662750714906
 20
-17.0364240849763
 30
0.0
 10
361.0177581300055
 20
-17.88317250674792
 30
0.0
 10
361.2005519887372
 20
-18.79999686623709
 30
0.0
 10
361.017759766575
 20
-19.71682156820553
 30
0.0
 10
360.666278086836
 20
-20.56357082987223
 30
0.0
 10
360.4061726955428
 20
-20.95195032321743
 30
0.0
 10
359.7572366910687
 20
-21.59953392177565
 30
0.0
 10
359.3683470928172
 20
-21.8587985440761
 30
0.0
 10
358.5211095823212
 20
-22.20901937674908
 30
0.0
 10
357.6043296701098
 20
-22.39097430893693
 30
0.0
 10
356.6875491384906
 20
-22.20902167910941
 30
0.0
 10
355.8403111848697
 20
-21.85880210870463
 30
0.0
 10
355.4514214383145
 20
-21.59953762871411
 30
0.0
 10
354.8024857687855
 20
-20.95195394173949
 30
0.0
 10
354.5423808648632
 20
-20.56357422871636
 30
0.0
 10
354.1908997041539
 20
-19.71682476209967
 30
0.0
 10
354.0995011472985
 20
-19.25839959623072
 30
0.0
 10
354.0995011424205
 20
-18.79999999999487
 30
0.0
  0
SPLINE
  5
75
330
1F
100
AcDbEntity
  8
0
  6
Continuous
 62
     7
370
    25
100
AcDbSpline
210
0.0
220
0.0
230
1.0
 70
    11
 71
     3
 72
    35
 73
    31
 74
     0
 42
0.00000001
 43
0.00000001
 40
0.0
 40
0.0
 40
0.0
 40
0.0
 40
0.0624975568950508
 40
0.0625010306799014
 40
0.1249968057919864
 40
0.1250017155469214
 40
0.1874977463837975
 40
0.1875012164741736
 40
0.2499997353981456
 40
0.3124980406748029
 40
0.3125015087095316
 40
0.3749975442845114
 40
0.3750024501906042
 40
0.4374982178544011
 40
0.4375016881447656
 40
0.4999997324383163
 40
0.5624978044740043
 40
0.5625012762324985
 40
0.6249970473156368
 40
0.6250019597438368
 40
0.6874976700499689
 40
0.6875011405995094
 40
0.7499997358286346
 40
0.8124982900679998
 40
0.812501758114405
 40
0.8749977553461163
 40
0.875002662225896
 40
0.9374984592109379
 40
0.9375019295353129
 40
1.0
 40
1.0
 40
1.0
 40
1.0
 10
784.8829422022657
 20
-37.5499999999886
 30
0.0
 10
785.20380218114
 20
-37.55000000176131
 30
0.0
 10
785.5246799542107
 20
-37.61368355753007
 30
0.0
 10
786.1177410608437
 20
-37.85883469787083
 30
0.0
 10
786.3899622943111
 20
-38.04031972697739
 30
0.0
 10
786.8442102947388
 20
-38.49363025645849
 30
0.0
 10
787.026278143249
 20
-38.76549803514166
 30
0.0
 10
787.2723054299339
 20
-39.35822268166552
 30
0.0
 10
787.400251832942
 20
-39.99999471360897
 30
0.0
 10
787.2723080114131
 20
-40.64176709072724
 30
0.0
 10
787.0262839402245
 20
-41.23449186326562
 30
0.0
 10
786.8442173923794
 20
-41.50636051046585
 30
0.0
 10
786.3899715830153
 20
-41.95967317480689
 30
0.0
 10
786.11775129164
 20
-42.14115945587138
 30
0.0
 10
785.5246890411711
 20
-42.38631434642829
 30
0.0
 10
784.8829463013743
 20
-42.51368103909097
 30
0.0
 10
784.2412031227761
 20
-42.38631645215915
 30
0.0
 10
783.6481399338592
 20
-42.14116339548652
 30
0.0
 10
783.3759190104192
 20
-41.95967794506794
 30
0.0
 10
782.9216729093727
 20
-41.50636789744391
 30
0.0
 10
782.7396061924067
 20
-41.23450147431969
 30
0.0
 10
782.4935791590174
 20
-40.64177811751637
 30
0.0
 10
782.365632297213
 20
-40.00000440731738
 30
0.0
 10
782.4935768659229
 20
-39.35823027971391
 30
0.0
 10
782.739602268392
 20
-38.76550488763416
 30
0.0
 10
782.9216691456412
 20
-38.49363670971214
 30
0.0
 10
783.3759155605383
 20
-38.04032469609118
 30
0.0
 10
783.6481362291045
 20
-37.85883869090751
 30
0.0
 10
784.2411991146391
 20
-37.61368459351922
 30
0.0
 10
784.5620795867452
 20
-37.54999999821587
 30
0.0
 10
784.8829422022657
 20
-37.5499999999886
 30
0.0
  0
SPLINE
  5
76
330
1F
100
AcDbEntity
  8
0
  6
Continuous
 62
     7
370
    25
100
AcDbSpline
210
0.0
220
0.0
230
1.0
 70
    11
 71
     3
 72
    35
 73
    31
 74
     0
 42
0.00000001
 43
0.00000001
 40
0.0
 40
0.0
 40
0.0
 40
0.0
 40
0.0624975568950226
 40
0.0625010306798874
 40
0.1249968057919515
 40
0.1250017155469278
 40
0.1874977463837818
 40
0.1875012164741716
 40
0.2499997353981281
 40
0.3124980406748007
 40
0.3125015087095162
 40
0.374997544284521
 40
0.3750024501905771
 40
0.4374982178543938
 40
0.4375016881447403
 40
0.4999997324383059
 40
0.5624978044739728
 40
0.5625012762324925
 40
0.6249970473156117
 40
0.6250019597438435
 40
0.6874976700499373
 40
0.6875011405995052
 40
0.7499997358286126
 40
0.8124982900680027
 40
0.8125017581143882
 40
0.8749977553461126
 40
0.8750026622258721
 40
0.9374984592109232
 40
0.9375019295353121
 40
1.0
 40
1.0
 40
1.0
 40
1.0
 10
784.8829422022658
 20
-49.54999999998859
 30
0.0
 10
785.20380218114
 20
-49.55000000176134
 30
0.0
 10
785.5246799542106
 20
-49.61368355753007
 30
0.0
 10
786.1177410608437
 20
-49.85883469787064
 30
0.0
 10
786.3899622943114
 20
-50.0403197269772
 30
0.0
 10
786.844210294739
 20
-50.49363025645824
 30
0.0
 10
787.0262781432489
 20
-50.76549803514158
 30
0.0
 10
787.2723054299338
 20
-51.35822268166542
 30
0.0
 10
787.4002518329423
 20
-51.99999471360892
 30
0.0
 10
787.2723080114135
 20
-52.64176709072721
 30
0.0
 10
787.0262839402247
 20
-53.23449186326563
 30
0.0
 10
786.8442173923795
 20
-53.5063605104656
 30
0.0
 10
786.3899715830155
 20
-53.95967317480667
 30
0.0
 10
786.1177512916405
 20
-54.14115945587122
 30
0.0
 10
785.5246890411714
 20
-54.3863143464283
 30
0.0
 10
784.8829463013748
 20
-54.51368103909095
 30
0.0
 10
784.2412031227767
 20
-54.38631645215916
 30
0.0
 10
783.6481399338596
 20
-54.14116339548669
 30
0.0
 10
783.3759190104196
 20
-53.95967794506812
 30
0.0
 10
782.9216729093732
 20
-53.50636789744416
 30
0.0
 10
782.739606192407
 20
-53.23450147431979
 30
0.0
 10
782.4935791590175
 20
-52.64177811751646
 30
0.0
 10
782.3656322972128
 20
-52.00000440731736
 30
0.0
 10
782.4935768659232
 20
-51.35823027971406
 30
0.0
 10
782.7396022683923
 20
-50.76550488763422
 30
0.0
 10
782.9216691456413
 20
-50.49363670971226
 30
0.0
 10
783.3759155605383
 20
-50.04032469609123
 30
0.0
 10
783.6481362291046
 20
-49.8588386909075
 30
0.0
 10
784.2411991146391
 20
-49.61368459351913
 30
0.0
 10
784.5620795867452
 20
-49.54999999821582
 30
0.0
 10
784.8829422022658
 20
-49.54999999998859
 30
0.0
  0
SPLINE
  5
77
330
1F
100
AcDbEntity
  8
0
  6
Continuous
 62
     7
370
    25
100
AcDbSpline
210
0.0
220
0.0
230
1.0
 70
    11
 71
     3
 72
    35
 73
    31
 74
     0
 42
0.00000001
 43
0.00000001
 40
0.0
 40
0.0
 40
0.0
 40
0.0
 40
0.0624978330979988
 40
0.0625013174100542
 40
0.1249970836773362
 40
0.1250020091715388
 40
0.1874979989375509
 40
0.1875014798491206
 40
0.2499999367836272
 40
0.3124982196904898
 40
0.3125017000246697
 40
0.3749977090614379
 40
0.3750026335566689
 40
0.4374983857552512
 40
0.4375018687741844
 40
0.4999998942962337
 40
0.5624979245132334
 40
0.5625014077205148
 40
0.6249971585979703
 40
0.6250020889824136
 40
0.6874977797693844
 40
0.6875012608656136
 40
0.7499998227088343
 40
0.8124983230614229
 40
0.8125018037572944
 40
0.8749977798681365
 40
0.8750027040639007
 40
0.9374984689804228
 40
0.9375019516476928
 40
1.0
 40
1.0
 40
1.0
 40
1.0
 10
1177.324413303396
 20
-78.24999999998296
 30
0.0
 10
1176.898778957912
 20
-78.25000000138245
 30
0.0
 10
1176.473120905552
 20
-78.16551994793758
 30
0.0
 10
1175.686402123888
 20
-77.84031678903851
 30
0.0
 10
1175.325290672782
 20
-77.59957116856836
 30
0.0
 10
1174.722709721322
 20
-76.99824269752409
 30
0.0
 10
1174.481185490918
 20
-76.63760365134442
 30
0.0
 10
1174.154813397404
 20
-75.85133651438754
 30
0.0
 10
1173.98508082945
 20
-75.00000252446854
 30
0.0
 10
1174.154812285802
 20
-74.14866850091447
 30
0.0
 10
1174.481182465575
 20
-73.36240173895675
 30
0.0
 10
1174.722706057622
 20
-73.0017621021653
 30
0.0
 10
1175.32528590544
 20
-72.40043249875016
 30
0.0
 10
1175.686396813288
 20
-72.15968628529322
 30
0.0
 10
1176.473116127073
 20
-71.83448118138921
 30
0.0
 10
1177.324411087717
 20
-71.66552412254165
 30
0.0
 10
1178.175706274644
 20
-71.83448003083232
 30
0.0
 10
1178.962426046804
 20
-72.1596841010923
 30
0.0
 10
1179.3235373117
 20
-72.40042985982285
 30
0.0
 10
1179.92611642423
 20
-73.00175712437763
 30
0.0
 10
1180.167639560245
 20
-73.36239430077245
 30
0.0
 10
1180.494012173921
 20
-74.14865976448479
 30
0.0
 10
1180.663746142261
 20
-74.9999958186994
 30
0.0
 10
1180.49401437295
 20
-75.85133226541183
 30
0.0
 10
1180.167643205662
 20
-76.63759998338608
 30
0.0
 10
1179.926119487032
 20
-76.99823924113096
 30
0.0
 10
1179.3235394343
 20
-77.59956845721875
 30
0.0
 10
1178.962428362702
 20
-77.84031457418861
 30
0.0
 10
1178.175708667231
 20
-78.16551936264739
 30
0.0
 10
1177.750049114844
 20
-78.24999999858345
 30
0.0
 10
1177.324413303396
 20
-78.24999999998296
 30
0.0
  0
SPLINE
  5
78
330
1F
100
AcDbEntity
  8
0
  6
Continuous
 62
     7
370
    25
100
AcDbSpline
210
0.0
220
0.0
230
1.0
 70
    11
 71
     3
 72
    35
 73
    31
 74
     0
 42
0.00000001
 43
0.00000001
 40
0.0
 40
0.0
 40
0.0
 40
0.0
 40
0.062498493516904
 40
0.0625019758759616
 40
0.1249979243760329
 40
0.1250028507070514
 40
0.1874985921310683
 40
0.1875020770265621
 40
0.2500000659288861
 40
0.3124980517827832
 40
0.3125015372151612
 40
0.3749972827571662
 40
0.3750022093682829
 40
0.4374981699338281
 40
0.4375016528199705
 40
0.500000139078693
 40
0.5624986177284449
 40
0.5625020997158191
 40
0.6249980369131379
 40
0.6250029628117455
 40
0.6874986960490226
 40
0.6875021803200303
 40
0.7500001783806234
 40
0.8124981898369553
 40
0.8125016755802088
 40
0.8749974253835024
 40
0.875002352781901
 40
0.9374982946094141
 40
0.9375017783411534
 40
1.0
 40
1.0
 40
1.0
 40
1.0
 10
423.7737841708629
 20
-18.79999999999385
 30
0.0
 10
423.77378417574
 20
-18.34160041506792
 30
0.0
 10
423.8651832864934
 20
-17.88317526017927
 30
0.0
 10
424.2166657746984
 20
-17.03642635399355
 30
0.0
 10
424.4767714635215
 20
-16.64804719461664
 30
0.0
 10
425.1257079204595
 20
-16.00046427549202
 30
0.0
 10
425.5145976764893
 20
-15.74120001594532
 30
0.0
 10
426.3618354199054
 20
-15.3909798851313
 30
0.0
 10
427.2786154762835
 20
-15.20902569096606
 30
0.0
 10
428.1953958646232
 20
-15.39097905915892
 30
0.0
 10
429.0426335867289
 20
-15.74119933268206
 30
0.0
 10
429.4315231747433
 20
-16.00046417512602
 30
0.0
 10
430.0804583905339
 20
-16.64804854087363
 30
0.0
 10
430.3405629965526
 20
-17.03642858735982
 30
0.0
 10
430.6920433485906
 20
-17.88317840850666
 30
0.0
 10
430.8748344632895
 20
-18.80000313226117
 30
0.0
 10
430.6920417128202
 20
-19.71682751375059
 30
0.0
 10
430.3405599806167
 20
-20.5635764985845
 30
0.0
 10
430.0804548457542
 20
-20.95195595018789
 30
0.0
 10
429.4315188121765
 20
-21.59953911097033
 30
0.0
 10
429.0426289266538
 20
-21.85880330651528
 30
0.0
 10
428.1953906940031
 20
-22.20902233964678
 30
0.0
 10
427.2786097751281
 20
-22.39097438584754
 30
0.0
 10
426.3618297346088
 20
-22.20901864964811
 30
0.0
 10
425.5145923694433
 20
-21.85879699348587
 30
0.0
 10
425.1257029953384
 20
-21.5995320179357
 30
0.0
 10
424.4767676863335
 20
-20.95194791675389
 30
0.0
 10
424.2166627165918
 20
-20.56356830506781
 30
0.0
 10
423.8651824738733
 20
-19.71682070524088
 30
0.0
 10
423.7737841659856
 20
-19.25839759095779
 30
0.0
 10
423.7737841708629
 20
-18.79999999999385
 30
0.0
  0
SPLINE
  5
7D
330
1F
100
AcDbEntity
  8
0
  6
Continuous
 62
     7
370
    25
100
AcDbSpline
210
0.0
220
0.0
230
1.0
 70
     8
 71
     3
 72
     9
 73
     5
 74
     0
 42
0.00000001
 43
0.00000001
 40
0.0
 40
0.0
 40
0.0
 40
0.0
 40
0.7582258863632533
 40
1.0
 40
1.0
 40
1.0
 40
1.0
 10
784.8829422022659
 20
-49.54999999998859
 30
0.0
 10
784.605001275938
 20
-49.56259739617375
 30
0.0
 10
784.2384338303698
 20
-49.57921170123999
 30
0.0
 10
783.9306235945229
 20
-49.76467874318151
 30
0.0
 10
783.8562030475828
 20
-49.80951987285574
 30
0.0
  0
SPLINE
  5
7E
330
1F
100
AcDbEntity
  8
0
  6
Continuous
 62
     7
370
    25
100
AcDbSpline
210
0.0
220
0.0
230
1.0
 70
     8
 71
     3
 72
    10
 73
     6
 74
     0
 42
0.00000001
 43
0.00000001
 40
0.0
 40
0.0
 40
0.0
 40
0.0
 40
0.1068101087009912
 40
0.8232571919133218
 40
0.9999999999999999
 40
0.9999999999999999
 40
0.9999999999999999
 40
0.9999999999999999
 10
423.803570543859
 20
-18.62531372454918
 30
0.0
 10
423.7967549381783
 20
-18.68337677730438
 30
0.0
 10
423.7442224909959
 20
-19.13090769311855
 30
0.0
 10
423.8256011407979
 20
-19.71039093904401
 30
0.0
 10
424.0749382991994
 20
-20.13214663024982
 30
0.0
 10
424.1242766873355
 20
-20.21560288733064
 30
0.0
  0
SPLINE
  5
7F
330
1F
100
AcDbEntity
  8
0
  6
Continuous
 62
     7
370
    25
100
AcDbSpline
210
0.0
220
0.0
230
1.0
 70
     8
 71
     3
 72
     9
 73
     5
 74
     0
 42
0.00000001
 43
0.00000001
 40
0.0
 40
0.0
 40
0.0
 40
0.0
 40
0.8009449367410104
 40
1.0
 40
1.0
 40
1.0
 40
1.0
 10
354.1105550888034
 20
-18.79999999999487
 30
0.0
 10
354.1266550550042
 20
-19.20469965121551
 30
0.0
 10
354.1467562697846
 20
-19.70997739585966
 30
0.0
 10
354.4002804194245
 20
-20.13324346616992
 30
0.0
 10
354.4507456850689
 20
-20.21749672057092
 30
0.0
  0
LINE
  5
80
330
1F
100
AcDbEntity
  8
0
  6
Continuous
 62
     7
370
    25
100
AcDbLine
 10
0.0
 20
105.0
 30
0.0
 11
0.0
 21
-105.0
 31
0.0
  0
LINE
  5
81
330
1F
100
AcDbEntity
  8
0
  6
Continuous
 62
     7
370
    25
100
AcDbLine
 10
1578.4413219708
 20
105.0
 30
0.0
 11
0.0
 21
105.0
 31
0.0
  0
LINE
  5
82
330
1F
100
AcDbEntity
  8
0
  6
Continuous
 62
     7
370
    25
100
AcDbLine
 10
1578.4413219708
 20
105.0
 30
0.0
 11
1578.4413219709
 21
-105.0
 31
0.0
  0
LINE
  5
83
330
1F
100
AcDbEntity
  8
0
  6
Continuous
 62
     7
370
    25
100
AcDbLine
 10
1578.4413219709
 20
-105.0
 30
0.0
 11
0.0
 21
-105.0
 31
0.0
  0
ENDSEC
  0
SECTION
  2
OBJECTS
  0
DICTIONARY
  5
C
330
0
100
AcDbDictionary
281
     1
  3
ACAD_GROUP
350
D
  3
ACAD_LAYOUT
350
1A
  3
ACAD_MLINESTYLE
350
17
  3
ACAD_PLOTSETTINGS
350
19
  3
ACAD_PLOTSTYLENAME
350
E
  3
ACAD_SCALELIST
350
47
  3
DWGPROPS
350
84
  0
DICTIONARY
  5
D
102
{ACAD_REACTORS
330
C
102
}
330
C
100
AcDbDictionary
281
     1
  0
DICTIONARY
  5
1A
102
{ACAD_REACTORS
330
C
102
}
330
C
100
AcDbDictionary
281
     1
  3
Layout1
350
1E
  3
Layout2
350
26
  3
Model
350
22
  0
DICTIONARY
  5
17
102
{ACAD_REACTORS
330
C
102
}
330
C
100
AcDbDictionary
281
     1
  3
Standard
350
18
  0
DICTIONARY
  5
19
102
{ACAD_REACTORS
330
C
102
}
330
C
100
AcDbDictionary
281
     1
  0
ACDBDICTIONARYWDFLT
  5
E
102
{ACAD_REACTORS
330
C
102
}
330
C
100
AcDbDictionary
281
     1
  3
Normal
350
F
100
AcDbDictionaryWithDefault
340
F
  0
DICTIONARY
  5
47
102
{ACAD_REACTORS
330
C
102
}
330
C
100
AcDbDictionary
281
     1
  3
A0
350
48
  3
A1
350
49
  3
A2
350
4A
  3
A3
350
4B
  3
A4
350
4C
  3
A5
350
4D
  3
A6
350
4E
  3
A7
350
4F
  3
A8
350
50
  3
A9
350
51
  3
B0
350
52
  3
B1
350
53
  3
B2
350
54
  3
B3
350
55
  3
B4
350
56
  3
B5
350
57
  3
B6
350
58
  3
B7
350
59
  3
B8
350
5A
  3
B9
350
5B
  3
C0
350
5C
  3
C1
350
5D
  3
C2
350
5E
  3
C3
350
5F
  3
C4
350
60
  3
C5
350
61
  3
C6
350
62
  3
C7
350
63
  3
C8
350
64
  3
C9
350
65
  3
D0
350
66
  3
D1
350
67
  3
D2
350
68
  0
XRECORD
  5
84
102
{ACAD_REACTORS
330
C
102
}
330
C
100
AcDbXrecord
280
     1
  1
DWGPROPS COOKIE
  2

  3

  4

  6

  7

  8
vip
  9

300
=
301
=
302
=
303
=
304
=
305
=
306
=
307
=
308
=
309
=
 40
0.0
 41
2460056.430511296
 42
2460056.43055603
  1

 90
        0
  0
LAYOUT
  5
1E
102
{ACAD_REACTORS
330
1A
102
}
330
1A
100
AcDbPlotSettings
  1

  2
none_device
  4

  6

 40
0.0
 41
0.0
 42
0.0
 43
0.0
 44
0.0
 45
0.0
 46
0.0
 47
0.0
 48
0.0
 49
0.0
140
0.0
141
0.0
142
1.0
143
1.0
 70
   688
 72
     1
 73
     0
 74
     5
  7

 75
    16
147
1.0
148
0.0
149
0.0
100
AcDbLayout
  1
Layout1
 70
     1
 71
     1
 10
0.0
 20
0.0
 11
420.0
 21
297.0
 12
0.0
 22
0.0
 32
0.0
 14
1.0000000000E+20
 24
1.0000000000E+20
 34
1.0000000000E+20
 15
-1.0000000000E+20
 25
-1.0000000000E+20
 35
-1.0000000000E+20
146
0.0
 13
0.0
 23
0.0
 33
0.0
 16
1.0
 26
0.0
 36
0.0
 17
0.0
 27
1.0
 37
0.0
 76
     0
330
1B
  0
LAYOUT
  5
26
102
{ACAD_REACTORS
330
1A
102
}
330
1A
100
AcDbPlotSettings
  1

  2
none_device
  4

  6

 40
0.0
 41
0.0
 42
0.0
 43
0.0
 44
0.0
 45
0.0
 46
0.0
 47
0.0
 48
0.0
 49
0.0
140
0.0
141
0.0
142
1.0
143
1.0
 70
   688
 72
     1
 73
     0
 74
     5
  7

 75
    16
147
1.0
148
0.0
149
0.0
100
AcDbLayout
  1
Layout2
 70
     1
 71
     2
 10
0.0
 20
0.0
 11
0.0
 21
0.0
 12
0.0
 22
0.0
 32
0.0
 14
0.0
 24
0.0
 34
0.0
 15
0.0
 25
0.0
 35
0.0
146
0.0
 13
0.0
 23
0.0
 33
0.0
 16
1.0
 26
0.0
 36
0.0
 17
0.0
 27
1.0
 37
0.0
 76
     0
330
23
  0
LAYOUT
  5
22
102
{ACAD_REACTORS
330
1A
102
}
330
1A
100
AcDbPlotSettings
  1

  2
none_device
  4
ANSI_A_(11.00_x_8.50_Inches)
  6

 40
6.35
 41
19.05
 42
6.35000508
 43
19.05000254
 44
279.4
 45
215.9
 46
-4.95300254
 47
88.89999873
 48
0.0
 49
0.0
140
0.0
141
0.0
142
0.0068992112
143
1.0
 70
  1696
 72
     0
 73
     0
 74
     0
  7

 75
     0
147
0.0179189148
148
-1300.4909072572
149
0.0
100
AcDbLayout
  1
Model
 70
     1
 71
     0
 10
0.0
 20
0.0
 11
420.0
 21
297.0
 12
0.0
 22
0.0
 32
0.0
 14
0.0
 24
-105.0
 34
0.0
 15
1578.4413219709
 25
105.0
 35
0.0
146
0.0
 13
0.0
 23
0.0
 33
0.0
 16
1.0
 26
0.0
 36
0.0
 17
0.0
 27
1.0
 37
0.0
 76
     0
330
1F
331
29
  0
MLINESTYLE
  5
18
102
{ACAD_REACTORS
330
17
102
}
330
17
100
AcDbMlineStyle
  2
Standard
 70
     0
  3

 62
   256
 51
90.0
 52
90.0
 71
     2
 49
0.5
 62
   256
  6
BYLAYER
 49
-0.5
 62
   256
  6
BYLAYER
  0
ACDBPLACEHOLDER
  5
F
102
{ACAD_REACTORS
330
E
102
}
330
E
  0
SCALE
  5
48
102
{ACAD_REACTORS
330
47
102
}
330
47
100
AcDbScale
 70
     0
300
1:1
140
1.0
141
1.0
290
     1
  0
SCALE
  5
49
102
{ACAD_REACTORS
330
47
102
}
330
47
100
AcDbScale
 70
     0
300
1:2
140
1.0
141
2.0
290
     0
  0
SCALE
  5
4A
102
{ACAD_REACTORS
330
47
102
}
330
47
100
AcDbScale
 70
     0
300
1:4
140
1.0
141
4.0
290
     0
  0
SCALE
  5
4B
102
{ACAD_REACTORS
330
47
102
}
330
47
100
AcDbScale
 70
     0
300
1:5
140
1.0
141
5.0
290
     0
  0
SCALE
  5
4C
102
{ACAD_REACTORS
330
47
102
}
330
47
100
AcDbScale
 70
     0
300
1:8
140
1.0
141
8.0
290
     0
  0
SCALE
  5
4D
102
{ACAD_REACTORS
330
47
102
}
330
47
100
AcDbScale
 70
     0
300
1:10
140
1.0
141
10.0
290
     0
  0
SCALE
  5
4E
102
{ACAD_REACTORS
330
47
102
}
330
47
100
AcDbScale
 70
     0
300
1:16
140
1.0
141
16.0
290
     0
  0
SCALE
  5
4F
102
{ACAD_REACTORS
330
47
102
}
330
47
100
AcDbScale
 70
     0
300
1:20
140
1.0
141
20.0
290
     0
  0
SCALE
  5
50
102
{ACAD_REACTORS
330
47
102
}
330
47
100
AcDbScale
 70
     0
300
1:30
140
1.0
141
30.0
290
     0
  0
SCALE
  5
51
102
{ACAD_REACTORS
330
47
102
}
330
47
100
AcDbScale
 70
     0
300
1:40
140
1.0
141
40.0
290
     0
  0
SCALE
  5
52
102
{ACAD_REACTORS
330
47
102
}
330
47
100
AcDbScale
 70
     0
300
1:50
140
1.0
141
50.0
290
     0
  0
SCALE
  5
53
102
{ACAD_REACTORS
330
47
102
}
330
47
100
AcDbScale
 70
     0
300
1:100
140
1.0
141
100.0
290
     0
  0
SCALE
  5
54
102
{ACAD_REACTORS
330
47
102
}
330
47
100
AcDbScale
 70
     0
300
2:1
140
2.0
141
1.0
290
     0
  0
SCALE
  5
55
102
{ACAD_REACTORS
330
47
102
}
330
47
100
AcDbScale
 70
     0
300
4:1
140
4.0
141
1.0
290
     0
  0
SCALE
  5
56
102
{ACAD_REACTORS
330
47
102
}
330
47
100
AcDbScale
 70
     0
300
8:1
140
8.0
141
1.0
290
     0
  0
SCALE
  5
57
102
{ACAD_REACTORS
330
47
102
}
330
47
100
AcDbScale
 70
     0
300
10:1
140
10.0
141
1.0
290
     0
  0
SCALE
  5
58
102
{ACAD_REACTORS
330
47
102
}
330
47
100
AcDbScale
 70
     0
300
100:1
140
100.0
141
1.0
290
     0
  0
SCALE
  5
59
102
{ACAD_REACTORS
330
47
102
}
330
47
100
AcDbScale
 70
     0
300
1/128" = 1'-0"
140
0.0078125
141
12.0
290
     0
  0
SCALE
  5
5A
102
{ACAD_REACTORS
330
47
102
}
330
47
100
AcDbScale
 70
     0
300
1/64" = 1'-0"
140
0.015625
141
12.0
290
     0
  0
SCALE
  5
5B
102
{ACAD_REACTORS
330
47
102
}
330
47
100
AcDbScale
 70
     0
300
1/32" = 1'-0"
140
0.03125
141
12.0
290
     0
  0
SCALE
  5
5C
102
{ACAD_REACTORS
330
47
102
}
330
47
100
AcDbScale
 70
     0
300
1/16" = 1'-0"
140
0.0625
141
12.0
290
     0
  0
SCALE
  5
5D
102
{ACAD_REACTORS
330
47
102
}
330
47
100
AcDbScale
 70
     0
300
3/32" = 1'-0"
140
0.09375
141
12.0
290
     0
  0
SCALE
  5
5E
102
{ACAD_REACTORS
330
47
102
}
330
47
100
AcDbScale
 70
     0
300
1/8" = 1'-0"
140
0.125
141
12.0
290
     0
  0
SCALE
  5
5F
102
{ACAD_REACTORS
330
47
102
}
330
47
100
AcDbScale
 70
     0
300
3/16" = 1'-0"
140
0.1875
141
12.0
290
     0
  0
SCALE
  5
60
102
{ACAD_REACTORS
330
47
102
}
330
47
100
AcDbScale
 70
     0
300
1/4" = 1'-0"
140
0.25
141
12.0
290
     0
  0
SCALE
  5
61
102
{ACAD_REACTORS
330
47
102
}
330
47
100
AcDbScale
 70
     0
300
3/8" = 1'-0"
140
0.375
141
12.0
290
     0
  0
SCALE
  5
62
102
{ACAD_REACTORS
330
47
102
}
330
47
100
AcDbScale
 70
     0
300
1/2" = 1'-0"
140
0.5
141
12.0
290
     0
  0
SCALE
  5
63
102
{ACAD_REACTORS
330
47
102
}
330
47
100
AcDbScale
 70
     0
300
3/4" = 1'-0"
140
0.75
141
12.0
290
     0
  0
SCALE
  5
64
102
{ACAD_REACTORS
330
47
102
}
330
47
100
AcDbScale
 70
     0
300
1" = 1'-0"
140
1.0
141
12.0
290
     0
  0
SCALE
  5
65
102
{ACAD_REACTORS
330
47
102
}
330
47
100
AcDbScale
 70
     0
300
1-1/2" = 1'-0"
140
1.5
141
12.0
290
     0
  0
SCALE
  5
66
102
{ACAD_REACTORS
330
47
102
}
330
47
100
AcDbScale
 70
     0
300
3" = 1'-0"
140
3.0
141
12.0
290
     0
  0
SCALE
  5
67
102
{ACAD_REACTORS
330
47
102
}
330
47
100
AcDbScale
 70
     0
300
6" = 1'-0"
140
6.0
141
12.0
290
     0
  0
SCALE
  5
68
102
{ACAD_REACTORS
330
47
102
}
330
47
100
AcDbScale
 70
     0
300
1'-0" = 1'-0"
140
12.0
141
12.0
290
     0
  0
ENDSEC
  0
EOF
