  0
SECTION
  2
HEADER
  9
$ACADVER
  1
AC1015
  9
$ACADMAINTVER
 70
     6
  9
$DWGCODEPAGE
  3
ANSI_1251
  9
$INSBASE
 10
0.0
 20
0.0
 30
0.0
  9
$EXTMIN
 10
0.0
 20
-105.0
 30
0.0
  9
$EXTMAX
 10
321.8298022907
 20
105.0
 30
0.0
  9
$LIMMIN
 10
0.0
 20
0.0
  9
$LIMMAX
 10
420.0
 20
297.0
  9
$ORTHOMODE
 70
     0
  9
$REGENMODE
 70
     1
  9
$FILLMODE
 70
     1
  9
$QTEXTMODE
 70
     0
  9
$MIRRTEXT
 70
     1
  9
$LTSCALE
 40
1.0
  9
$ATTMODE
 70
     1
  9
$TEXTSIZE
 40
4.0
  9
$TRACEWID
 40
1.0
  9
$TEXTSTYLE
  7
Standard
  9
$CLAYER
  8
0
  9
$CELTYPE
  6
ByLayer
  9
$CECOLOR
 62
   256
  9
$CELTSCALE
 40
1.0
  9
$DISPSILH
 70
     0
  9
$DIMSCALE
 40
1.0
  9
$DIMASZ
 40
6.0
  9
$DIMEXO
 40
0.0
  9
$DIMDLI
 40
3.75
  9
$DIMRND
 40
0.0
  9
$DIMDLE
 40
0.0
  9
$DIMEXE
 40
1.0
  9
$DIMTP
 40
0.0
  9
$DIMTM
 40
0.0
  9
$DIMTXT
 40
4.0
  9
$DIMCEN
 40
2.5
  9
$DIMTSZ
 40
0.0
  9
$DIMTOL
 70
     0
  9
$DIMLIM
 70
     0
  9
$DIMTIH
 70
     1
  9
$DIMTOH
 70
     1
  9
$DIMSE1
 70
     0
  9
$DIMSE2
 70
     0
  9
$DIMTAD
 70
     1
  9
$DIMZIN
 70
     0
  9
$DIMBLK
  1

  9
$DIMASO
 70
     1
  9
$DIMSHO
 70
     1
  9
$DIMPOST
  1

  9
$DIMAPOST
  1

  9
$DIMALT
 70
     0
  9
$DIMALTD
 70
     3
  9
$DIMALTF
 40
0.0393700787
  9
$DIMLFAC
 40
1.0
  9
$DIMTOFL
 70
     1
  9
$DIMTVP
 40
0.0
  9
$DIMTIX
 70
     0
  9
$DIMSOXD
 70
     0
  9
$DIMSAH
 70
     0
  9
$DIMBLK1
  1

  9
$DIMBLK2
  1

  9
$DIMSTYLE
  2
ISO-25
  9
$DIMCLRD
 70
     0
  9
$DIMCLRE
 70
     0
  9
$DIMCLRT
 70
     0
  9
$DIMTFAC
 40
1.0
  9
$DIMGAP
 40
3.0
  9
$DIMJUST
 70
     0
  9
$DIMSD1
 70
     0
  9
$DIMSD2
 70
     0
  9
$DIMTOLJ
 70
     0
  9
$DIMTZIN
 70
     0
  9
$DIMALTZ
 70
     0
  9
$DIMALTTZ
 70
     0
  9
$DIMUPT
 70
     0
  9
$DIMDEC
 70
     2
  9
$DIMTDEC
 70
     4
  9
$DIMALTU
 70
     2
  9
$DIMALTTD
 70
     3
  9
$DIMTXSTY
  7
Standard
  9
$DIMAUNIT
 70
     0
  9
$DIMADEC
 70
     2
  9
$DIMALTRND
 40
0.0
  9
$DIMAZIN
 70
     0
  9
$DIMDSEP
 70
    44
  9
$DIMATFIT
 70
     3
  9
$DIMFRAC
 70
     0
  9
$DIMLDRBLK
  1

  9
$DIMLUNIT
 70
     2
  9
$DIMLWD
 70
    -2
  9
$DIMLWE
 70
    -2
  9
$DIMTMOVE
 70
     0
  9
$LUNITS
 70
     2
  9
$LUPREC
 70
     2
  9
$SKETCHINC
 40
1.0
  9
$FILLETRAD
 40
10.0
  9
$AUNITS
 70
     0
  9
$AUPREC
 70
     2
  9
$MENU
  1
.
  9
$ELEVATION
 40
0.0
  9
$PELEVATION
 40
0.0
  9
$THICKNESS
 40
0.0
  9
$LIMCHECK
 70
     0
  9
$CHAMFERA
 40
0.0
  9
$CHAMFERB
 40
0.0
  9
$CHAMFERC
 40
0.0
  9
$CHAMFERD
 40
0.0
  9
$SKPOLY
 70
     0
  9
$TDCREATE
 40
2460059.560247766
  9
$TDUCREATE
 40
2460059.435247766
  9
$TDUPDATE
 40
2460059.560304908
  9
$TDUUPDATE
 40
2460059.435304908
  9
$TDINDWG
 40
0.0000000116
  9
$TDUSRTIMER
 40
0.0000000116
  9
$USRTIMER
 70
     1
  9
$ANGBASE
 50
0.0
  9
$ANGDIR
 70
     0
  9
$PDMODE
 70
     0
  9
$PDSIZE
 40
-1.0
  9
$PLINEWID
 40
0.0
  9
$SPLFRAME
 70
     0
  9
$SPLINETYPE
 70
     6
  9
$SPLINESEGS
 70
     8
  9
$HANDSEED
  5
93
  9
$SURFTAB1
 70
     6
  9
$SURFTAB2
 70
     6
  9
$SURFTYPE
 70
     6
  9
$SURFU
 70
     6
  9
$SURFV
 70
     6
  9
$UCSBASE
  2

  9
$UCSNAME
  2

  9
$UCSORG
 10
0.0
 20
0.0
 30
0.0
  9
$UCSXDIR
 10
1.0
 20
0.0
 30
0.0
  9
$UCSYDIR
 10
0.0
 20
1.0
 30
0.0
  9
$UCSORTHOREF
  2

  9
$UCSORTHOVIEW
 70
     0
  9
$UCSORGTOP
 10
0.0
 20
0.0
 30
0.0
  9
$UCSORGBOTTOM
 10
0.0
 20
0.0
 30
0.0
  9
$UCSORGLEFT
 10
0.0
 20
0.0
 30
0.0
  9
$UCSORGRIGHT
 10
0.0
 20
0.0
 30
0.0
  9
$UCSORGFRONT
 10
0.0
 20
0.0
 30
0.0
  9
$UCSORGBACK
 10
0.0
 20
0.0
 30
0.0
  9
$PUCSBASE
  2

  9
$PUCSNAME
  2

  9
$PUCSORG
 10
0.0
 20
0.0
 30
0.0
  9
$PUCSXDIR
 10
1.0
 20
0.0
 30
0.0
  9
$PUCSYDIR
 10
0.0
 20
1.0
 30
0.0
  9
$PUCSORTHOREF
  2

  9
$PUCSORTHOVIEW
 70
     0
  9
$PUCSORGTOP
 10
0.0
 20
0.0
 30
0.0
  9
$PUCSORGBOTTOM
 10
0.0
 20
0.0
 30
0.0
  9
$PUCSORGLEFT
 10
0.0
 20
0.0
 30
0.0
  9
$PUCSORGRIGHT
 10
0.0
 20
0.0
 30
0.0
  9
$PUCSORGFRONT
 10
0.0
 20
0.0
 30
0.0
  9
$PUCSORGBACK
 10
0.0
 20
0.0
 30
0.0
  9
$USERI1
 70
     0
  9
$USERI2
 70
     0
  9
$USERI3
 70
     0
  9
$USERI4
 70
     0
  9
$USERI5
 70
     0
  9
$USERR1
 40
0.0
  9
$USERR2
 40
0.0
  9
$USERR3
 40
0.0
  9
$USERR4
 40
0.0
  9
$USERR5
 40
0.0
  9
$WORLDVIEW
 70
     1
  9
$SHADEDGE
 70
     3
  9
$SHADEDIF
 70
    70
  9
$TILEMODE
 70
     1
  9
$MAXACTVP
 70
    64
  9
$PINSBASE
 10
0.0
 20
0.0
 30
0.0
  9
$PLIMCHECK
 70
     0
  9
$PEXTMIN
 10
1.0000000000E+20
 20
1.0000000000E+20
 30
1.0000000000E+20
  9
$PEXTMAX
 10
-1.0000000000E+20
 20
-1.0000000000E+20
 30
-1.0000000000E+20
  9
$PLIMMIN
 10
0.0
 20
0.0
  9
$PLIMMAX
 10
420.0
 20
297.0
  9
$UNITMODE
 70
     0
  9
$VISRETAIN
 70
     1
  9
$PLINEGEN
 70
     0
  9
$PSLTSCALE
 70
     1
  9
$TREEDEPTH
 70
  3020
  9
$CMLSTYLE
  2
Standard
  9
$CMLJUST
 70
     0
  9
$CMLSCALE
 40
20.0
  9
$PROXYGRAPHICS
 70
     1
  9
$MEASUREMENT
 70
     1
  9
$CELWEIGHT
370
    -1
  9
$ENDCAPS
280
     0
  9
$JOINSTYLE
280
     0
  9
$LWDISPLAY
290
     1
  9
$INSUNITS
 70
     4
  9
$HYPERLINKBASE
  1

  9
$STYLESHEET
  1

  9
$XEDIT
290
     1
  9
$CEPSNTYPE
380
     0
  9
$PSTYLEMODE
290
     1
  9
$FINGERPRINTGUID
  2
{1ece8aa7-fa71-490f-8c71-d4ac43570c98}
  9
$VERSIONGUID
  2
{FAEB1C32-E019-11D5-929B-00C0DF256EC4}
  9
$EXTNAMES
290
     1
  9
$PSVPSCALE
 40
0.0
  9
$OLESTARTUP
290
     0
  0
ENDSEC
  0
SECTION
  2
CLASSES
  0
CLASS
  1
ACDBDICTIONARYWDFLT
  2
AcDbDictionaryWithDefault
  3
ObjectDBX Classes
 90
        0
280
     0
281
     0
  0
CLASS
  1
VISUALSTYLE
  2
AcDbVisualStyle
  3
ObjectDBX Classes
 90
     4095
280
     0
281
     0
  0
CLASS
  1
MATERIAL
  2
AcDbMaterial
  3
ObjectDBX Classes
 90
     1153
280
     0
281
     0
  0
CLASS
  1
SCALE
  2
AcDbScale
  3
ObjectDBX Classes
 90
     1153
280
     0
281
     0
  0
CLASS
  1
TABLESTYLE
  2
AcDbTableStyle
  3
ObjectDBX Classes
 90
     4095
280
     0
281
     0
  0
CLASS
  1
MLEADERSTYLE
  2
AcDbMLeaderStyle
  3
ACDB_MLEADERSTYLE_CLASS
 90
     4095
280
     0
281
     0
  0
CLASS
  1
SUN
  2
AcDbSun
  3
SCENEOE
 90
     1153
280
     0
281
     0
  0
CLASS
  1
ACDBPLACEHOLDER
  2
AcDbPlaceHolder
  3
ObjectDBX Classes
 90
        0
280
     0
281
     0
  0
CLASS
  1
LAYOUT
  2
AcDbLayout
  3
ObjectDBX Classes
 90
        0
280
     0
281
     0
  0
ENDSEC
  0
SECTION
  2
TABLES
  0
TABLE
  2
VPORT
  5
8
330
0
100
AcDbSymbolTable
 70
     1
  0
VPORT
  5
29
330
8
100
AcDbSymbolTableRecord
100
AcDbViewportTableRecord
  2
*Active
 70
     0
 10
0.0
 20
0.0
 11
1.0
 21
1.0
 12
160.9149011454
 22
0.0
 13
0.0
 23
0.0
 14
10.0
 24
10.0
 15
10.0
 25
10.0
 16
0.0
 26
0.0
 36
1.0
 17
0.0
 27
0.0
 37
0.0
 40
214.2
 41
1.5325228681
 42
50.0
 43
0.0
 44
0.0
 50
0.0
 51
0.0
 71
     0
 72
   100
 73
     1
 74
     3
 75
     0
 76
     0
 77
     0
 78
     0
281
     0
 65
     1
110
0.0
120
0.0
130
0.0
111
1.0
121
0.0
131
0.0
112
0.0
122
1.0
132
0.0
 79
     0
146
0.0
  0
ENDTAB
  0
TABLE
  2
LTYPE
  5
5
330
0
100
AcDbSymbolTable
 70
     6
  0
LTYPE
  5
14
330
5
100
AcDbSymbolTableRecord
100
AcDbLinetypeTableRecord
  2
ByBlock
 70
     0
  3

 72
    65
 73
     0
 40
0.0
  0
LTYPE
  5
15
330
5
100
AcDbSymbolTableRecord
100
AcDbLinetypeTableRecord
  2
ByLayer
 70
     0
  3

 72
    65
 73
     0
 40
0.0
  0
LTYPE
  5
16
330
5
100
AcDbSymbolTableRecord
100
AcDbLinetypeTableRecord
  2
Continuous
 70
     0
  3
Solid line
 72
    65
 73
     0
 40
0.0
  0
LTYPE
  5
6E
330
5
100
AcDbSymbolTableRecord
100
AcDbLinetypeTableRecord
  2
HIDDEN
 70
     0
  3
Hidden __ __ __ __ __ __ __ __ __ __ __ __ __ __
 72
    65
 73
     2
 40
1.905
 49
1.27
 74
     0
 49
-0.635
 74
     0
  0
LTYPE
  5
6F
330
5
100
AcDbSymbolTableRecord
100
AcDbLinetypeTableRecord
  2
PHANTOM
 70
     0
  3
Phantom ______  __  __  ______  __  __  ______
 72
    65
 73
     6
 40
12.7
 49
6.35
 74
     0
 49
-1.27
 74
     0
 49
1.27
 74
     0
 49
-1.27
 74
     0
 49
1.27
 74
     0
 49
-1.27
 74
     0
  0
LTYPE
  5
70
330
5
100
AcDbSymbolTableRecord
100
AcDbLinetypeTableRecord
  2
CENTER
 70
     0
  3
Center ____ _ ____ _ ____ _ ____ _ ____ _ ____
 72
    65
 73
     4
 40
10.16
 49
6.35
 74
     0
 49
-1.27
 74
     0
 49
1.27
 74
     0
 49
-1.27
 74
     0
  0
LTYPE
  5
71
330
5
100
AcDbSymbolTableRecord
100
AcDbLinetypeTableRecord
  2
CENTERX2
 70
     0
  3
Center (2x) ________  __  ________  __  _____
 72
    65
 73
     4
 40
20.32
 49
12.7
 74
     0
 49
-2.54
 74
     0
 49
2.54
 74
     0
 49
-2.54
 74
     0
  0
LTYPE
  5
72
330
5
100
AcDbSymbolTableRecord
100
AcDbLinetypeTableRecord
  2
DOT2
 70
     0
  3
Dot (.5x) ........................................
 72
    65
 73
     2
 40
0.635
 49
0.0
 74
     0
 49
-0.635
 74
     0
  0
ENDTAB
  0
TABLE
  2
LAYER
  5
2
330
0
100
AcDbSymbolTable
 70
     1
  0
LAYER
  5
10
330
2
100
AcDbSymbolTableRecord
100
AcDbLayerTableRecord
  2
0
 70
     0
 62
     7
  6
Continuous
370
    -3
390
F
  0
ENDTAB
  0
TABLE
  2
STYLE
  5
3
330
0
100
AcDbSymbolTable
 70
     1
  0
STYLE
  5
11
330
3
100
AcDbSymbolTableRecord
100
AcDbTextStyleTableRecord
  2
Standard
 70
     0
 40
0.0
 41
1.0
 50
0.0
 71
     0
 42
4.0
  3
txt
  4

  0
ENDTAB
  0
TABLE
  2
VIEW
  5
6
330
0
100
AcDbSymbolTable
 70
     0
  0
ENDTAB
  0
TABLE
  2
UCS
  5
7
330
0
100
AcDbSymbolTable
 70
     0
  0
ENDTAB
  0
TABLE
  2
APPID
  5
9
330
0
100
AcDbSymbolTable
 70
     1
  0
APPID
  5
12
330
9
100
AcDbSymbolTableRecord
100
AcDbRegAppTableRecord
  2
ACAD
 70
     0
  0
ENDTAB
  0
TABLE
  2
DIMSTYLE
  5
A
330
0
100
AcDbSymbolTable
 70
     1
100
AcDbDimStyleTable
  0
DIMSTYLE
105
27
330
A
100
AcDbSymbolTableRecord
100
AcDbDimStyleTableRecord
  2
ISO-25
 70
     0
 41
2.5
 42
0.625
 43
3.75
 44
1.25
 73
     0
 74
     0
 77
     1
 78
     8
140
2.5
141
2.5
143
0.0393700787
147
0.625
171
     3
172
     1
178
     0
271
     2
272
     2
274
     3
278
    44
283
     0
284
     8
340
11
  0
ENDTAB
  0
TABLE
  2
BLOCK_RECORD
  5
1
330
0
100
AcDbSymbolTable
 70
     1
  0
BLOCK_RECORD
  5
1F
330
1
100
AcDbSymbolTableRecord
100
AcDbBlockTableRecord
  2
*Model_Space
340
22
  0
BLOCK_RECORD
  5
1B
330
1
100
AcDbSymbolTableRecord
100
AcDbBlockTableRecord
  2
*Paper_Space
340
1E
  0
BLOCK_RECORD
  5
23
330
1
100
AcDbSymbolTableRecord
100
AcDbBlockTableRecord
  2
*Paper_Space0
340
26
  0
ENDTAB
  0
ENDSEC
  0
SECTION
  2
BLOCKS
  0
BLOCK
  5
20
330
1F
100
AcDbEntity
  8
0
100
AcDbBlockBegin
  2
*Model_Space
 70
     0
 10
0.0
 20
0.0
 30
0.0
  3
*Model_Space
  1

  0
ENDBLK
  5
21
330
1F
100
AcDbEntity
  8
0
100
AcDbBlockEnd
  0
BLOCK
  5
1C
330
1B
100
AcDbEntity
 67
     1
  8
0
100
AcDbBlockBegin
  2
*Paper_Space
 70
     0
 10
0.0
 20
0.0
 30
0.0
  3
*Paper_Space
  1

  0
ENDBLK
  5
1D
330
1B
100
AcDbEntity
 67
     1
  8
0
100
AcDbBlockEnd
  0
BLOCK
  5
24
330
23
100
AcDbEntity
  8
0
100
AcDbBlockBegin
  2
*Paper_Space0
 70
     0
 10
0.0
 20
0.0
 30
0.0
  3
*Paper_Space0
  1

  0
ENDBLK
  5
25
330
23
100
AcDbEntity
  8
0
100
AcDbBlockEnd
  0
ENDSEC
  0
SECTION
  2
ENTITIES
  0
SPLINE
  5
73
330
1F
100
AcDbEntity
  8
0
  6
Continuous
 62
     7
370
    25
100
AcDbSpline
210
0.0
220
0.0
230
1.0
 70
    11
 71
     3
 72
    39
 73
    35
 74
     0
 42
0.00000001
 43
0.00000001
 40
0.0
 40
0.0
 40
0.0
 40
0.0
 40
0.0312324712155942
 40
0.0625015955596626
 40
0.0937533443170964
 40
0.125004320415622
 40
0.1563164135330832
 40
0.1875045716267091
 40
0.2187916052552919
 40
0.2499999983595248
 40
0.2811928965942325
 40
0.3124954830613867
 40
0.3436720782521712
 40
0.3749957996939131
 40
0.4062341165008624
 40
0.4374983475931455
 40
0.4687569852769402
 40
0.4999998382695717
 40
0.5312270203038766
 40
0.562501296214996
 40
0.5937473965522236
 40
0.6250040451047685
 40
0.6563105322593533
 40
0.6875042946107274
 40
0.7187914038066765
 40
0.7499997937828629
 40
0.7811997779241272
 40
0.812495322429412
 40
0.843675156911488
 40
0.874995617413353
 40
0.9062306825431061
 40
0.9374982558338095
 40
0.9687573474433185
 40
1.0
 40
1.0
 40
1.0
 40
1.0
 10
78.28580755925371
 20
-83.99999928895754
 30
0.0
 10
77.69365254636544
 20
-84.00021229696274
 30
0.0
 10
76.50861439990265
 20
-83.88812328565119
 30
0.0
 10
74.79983812403522
 20
-83.37048699030278
 30
0.0
 10
73.21795021266911
 20
-82.54190480693535
 30
0.0
 10
71.83054389366784
 20
-81.41636638689303
 30
0.0
 10
70.67940980484414
 20
-80.05138376790435
 30
0.0
 10
69.82492130642946
 20
-78.48256477551988
 30
0.0
 10
69.28799981753716
 20
-76.78034986005297
 30
0.0
 10
69.11213594381779
 20
-75.00391240149382
 30
0.0
 10
69.28640645139352
 20
-73.22702535173808
 30
0.0
 10
69.82190163884512
 20
-71.52456995058216
 30
0.0
 10
70.67519242012163
 20
-69.95478096365433
 30
0.0
 10
71.82505584243266
 20
-68.58901907699382
 30
0.0
 10
73.21170345855317
 20
-67.46222108698315
 30
0.0
 10
74.79273792792712
 20
-66.63242629441818
 30
0.0
 10
76.50128845164804
 20
-66.11328014027114
 30
0.0
 10
78.27828312021381
 20
-65.94374259780814
 30
0.0
 10
80.0556876268488
 20
-66.11186754845852
 30
0.0
 10
81.76437370249114
 20
-66.6294276115563
 30
0.0
 10
83.34635867622424
 20
-67.4580292300058
 30
0.0
 10
84.73370558159458
 20
-68.58347761727971
 30
0.0
 10
85.88494131207453
 20
-69.94851436803867
 30
0.0
 10
86.73942400981683
 20
-71.51733394593163
 30
0.0
 10
87.27651573416838
 20
-73.21961516460861
 30
0.0
 10
87.45225350337778
 20
-74.99620658545516
 30
0.0
 10
87.27801454560883
 20
-76.77309339653992
 30
0.0
 10
86.74244952258748
 20
-78.47560042776033
 30
0.0
 10
85.88910238782756
 20
-80.04519820813087
 30
0.0
 10
84.73937567115168
 20
-81.41098466330376
 30
0.0
 10
83.35274890062617
 20
-82.53772446567248
 30
0.0
 10
81.77172406916908
 20
-83.36754041862618
 30
0.0
 10
80.06313017491983
 20
-83.8868077212268
 30
0.0
 10
78.87815560624809
 20
-83.99978621151476
 30
0.0
 10
78.2858075592537
 20
-83.99999928895754
 30
0.0
  0
SPLINE
  5
74
330
1F
100
AcDbEntity
  8
0
  6
Continuous
 62
     7
370
    25
100
AcDbSpline
210
0.0
220
0.0
230
1.0
 70
    11
 71
     3
 72
    36
 73
    32
 74
     0
 42
0.00000001
 43
0.00000001
 40
0.0
 40
0.0
 40
0.0
 40
0.0
 40
0.0624894961015251
 40
0.0625069279601507
 40
0.1249860461503518
 40
0.1250106507689471
 40
0.1874905786034855
 40
0.1875079767682384
 40
0.2499997556163008
 40
0.2499997676510833
 40
0.3124913267664153
 40
0.3125087149394423
 40
0.3749886620026115
 40
0.3750132461272999
 40
0.4374923671250858
 40
0.4375097807953016
 40
0.4999997394129709
 40
0.5624897313571215
 40
0.5625071528825103
 40
0.6249862746008527
 40
0.6250108923283543
 40
0.687490488252789
 40
0.6875078889077131
 40
0.7499997387243034
 40
0.8124915600037831
 40
0.8125089479321523
 40
0.8749888611878608
 40
0.8750134508066894
 40
0.9374925995980519
 40
0.9375100136248755
 40
1.0
 40
1.0
 40
1.0
 40
1.0
 10
156.5644114843026
 20
-37.54999999999777
 30
0.0
 10
156.8861230095555
 20
-37.54999999854365
 30
0.0
 10
157.2079242429074
 20
-37.61331086360403
 30
0.0
 10
157.8033158713438
 20
-37.85739110664871
 30
0.0
 10
158.0770983285458
 20
-38.03824491612646
 30
0.0
 10
158.5345954884165
 20
-38.49080447246916
 30
0.0
 10
158.7185183879862
 20
-38.76272137262579
 30
0.0
 10
158.9672052229362
 20
-39.35632513840653
 30
0.0
 10
159.0320495357123
 20
-39.67820547670789
 30
0.0
 10
159.0320505134342
 20
-40.32178594548552
 30
0.0
 10
158.9672076439316
 20
-40.64366525943763
 30
0.0
 10
158.7185238848338
 20
-41.23726912014097
 30
0.0
 10
158.534602241406
 20
-41.50918681539645
 30
0.0
 10
158.0771071102587
 20
-41.96174842580154
 30
0.0
 10
157.8033256273902
 20
-42.14260335316315
 30
0.0
 10
157.2079328929887
 20
-42.38668714610426
 30
0.0
 10
156.5644154326154
 20
-42.51329418521529
 30
0.0
 10
155.9208975187121
 20
-42.38668916322339
 30
0.0
 10
155.3255038795368
 20
-42.14260710373379
 30
0.0
 10
155.0517216754825
 20
-41.961752870187
 30
0.0
 10
154.5942263816806
 20
-41.50919379216797
 30
0.0
 10
154.4103046074325
 20
-41.23727825708443
 30
0.0
 10
154.1616179888417
 20
-40.64367585401435
 30
0.0
 10
154.0319471234791
 20
-40.00000430040291
 30
0.0
 10
154.1616157270507
 20
-39.35633238771164
 30
0.0
 10
154.4103008055703
 20
-38.76272781225843
 30
0.0
 10
154.5942227721414
 20
-38.49081054170467
 30
0.0
 10
155.0517185015933
 20
-38.0382495403114
 30
0.0
 10
155.3255003675913
 20
-37.85739486859089
 30
0.0
 10
155.9208936984766
 20
-37.61331184466106
 30
0.0
 10
156.2426974349988
 20
-37.55000000145188
 30
0.0
 10
156.5644114843026
 20
-37.54999999999777
 30
0.0
  0
SPLINE
  5
75
330
1F
100
AcDbEntity
  8
0
  6
Continuous
 62
     7
370
    25
100
AcDbSpline
210
0.0
220
0.0
230
1.0
 70
    11
 71
     3
 72
    36
 73
    32
 74
     0
 42
0.00000001
 43
0.00000001
 40
0.0
 40
0.0
 40
0.0
 40
0.0
 40
0.0624894961015271
 40
0.0625069279601541
 40
0.1249860461503537
 40
0.1250106507689479
 40
0.1874905786034856
 40
0.1875079767682437
 40
0.2499997556163023
 40
0.2499997676510872
 40
0.3124913267664194
 40
0.3125087149394439
 40
0.3749886620026166
 40
0.3750132461273015
 40
0.4374923671250919
 40
0.4375097807953089
 40
0.4999997394129733
 40
0.5624897313571262
 40
0.5625071528825146
 40
0.6249862746008547
 40
0.6250108923283566
 40
0.6874904882527928
 40
0.6875078889077189
 40
0.7499997387243071
 40
0.812491560003786
 40
0.812508947932155
 40
0.8749888611878639
 40
0.8750134508066915
 40
0.9374925995980533
 40
0.9375100136248756
 40
1.0
 40
1.0
 40
1.0
 40
1.0
 10
156.5644114843027
 20
-49.54999999999774
 30
0.0
 10
156.8861230095556
 20
-49.5499999985436
 30
0.0
 10
157.2079242429076
 20
-49.61331086360398
 30
0.0
 10
157.803315871344
 20
-49.85739110664867
 30
0.0
 10
158.0770983285458
 20
-50.03824491612647
 30
0.0
 10
158.5345954884167
 20
-50.49080447246915
 30
0.0
 10
158.7185183879865
 20
-50.76272137262575
 30
0.0
 10
158.9672052229365
 20
-51.35632513840645
 30
0.0
 10
159.0320495357125
 20
-51.67820547670784
 30
0.0
 10
159.0320505134343
 20
-52.32178594548547
 30
0.0
 10
158.9672076439318
 20
-52.64366525943761
 30
0.0
 10
158.718523884834
 20
-53.23726912014093
 30
0.0
 10
158.5346022414062
 20
-53.5091868153964
 30
0.0
 10
158.0771071102589
 20
-53.9617484258015
 30
0.0
 10
157.8033256273904
 20
-54.14260335316312
 30
0.0
 10
157.2079328929889
 20
-54.38668714610428
 30
0.0
 10
156.5644154326156
 20
-54.51329418521528
 30
0.0
 10
155.9208975187123
 20
-54.3866891632234
 30
0.0
 10
155.325503879537
 20
-54.14260710373379
 30
0.0
 10
155.0517216754827
 20
-53.96175287018698
 30
0.0
 10
154.5942263816809
 20
-53.50919379216796
 30
0.0
 10
154.4103046074327
 20
-53.23727825708443
 30
0.0
 10
154.1616179888419
 20
-52.6436758540144
 30
0.0
 10
154.0319471234795
 20
-52.00000430040292
 30
0.0
 10
154.161615727051
 20
-51.35633238771165
 30
0.0
 10
154.4103008055705
 20
-50.76272781225843
 30
0.0
 10
154.5942227721415
 20
-50.49081054170468
 30
0.0
 10
155.0517185015935
 20
-50.0382495403114
 30
0.0
 10
155.3255003675915
 20
-49.85739486859091
 30
0.0
 10
155.9208936984767
 20
-49.61331184466103
 30
0.0
 10
156.2426974349989
 20
-49.55000000145188
 30
0.0
 10
156.5644114843027
 20
-49.54999999999774
 30
0.0
  0
SPLINE
  5
76
330
1F
100
AcDbEntity
  8
0
  6
Continuous
 62
     7
370
    25
100
AcDbSpline
210
0.0
220
0.0
230
1.0
 70
    11
 71
     3
 72
    35
 73
    31
 74
     0
 42
0.00000001
 43
0.00000001
 40
0.0
 40
0.0
 40
0.0
 40
0.0
 40
0.0624896945391052
 40
0.0625071795472268
 40
0.1249866606543645
 40
0.1250113551223288
 40
0.1874913301603987
 40
0.1875088209525965
 40
0.2499999129569995
 40
0.3124907862442858
 40
0.3125082761239139
 40
0.3749882845387033
 40
0.3750129747058349
 40
0.4374924396952186
 40
0.4375099187921488
 40
0.499999862351778
 40
0.5624898117990376
 40
0.5625072916827905
 40
0.6249867649442206
 40
0.6250114832806177
 40
0.6874911412881478
 40
0.6875086330951811
 40
0.749999807027763
 40
0.8124909201769452
 40
0.8125084103620844
 40
0.8749883848792213
 40
0.8750130734118271
 40
0.9374925553502809
 40
0.9375100324012658
 40
1.0
 40
1.0
 40
1.0
 40
1.0
 10
234.8466172264535
 20
-78.24999999999666
 30
0.0
 10
234.4198078692828
 20
-78.24999999956488
 30
0.0
 10
233.992879115401
 20
-78.16598672634015
 30
0.0
 10
233.2029714298297
 20
-77.84218913652452
 30
0.0
 10
232.8397370253122
 20
-77.60229194156733
 30
0.0
 10
232.2326408696906
 20
-77.00202355531685
 30
0.0
 10
231.9885011483701
 20
-76.64137176108294
 30
0.0
 10
231.6583359402558
 20
-75.85394530687765
 30
0.0
 10
231.4860912118948
 20
-75.0000033027386
 30
0.0
 10
231.6583344765669
 20
-74.14606125836985
 30
0.0
 10
231.9884971918376
 20
-73.35863520978792
 30
0.0
 10
232.2326360930968
 20
-72.99798261050339
 30
0.0
 10
232.8397308609399
 20
-72.3977127253162
 30
0.0
 10
233.2029645458625
 20
-72.15781478759119
 30
0.0
 10
233.9928729374175
 20
-71.83401471050591
 30
0.0
 10
234.8466143475929
 20
-71.66600956159172
 30
0.0
 10
235.7003560550327
 20
-71.83401321976424
 30
0.0
 10
236.4902650801363
 20
-72.15781199206045
 30
0.0
 10
236.853499386668
 20
-72.39770948659762
 30
0.0
 10
237.460593565513
 20
-72.9979768756352
 30
0.0
 10
237.7047320764559
 20
-73.35862687019089
 30
0.0
 10
238.0348975419592
 20
-74.14605142735095
 30
0.0
 10
238.207143627543
 20
-74.99999548888464
 30
0.0
 10
238.0348999322275
 20
-75.85393996950415
 30
0.0
 10
237.7047360051659
 20
-76.64136705459883
 30
0.0
 10
237.4605969137808
 20
-77.00201921509907
 30
0.0
 10
236.8535018189403
 20
-77.60228861256624
 30
0.0
 10
236.4902679179574
 20
-77.8421863894534
 30
0.0
 10
235.7003590676376
 20
-78.1659860046422
 30
0.0
 10
235.2734284486422
 20
-78.25000000042846
 30
0.0
 10
234.8466172264535
 20
-78.24999999999666
 30
0.0
  0
SPLINE
  5
77
330
1F
100
AcDbEntity
  8
0
  6
Continuous
 62
     7
370
    25
100
AcDbSpline
210
0.0
220
0.0
230
1.0
 70
    11
 71
     3
 72
    37
 73
    33
 74
     0
 42
0.00000001
 43
0.00000001
 40
0.0
 40
0.0
 40
0.0
 40
0.0
 40
0.0624915131707766
 40
0.062508964591208
 40
0.1249880686244661
 40
0.1250127724634452
 40
0.1874904820648881
 40
0.1875079699535726
 40
0.2499976380659183
 40
0.249997675742182
 40
0.3124899963147785
 40
0.312507493809695
 40
0.374989760186231
 40
0.3750145629863784
 40
0.4374943908105196
 40
0.4375120989320257
 40
0.4999997862163045
 40
0.5624875360796044
 40
0.5625052555821072
 40
0.624985190519016
 40
0.6250099988966771
 40
0.6874922918474728
 40
0.68750979713274
 40
0.7500020349338858
 40
0.7500020808068417
 40
0.8124917011890581
 40
0.8125091820337976
 40
0.8749869029691589
 40
0.8750115990968195
 40
0.9374907306046594
 40
0.9375081733753893
 40
1.0
 40
1.0
 40
1.0
 40
1.0
 10
42.16310952726057
 20
-18.79999999999936
 30
0.0
 10
42.16310952294855
 20
-18.33999992813794
 30
0.0
 10
42.25577221030382
 20
-17.87987142956814
 30
0.0
 10
42.61125740060084
 20
-17.03130713073568
 30
0.0
 10
42.87419383104812
 20
-16.64259328664029
 30
0.0
 10
43.5283982107893
 20
-15.99587434370287
 30
0.0
 10
43.91996367551576
 20
-15.73756525680472
 30
0.0
 10
44.77139996878025
 20
-15.38945421775203
 30
0.0
 10
45.23154842058211
 20
-15.29953538593463
 30
0.0
 10
46.15132663705937
 20
-15.30046850493159
 30
0.0
 10
46.61121411366958
 20
-15.39132840703801
 30
0.0
 10
47.46239504696509
 20
-15.74012033089981
 30
0.0
 10
47.8539647353709
 20
-15.99817480369353
 30
0.0
 10
48.50910506318541
 20
-16.64397041268987
 30
0.0
 10
48.77298325606601
 20
-17.03200937788148
 30
0.0
 10
49.13007641957931
 20
-17.87989073297278
 30
0.0
 10
49.31673555792615
 20
-18.79999553685663
 30
0.0
 10
49.13007880288861
 20
-19.72010097405482
 30
0.0
 10
48.77298708731593
 20
-20.56798440753186
 30
0.0
 10
48.5091090795233
 20
-20.95602468726022
 30
0.0
 10
47.85396899659503
 20
-21.60182202954403
 30
0.0
 10
47.46239940954375
 20
-21.85987721897517
 30
0.0
 10
46.61121926904241
 20
-22.20867012725257
 30
0.0
 10
46.15133245966227
 20
-22.299530645703
 30
0.0
 10
45.23155516070246
 20
-22.30046540818071
 30
0.0
 10
44.77140689778827
 20
-22.21054752493294
 30
0.0
 10
43.91997017457397
 20
-21.86243839041107
 30
0.0
 10
43.52840418770023
 20
-21.60413013996257
 30
0.0
 10
42.8741982649517
 20
-20.95741243623341
 30
0.0
 10
42.61126096336765
 20
-20.56869908230962
 30
0.0
 10
42.2557731441861
 20
-19.72013318784733
 30
0.0
 10
42.16310953157262
 20
-19.26000237919468
 30
0.0
 10
42.16310952726057
 20
-18.79999999999936
 30
0.0
  0
SPLINE
  5
78
330
1F
100
AcDbEntity
  8
0
  6
Continuous
 62
     7
370
    25
100
AcDbSpline
210
0.0
220
0.0
230
1.0
 70
    11
 71
     3
 72
    37
 73
    33
 74
     0
 42
0.00000001
 43
0.00000001
 40
0.0
 40
0.0
 40
0.0
 40
0.0
 40
0.0624877015154087
 40
0.0625054241020951
 40
0.1249852582656172
 40
0.1250100755350511
 40
0.1874923445842493
 40
0.1875098573995628
 40
0.2500021240049524
 40
0.2500021769382749
 40
0.3124918343366225
 40
0.3125093079807512
 40
0.3749870415599947
 40
0.3750117299928413
 40
0.4374908712129214
 40
0.4375083065494283
 40
0.5000001208765706
 40
0.5624919274975048
 40
0.5625093790699336
 40
0.624988488225142
 40
0.6250131927145814
 40
0.6874908972085052
 40
0.6875083852364193
 40
0.7499980141503158
 40
0.7499980525180954
 40
0.8124903097301475
 40
0.8125078055568233
 40
0.8749901153807823
 40
0.8750149174286213
 40
0.9374948271982767
 40
0.9375125388033113
 40
1.0
 40
1.0
 40
1.0
 40
1.0
 10
107.3409916524768
 20
-18.79999999999843
 30
0.0
 10
107.3409916561452
 20
-18.34001277974926
 30
0.0
 10
107.4343338214427
 20
-17.87989507194326
 30
0.0
 10
107.7914260428905
 20
-17.03201302858123
 30
0.0
 10
108.0553039486855
 20
-16.64397354391287
 30
0.0
 10
108.7104437143879
 20
-15.99817711231398
 30
0.0
 10
109.102013345937
 20
-15.74012210497991
 30
0.0
 10
109.9531936931832
 20
-15.39132945648838
 30
0.0
 10
110.4130808773373
 20
-15.30046908960355
 30
0.0
 10
111.3328587226593
 20
-15.29953485651862
 30
0.0
 10
111.7930072076628
 20
-15.3894531194297
 30
0.0
 10
112.6444439421852
 20
-15.73756305918221
 30
0.0
 10
113.0360097036538
 20
-15.99587162880842
 30
0.0
 10
113.6902151441379
 20
-16.64258997833327
 30
0.0
 10
113.9531520816793
 20
-17.03130353957043
 30
0.0
 10
114.3086391049602
 20
-17.87986967620251
 30
0.0
 10
114.4939396263716
 20
-18.80000272516525
 30
0.0
 10
114.3086376343233
 20
-19.72013559126299
 30
0.0
 10
113.9531493434878
 20
-20.56870100594435
 30
0.0
 10
113.6902118320186
 20
-20.95741416374583
 30
0.0
 10
113.0360057054913
 20
-21.60413134172607
 30
0.0
 10
112.6444395906202
 20
-21.86243937517878
 30
0.0
 10
111.7930026935179
 20
-22.21054806898773
 30
0.0
 10
111.3328543151277
 20
-22.30046570415507
 30
0.0
 10
110.4130768641486
 20
-22.29953041370455
 30
0.0
 10
109.9531900860799
 20
-22.20866960863124
 30
0.0
 10
109.1020099884311
 20
-21.85987606734059
 30
0.0
 10
108.7104405643399
 20
-21.60182060051396
 30
0.0
 10
108.0553010357669
 20
-20.9560228488006
 30
0.0
 10
107.7914234564727
 20
-20.56798264310384
 30
0.0
 10
107.4343330725096
 20
-19.72010125458324
 30
0.0
 10
107.3409916488084
 20
-19.25998545120286
 30
0.0
 10
107.3409916524768
 20
-18.79999999999843
 30
0.0
  0
SPLINE
  5
7E
330
1F
100
AcDbEntity
  8
0
  6
Continuous
 62
     7
370
    25
100
AcDbSpline
210
0.0
220
0.0
230
1.0
 70
     8
 71
     3
 72
     9
 73
     5
 74
     0
 42
0.00000001
 43
0.00000001
 40
0.0
 40
0.0
 40
0.0
 40
0.0
 40
0.7904827941427345
 40
1.0
 40
1.0
 40
1.0
 40
1.0
 10
156.5644114843028
 20
-49.54999999999774
 30
0.0
 10
156.2866511536993
 20
-49.56164268747654
 30
0.0
 10
155.9352705383823
 20
-49.57637126546086
 30
0.0
 10
155.6407235213545
 20
-49.75306747114374
 30
0.0
 10
155.5790108533532
 20
-49.790088366444
 30
0.0
  0
SPLINE
  5
7F
330
1F
100
AcDbEntity
  8
0
  6
Continuous
 62
     7
370
    25
100
AcDbSpline
210
0.0
220
0.0
230
1.0
 70
     8
 71
     3
 72
    10
 73
     6
 74
     0
 42
0.00000001
 43
0.00000001
 40
0.0
 40
0.0
 40
0.0
 40
0.0
 40
0.3405989720620873
 40
0.6813574738912899
 40
0.9999999999999999
 40
0.9999999999999999
 40
0.9999999999999999
 40
0.9999999999999999
 10
107.4325721767643
 20
-18.80000017783269
 30
0.0
 10
107.4724712117687
 20
-19.19364039116706
 30
0.0
 10
107.55228796969
 20
-19.98110519106271
 30
0.0
 10
108.1310964184043
 20
-21.03127272049291
 30
0.0
 10
108.7365607550245
 20
-21.50069198642118
 30
0.0
 10
109.0291394400968
 20
-21.72752957745017
 30
0.0
  0
SPLINE
  5
82
330
1F
100
AcDbEntity
  8
0
  6
Continuous
 62
     7
370
    25
100
AcDbSpline
210
0.0
220
0.0
230
1.0
 70
     8
 71
     3
 72
    11
 73
     7
 74
     0
 42
0.00000001
 43
0.00000001
 40
0.0
 40
0.0
 40
0.0
 40
0.0
 40
0.2384257278939807
 40
0.5274084634145662
 40
0.8181119316528676
 40
1.0
 40
1.0
 40
1.0
 40
1.0
 10
109.5431426617598
 20
-15.61313181200674
 30
0.0
 10
109.252407614806
 20
-15.75641983764371
 30
0.0
 10
108.6092885784121
 20
-16.0733794128306
 30
0.0
 10
107.8920830428269
 20
-16.95046285474152
 30
0.0
 10
107.4876575297384
 20
-17.91619468285245
 30
0.0
 10
107.4478810853554
 20
-18.55437957626619
 30
0.0
 10
107.4325721767643
 20
-18.80000017783268
 30
0.0
  0
LINE
  5
87
330
1F
100
AcDbEntity
  8
0
  6
Continuous
 62
     7
370
    25
100
AcDbLine
 10
0.0
 20
105.0
 30
0.0
 11
0.0
 21
-105.0
 31
0.0
  0
LINE
  5
88
330
1F
100
AcDbEntity
  8
0
  6
Continuous
 62
     7
370
    25
100
AcDbLine
 10
321.8298022907
 20
105.0
 30
0.0
 11
0.0
 21
105.0
 31
0.0
  0
LINE
  5
89
330
1F
100
AcDbEntity
  8
0
  6
Continuous
 62
     7
370
    25
100
AcDbLine
 10
321.8298022907
 20
105.0
 30
0.0
 11
321.8298022907
 21
-105.0
 31
0.0
  0
LINE
  5
8A
330
1F
100
AcDbEntity
  8
0
  6
Continuous
 62
     7
370
    25
100
AcDbLine
 10
321.8298022907
 20
-105.0
 30
0.0
 11
0.0
 21
-105.0
 31
0.0
  0
LINE
  5
8B
330
1F
100
AcDbEntity
  8
0
  6
Continuous
 62
     7
370
    25
100
AcDbLine
 10
234.8466172265
 20
-78.25
 30
0.0
 11
235.72928362
 21
-78.099388906
 31
0.0
  0
LINE
  5
8C
330
1F
100
AcDbEntity
  8
0
  6
Continuous
 62
     7
370
    25
100
AcDbLine
 10
110.4873101595
 20
-22.2341104605
 30
0.0
 11
110.911069424
 21
-22.2540207301
 31
0.0
  0
LINE
  5
8D
330
1F
100
AcDbEntity
  8
0
  6
Continuous
 62
     7
370
    25
100
AcDbLine
 10
112.9749026181
 20
-21.5539906228
 30
0.0
 11
113.2147131817
 21
-21.3800478766
 31
0.0
  0
LINE
  5
8E
330
1F
100
AcDbEntity
  8
0
  6
Continuous
 62
     7
370
    25
100
AcDbLine
 10
42.184219842
 20
-18.8
 30
0.0
 11
42.3586680995
 21
-19.823126726
 31
0.0
  0
LINE
  5
8F
330
1F
100
AcDbEntity
  8
0
  6
Continuous
 62
     7
370
    25
100
AcDbLine
 10
43.2072528051
 20
-21.2242809274
 30
0.0
 11
43.5865270906
 21
-21.5590644822
 31
0.0
  0
LINE
  5
90
330
1F
100
AcDbEntity
  8
0
  6
Continuous
 62
     7
370
    25
100
AcDbLine
 10
45.6548275476
 20
-22.2541637489
 30
0.0
 11
45.8904687914
 21
-22.2644731698
 31
0.0
  0
LINE
  5
91
330
1F
100
AcDbEntity
  8
0
  6
Continuous
 62
     7
370
    25
100
AcDbLine
 10
42.2180458071
 20
-18.4778543743
 30
0.0
 11
42.184219842
 21
-18.8
 31
0.0
  0
ENDSEC
  0
SECTION
  2
OBJECTS
  0
DICTIONARY
  5
C
330
0
100
AcDbDictionary
281
     1
  3
ACAD_GROUP
350
D
  3
ACAD_LAYOUT
350
1A
  3
ACAD_MLINESTYLE
350
17
  3
ACAD_PLOTSETTINGS
350
19
  3
ACAD_PLOTSTYLENAME
350
E
  3
ACAD_SCALELIST
350
47
  3
DWGPROPS
350
92
  0
DICTIONARY
  5
D
102
{ACAD_REACTORS
330
C
102
}
330
C
100
AcDbDictionary
281
     1
  0
DICTIONARY
  5
1A
102
{ACAD_REACTORS
330
C
102
}
330
C
100
AcDbDictionary
281
     1
  3
Layout1
350
1E
  3
Layout2
350
26
  3
Model
350
22
  0
DICTIONARY
  5
17
102
{ACAD_REACTORS
330
C
102
}
330
C
100
AcDbDictionary
281
     1
  3
Standard
350
18
  0
DICTIONARY
  5
19
102
{ACAD_REACTORS
330
C
102
}
330
C
100
AcDbDictionary
281
     1
  0
ACDBDICTIONARYWDFLT
  5
E
102
{ACAD_REACTORS
330
C
102
}
330
C
100
AcDbDictionary
281
     1
  3
Normal
350
F
100
AcDbDictionaryWithDefault
340
F
  0
DICTIONARY
  5
47
102
{ACAD_REACTORS
330
C
102
}
330
C
100
AcDbDictionary
281
     1
  3
A0
350
48
  3
A1
350
49
  3
A2
350
4A
  3
A3
350
4B
  3
A4
350
4C
  3
A5
350
4D
  3
A6
350
4E
  3
A7
350
4F
  3
A8
350
50
  3
A9
350
51
  3
B0
350
52
  3
B1
350
53
  3
B2
350
54
  3
B3
350
55
  3
B4
350
56
  3
B5
350
57
  3
B6
350
58
  3
B7
350
59
  3
B8
350
5A
  3
B9
350
5B
  3
C0
350
5C
  3
C1
350
5D
  3
C2
350
5E
  3
C3
350
5F
  3
C4
350
60
  3
C5
350
61
  3
C6
350
62
  3
C7
350
63
  3
C8
350
64
  3
C9
350
65
  3
D0
350
66
  3
D1
350
67
  3
D2
350
68
  0
XRECORD
  5
92
102
{ACAD_REACTORS
330
C
102
}
330
C
100
AcDbXrecord
280
     1
  1
DWGPROPS COOKIE
  2

  3

  4

  6

  7

  8
vip
  9

300
=
301
=
302
=
303
=
304
=
305
=
306
=
307
=
308
=
309
=
 40
0.0
 41
2460059.435247766
 42
2460059.435304908
  1

 90
        0
  0
LAYOUT
  5
1E
102
{ACAD_REACTORS
330
1A
102
}
330
1A
100
AcDbPlotSettings
  1

  2
none_device
  4

  6

 40
0.0
 41
0.0
 42
0.0
 43
0.0
 44
0.0
 45
0.0
 46
0.0
 47
0.0
 48
0.0
 49
0.0
140
0.0
141
0.0
142
1.0
143
1.0
 70
   688
 72
     1
 73
     0
 74
     5
  7

 75
    16
147
1.0
148
0.0
149
0.0
100
AcDbLayout
  1
Layout1
 70
     1
 71
     1
 10
0.0
 20
0.0
 11
420.0
 21
297.0
 12
0.0
 22
0.0
 32
0.0
 14
1.0000000000E+20
 24
1.0000000000E+20
 34
1.0000000000E+20
 15
-1.0000000000E+20
 25
-1.0000000000E+20
 35
-1.0000000000E+20
146
0.0
 13
0.0
 23
0.0
 33
0.0
 16
1.0
 26
0.0
 36
0.0
 17
0.0
 27
1.0
 37
0.0
 76
     0
330
1B
  0
LAYOUT
  5
26
102
{ACAD_REACTORS
330
1A
102
}
330
1A
100
AcDbPlotSettings
  1

  2
none_device
  4

  6

 40
0.0
 41
0.0
 42
0.0
 43
0.0
 44
0.0
 45
0.0
 46
0.0
 47
0.0
 48
0.0
 49
0.0
140
0.0
141
0.0
142
1.0
143
1.0
 70
   688
 72
     1
 73
     0
 74
     5
  7

 75
    16
147
1.0
148
0.0
149
0.0
100
AcDbLayout
  1
Layout2
 70
     1
 71
     2
 10
0.0
 20
0.0
 11
0.0
 21
0.0
 12
0.0
 22
0.0
 32
0.0
 14
0.0
 24
0.0
 34
0.0
 15
0.0
 25
0.0
 35
0.0
146
0.0
 13
0.0
 23
0.0
 33
0.0
 16
1.0
 26
0.0
 36
0.0
 17
0.0
 27
1.0
 37
0.0
 76
     0
330
23
  0
LAYOUT
  5
22
102
{ACAD_REACTORS
330
1A
102
}
330
1A
100
AcDbPlotSettings
  1

  2
none_device
  4
ANSI_A_(11.00_x_8.50_Inches)
  6

 40
6.35
 41
19.05
 42
6.35000508
 43
19.05000254
 44
279.4
 45
215.9
 46
-4.95300254
 47
88.89999873
 48
0.0
 49
0.0
140
0.0
141
0.0
142
0.0338377612
143
1.0
 70
  1696
 72
     0
 73
     0
 74
     0
  7

 75
     0
147
0.0179189148
148
-1300.4909072572
149
0.0
100
AcDbLayout
  1
Model
 70
     1
 71
     0
 10
0.0
 20
0.0
 11
420.0
 21
297.0
 12
0.0
 22
0.0
 32
0.0
 14
0.0
 24
-105.0
 34
0.0
 15
321.8298022907
 25
105.0
 35
0.0
146
0.0
 13
0.0
 23
0.0
 33
0.0
 16
1.0
 26
0.0
 36
0.0
 17
0.0
 27
1.0
 37
0.0
 76
     0
330
1F
331
29
  0
MLINESTYLE
  5
18
102
{ACAD_REACTORS
330
17
102
}
330
17
100
AcDbMlineStyle
  2
Standard
 70
     0
  3

 62
   256
 51
90.0
 52
90.0
 71
     2
 49
0.5
 62
   256
  6
BYLAYER
 49
-0.5
 62
   256
  6
BYLAYER
  0
ACDBPLACEHOLDER
  5
F
102
{ACAD_REACTORS
330
E
102
}
330
E
  0
SCALE
  5
48
102
{ACAD_REACTORS
330
47
102
}
330
47
100
AcDbScale
 70
     0
300
1:1
140
1.0
141
1.0
290
     1
  0
SCALE
  5
49
102
{ACAD_REACTORS
330
47
102
}
330
47
100
AcDbScale
 70
     0
300
1:2
140
1.0
141
2.0
290
     0
  0
SCALE
  5
4A
102
{ACAD_REACTORS
330
47
102
}
330
47
100
AcDbScale
 70
     0
300
1:4
140
1.0
141
4.0
290
     0
  0
SCALE
  5
4B
102
{ACAD_REACTORS
330
47
102
}
330
47
100
AcDbScale
 70
     0
300
1:5
140
1.0
141
5.0
290
     0
  0
SCALE
  5
4C
102
{ACAD_REACTORS
330
47
102
}
330
47
100
AcDbScale
 70
     0
300
1:8
140
1.0
141
8.0
290
     0
  0
SCALE
  5
4D
102
{ACAD_REACTORS
330
47
102
}
330
47
100
AcDbScale
 70
     0
300
1:10
140
1.0
141
10.0
290
     0
  0
SCALE
  5
4E
102
{ACAD_REACTORS
330
47
102
}
330
47
100
AcDbScale
 70
     0
300
1:16
140
1.0
141
16.0
290
     0
  0
SCALE
  5
4F
102
{ACAD_REACTORS
330
47
102
}
330
47
100
AcDbScale
 70
     0
300
1:20
140
1.0
141
20.0
290
     0
  0
SCALE
  5
50
102
{ACAD_REACTORS
330
47
102
}
330
47
100
AcDbScale
 70
     0
300
1:30
140
1.0
141
30.0
290
     0
  0
SCALE
  5
51
102
{ACAD_REACTORS
330
47
102
}
330
47
100
AcDbScale
 70
     0
300
1:40
140
1.0
141
40.0
290
     0
  0
SCALE
  5
52
102
{ACAD_REACTORS
330
47
102
}
330
47
100
AcDbScale
 70
     0
300
1:50
140
1.0
141
50.0
290
     0
  0
SCALE
  5
53
102
{ACAD_REACTORS
330
47
102
}
330
47
100
AcDbScale
 70
     0
300
1:100
140
1.0
141
100.0
290
     0
  0
SCALE
  5
54
102
{ACAD_REACTORS
330
47
102
}
330
47
100
AcDbScale
 70
     0
300
2:1
140
2.0
141
1.0
290
     0
  0
SCALE
  5
55
102
{ACAD_REACTORS
330
47
102
}
330
47
100
AcDbScale
 70
     0
300
4:1
140
4.0
141
1.0
290
     0
  0
SCALE
  5
56
102
{ACAD_REACTORS
330
47
102
}
330
47
100
AcDbScale
 70
     0
300
8:1
140
8.0
141
1.0
290
     0
  0
SCALE
  5
57
102
{ACAD_REACTORS
330
47
102
}
330
47
100
AcDbScale
 70
     0
300
10:1
140
10.0
141
1.0
290
     0
  0
SCALE
  5
58
102
{ACAD_REACTORS
330
47
102
}
330
47
100
AcDbScale
 70
     0
300
100:1
140
100.0
141
1.0
290
     0
  0
SCALE
  5
59
102
{ACAD_REACTORS
330
47
102
}
330
47
100
AcDbScale
 70
     0
300
1/128" = 1'-0"
140
0.0078125
141
12.0
290
     0
  0
SCALE
  5
5A
102
{ACAD_REACTORS
330
47
102
}
330
47
100
AcDbScale
 70
     0
300
1/64" = 1'-0"
140
0.015625
141
12.0
290
     0
  0
SCALE
  5
5B
102
{ACAD_REACTORS
330
47
102
}
330
47
100
AcDbScale
 70
     0
300
1/32" = 1'-0"
140
0.03125
141
12.0
290
     0
  0
SCALE
  5
5C
102
{ACAD_REACTORS
330
47
102
}
330
47
100
AcDbScale
 70
     0
300
1/16" = 1'-0"
140
0.0625
141
12.0
290
     0
  0
SCALE
  5
5D
102
{ACAD_REACTORS
330
47
102
}
330
47
100
AcDbScale
 70
     0
300
3/32" = 1'-0"
140
0.09375
141
12.0
290
     0
  0
SCALE
  5
5E
102
{ACAD_REACTORS
330
47
102
}
330
47
100
AcDbScale
 70
     0
300
1/8" = 1'-0"
140
0.125
141
12.0
290
     0
  0
SCALE
  5
5F
102
{ACAD_REACTORS
330
47
102
}
330
47
100
AcDbScale
 70
     0
300
3/16" = 1'-0"
140
0.1875
141
12.0
290
     0
  0
SCALE
  5
60
102
{ACAD_REACTORS
330
47
102
}
330
47
100
AcDbScale
 70
     0
300
1/4" = 1'-0"
140
0.25
141
12.0
290
     0
  0
SCALE
  5
61
102
{ACAD_REACTORS
330
47
102
}
330
47
100
AcDbScale
 70
     0
300
3/8" = 1'-0"
140
0.375
141
12.0
290
     0
  0
SCALE
  5
62
102
{ACAD_REACTORS
330
47
102
}
330
47
100
AcDbScale
 70
     0
300
1/2" = 1'-0"
140
0.5
141
12.0
290
     0
  0
SCALE
  5
63
102
{ACAD_REACTORS
330
47
102
}
330
47
100
AcDbScale
 70
     0
300
3/4" = 1'-0"
140
0.75
141
12.0
290
     0
  0
SCALE
  5
64
102
{ACAD_REACTORS
330
47
102
}
330
47
100
AcDbScale
 70
     0
300
1" = 1'-0"
140
1.0
141
12.0
290
     0
  0
SCALE
  5
65
102
{ACAD_REACTORS
330
47
102
}
330
47
100
AcDbScale
 70
     0
300
1-1/2" = 1'-0"
140
1.5
141
12.0
290
     0
  0
SCALE
  5
66
102
{ACAD_REACTORS
330
47
102
}
330
47
100
AcDbScale
 70
     0
300
3" = 1'-0"
140
3.0
141
12.0
290
     0
  0
SCALE
  5
67
102
{ACAD_REACTORS
330
47
102
}
330
47
100
AcDbScale
 70
     0
300
6" = 1'-0"
140
6.0
141
12.0
290
     0
  0
SCALE
  5
68
102
{ACAD_REACTORS
330
47
102
}
330
47
100
AcDbScale
 70
     0
300
1'-0" = 1'-0"
140
12.0
141
12.0
290
     0
  0
ENDSEC
  0
EOF
