  0
SECTION
  2
HEADER
  9
$ACADVER
  1
AC1015
  9
$ACADMAINTVER
 70
     6
  9
$DWGCODEPAGE
  3
ANSI_1251
  9
$INSBASE
 10
0.0
 20
0.0
 30
0.0
  9
$EXTMIN
 10
0.0
 20
-105.0
 30
0.0
  9
$EXTMAX
 10
635.9732534252
 20
105.0
 30
0.0
  9
$LIMMIN
 10
0.0
 20
0.0
  9
$LIMMAX
 10
420.0
 20
297.0
  9
$ORTHOMODE
 70
     0
  9
$REGENMODE
 70
     1
  9
$FILLMODE
 70
     1
  9
$QTEXTMODE
 70
     0
  9
$MIRRTEXT
 70
     1
  9
$LTSCALE
 40
1.0
  9
$ATTMODE
 70
     1
  9
$TEXTSIZE
 40
4.0
  9
$TRACEWID
 40
1.0
  9
$TEXTSTYLE
  7
Standard
  9
$CLAYER
  8
0
  9
$CELTYPE
  6
ByLayer
  9
$CECOLOR
 62
   256
  9
$CELTSCALE
 40
1.0
  9
$DISPSILH
 70
     0
  9
$DIMSCALE
 40
1.0
  9
$DIMASZ
 40
6.0
  9
$DIMEXO
 40
0.0
  9
$DIMDLI
 40
3.75
  9
$DIMRND
 40
0.0
  9
$DIMDLE
 40
0.0
  9
$DIMEXE
 40
1.0
  9
$DIMTP
 40
0.0
  9
$DIMTM
 40
0.0
  9
$DIMTXT
 40
4.0
  9
$DIMCEN
 40
2.5
  9
$DIMTSZ
 40
0.0
  9
$DIMTOL
 70
     0
  9
$DIMLIM
 70
     0
  9
$DIMTIH
 70
     1
  9
$DIMTOH
 70
     1
  9
$DIMSE1
 70
     0
  9
$DIMSE2
 70
     0
  9
$DIMTAD
 70
     1
  9
$DIMZIN
 70
     0
  9
$DIMBLK
  1

  9
$DIMASO
 70
     1
  9
$DIMSHO
 70
     1
  9
$DIMPOST
  1

  9
$DIMAPOST
  1

  9
$DIMALT
 70
     0
  9
$DIMALTD
 70
     3
  9
$DIMALTF
 40
0.0393700787
  9
$DIMLFAC
 40
1.0
  9
$DIMTOFL
 70
     1
  9
$DIMTVP
 40
0.0
  9
$DIMTIX
 70
     0
  9
$DIMSOXD
 70
     0
  9
$DIMSAH
 70
     0
  9
$DIMBLK1
  1

  9
$DIMBLK2
  1

  9
$DIMSTYLE
  2
ISO-25
  9
$DIMCLRD
 70
     0
  9
$DIMCLRE
 70
     0
  9
$DIMCLRT
 70
     0
  9
$DIMTFAC
 40
1.0
  9
$DIMGAP
 40
3.0
  9
$DIMJUST
 70
     0
  9
$DIMSD1
 70
     0
  9
$DIMSD2
 70
     0
  9
$DIMTOLJ
 70
     0
  9
$DIMTZIN
 70
     0
  9
$DIMALTZ
 70
     0
  9
$DIMALTTZ
 70
     0
  9
$DIMUPT
 70
     0
  9
$DIMDEC
 70
     2
  9
$DIMTDEC
 70
     4
  9
$DIMALTU
 70
     2
  9
$DIMALTTD
 70
     3
  9
$DIMTXSTY
  7
Standard
  9
$DIMAUNIT
 70
     0
  9
$DIMADEC
 70
     2
  9
$DIMALTRND
 40
0.0
  9
$DIMAZIN
 70
     0
  9
$DIMDSEP
 70
    44
  9
$DIMATFIT
 70
     3
  9
$DIMFRAC
 70
     0
  9
$DIMLDRBLK
  1

  9
$DIMLUNIT
 70
     2
  9
$DIMLWD
 70
    -2
  9
$DIMLWE
 70
    -2
  9
$DIMTMOVE
 70
     0
  9
$LUNITS
 70
     2
  9
$LUPREC
 70
     2
  9
$SKETCHINC
 40
1.0
  9
$FILLETRAD
 40
10.0
  9
$AUNITS
 70
     0
  9
$AUPREC
 70
     2
  9
$MENU
  1
.
  9
$ELEVATION
 40
0.0
  9
$PELEVATION
 40
0.0
  9
$THICKNESS
 40
0.0
  9
$LIMCHECK
 70
     0
  9
$CHAMFERA
 40
0.0
  9
$CHAMFERB
 40
0.0
  9
$CHAMFERC
 40
0.0
  9
$CHAMFERD
 40
0.0
  9
$SKPOLY
 70
     0
  9
$TDCREATE
 40
2460059.60353456
  9
$TDUCREATE
 40
2460059.47853456
  9
$TDUPDATE
 40
2460059.603567916
  9
$TDUUPDATE
 40
2460059.478567916
  9
$TDINDWG
 40
0.0000000116
  9
$TDUSRTIMER
 40
0.0000000116
  9
$USRTIMER
 70
     1
  9
$ANGBASE
 50
0.0
  9
$ANGDIR
 70
     0
  9
$PDMODE
 70
     0
  9
$PDSIZE
 40
-1.0
  9
$PLINEWID
 40
0.0
  9
$SPLFRAME
 70
     0
  9
$SPLINETYPE
 70
     6
  9
$SPLINESEGS
 70
     8
  9
$HANDSEED
  5
85
  9
$SURFTAB1
 70
     6
  9
$SURFTAB2
 70
     6
  9
$SURFTYPE
 70
     6
  9
$SURFU
 70
     6
  9
$SURFV
 70
     6
  9
$UCSBASE
  2

  9
$UCSNAME
  2

  9
$UCSORG
 10
0.0
 20
0.0
 30
0.0
  9
$UCSXDIR
 10
1.0
 20
0.0
 30
0.0
  9
$UCSYDIR
 10
0.0
 20
1.0
 30
0.0
  9
$UCSORTHOREF
  2

  9
$UCSORTHOVIEW
 70
     0
  9
$UCSORGTOP
 10
0.0
 20
0.0
 30
0.0
  9
$UCSORGBOTTOM
 10
0.0
 20
0.0
 30
0.0
  9
$UCSORGLEFT
 10
0.0
 20
0.0
 30
0.0
  9
$UCSORGRIGHT
 10
0.0
 20
0.0
 30
0.0
  9
$UCSORGFRONT
 10
0.0
 20
0.0
 30
0.0
  9
$UCSORGBACK
 10
0.0
 20
0.0
 30
0.0
  9
$PUCSBASE
  2

  9
$PUCSNAME
  2

  9
$PUCSORG
 10
0.0
 20
0.0
 30
0.0
  9
$PUCSXDIR
 10
1.0
 20
0.0
 30
0.0
  9
$PUCSYDIR
 10
0.0
 20
1.0
 30
0.0
  9
$PUCSORTHOREF
  2

  9
$PUCSORTHOVIEW
 70
     0
  9
$PUCSORGTOP
 10
0.0
 20
0.0
 30
0.0
  9
$PUCSORGBOTTOM
 10
0.0
 20
0.0
 30
0.0
  9
$PUCSORGLEFT
 10
0.0
 20
0.0
 30
0.0
  9
$PUCSORGRIGHT
 10
0.0
 20
0.0
 30
0.0
  9
$PUCSORGFRONT
 10
0.0
 20
0.0
 30
0.0
  9
$PUCSORGBACK
 10
0.0
 20
0.0
 30
0.0
  9
$USERI1
 70
     0
  9
$USERI2
 70
     0
  9
$USERI3
 70
     0
  9
$USERI4
 70
     0
  9
$USERI5
 70
     0
  9
$USERR1
 40
0.0
  9
$USERR2
 40
0.0
  9
$USERR3
 40
0.0
  9
$USERR4
 40
0.0
  9
$USERR5
 40
0.0
  9
$WORLDVIEW
 70
     1
  9
$SHADEDGE
 70
     3
  9
$SHADEDIF
 70
    70
  9
$TILEMODE
 70
     1
  9
$MAXACTVP
 70
    64
  9
$PINSBASE
 10
0.0
 20
0.0
 30
0.0
  9
$PLIMCHECK
 70
     0
  9
$PEXTMIN
 10
1.0000000000E+20
 20
1.0000000000E+20
 30
1.0000000000E+20
  9
$PEXTMAX
 10
-1.0000000000E+20
 20
-1.0000000000E+20
 30
-1.0000000000E+20
  9
$PLIMMIN
 10
0.0
 20
0.0
  9
$PLIMMAX
 10
420.0
 20
297.0
  9
$UNITMODE
 70
     0
  9
$VISRETAIN
 70
     1
  9
$PLINEGEN
 70
     0
  9
$PSLTSCALE
 70
     1
  9
$TREEDEPTH
 70
  3020
  9
$CMLSTYLE
  2
Standard
  9
$CMLJUST
 70
     0
  9
$CMLSCALE
 40
20.0
  9
$PROXYGRAPHICS
 70
     1
  9
$MEASUREMENT
 70
     1
  9
$CELWEIGHT
370
    -1
  9
$ENDCAPS
280
     0
  9
$JOINSTYLE
280
     0
  9
$LWDISPLAY
290
     1
  9
$INSUNITS
 70
     4
  9
$HYPERLINKBASE
  1

  9
$STYLESHEET
  1

  9
$XEDIT
290
     1
  9
$CEPSNTYPE
380
     0
  9
$PSTYLEMODE
290
     1
  9
$FINGERPRINTGUID
  2
{b5b9b3a8-c1c4-4e47-a841-bbc05a2abd49}
  9
$VERSIONGUID
  2
{FAEB1C32-E019-11D5-929B-00C0DF256EC4}
  9
$EXTNAMES
290
     1
  9
$PSVPSCALE
 40
0.0
  9
$OLESTARTUP
290
     0
  0
ENDSEC
  0
SECTION
  2
CLASSES
  0
CLASS
  1
ACDBDICTIONARYWDFLT
  2
AcDbDictionaryWithDefault
  3
ObjectDBX Classes
 90
        0
280
     0
281
     0
  0
CLASS
  1
VISUALSTYLE
  2
AcDbVisualStyle
  3
ObjectDBX Classes
 90
     4095
280
     0
281
     0
  0
CLASS
  1
MATERIAL
  2
AcDbMaterial
  3
ObjectDBX Classes
 90
     1153
280
     0
281
     0
  0
CLASS
  1
SCALE
  2
AcDbScale
  3
ObjectDBX Classes
 90
     1153
280
     0
281
     0
  0
CLASS
  1
TABLESTYLE
  2
AcDbTableStyle
  3
ObjectDBX Classes
 90
     4095
280
     0
281
     0
  0
CLASS
  1
MLEADERSTYLE
  2
AcDbMLeaderStyle
  3
ACDB_MLEADERSTYLE_CLASS
 90
     4095
280
     0
281
     0
  0
CLASS
  1
SUN
  2
AcDbSun
  3
SCENEOE
 90
     1153
280
     0
281
     0
  0
CLASS
  1
ACDBPLACEHOLDER
  2
AcDbPlaceHolder
  3
ObjectDBX Classes
 90
        0
280
     0
281
     0
  0
CLASS
  1
LAYOUT
  2
AcDbLayout
  3
ObjectDBX Classes
 90
        0
280
     0
281
     0
  0
ENDSEC
  0
SECTION
  2
TABLES
  0
TABLE
  2
VPORT
  5
8
330
0
100
AcDbSymbolTable
 70
     1
  0
VPORT
  5
29
330
8
100
AcDbSymbolTableRecord
100
AcDbViewportTableRecord
  2
*Active
 70
     0
 10
0.0
 20
0.0
 11
1.0
 21
1.0
 12
317.9866267126
 22
0.0
 13
0.0
 23
0.0
 14
10.0
 24
10.0
 15
10.0
 25
10.0
 16
0.0
 26
0.0
 36
1.0
 17
0.0
 27
0.0
 37
0.0
 40
214.2
 41
3.0284440639
 42
50.0
 43
0.0
 44
0.0
 50
0.0
 51
0.0
 71
     0
 72
   100
 73
     1
 74
     3
 75
     0
 76
     0
 77
     0
 78
     0
281
     0
 65
     1
110
0.0
120
0.0
130
0.0
111
1.0
121
0.0
131
0.0
112
0.0
122
1.0
132
0.0
 79
     0
146
0.0
  0
ENDTAB
  0
TABLE
  2
LTYPE
  5
5
330
0
100
AcDbSymbolTable
 70
     6
  0
LTYPE
  5
14
330
5
100
AcDbSymbolTableRecord
100
AcDbLinetypeTableRecord
  2
ByBlock
 70
     0
  3

 72
    65
 73
     0
 40
0.0
  0
LTYPE
  5
15
330
5
100
AcDbSymbolTableRecord
100
AcDbLinetypeTableRecord
  2
ByLayer
 70
     0
  3

 72
    65
 73
     0
 40
0.0
  0
LTYPE
  5
16
330
5
100
AcDbSymbolTableRecord
100
AcDbLinetypeTableRecord
  2
Continuous
 70
     0
  3
Solid line
 72
    65
 73
     0
 40
0.0
  0
LTYPE
  5
6E
330
5
100
AcDbSymbolTableRecord
100
AcDbLinetypeTableRecord
  2
HIDDEN
 70
     0
  3
Hidden __ __ __ __ __ __ __ __ __ __ __ __ __ __
 72
    65
 73
     2
 40
1.905
 49
1.27
 74
     0
 49
-0.635
 74
     0
  0
LTYPE
  5
6F
330
5
100
AcDbSymbolTableRecord
100
AcDbLinetypeTableRecord
  2
PHANTOM
 70
     0
  3
Phantom ______  __  __  ______  __  __  ______
 72
    65
 73
     6
 40
12.7
 49
6.35
 74
     0
 49
-1.27
 74
     0
 49
1.27
 74
     0
 49
-1.27
 74
     0
 49
1.27
 74
     0
 49
-1.27
 74
     0
  0
LTYPE
  5
70
330
5
100
AcDbSymbolTableRecord
100
AcDbLinetypeTableRecord
  2
CENTER
 70
     0
  3
Center ____ _ ____ _ ____ _ ____ _ ____ _ ____
 72
    65
 73
     4
 40
10.16
 49
6.35
 74
     0
 49
-1.27
 74
     0
 49
1.27
 74
     0
 49
-1.27
 74
     0
  0
LTYPE
  5
71
330
5
100
AcDbSymbolTableRecord
100
AcDbLinetypeTableRecord
  2
CENTERX2
 70
     0
  3
Center (2x) ________  __  ________  __  _____
 72
    65
 73
     4
 40
20.32
 49
12.7
 74
     0
 49
-2.54
 74
     0
 49
2.54
 74
     0
 49
-2.54
 74
     0
  0
LTYPE
  5
72
330
5
100
AcDbSymbolTableRecord
100
AcDbLinetypeTableRecord
  2
DOT2
 70
     0
  3
Dot (.5x) ........................................
 72
    65
 73
     2
 40
0.635
 49
0.0
 74
     0
 49
-0.635
 74
     0
  0
ENDTAB
  0
TABLE
  2
LAYER
  5
2
330
0
100
AcDbSymbolTable
 70
     1
  0
LAYER
  5
10
330
2
100
AcDbSymbolTableRecord
100
AcDbLayerTableRecord
  2
0
 70
     0
 62
     7
  6
Continuous
370
    -3
390
F
  0
ENDTAB
  0
TABLE
  2
STYLE
  5
3
330
0
100
AcDbSymbolTable
 70
     1
  0
STYLE
  5
11
330
3
100
AcDbSymbolTableRecord
100
AcDbTextStyleTableRecord
  2
Standard
 70
     0
 40
0.0
 41
1.0
 50
0.0
 71
     0
 42
4.0
  3
txt
  4

  0
ENDTAB
  0
TABLE
  2
VIEW
  5
6
330
0
100
AcDbSymbolTable
 70
     0
  0
ENDTAB
  0
TABLE
  2
UCS
  5
7
330
0
100
AcDbSymbolTable
 70
     0
  0
ENDTAB
  0
TABLE
  2
APPID
  5
9
330
0
100
AcDbSymbolTable
 70
     1
  0
APPID
  5
12
330
9
100
AcDbSymbolTableRecord
100
AcDbRegAppTableRecord
  2
ACAD
 70
     0
  0
ENDTAB
  0
TABLE
  2
DIMSTYLE
  5
A
330
0
100
AcDbSymbolTable
 70
     1
100
AcDbDimStyleTable
  0
DIMSTYLE
105
27
330
A
100
AcDbSymbolTableRecord
100
AcDbDimStyleTableRecord
  2
ISO-25
 70
     0
 41
2.5
 42
0.625
 43
3.75
 44
1.25
 73
     0
 74
     0
 77
     1
 78
     8
140
2.5
141
2.5
143
0.0393700787
147
0.625
171
     3
172
     1
178
     0
271
     2
272
     2
274
     3
278
    44
283
     0
284
     8
340
11
  0
ENDTAB
  0
TABLE
  2
BLOCK_RECORD
  5
1
330
0
100
AcDbSymbolTable
 70
     1
  0
BLOCK_RECORD
  5
1F
330
1
100
AcDbSymbolTableRecord
100
AcDbBlockTableRecord
  2
*Model_Space
340
22
  0
BLOCK_RECORD
  5
1B
330
1
100
AcDbSymbolTableRecord
100
AcDbBlockTableRecord
  2
*Paper_Space
340
1E
  0
BLOCK_RECORD
  5
23
330
1
100
AcDbSymbolTableRecord
100
AcDbBlockTableRecord
  2
*Paper_Space0
340
26
  0
ENDTAB
  0
ENDSEC
  0
SECTION
  2
BLOCKS
  0
BLOCK
  5
20
330
1F
100
AcDbEntity
  8
0
100
AcDbBlockBegin
  2
*Model_Space
 70
     0
 10
0.0
 20
0.0
 30
0.0
  3
*Model_Space
  1

  0
ENDBLK
  5
21
330
1F
100
AcDbEntity
  8
0
100
AcDbBlockEnd
  0
BLOCK
  5
1C
330
1B
100
AcDbEntity
 67
     1
  8
0
100
AcDbBlockBegin
  2
*Paper_Space
 70
     0
 10
0.0
 20
0.0
 30
0.0
  3
*Paper_Space
  1

  0
ENDBLK
  5
1D
330
1B
100
AcDbEntity
 67
     1
  8
0
100
AcDbBlockEnd
  0
BLOCK
  5
24
330
23
100
AcDbEntity
  8
0
100
AcDbBlockBegin
  2
*Paper_Space0
 70
     0
 10
0.0
 20
0.0
 30
0.0
  3
*Paper_Space0
  1

  0
ENDBLK
  5
25
330
23
100
AcDbEntity
  8
0
100
AcDbBlockEnd
  0
ENDSEC
  0
SECTION
  2
ENTITIES
  0
SPLINE
  5
73
330
1F
100
AcDbEntity
  8
0
  6
Continuous
 62
     7
370
    25
100
AcDbSpline
210
0.0
220
0.0
230
1.0
 70
    11
 71
     3
 72
    39
 73
    35
 74
     0
 42
0.00000001
 43
0.00000001
 40
0.0
 40
0.0
 40
0.0
 40
0.0
 40
0.0312447803609505
 40
0.0625008113595015
 40
0.0937522069035104
 40
0.1250017007622838
 40
0.1562692532260978
 40
0.1875016360886124
 40
0.2187592443033075
 40
0.2499999684204755
 40
0.2812267528036829
 40
0.3124984230915656
 40
0.3437164380596287
 40
0.3749983712190401
 40
0.4062341557014708
 40
0.4374992807939362
 40
0.4687445799854055
 40
0.49999997259945
 40
0.5312392572443049
 40
0.5625006976425848
 40
0.5937473432279703
 40
0.6250015767654221
 40
0.6562648157224775
 40
0.6875014674234717
 40
0.7187576429545462
 40
0.7499999922847079
 40
0.7812345362569361
 40
0.8124985869885469
 40
0.8437249868121964
 40
0.874998322900562
 40
0.9062327387257889
 40
0.9374990920523817
 40
0.9687441049799411
 40
0.9999999999999999
 40
0.9999999999999999
 40
0.9999999999999999
 40
0.9999999999999999
 10
156.8253177159732
 20
-83.99999940065229
 30
0.0
 10
156.2348660974592
 20
-84.00019153807595
 30
0.0
 10
155.0537210646378
 20
-83.88810534134734
 30
0.0
 10
153.3511649277834
 20
-83.36980545751602
 30
0.0
 10
151.7769132523593
 20
-82.53949768905022
 30
0.0
 10
150.4000034544394
 20
-81.41140313186092
 30
0.0
 10
149.2613966979928
 20
-80.04352391763757
 30
0.0
 10
148.4205167320939
 20
-78.47470095693686
 30
0.0
 10
147.8940837157132
 20
-76.77477569169118
 30
0.0
 10
147.722230018713
 20
-75.00357522886513
 30
0.0
 10
147.8927362896387
 20
-73.2319929187056
 30
0.0
 10
148.4177561260506
 20
-71.53189851345742
 30
0.0
 10
149.2575312843575
 20
-69.96219577164544
 30
0.0
 10
150.394934263741
 20
-68.59363421834732
 30
0.0
 10
151.7711702036025
 20
-67.46430804476107
 30
0.0
 10
153.3446243115796
 20
-66.63289768561867
 30
0.0
 10
155.047002187382
 20
-66.11317931842136
 30
0.0
 10
156.8184071178387
 20
-65.94373699470326
 30
0.0
 10
158.5902176603607
 20
-66.1118902640826
 30
0.0
 10
160.2926979634252
 20
-66.6301230195539
 30
0.0
 10
161.8670617782662
 20
-67.46043351547051
 30
0.0
 10
163.2439151840901
 20
-68.58847581381127
 30
0.0
 10
164.3825930337448
 20
-69.9564071683949
 30
0.0
 10
165.2234711143699
 20
-71.5251966208005
 30
0.0
 10
165.7500239209919
 20
-73.22518028425934
 30
0.0
 10
165.9217850330468
 20
-74.99653777246961
 30
0.0
 10
165.7513899951569
 20
-76.76816911909526
 30
0.0
 10
165.2261646882913
 20
-78.46837986963325
 30
0.0
 10
164.3863390157579
 20
-80.03787545483034
 30
0.0
 10
163.2490368303623
 20
-81.40647694458569
 30
0.0
 10
161.8728476302278
 20
-82.53560732266493
 30
0.0
 10
160.2994551899287
 20
-83.36708466416073
 30
0.0
 10
158.5970678513358
 20
-83.88691212664234
 30
0.0
 10
157.4159793749606
 20
-83.99980719487985
 30
0.0
 10
156.8253177159732
 20
-83.99999940065227
 30
0.0
  0
SPLINE
  5
74
330
1F
100
AcDbEntity
  8
0
  6
Continuous
 62
     7
370
    25
100
AcDbSpline
210
0.0
220
0.0
230
1.0
 70
    11
 71
     3
 72
    35
 73
    31
 74
     0
 42
0.00000001
 43
0.00000001
 40
0.0
 40
0.0
 40
0.0
 40
0.0
 40
0.0624957282656393
 40
0.0625044453213827
 40
0.1249943195853839
 40
0.1250066480713358
 40
0.1874960530453625
 40
0.1875047790985542
 40
0.2499997037690302
 40
0.3124947583035991
 40
0.3125034808258013
 40
0.3749931043168033
 40
0.3750054314493916
 40
0.4374953419945539
 40
0.4375040609904582
 40
0.4999998511785592
 40
0.5624956555034702
 40
0.5625043771247253
 40
0.6249943173050204
 40
0.6250066464993691
 40
0.6874962773873187
 40
0.6875050030476303
 40
0.75000003602177
 40
0.8124949443544573
 40
0.8125036680729628
 40
0.8749930704247555
 40
0.87500539604798
 40
0.9374952787920524
 40
0.9375039922186272
 40
1.0
 40
1.0
 40
1.0
 40
1.0
 10
118.8949956049036
 20
-18.79999999999832
 30
0.0
 10
118.8949956000139
 20
-18.34110918102804
 30
0.0
 10
118.9868516009474
 20
-17.88215438421243
 30
0.0
 10
119.339739142514
 20
-17.03491848012684
 30
0.0
 10
119.6008281090528
 20
-16.64649917953616
 30
0.0
 10
120.2515003472516
 20
-15.99929942024303
 30
0.0
 10
120.6412317850274
 20
-15.74036765823269
 30
0.0
 10
121.4897338336179
 20
-15.39073666353904
 30
0.0
 10
122.407486700497
 20
-15.20923130217561
 30
0.0
 10
123.3252122228014
 20
-15.3908261781424
 30
0.0
 10
124.1737026425558
 20
-15.74048809008476
 30
0.0
 10
124.5634350562386
 20
-15.99940604642798
 30
0.0
 10
125.2141548966877
 20
-16.64655900959958
 30
0.0
 10
125.4752908589024
 20
-17.03494492553684
 30
0.0
 10
125.8282593574315
 20
-17.88214861465656
 30
0.0
 10
126.0120263629933
 20
-18.79999669154195
 30
0.0
 10
125.8282610932524
 20
-19.7178451507685
 30
0.0
 10
125.4752940048561
 20
-20.56504980246388
 30
0.0
 10
125.2141585506371
 20
-20.95343638831213
 30
0.0
 10
124.5634395281595
 20
-21.60059058819104
 30
0.0
 10
124.1737074301621
 20
-21.85950919697432
 30
0.0
 10
123.3252176129549
 20
-22.20917235683995
 30
0.0
 10
122.4074926485155
 20
-22.39076861682511
 30
0.0
 10
121.4897397830242
 20
-22.2092648707464
 30
0.0
 10
120.6412372680582
 20
-21.85963542694673
 30
0.0
 10
120.251505421312
 20
-21.60070439171168
 30
0.0
 10
119.6008319807101
 20
-20.95350581603211
 30
0.0
 10
119.3397422865633
 20
-20.56508699571472
 30
0.0
 10
118.986852436781
 20
-19.71784975268548
 30
0.0
 10
118.8949956097932
 20
-19.25889287138415
 30
0.0
 10
118.8949956049036
 20
-18.79999999999832
 30
0.0
  0
SPLINE
  5
75
330
1F
100
AcDbEntity
  8
0
  6
Continuous
 62
     7
370
    25
100
AcDbSpline
210
0.0
220
0.0
230
1.0
 70
    11
 71
     3
 72
    35
 73
    31
 74
     0
 42
0.00000001
 43
0.00000001
 40
0.0
 40
0.0
 40
0.0
 40
0.0
 40
0.0624945347292405
 40
0.0625032307806835
 40
0.1249926728326204
 40
0.1250049563745407
 40
0.1874949222107232
 40
0.1875036022371633
 40
0.2499997384378636
 40
0.3124956642225007
 40
0.3125043391704172
 40
0.3749943146611884
 40
0.3750065884618343
 40
0.4374960274381864
 40
0.4375047146998725
 40
0.4999997330778037
 40
0.562494780769897
 40
0.5625034717371824
 40
0.6249929109285207
 40
0.625005201151402
 40
0.687494843056289
 40
0.6875035242507306
 40
0.7499997359057294
 40
0.8124959105507296
 40
0.8125045854814901
 40
0.8749945233245853
 40
0.8750067996215926
 40
0.9374962673072891
 40
0.937504954665382
 40
1.0
 40
1.0
 40
1.0
 40
1.0
 10
313.6440441637932
 20
-37.54999999999563
 30
0.0
 10
313.9652145064935
 20
-37.55000000084356
 30
0.0
 10
314.2864295007906
 20
-37.61353935359455
 30
0.0
 10
314.8803457156171
 20
-37.85828718969372
 30
0.0
 10
315.1531424391255
 20
-38.03953807402493
 30
0.0
 10
315.6085716222433
 20
-38.49257879256441
 30
0.0
 10
315.7913073201779
 20
-38.7644742182798
 30
0.0
 10
316.0382845698907
 20
-39.35752885910801
 30
0.0
 10
316.1668372890144
 20
-39.99999479053165
 30
0.0
 10
316.038287117875
 20
-40.64246104175972
 30
0.0
 10
315.7913130605932
 20
-41.2355158042625
 30
0.0
 10
315.6085786658364
 20
-41.50741207298348
 30
0.0
 10
315.1531516403658
 20
-41.96045491576768
 30
0.0
 10
314.8803558756182
 20
-42.14170701950706
 30
0.0
 10
314.2864385125262
 20
-42.38645857132603
 30
0.0
 10
313.6440482394417
 20
-42.51353152797331
 30
0.0
 10
313.0016575202443
 20
-42.38646066000611
 30
0.0
 10
312.4077392376976
 20
-42.14171092731755
 30
0.0
 10
312.1349428125711
 20
-41.96045962141809
 30
0.0
 10
311.6795155231412
 20
-41.50741938153288
 30
0.0
 10
311.4967809546877
 20
-41.23552530836795
 30
0.0
 10
311.2498039594086
 20
-40.64247199139072
 30
0.0
 10
311.1212507620342
 20
-40.0000043858912
 30
0.0
 10
311.24980166899
 20
-39.35753638279153
 30
0.0
 10
311.4967770517949
 20
-38.76448099045698
 30
0.0
 10
311.6795117794781
 20
-38.49258517631694
 30
0.0
 10
312.1349394134964
 20
-38.03954297256546
 30
0.0
 10
312.4077355582716
 20
-37.85829114094058
 30
0.0
 10
313.001653545427
 20
-37.61354037958097
 30
0.0
 10
313.3228711970027
 20
-37.54999999914769
 30
0.0
 10
313.6440441637932
 20
-37.54999999999563
 30
0.0
  0
SPLINE
  5
76
330
1F
100
AcDbEntity
  8
0
  6
Continuous
 62
     7
370
    25
100
AcDbSpline
210
0.0
220
0.0
230
1.0
 70
    11
 71
     3
 72
    35
 73
    31
 74
     0
 42
0.00000001
 43
0.00000001
 40
0.0
 40
0.0
 40
0.0
 40
0.0
 40
0.0624945347292514
 40
0.0625032307806872
 40
0.1249926728326242
 40
0.1250049563745393
 40
0.1874949222107321
 40
0.1875036022371611
 40
0.2499997384378706
 40
0.3124956642225005
 40
0.3125043391704238
 40
0.3749943146611902
 40
0.375006588461841
 40
0.4374960274381898
 40
0.4375047146998788
 40
0.4999997330778173
 40
0.5624947807699112
 40
0.5625034717371856
 40
0.6249929109285286
 40
0.6250052011514052
 40
0.6874948430562986
 40
0.6875035242507381
 40
0.7499997359057381
 40
0.8124959105507342
 40
0.8125045854814987
 40
0.8749945233245884
 40
0.8750067996216009
 40
0.9374962673072927
 40
0.937504954665396
 40
1.0
 40
1.0
 40
1.0
 40
1.0
 10
313.6440441637934
 20
-49.54999999999562
 30
0.0
 10
313.9652145064936
 20
-49.55000000084355
 30
0.0
 10
314.2864295007908
 20
-49.61353935359455
 30
0.0
 10
314.8803457156172
 20
-49.85828718969373
 30
0.0
 10
315.1531424391258
 20
-50.03953807402491
 30
0.0
 10
315.6085716222435
 20
-50.49257879256442
 30
0.0
 10
315.7913073201781
 20
-50.76447421827986
 30
0.0
 10
316.0382845698907
 20
-51.35752885910805
 30
0.0
 10
316.1668372890146
 20
-51.99999479053161
 30
0.0
 10
316.0382871178753
 20
-52.64246104175974
 30
0.0
 10
315.7913130605936
 20
-53.2355158042625
 30
0.0
 10
315.6085786658365
 20
-53.50741207298349
 30
0.0
 10
315.1531516403659
 20
-53.96045491576769
 30
0.0
 10
314.8803558756183
 20
-54.14170701950707
 30
0.0
 10
314.2864385125263
 20
-54.38645857132607
 30
0.0
 10
313.6440482394418
 20
-54.51353152797332
 30
0.0
 10
313.0016575202445
 20
-54.38646066000609
 30
0.0
 10
312.4077392376977
 20
-54.14171092731755
 30
0.0
 10
312.1349428125714
 20
-53.96045962141805
 30
0.0
 10
311.6795155231413
 20
-53.50741938153284
 30
0.0
 10
311.4967809546876
 20
-53.23552530836795
 30
0.0
 10
311.2498039594087
 20
-52.64247199139071
 30
0.0
 10
311.1212507620344
 20
-52.00000438589118
 30
0.0
 10
311.2498016689903
 20
-51.35753638279154
 30
0.0
 10
311.496777051795
 20
-50.76448099045704
 30
0.0
 10
311.6795117794782
 20
-50.49258517631689
 30
0.0
 10
312.1349394134965
 20
-50.03954297256547
 30
0.0
 10
312.4077355582717
 20
-49.85829114094054
 30
0.0
 10
313.0016535454272
 20
-49.61354037958095
 30
0.0
 10
313.3228711970029
 20
-49.54999999914769
 30
0.0
 10
313.6440441637934
 20
-49.54999999999562
 30
0.0
  0
SPLINE
  5
77
330
1F
100
AcDbEntity
  8
0
  6
Continuous
 62
     7
370
    25
100
AcDbSpline
210
0.0
220
0.0
230
1.0
 70
    11
 71
     3
 72
    35
 73
    31
 74
     0
 42
0.00000001
 43
0.00000001
 40
0.0
 40
0.0
 40
0.0
 40
0.0
 40
0.0624947900751673
 40
0.0625035125051872
 40
0.124993018985204
 40
0.1250053430873737
 40
0.1874952814852795
 40
0.1875039927213434
 40
0.2499999308938547
 40
0.3124956853619011
 40
0.3125043954272839
 40
0.3749943570016737
 40
0.3750066787216212
 40
0.4374961712851867
 40
0.4375048905803689
 40
0.4999998866661487
 40
0.5624948879651743
 40
0.5625036076841852
 40
0.6249930989157069
 40
0.6250054352356439
 40
0.6874950692943641
 40
0.687503781026556
 40
0.7499998188899977
 40
0.8124957957862342
 40
0.8125045065812794
 40
0.8749944347506503
 40
0.8750067556899876
 40
0.9374962621286326
 40
0.9375049805031314
 40
1.0
 40
1.0
 40
1.0
 40
1.0
 10
470.4660662456891
 20
-78.24999999999353
 30
0.0
 10
470.0400104645042
 20
-78.25000000099266
 30
0.0
 10
469.61389524215
 20
-78.16570526013045
 30
0.0
 10
468.8260211432833
 20
-77.8410339606851
 30
0.0
 10
468.464134991257
 20
-77.60060141196686
 30
0.0
 10
467.8599428420506
 20
-76.999644664438
 30
0.0
 10
467.6174992537002
 20
-76.63898011094992
 30
0.0
 10
467.2898099803494
 20
-75.85227665742478
 30
0.0
 10
467.1192249131138
 20
-75.00000270563376
 30
0.0
 10
467.2898087867375
 20
-74.14772872275311
 30
0.0
 10
467.6174960101654
 20
-73.3610256490962
 30
0.0
 10
467.8599389143422
 20
-73.00036045773952
 30
0.0
 10
468.4641298949735
 20
-72.39940248811789
 30
0.0
 10
468.826015458281
 20
-72.15896931313293
 30
0.0
 10
469.6138901338179
 20
-71.83429593993372
 30
0.0
 10
470.4660638747004
 20
-71.6657164574808
 30
0.0
 10
471.3182378584141
 20
-71.83429471056093
 30
0.0
 10
472.1061130179835
 20
-72.15896698093364
 30
0.0
 10
472.4679990081366
 20
-72.39939970613312
 30
0.0
 10
473.0721892858564
 20
-73.00035529570664
 30
0.0
 10
473.3146317568497
 20
-73.36101800645277
 30
0.0
 10
473.6423214872062
 20
-74.1477197260194
 30
0.0
 10
473.8129079480977
 20
-74.99999574082254
 30
0.0
 10
473.6423237342761
 20
-75.85227215339249
 30
0.0
 10
473.314635470175
 20
-76.63897620154026
 30
0.0
 10
473.0721924240632
 20
-76.99964099962558
 30
0.0
 10
472.4680012107279
 20
-77.60059855704627
 30
0.0
 10
472.1061154721388
 20
-77.84103161921503
 30
0.0
 10
471.3182403970377
 20
-78.16570464274427
 30
0.0
 10
470.8921235909474
 20
-78.24999999899444
 30
0.0
 10
470.4660662456891
 20
-78.24999999999353
 30
0.0
  0
SPLINE
  5
78
330
1F
100
AcDbEntity
  8
0
  6
Continuous
 62
     7
370
    25
100
AcDbSpline
210
0.0
220
0.0
230
1.0
 70
    11
 71
     3
 72
    35
 73
    31
 74
     0
 42
0.00000001
 43
0.00000001
 40
0.0
 40
0.0
 40
0.0
 40
0.0
 40
0.062496007781372
 40
0.0625047212079473
 40
0.1249946039520196
 40
0.125006929575246
 40
0.187496331927037
 40
0.1875050556455431
 40
0.249999962109861
 40
0.3124949969523687
 40
0.3125037226126787
 40
0.3749933535006319
 40
0.3750056826949786
 40
0.4374956228752748
 40
0.4375043444965284
 40
0.500000147104773
 40
0.5624959390095402
 40
0.562504658005446
 40
0.6249945685506081
 40
0.6250068956831965
 40
0.6874965191741957
 40
0.6875052416963983
 40
0.7500002948752137
 40
0.8124952209014431
 40
0.8125039469546372
 40
0.8749933519286655
 40
0.8750056804146176
 40
0.9374955546786177
 40
0.9375042717343618
 40
1.0
 40
1.0
 40
1.0
 40
1.0
 10
194.7490485588905
 20
-18.79999999999728
 30
0.0
 10
194.7490485540009
 20
-19.25889287138311
 30
0.0
 10
194.6571917270134
 20
-19.71784975268445
 30
0.0
 10
194.304301877231
 20
-20.56508699571368
 30
0.0
 10
194.0432121830841
 20
-20.95350581603108
 30
0.0
 10
193.3925387424821
 20
-21.60070439171064
 30
0.0
 10
193.002806895736
 20
-21.85963542694573
 30
0.0
 10
192.1543043807702
 20
-22.20926487074542
 30
0.0
 10
191.2365515152786
 20
-22.39076861682419
 30
0.0
 10
190.3188265508394
 20
-22.20917235683899
 30
0.0
 10
189.4703367258657
 20
-21.85950919181362
 30
0.0
 10
189.0806046317514
 20
-21.60059058560999
 30
0.0
 10
188.4298856131568
 20
-20.95343638831106
 30
0.0
 10
188.1687501589381
 20
-20.56504980246298
 30
0.0
 10
187.8157830705418
 20
-19.71784515076763
 30
0.0
 10
187.6320178008007
 20
-18.79999669154109
 30
0.0
 10
187.8157848063625
 20
-17.8821486146557
 30
0.0
 10
188.1687533096722
 20
-17.03494491842561
 30
0.0
 10
188.429889269496
 20
-16.6465590060441
 30
0.0
 10
189.0806091075554
 20
-15.99940604642709
 30
0.0
 10
189.4703415212383
 20
-15.74048809008387
 30
0.0
 10
190.3188319409927
 20
-15.39082617814148
 30
0.0
 10
191.236557463297
 20
-15.20923130217466
 30
0.0
 10
192.1543103301761
 20
-15.3907366635381
 30
0.0
 10
193.0028123844023
 20
-15.74036766197602
 30
0.0
 10
193.3925438193605
 20
-15.99929942211437
 30
0.0
 10
194.0432160547415
 20
-16.64649917953525
 30
0.0
 10
194.3043050212802
 20
-17.03491848012582
 30
0.0
 10
194.6571925628467
 20
-17.88215438421138
 30
0.0
 10
194.7490485637801
 20
-18.34110918102699
 30
0.0
 10
194.7490485588905
 20
-18.79999999999728
 30
0.0
  0
SPLINE
  5
7D
330
1F
100
AcDbEntity
  8
0
  6
Continuous
 62
     7
370
    25
100
AcDbSpline
210
0.0
220
0.0
230
1.0
 70
     8
 71
     3
 72
     9
 73
     5
 74
     0
 42
0.00000001
 43
0.00000001
 40
0.0
 40
0.0
 40
0.0
 40
0.0
 40
0.768959142586878
 40
1.0
 40
1.0
 40
1.0
 40
1.0
 10
313.6440441637932
 20
-49.54999999999563
 30
0.0
 10
313.36579639779
 20
-49.562356998773
 30
0.0
 10
313.0039465275002
 20
-49.57842677165558
 30
0.0
 10
312.7004007521341
 20
-49.7613293225132
 30
0.0
 10
312.6302692759294
 20
-49.80358728468639
 30
0.0
  0
SPLINE
  5
7E
330
1F
100
AcDbEntity
  8
0
  6
Continuous
 62
     7
370
    25
100
AcDbSpline
210
0.0
220
0.0
230
1.0
 70
     8
 71
     3
 72
    10
 73
     6
 74
     0
 42
0.00000001
 43
0.00000001
 40
0.0
 40
0.0
 40
0.0
 40
0.0
 40
0.2147743088987901
 40
0.8840190581118811
 40
1.0
 40
1.0
 40
1.0
 40
1.0
 10
194.6847786419842
 20
-19.17690866247858
 30
0.0
 10
194.7005336954131
 20
-19.05198306700784
 30
0.0
 10
194.7653820823741
 20
-18.53778466120989
 30
0.0
 10
194.6940314272086
 20
-17.91526850696324
 30
0.0
 10
194.4610254697298
 20
-17.51591374720362
 30
0.0
 10
194.4266095677538
 20
-17.45692746885163
 30
0.0
  0
SPLINE
  5
7F
330
1F
100
AcDbEntity
  8
0
  6
Continuous
 62
     7
370
    25
100
AcDbSpline
210
0.0
220
0.0
230
1.0
 70
     8
 71
     3
 72
    10
 73
     6
 74
     0
 42
0.00000001
 43
0.00000001
 40
0.0
 40
0.0
 40
0.0
 40
0.0
 40
0.2147743062090689
 40
0.8840190352314117
 40
1.0
 40
1.0
 40
1.0
 40
1.0
 10
118.9592655234387
 20
-18.42309127458551
 30
0.0
 10
118.943510469428
 20
-18.54801689068066
 30
0.0
 10
118.8786620809387
 20
-19.06221537450034
 30
0.0
 10
118.9500127345935
 20
-19.68473165230719
 30
0.0
 10
119.1830187763219
 20
-20.08408646115293
 30
0.0
 10
119.2174346974135
 20
-20.14307275818976
 30
0.0
  0
LINE
  5
80
330
1F
100
AcDbEntity
  8
0
  6
Continuous
 62
     7
370
    25
100
AcDbLine
 10
0.0
 20
105.0
 30
0.0
 11
0.0
 21
-105.0
 31
0.0
  0
LINE
  5
81
330
1F
100
AcDbEntity
  8
0
  6
Continuous
 62
     7
370
    25
100
AcDbLine
 10
635.9732534251
 20
105.0
 30
0.0
 11
0.0
 21
105.0
 31
0.0
  0
LINE
  5
82
330
1F
100
AcDbEntity
  8
0
  6
Continuous
 62
     7
370
    25
100
AcDbLine
 10
635.9732534251
 20
105.0
 30
0.0
 11
635.9732534252
 21
-105.0
 31
0.0
  0
LINE
  5
83
330
1F
100
AcDbEntity
  8
0
  6
Continuous
 62
     7
370
    25
100
AcDbLine
 10
635.9732534252
 20
-105.0
 30
0.0
 11
0.0
 21
-105.0
 31
0.0
  0
ENDSEC
  0
SECTION
  2
OBJECTS
  0
DICTIONARY
  5
C
330
0
100
AcDbDictionary
281
     1
  3
ACAD_GROUP
350
D
  3
ACAD_LAYOUT
350
1A
  3
ACAD_MLINESTYLE
350
17
  3
ACAD_PLOTSETTINGS
350
19
  3
ACAD_PLOTSTYLENAME
350
E
  3
ACAD_SCALELIST
350
47
  3
DWGPROPS
350
84
  0
DICTIONARY
  5
D
102
{ACAD_REACTORS
330
C
102
}
330
C
100
AcDbDictionary
281
     1
  0
DICTIONARY
  5
1A
102
{ACAD_REACTORS
330
C
102
}
330
C
100
AcDbDictionary
281
     1
  3
Layout1
350
1E
  3
Layout2
350
26
  3
Model
350
22
  0
DICTIONARY
  5
17
102
{ACAD_REACTORS
330
C
102
}
330
C
100
AcDbDictionary
281
     1
  3
Standard
350
18
  0
DICTIONARY
  5
19
102
{ACAD_REACTORS
330
C
102
}
330
C
100
AcDbDictionary
281
     1
  0
ACDBDICTIONARYWDFLT
  5
E
102
{ACAD_REACTORS
330
C
102
}
330
C
100
AcDbDictionary
281
     1
  3
Normal
350
F
100
AcDbDictionaryWithDefault
340
F
  0
DICTIONARY
  5
47
102
{ACAD_REACTORS
330
C
102
}
330
C
100
AcDbDictionary
281
     1
  3
A0
350
48
  3
A1
350
49
  3
A2
350
4A
  3
A3
350
4B
  3
A4
350
4C
  3
A5
350
4D
  3
A6
350
4E
  3
A7
350
4F
  3
A8
350
50
  3
A9
350
51
  3
B0
350
52
  3
B1
350
53
  3
B2
350
54
  3
B3
350
55
  3
B4
350
56
  3
B5
350
57
  3
B6
350
58
  3
B7
350
59
  3
B8
350
5A
  3
B9
350
5B
  3
C0
350
5C
  3
C1
350
5D
  3
C2
350
5E
  3
C3
350
5F
  3
C4
350
60
  3
C5
350
61
  3
C6
350
62
  3
C7
350
63
  3
C8
350
64
  3
C9
350
65
  3
D0
350
66
  3
D1
350
67
  3
D2
350
68
  0
XRECORD
  5
84
102
{ACAD_REACTORS
330
C
102
}
330
C
100
AcDbXrecord
280
     1
  1
DWGPROPS COOKIE
  2

  3

  4

  6

  7

  8
vip
  9

300
=
301
=
302
=
303
=
304
=
305
=
306
=
307
=
308
=
309
=
 40
0.0
 41
2460059.47853456
 42
2460059.478567916
  1

 90
        0
  0
LAYOUT
  5
1E
102
{ACAD_REACTORS
330
1A
102
}
330
1A
100
AcDbPlotSettings
  1

  2
none_device
  4

  6

 40
0.0
 41
0.0
 42
0.0
 43
0.0
 44
0.0
 45
0.0
 46
0.0
 47
0.0
 48
0.0
 49
0.0
140
0.0
141
0.0
142
1.0
143
1.0
 70
   688
 72
     1
 73
     0
 74
     5
  7

 75
    16
147
1.0
148
0.0
149
0.0
100
AcDbLayout
  1
Layout1
 70
     1
 71
     1
 10
0.0
 20
0.0
 11
420.0
 21
297.0
 12
0.0
 22
0.0
 32
0.0
 14
1.0000000000E+20
 24
1.0000000000E+20
 34
1.0000000000E+20
 15
-1.0000000000E+20
 25
-1.0000000000E+20
 35
-1.0000000000E+20
146
0.0
 13
0.0
 23
0.0
 33
0.0
 16
1.0
 26
0.0
 36
0.0
 17
0.0
 27
1.0
 37
0.0
 76
     0
330
1B
  0
LAYOUT
  5
26
102
{ACAD_REACTORS
330
1A
102
}
330
1A
100
AcDbPlotSettings
  1

  2
none_device
  4

  6

 40
0.0
 41
0.0
 42
0.0
 43
0.0
 44
0.0
 45
0.0
 46
0.0
 47
0.0
 48
0.0
 49
0.0
140
0.0
141
0.0
142
1.0
143
1.0
 70
   688
 72
     1
 73
     0
 74
     5
  7

 75
    16
147
1.0
148
0.0
149
0.0
100
AcDbLayout
  1
Layout2
 70
     1
 71
     2
 10
0.0
 20
0.0
 11
0.0
 21
0.0
 12
0.0
 22
0.0
 32
0.0
 14
0.0
 24
0.0
 34
0.0
 15
0.0
 25
0.0
 35
0.0
146
0.0
 13
0.0
 23
0.0
 33
0.0
 16
1.0
 26
0.0
 36
0.0
 17
0.0
 27
1.0
 37
0.0
 76
     0
330
23
  0
LAYOUT
  5
22
102
{ACAD_REACTORS
330
1A
102
}
330
1A
100
AcDbPlotSettings
  1

  2
none_device
  4
ANSI_A_(11.00_x_8.50_Inches)
  6

 40
6.35
 41
19.05
 42
6.35000508
 43
19.05000254
 44
279.4
 45
215.9
 46
-4.95300254
 47
88.89999873
 48
0.0
 49
0.0
140
0.0
141
0.0
142
0.0171233616
143
1.0
 70
  1696
 72
     0
 73
     0
 74
     0
  7

 75
     0
147
0.0179189148
148
-1300.4909072572
149
0.0
100
AcDbLayout
  1
Model
 70
     1
 71
     0
 10
0.0
 20
0.0
 11
420.0
 21
297.0
 12
0.0
 22
0.0
 32
0.0
 14
0.0
 24
-105.0
 34
0.0
 15
635.9732534252
 25
105.0
 35
0.0
146
0.0
 13
0.0
 23
0.0
 33
0.0
 16
1.0
 26
0.0
 36
0.0
 17
0.0
 27
1.0
 37
0.0
 76
     0
330
1F
331
29
  0
MLINESTYLE
  5
18
102
{ACAD_REACTORS
330
17
102
}
330
17
100
AcDbMlineStyle
  2
Standard
 70
     0
  3

 62
   256
 51
90.0
 52
90.0
 71
     2
 49
0.5
 62
   256
  6
BYLAYER
 49
-0.5
 62
   256
  6
BYLAYER
  0
ACDBPLACEHOLDER
  5
F
102
{ACAD_REACTORS
330
E
102
}
330
E
  0
SCALE
  5
48
102
{ACAD_REACTORS
330
47
102
}
330
47
100
AcDbScale
 70
     0
300
1:1
140
1.0
141
1.0
290
     1
  0
SCALE
  5
49
102
{ACAD_REACTORS
330
47
102
}
330
47
100
AcDbScale
 70
     0
300
1:2
140
1.0
141
2.0
290
     0
  0
SCALE
  5
4A
102
{ACAD_REACTORS
330
47
102
}
330
47
100
AcDbScale
 70
     0
300
1:4
140
1.0
141
4.0
290
     0
  0
SCALE
  5
4B
102
{ACAD_REACTORS
330
47
102
}
330
47
100
AcDbScale
 70
     0
300
1:5
140
1.0
141
5.0
290
     0
  0
SCALE
  5
4C
102
{ACAD_REACTORS
330
47
102
}
330
47
100
AcDbScale
 70
     0
300
1:8
140
1.0
141
8.0
290
     0
  0
SCALE
  5
4D
102
{ACAD_REACTORS
330
47
102
}
330
47
100
AcDbScale
 70
     0
300
1:10
140
1.0
141
10.0
290
     0
  0
SCALE
  5
4E
102
{ACAD_REACTORS
330
47
102
}
330
47
100
AcDbScale
 70
     0
300
1:16
140
1.0
141
16.0
290
     0
  0
SCALE
  5
4F
102
{ACAD_REACTORS
330
47
102
}
330
47
100
AcDbScale
 70
     0
300
1:20
140
1.0
141
20.0
290
     0
  0
SCALE
  5
50
102
{ACAD_REACTORS
330
47
102
}
330
47
100
AcDbScale
 70
     0
300
1:30
140
1.0
141
30.0
290
     0
  0
SCALE
  5
51
102
{ACAD_REACTORS
330
47
102
}
330
47
100
AcDbScale
 70
     0
300
1:40
140
1.0
141
40.0
290
     0
  0
SCALE
  5
52
102
{ACAD_REACTORS
330
47
102
}
330
47
100
AcDbScale
 70
     0
300
1:50
140
1.0
141
50.0
290
     0
  0
SCALE
  5
53
102
{ACAD_REACTORS
330
47
102
}
330
47
100
AcDbScale
 70
     0
300
1:100
140
1.0
141
100.0
290
     0
  0
SCALE
  5
54
102
{ACAD_REACTORS
330
47
102
}
330
47
100
AcDbScale
 70
     0
300
2:1
140
2.0
141
1.0
290
     0
  0
SCALE
  5
55
102
{ACAD_REACTORS
330
47
102
}
330
47
100
AcDbScale
 70
     0
300
4:1
140
4.0
141
1.0
290
     0
  0
SCALE
  5
56
102
{ACAD_REACTORS
330
47
102
}
330
47
100
AcDbScale
 70
     0
300
8:1
140
8.0
141
1.0
290
     0
  0
SCALE
  5
57
102
{ACAD_REACTORS
330
47
102
}
330
47
100
AcDbScale
 70
     0
300
10:1
140
10.0
141
1.0
290
     0
  0
SCALE
  5
58
102
{ACAD_REACTORS
330
47
102
}
330
47
100
AcDbScale
 70
     0
300
100:1
140
100.0
141
1.0
290
     0
  0
SCALE
  5
59
102
{ACAD_REACTORS
330
47
102
}
330
47
100
AcDbScale
 70
     0
300
1/128" = 1'-0"
140
0.0078125
141
12.0
290
     0
  0
SCALE
  5
5A
102
{ACAD_REACTORS
330
47
102
}
330
47
100
AcDbScale
 70
     0
300
1/64" = 1'-0"
140
0.015625
141
12.0
290
     0
  0
SCALE
  5
5B
102
{ACAD_REACTORS
330
47
102
}
330
47
100
AcDbScale
 70
     0
300
1/32" = 1'-0"
140
0.03125
141
12.0
290
     0
  0
SCALE
  5
5C
102
{ACAD_REACTORS
330
47
102
}
330
47
100
AcDbScale
 70
     0
300
1/16" = 1'-0"
140
0.0625
141
12.0
290
     0
  0
SCALE
  5
5D
102
{ACAD_REACTORS
330
47
102
}
330
47
100
AcDbScale
 70
     0
300
3/32" = 1'-0"
140
0.09375
141
12.0
290
     0
  0
SCALE
  5
5E
102
{ACAD_REACTORS
330
47
102
}
330
47
100
AcDbScale
 70
     0
300
1/8" = 1'-0"
140
0.125
141
12.0
290
     0
  0
SCALE
  5
5F
102
{ACAD_REACTORS
330
47
102
}
330
47
100
AcDbScale
 70
     0
300
3/16" = 1'-0"
140
0.1875
141
12.0
290
     0
  0
SCALE
  5
60
102
{ACAD_REACTORS
330
47
102
}
330
47
100
AcDbScale
 70
     0
300
1/4" = 1'-0"
140
0.25
141
12.0
290
     0
  0
SCALE
  5
61
102
{ACAD_REACTORS
330
47
102
}
330
47
100
AcDbScale
 70
     0
300
3/8" = 1'-0"
140
0.375
141
12.0
290
     0
  0
SCALE
  5
62
102
{ACAD_REACTORS
330
47
102
}
330
47
100
AcDbScale
 70
     0
300
1/2" = 1'-0"
140
0.5
141
12.0
290
     0
  0
SCALE
  5
63
102
{ACAD_REACTORS
330
47
102
}
330
47
100
AcDbScale
 70
     0
300
3/4" = 1'-0"
140
0.75
141
12.0
290
     0
  0
SCALE
  5
64
102
{ACAD_REACTORS
330
47
102
}
330
47
100
AcDbScale
 70
     0
300
1" = 1'-0"
140
1.0
141
12.0
290
     0
  0
SCALE
  5
65
102
{ACAD_REACTORS
330
47
102
}
330
47
100
AcDbScale
 70
     0
300
1-1/2" = 1'-0"
140
1.5
141
12.0
290
     0
  0
SCALE
  5
66
102
{ACAD_REACTORS
330
47
102
}
330
47
100
AcDbScale
 70
     0
300
3" = 1'-0"
140
3.0
141
12.0
290
     0
  0
SCALE
  5
67
102
{ACAD_REACTORS
330
47
102
}
330
47
100
AcDbScale
 70
     0
300
6" = 1'-0"
140
6.0
141
12.0
290
     0
  0
SCALE
  5
68
102
{ACAD_REACTORS
330
47
102
}
330
47
100
AcDbScale
 70
     0
300
1'-0" = 1'-0"
140
12.0
141
12.0
290
     0
  0
ENDSEC
  0
EOF
