  0
SECTION
  2
HEADER
  9
$ACADVER
  1
AC1015
  9
$ACADMAINTVER
 70
     6
  9
$DWGCODEPAGE
  3
ANSI_1251
  9
$INSBASE
 10
0.0
 20
0.0
 30
0.0
  9
$EXTMIN
 10
0.0
 20
-200.0
 30
0.0
  9
$EXTMAX
 10
635.9732534252
 20
200.0
 30
0.0
  9
$LIMMIN
 10
0.0
 20
0.0
  9
$LIMMAX
 10
420.0
 20
297.0
  9
$ORTHOMODE
 70
     0
  9
$REGENMODE
 70
     1
  9
$FILLMODE
 70
     1
  9
$QTEXTMODE
 70
     0
  9
$MIRRTEXT
 70
     1
  9
$LTSCALE
 40
1.0
  9
$ATTMODE
 70
     1
  9
$TEXTSIZE
 40
4.0
  9
$TRACEWID
 40
1.0
  9
$TEXTSTYLE
  7
Standard
  9
$CLAYER
  8
0
  9
$CELTYPE
  6
ByLayer
  9
$CECOLOR
 62
   256
  9
$CELTSCALE
 40
1.0
  9
$DISPSILH
 70
     0
  9
$DIMSCALE
 40
1.0
  9
$DIMASZ
 40
6.0
  9
$DIMEXO
 40
0.0
  9
$DIMDLI
 40
3.75
  9
$DIMRND
 40
0.0
  9
$DIMDLE
 40
0.0
  9
$DIMEXE
 40
1.0
  9
$DIMTP
 40
0.0
  9
$DIMTM
 40
0.0
  9
$DIMTXT
 40
4.0
  9
$DIMCEN
 40
2.5
  9
$DIMTSZ
 40
0.0
  9
$DIMTOL
 70
     0
  9
$DIMLIM
 70
     0
  9
$DIMTIH
 70
     1
  9
$DIMTOH
 70
     1
  9
$DIMSE1
 70
     0
  9
$DIMSE2
 70
     0
  9
$DIMTAD
 70
     1
  9
$DIMZIN
 70
     0
  9
$DIMBLK
  1

  9
$DIMASO
 70
     1
  9
$DIMSHO
 70
     1
  9
$DIMPOST
  1

  9
$DIMAPOST
  1

  9
$DIMALT
 70
     0
  9
$DIMALTD
 70
     3
  9
$DIMALTF
 40
0.0393700787
  9
$DIMLFAC
 40
1.0
  9
$DIMTOFL
 70
     1
  9
$DIMTVP
 40
0.0
  9
$DIMTIX
 70
     0
  9
$DIMSOXD
 70
     0
  9
$DIMSAH
 70
     0
  9
$DIMBLK1
  1

  9
$DIMBLK2
  1

  9
$DIMSTYLE
  2
ISO-25
  9
$DIMCLRD
 70
     0
  9
$DIMCLRE
 70
     0
  9
$DIMCLRT
 70
     0
  9
$DIMTFAC
 40
1.0
  9
$DIMGAP
 40
3.0
  9
$DIMJUST
 70
     0
  9
$DIMSD1
 70
     0
  9
$DIMSD2
 70
     0
  9
$DIMTOLJ
 70
     0
  9
$DIMTZIN
 70
     0
  9
$DIMALTZ
 70
     0
  9
$DIMALTTZ
 70
     0
  9
$DIMUPT
 70
     0
  9
$DIMDEC
 70
     2
  9
$DIMTDEC
 70
     4
  9
$DIMALTU
 70
     2
  9
$DIMALTTD
 70
     3
  9
$DIMTXSTY
  7
Standard
  9
$DIMAUNIT
 70
     0
  9
$DIMADEC
 70
     2
  9
$DIMALTRND
 40
0.0
  9
$DIMAZIN
 70
     0
  9
$DIMDSEP
 70
    44
  9
$DIMATFIT
 70
     3
  9
$DIMFRAC
 70
     0
  9
$DIMLDRBLK
  1

  9
$DIMLUNIT
 70
     2
  9
$DIMLWD
 70
    -2
  9
$DIMLWE
 70
    -2
  9
$DIMTMOVE
 70
     0
  9
$LUNITS
 70
     2
  9
$LUPREC
 70
     2
  9
$SKETCHINC
 40
1.0
  9
$FILLETRAD
 40
10.0
  9
$AUNITS
 70
     0
  9
$AUPREC
 70
     2
  9
$MENU
  1
.
  9
$ELEVATION
 40
0.0
  9
$PELEVATION
 40
0.0
  9
$THICKNESS
 40
0.0
  9
$LIMCHECK
 70
     0
  9
$CHAMFERA
 40
0.0
  9
$CHAMFERB
 40
0.0
  9
$CHAMFERC
 40
0.0
  9
$CHAMFERD
 40
0.0
  9
$SKPOLY
 70
     0
  9
$TDCREATE
 40
2459990.529410474
  9
$TDUCREATE
 40
2459990.404410474
  9
$TDUPDATE
 40
2459990.529430648
  9
$TDUUPDATE
 40
2459990.404430648
  9
$TDINDWG
 40
0.0000000116
  9
$TDUSRTIMER
 40
0.0000000116
  9
$USRTIMER
 70
     1
  9
$ANGBASE
 50
0.0
  9
$ANGDIR
 70
     0
  9
$PDMODE
 70
     0
  9
$PDSIZE
 40
-1.0
  9
$PLINEWID
 40
0.0
  9
$SPLFRAME
 70
     0
  9
$SPLINETYPE
 70
     6
  9
$SPLINESEGS
 70
     8
  9
$HANDSEED
  5
8A
  9
$SURFTAB1
 70
     6
  9
$SURFTAB2
 70
     6
  9
$SURFTYPE
 70
     6
  9
$SURFU
 70
     6
  9
$SURFV
 70
     6
  9
$UCSBASE
  2

  9
$UCSNAME
  2

  9
$UCSORG
 10
0.0
 20
0.0
 30
0.0
  9
$UCSXDIR
 10
1.0
 20
0.0
 30
0.0
  9
$UCSYDIR
 10
0.0
 20
1.0
 30
0.0
  9
$UCSORTHOREF
  2

  9
$UCSORTHOVIEW
 70
     0
  9
$UCSORGTOP
 10
0.0
 20
0.0
 30
0.0
  9
$UCSORGBOTTOM
 10
0.0
 20
0.0
 30
0.0
  9
$UCSORGLEFT
 10
0.0
 20
0.0
 30
0.0
  9
$UCSORGRIGHT
 10
0.0
 20
0.0
 30
0.0
  9
$UCSORGFRONT
 10
0.0
 20
0.0
 30
0.0
  9
$UCSORGBACK
 10
0.0
 20
0.0
 30
0.0
  9
$PUCSBASE
  2

  9
$PUCSNAME
  2

  9
$PUCSORG
 10
0.0
 20
0.0
 30
0.0
  9
$PUCSXDIR
 10
1.0
 20
0.0
 30
0.0
  9
$PUCSYDIR
 10
0.0
 20
1.0
 30
0.0
  9
$PUCSORTHOREF
  2

  9
$PUCSORTHOVIEW
 70
     0
  9
$PUCSORGTOP
 10
0.0
 20
0.0
 30
0.0
  9
$PUCSORGBOTTOM
 10
0.0
 20
0.0
 30
0.0
  9
$PUCSORGLEFT
 10
0.0
 20
0.0
 30
0.0
  9
$PUCSORGRIGHT
 10
0.0
 20
0.0
 30
0.0
  9
$PUCSORGFRONT
 10
0.0
 20
0.0
 30
0.0
  9
$PUCSORGBACK
 10
0.0
 20
0.0
 30
0.0
  9
$USERI1
 70
     0
  9
$USERI2
 70
     0
  9
$USERI3
 70
     0
  9
$USERI4
 70
     0
  9
$USERI5
 70
     0
  9
$USERR1
 40
0.0
  9
$USERR2
 40
0.0
  9
$USERR3
 40
0.0
  9
$USERR4
 40
0.0
  9
$USERR5
 40
0.0
  9
$WORLDVIEW
 70
     1
  9
$SHADEDGE
 70
     3
  9
$SHADEDIF
 70
    70
  9
$TILEMODE
 70
     1
  9
$MAXACTVP
 70
    64
  9
$PINSBASE
 10
0.0
 20
0.0
 30
0.0
  9
$PLIMCHECK
 70
     0
  9
$PEXTMIN
 10
1.0000000000E+20
 20
1.0000000000E+20
 30
1.0000000000E+20
  9
$PEXTMAX
 10
-1.0000000000E+20
 20
-1.0000000000E+20
 30
-1.0000000000E+20
  9
$PLIMMIN
 10
0.0
 20
0.0
  9
$PLIMMAX
 10
420.0
 20
297.0
  9
$UNITMODE
 70
     0
  9
$VISRETAIN
 70
     1
  9
$PLINEGEN
 70
     0
  9
$PSLTSCALE
 70
     1
  9
$TREEDEPTH
 70
  3020
  9
$CMLSTYLE
  2
Standard
  9
$CMLJUST
 70
     0
  9
$CMLSCALE
 40
20.0
  9
$PROXYGRAPHICS
 70
     1
  9
$MEASUREMENT
 70
     1
  9
$CELWEIGHT
370
    -1
  9
$ENDCAPS
280
     0
  9
$JOINSTYLE
280
     0
  9
$LWDISPLAY
290
     1
  9
$INSUNITS
 70
     4
  9
$HYPERLINKBASE
  1

  9
$STYLESHEET
  1

  9
$XEDIT
290
     1
  9
$CEPSNTYPE
380
     0
  9
$PSTYLEMODE
290
     1
  9
$FINGERPRINTGUID
  2
{7d2ed54f-5f6f-4e04-9615-58cffcb0a0ce}
  9
$VERSIONGUID
  2
{FAEB1C32-E019-11D5-929B-00C0DF256EC4}
  9
$EXTNAMES
290
     1
  9
$PSVPSCALE
 40
0.0
  9
$OLESTARTUP
290
     0
  0
ENDSEC
  0
SECTION
  2
CLASSES
  0
CLASS
  1
ACDBDICTIONARYWDFLT
  2
AcDbDictionaryWithDefault
  3
ObjectDBX Classes
 90
        0
280
     0
281
     0
  0
CLASS
  1
VISUALSTYLE
  2
AcDbVisualStyle
  3
ObjectDBX Classes
 90
     4095
280
     0
281
     0
  0
CLASS
  1
MATERIAL
  2
AcDbMaterial
  3
ObjectDBX Classes
 90
     1153
280
     0
281
     0
  0
CLASS
  1
SCALE
  2
AcDbScale
  3
ObjectDBX Classes
 90
     1153
280
     0
281
     0
  0
CLASS
  1
TABLESTYLE
  2
AcDbTableStyle
  3
ObjectDBX Classes
 90
     4095
280
     0
281
     0
  0
CLASS
  1
MLEADERSTYLE
  2
AcDbMLeaderStyle
  3
ACDB_MLEADERSTYLE_CLASS
 90
     4095
280
     0
281
     0
  0
CLASS
  1
SUN
  2
AcDbSun
  3
SCENEOE
 90
     1153
280
     0
281
     0
  0
CLASS
  1
ACDBPLACEHOLDER
  2
AcDbPlaceHolder
  3
ObjectDBX Classes
 90
        0
280
     0
281
     0
  0
CLASS
  1
LAYOUT
  2
AcDbLayout
  3
ObjectDBX Classes
 90
        0
280
     0
281
     0
  0
ENDSEC
  0
SECTION
  2
TABLES
  0
TABLE
  2
VPORT
  5
8
330
0
100
AcDbSymbolTable
 70
     1
  0
VPORT
  5
29
330
8
100
AcDbSymbolTableRecord
100
AcDbViewportTableRecord
  2
*Active
 70
     0
 10
0.0
 20
0.0
 11
1.0
 21
1.0
 12
317.9866267126
 22
0.0
 13
0.0
 23
0.0
 14
10.0
 24
10.0
 15
10.0
 25
10.0
 16
0.0
 26
0.0
 36
1.0
 17
0.0
 27
0.0
 37
0.0
 40
408.0
 41
1.5899331336
 42
50.0
 43
0.0
 44
0.0
 50
0.0
 51
0.0
 71
     0
 72
   100
 73
     1
 74
     3
 75
     0
 76
     0
 77
     0
 78
     0
281
     0
 65
     1
110
0.0
120
0.0
130
0.0
111
1.0
121
0.0
131
0.0
112
0.0
122
1.0
132
0.0
 79
     0
146
0.0
  0
ENDTAB
  0
TABLE
  2
LTYPE
  5
5
330
0
100
AcDbSymbolTable
 70
     6
  0
LTYPE
  5
14
330
5
100
AcDbSymbolTableRecord
100
AcDbLinetypeTableRecord
  2
ByBlock
 70
     0
  3

 72
    65
 73
     0
 40
0.0
  0
LTYPE
  5
15
330
5
100
AcDbSymbolTableRecord
100
AcDbLinetypeTableRecord
  2
ByLayer
 70
     0
  3

 72
    65
 73
     0
 40
0.0
  0
LTYPE
  5
16
330
5
100
AcDbSymbolTableRecord
100
AcDbLinetypeTableRecord
  2
Continuous
 70
     0
  3
Solid line
 72
    65
 73
     0
 40
0.0
  0
LTYPE
  5
6E
330
5
100
AcDbSymbolTableRecord
100
AcDbLinetypeTableRecord
  2
HIDDEN
 70
     0
  3
Hidden __ __ __ __ __ __ __ __ __ __ __ __ __ __
 72
    65
 73
     2
 40
1.905
 49
1.27
 74
     0
 49
-0.635
 74
     0
  0
LTYPE
  5
6F
330
5
100
AcDbSymbolTableRecord
100
AcDbLinetypeTableRecord
  2
PHANTOM
 70
     0
  3
Phantom ______  __  __  ______  __  __  ______
 72
    65
 73
     6
 40
12.7
 49
6.35
 74
     0
 49
-1.27
 74
     0
 49
1.27
 74
     0
 49
-1.27
 74
     0
 49
1.27
 74
     0
 49
-1.27
 74
     0
  0
LTYPE
  5
70
330
5
100
AcDbSymbolTableRecord
100
AcDbLinetypeTableRecord
  2
CENTER
 70
     0
  3
Center ____ _ ____ _ ____ _ ____ _ ____ _ ____
 72
    65
 73
     4
 40
10.16
 49
6.35
 74
     0
 49
-1.27
 74
     0
 49
1.27
 74
     0
 49
-1.27
 74
     0
  0
LTYPE
  5
71
330
5
100
AcDbSymbolTableRecord
100
AcDbLinetypeTableRecord
  2
CENTERX2
 70
     0
  3
Center (2x) ________  __  ________  __  _____
 72
    65
 73
     4
 40
20.32
 49
12.7
 74
     0
 49
-2.54
 74
     0
 49
2.54
 74
     0
 49
-2.54
 74
     0
  0
LTYPE
  5
72
330
5
100
AcDbSymbolTableRecord
100
AcDbLinetypeTableRecord
  2
DOT2
 70
     0
  3
Dot (.5x) ........................................
 72
    65
 73
     2
 40
0.635
 49
0.0
 74
     0
 49
-0.635
 74
     0
  0
ENDTAB
  0
TABLE
  2
LAYER
  5
2
330
0
100
AcDbSymbolTable
 70
     1
  0
LAYER
  5
10
330
2
100
AcDbSymbolTableRecord
100
AcDbLayerTableRecord
  2
0
 70
     0
 62
     7
  6
Continuous
370
    -3
390
F
  0
ENDTAB
  0
TABLE
  2
STYLE
  5
3
330
0
100
AcDbSymbolTable
 70
     1
  0
STYLE
  5
11
330
3
100
AcDbSymbolTableRecord
100
AcDbTextStyleTableRecord
  2
Standard
 70
     0
 40
0.0
 41
1.0
 50
0.0
 71
     0
 42
4.0
  3
txt
  4

  0
ENDTAB
  0
TABLE
  2
VIEW
  5
6
330
0
100
AcDbSymbolTable
 70
     0
  0
ENDTAB
  0
TABLE
  2
UCS
  5
7
330
0
100
AcDbSymbolTable
 70
     0
  0
ENDTAB
  0
TABLE
  2
APPID
  5
9
330
0
100
AcDbSymbolTable
 70
     1
  0
APPID
  5
12
330
9
100
AcDbSymbolTableRecord
100
AcDbRegAppTableRecord
  2
ACAD
 70
     0
  0
ENDTAB
  0
TABLE
  2
DIMSTYLE
  5
A
330
0
100
AcDbSymbolTable
 70
     1
100
AcDbDimStyleTable
  0
DIMSTYLE
105
27
330
A
100
AcDbSymbolTableRecord
100
AcDbDimStyleTableRecord
  2
ISO-25
 70
     0
 41
2.5
 42
0.625
 43
3.75
 44
1.25
 73
     0
 74
     0
 77
     1
 78
     8
140
2.5
141
2.5
143
0.0393700787
147
0.625
171
     3
172
     1
178
     0
271
     2
272
     2
274
     3
278
    44
283
     0
284
     8
340
11
  0
ENDTAB
  0
TABLE
  2
BLOCK_RECORD
  5
1
330
0
100
AcDbSymbolTable
 70
     1
  0
BLOCK_RECORD
  5
1F
330
1
100
AcDbSymbolTableRecord
100
AcDbBlockTableRecord
  2
*Model_Space
340
22
  0
BLOCK_RECORD
  5
1B
330
1
100
AcDbSymbolTableRecord
100
AcDbBlockTableRecord
  2
*Paper_Space
340
1E
  0
BLOCK_RECORD
  5
23
330
1
100
AcDbSymbolTableRecord
100
AcDbBlockTableRecord
  2
*Paper_Space0
340
26
  0
ENDTAB
  0
ENDSEC
  0
SECTION
  2
BLOCKS
  0
BLOCK
  5
20
330
1F
100
AcDbEntity
  8
0
100
AcDbBlockBegin
  2
*Model_Space
 70
     0
 10
0.0
 20
0.0
 30
0.0
  3
*Model_Space
  1

  0
ENDBLK
  5
21
330
1F
100
AcDbEntity
  8
0
100
AcDbBlockEnd
  0
BLOCK
  5
1C
330
1B
100
AcDbEntity
 67
     1
  8
0
100
AcDbBlockBegin
  2
*Paper_Space
 70
     0
 10
0.0
 20
0.0
 30
0.0
  3
*Paper_Space
  1

  0
ENDBLK
  5
1D
330
1B
100
AcDbEntity
 67
     1
  8
0
100
AcDbBlockEnd
  0
BLOCK
  5
24
330
23
100
AcDbEntity
  8
0
100
AcDbBlockBegin
  2
*Paper_Space0
 70
     0
 10
0.0
 20
0.0
 30
0.0
  3
*Paper_Space0
  1

  0
ENDBLK
  5
25
330
23
100
AcDbEntity
  8
0
100
AcDbBlockEnd
  0
ENDSEC
  0
SECTION
  2
ENTITIES
  0
SPLINE
  5
73
330
1F
100
AcDbEntity
  8
0
  6
Continuous
 62
     7
370
    25
100
AcDbSpline
210
0.0
220
0.0
230
1.0
 70
    11
 71
     3
 72
    39
 73
    35
 74
     0
 42
0.00000001
 43
0.00000001
 40
0.0
 40
0.0
 40
0.0
 40
0.0
 40
0.0312584513637553
 40
0.0625007174921454
 40
0.0937459014832411
 40
0.125000851639506
 40
0.1562384054440316
 40
0.1875003970526029
 40
0.2187281035012632
 40
0.2499997732486501
 40
0.2812205377486735
 40
0.3124990662810107
 40
0.3437254284764364
 40
0.374998654964227
 40
0.4062325600115721
 40
0.4374993659915549
 40
0.4687327491216252
 40
0.4999995738050949
 40
0.5312346496765155
 40
0.5625000194451192
 40
0.5937497667089372
 40
0.6250006580065869
 40
0.6562568640802757
 40
0.687500641950016
 40
0.7187404463769381
 40
0.7499995108847597
 40
0.7812199871053689
 40
0.8124984650703488
 40
0.8437108739518342
 40
0.8749984550060856
 40
0.9062156067410639
 40
0.93749869511924
 40
0.9687447965694225
 40
1.0
 40
1.0
 40
1.0
 40
1.0
 10
470.467223821728
 20
88.24999979524071
 30
0.0
 10
470.6804410860547
 20
88.24989052199612
 30
0.0
 10
471.1067336231757
 20
88.20909942814981
 30
0.0
 10
471.7211273884959
 20
88.0216783154769
 30
0.0
 10
472.2889630208919
 20
87.72142642423624
 30
0.0
 10
472.7853146926395
 20
87.31375593909465
 30
0.0
 10
473.1954143368266
 20
86.81923248899241
 30
0.0
 10
473.4977631281014
 20
86.25257173457621
 30
0.0
 10
473.6867901566661
 20
85.63848699334434
 30
0.0
 10
473.748122353016
 20
84.9991686399686
 30
0.0
 10
473.6864452676023
 20
84.35954359015807
 30
0.0
 10
473.497068706185
 20
83.7458077246272
 30
0.0
 10
473.1943001556484
 20
83.17898993226251
 30
0.0
 10
472.7839120713268
 20
82.68487402433865
 30
0.0
 10
472.2871598852361
 20
82.2773166561946
 30
0.0
 10
471.7191381476483
 20
81.97751613413332
 30
0.0
 10
471.104506260288
 20
81.79041536248556
 30
0.0
 10
470.4651136777321
 20
81.72969729092041
 30
0.0
 10
469.8255396500144
 20
81.7907836159565
 30
0.0
 10
469.2111445370754
 20
81.97829464925155
 30
0.0
 10
468.6430957244191
 20
82.27849238738402
 30
0.0
 10
468.1467258270817
 20
82.68635869165982
 30
0.0
 10
467.7366503789535
 20
83.18086431188094
 30
0.0
 10
467.4342863147799
 20
83.7476158731504
 30
0.0
 10
467.2453718865778
 20
84.36160001166184
 30
0.0
 10
467.1839947374482
 20
85.00090664595709
 30
0.0
 10
467.2457356504156
 20
85.64043564511908
 30
0.0
 10
467.4350081073981
 20
86.25410098903299
 30
0.0
 10
467.7378215465305
 20
86.82089585890246
 30
0.0
 10
468.1480707569813
 20
87.3149755946898
 30
0.0
 10
468.644854909845
 20
87.72265427893298
 30
0.0
 10
469.2129713145141
 20
88.02244077364102
 30
0.0
 10
469.8276689905306
 20
88.20975877961709
 30
0.0
 10
470.2540287119035
 20
88.25010905713118
 30
0.0
 10
470.467223821728
 20
88.24999979524073
 30
0.0
  0
SPLINE
  5
74
330
1F
100
AcDbEntity
  8
0
  6
Continuous
 62
     7
370
    25
100
AcDbSpline
210
0.0
220
0.0
230
1.0
 70
    11
 71
     3
 72
    39
 73
    35
 74
     0
 42
0.00000001
 43
0.00000001
 40
0.0
 40
0.0
 40
0.0
 40
0.0
 40
0.0312446136601548
 40
0.0625007370008728
 40
0.0937513811301397
 40
0.1250015556114483
 40
0.1562684217805261
 40
0.1875015261660532
 40
0.2187600967297196
 40
0.2499999713988788
 40
0.2812276928295799
 40
0.3124984501177097
 40
0.3437179671903616
 40
0.3749983595059934
 40
0.4062340621413207
 40
0.4374991721557123
 40
0.4687430473505694
 40
0.499999845564421
 40
0.5312392875966796
 40
0.5625005470188043
 40
0.59374659474745
 40
0.6250013800989173
 40
0.6562627031886729
 40
0.6875013073335863
 40
0.7187564314413882
 40
0.7499999210254918
 40
0.7812333155439227
 40
0.8124985315781259
 40
0.8437238698018924
 40
0.8749982582619258
 40
0.9062317203641497
 40
0.9374989689420685
 40
0.9687427538923
 40
1.0
 40
1.0
 40
1.0
 40
1.0
 10
156.8251240977709
 20
76.50000056222822
 30
0.0
 10
156.2675093609066
 20
76.49981818811395
 30
0.0
 10
155.1520466961977
 20
76.60565947035445
 30
0.0
 10
153.5441770751346
 20
77.09512905720695
 30
0.0
 10
152.0574848812606
 20
77.87931022272338
 30
0.0
 10
150.7572342668474
 20
78.94477087584158
 30
0.0
 10
149.6820771255492
 20
80.23672129387451
 30
0.0
 10
148.8882249980209
 20
81.71847262325349
 30
0.0
 10
148.3912907569739
 20
83.3239424924991
 30
0.0
 10
148.2290622846065
 20
84.99666514658948
 30
0.0
 10
148.3900320369582
 20
86.66971399400576
 30
0.0
 10
148.8856433768742
 20
88.27535265872102
 30
0.0
 10
149.6784632436276
 20
89.75788802971928
 30
0.0
 10
150.7524537162208
 20
91.05048640202352
 30
0.0
 10
152.0520645819179
 20
92.11709026912872
 30
0.0
 10
153.5379739016561
 20
92.90231003176703
 30
0.0
 10
155.1456904970603
 20
93.39311519258979
 30
0.0
 10
156.8185922258484
 20
93.55312973613411
 30
0.0
 10
158.4919015267682
 20
93.39434907816488
 30
0.0
 10
160.0997031913306
 20
92.90493950612523
 30
0.0
 10
161.5864923322047
 20
92.1207506884949
 30
0.0
 10
162.8866808936149
 20
91.05536059309283
 30
0.0
 10
163.9618866862529
 20
89.76335091044659
 30
0.0
 10
164.7557487544918
 20
88.28167899846072
 30
0.0
 10
165.2528146055738
 20
86.67613706448137
 30
0.0
 10
165.4149564584275
 20
85.0033018099811
 30
0.0
 10
165.2540895247436
 20
83.3301742400369
 30
0.0
 10
164.7583221424248
 20
81.72446100327888
 30
0.0
 10
163.9654516424116
 20
80.24208026819254
 30
0.0
 10
162.8915643778473
 20
78.94945672485842
 30
0.0
 10
161.5919849940919
 20
77.8829793740039
 30
0.0
 10
160.1061177078336
 20
77.09771225628147
 30
0.0
 10
158.4983766228167
 20
76.60679736471769
 30
0.0
 10
157.3829642827392
 20
76.50018301007779
 30
0.0
 10
156.8251240977709
 20
76.50000056222822
 30
0.0
  0
SPLINE
  5
75
330
1F
100
AcDbEntity
  8
0
  6
Continuous
 62
     7
370
    25
100
AcDbSpline
210
0.0
220
0.0
230
1.0
 70
    11
 71
     3
 72
    35
 73
    31
 74
     0
 42
0.00000001
 43
0.00000001
 40
0.0
 40
0.0
 40
0.0
 40
0.0
 40
0.0624945347292414
 40
0.0625032307806903
 40
0.1249926728326207
 40
0.1250049563745445
 40
0.1874949222107265
 40
0.1875036022371693
 40
0.2499997384378656
 40
0.3124956642225071
 40
0.3125043391704199
 40
0.3749943146611943
 40
0.3750065884618304
 40
0.4374960274381957
 40
0.4375047146998728
 40
0.4999997330778042
 40
0.562494780769895
 40
0.5625034717371878
 40
0.6249929109285246
 40
0.6250052011514075
 40
0.6874948430562913
 40
0.6875035242507396
 40
0.7499997359057292
 40
0.8124959105507347
 40
0.8125045854814896
 40
0.8749945233245892
 40
0.8750067996215946
 40
0.9374962673072962
 40
0.9375049546653852
 40
1.0
 40
1.0
 40
1.0
 40
1.0
 10
313.644044163791
 20
110.4500000000044
 30
0.0
 10
313.9652145064913
 20
110.4499999991565
 30
0.0
 10
314.2864295007885
 20
110.3864606464055
 30
0.0
 10
314.8803457156151
 20
110.1417128103064
 30
0.0
 10
315.1531424391236
 20
109.9604619259751
 30
0.0
 10
315.6085716222412
 20
109.5074212074356
 30
0.0
 10
315.7913073201758
 20
109.2355257817202
 30
0.0
 10
316.0382845698885
 20
108.642471140892
 30
0.0
 10
316.1668372890125
 20
108.0000052094684
 30
0.0
 10
316.0382871178729
 20
107.3575389582403
 30
0.0
 10
315.7913130605912
 20
106.7644841957375
 30
0.0
 10
315.6085786658344
 20
106.4925879270166
 30
0.0
 10
315.1531516403639
 20
106.0395450842323
 30
0.0
 10
314.8803558756164
 20
105.858292980493
 30
0.0
 10
314.2864385125242
 20
105.613541428674
 30
0.0
 10
313.6440482394398
 20
105.4864684720267
 30
0.0
 10
313.0016575202424
 20
105.6135393399939
 30
0.0
 10
312.4077392376956
 20
105.8582890726824
 30
0.0
 10
312.1349428125691
 20
106.0395403785819
 30
0.0
 10
311.6795155231392
 20
106.4925806184671
 30
0.0
 10
311.4967809546856
 20
106.7644746916321
 30
0.0
 10
311.2498039594066
 20
107.3575280086093
 30
0.0
 10
311.1212507620323
 20
107.9999956141088
 30
0.0
 10
311.249801668988
 20
108.6424636172084
 30
0.0
 10
311.4967770517928
 20
109.235519009543
 30
0.0
 10
311.6795117794759
 20
109.5074148236831
 30
0.0
 10
312.1349394134942
 20
109.9604570274345
 30
0.0
 10
312.4077355582695
 20
110.1417088590594
 30
0.0
 10
313.0016535454249
 20
110.386459620419
 30
0.0
 10
313.3228711970006
 20
110.4500000008523
 30
0.0
 10
313.644044163791
 20
110.4500000000044
 30
0.0
  0
SPLINE
  5
76
330
1F
100
AcDbEntity
  8
0
  6
Continuous
 62
     7
370
    25
100
AcDbSpline
210
0.0
220
0.0
230
1.0
 70
    11
 71
     3
 72
    35
 73
    31
 74
     0
 42
0.00000001
 43
0.00000001
 40
0.0
 40
0.0
 40
0.0
 40
0.0
 40
0.0624945347292478
 40
0.0625032307806807
 40
0.1249926728326226
 40
0.125004956374529
 40
0.1874949222107236
 40
0.1875036022371542
 40
0.2499997384378666
 40
0.3124956642224966
 40
0.3125043391704186
 40
0.3749943146611841
 40
0.375006588461837
 40
0.4374960274381816
 40
0.4375047146998748
 40
0.4999997330777989
 40
0.5624947807699002
 40
0.5625034717371787
 40
0.6249929109285236
 40
0.6250052011513969
 40
0.687494843056293
 40
0.6875035242507253
 40
0.749999735905732
 40
0.8124959105507259
 40
0.8125045854814906
 40
0.8749945233245807
 40
0.8750067996215996
 40
0.937496267307289
 40
0.9375049546653886
 40
1.0
 40
1.0
 40
1.0
 40
1.0
 10
313.6440441637911
 20
122.4500000000044
 30
0.0
 10
313.9652145064913
 20
122.4499999991564
 30
0.0
 10
314.2864295007885
 20
122.3864606464055
 30
0.0
 10
314.880345715615
 20
122.1417128103062
 30
0.0
 10
315.1531424391234
 20
121.960461925975
 30
0.0
 10
315.6085716222411
 20
121.5074212074355
 30
0.0
 10
315.7913073201757
 20
121.2355257817201
 30
0.0
 10
316.0382845698884
 20
120.642471140892
 30
0.0
 10
316.1668372890122
 20
120.0000052094684
 30
0.0
 10
316.0382871178728
 20
119.3575389582403
 30
0.0
 10
315.7913130605911
 20
118.7644841957375
 30
0.0
 10
315.6085786658342
 20
118.4925879270165
 30
0.0
 10
315.1531516403636
 20
118.0395450842323
 30
0.0
 10
314.8803558756159
 20
117.8582929804929
 30
0.0
 10
314.2864385125239
 20
117.613541428674
 30
0.0
 10
313.6440482394395
 20
117.4864684720267
 30
0.0
 10
313.0016575202421
 20
117.6135393399939
 30
0.0
 10
312.4077392376954
 20
117.8582890726825
 30
0.0
 10
312.1349428125689
 20
118.039540378582
 30
0.0
 10
311.679515523139
 20
118.4925806184672
 30
0.0
 10
311.4967809546854
 20
118.7644746916321
 30
0.0
 10
311.2498039594065
 20
119.3575280086094
 30
0.0
 10
311.1212507620322
 20
119.9999956141088
 30
0.0
 10
311.2498016689878
 20
120.6424636172085
 30
0.0
 10
311.4967770517926
 20
121.235519009543
 30
0.0
 10
311.6795117794759
 20
121.5074148236831
 30
0.0
 10
312.1349394134943
 20
121.9604570274346
 30
0.0
 10
312.4077355582696
 20
122.1417088590595
 30
0.0
 10
313.001653545425
 20
122.3864596204191
 30
0.0
 10
313.3228711970007
 20
122.4500000008523
 30
0.0
 10
313.6440441637911
 20
122.4500000000044
 30
0.0
  0
SPLINE
  5
77
330
1F
100
AcDbEntity
  8
0
  6
Continuous
 62
     7
370
    25
100
AcDbSpline
210
0.0
220
0.0
230
1.0
 70
    11
 71
     3
 72
    35
 73
    31
 74
     0
 42
0.00000001
 43
0.00000001
 40
0.0
 40
0.0
 40
0.0
 40
0.0
 40
0.0624952460993428
 40
0.0625039790372321
 40
0.1249939041850344
 40
0.1250062398354655
 40
0.1874961419759057
 40
0.1875048688545744
 40
0.25000013560971
 40
0.3124950081843035
 40
0.312503730030622
 40
0.37499292866347
 40
0.3750052524924963
 40
0.437495046185908
 40
0.4375037547380843
 40
0.4999998604153837
 40
0.5624959756254001
 40
0.5625046861957976
 40
0.6249945014561794
 40
0.6250068269784099
 40
0.6874960336533311
 40
0.6875047582503446
 40
0.7499996174065297
 40
0.812494876480254
 40
0.8125036015029178
 40
0.8749934960603728
 40
0.8750058292473992
 40
0.9374957528250479
 40
0.9375044823290783
 40
1.0
 40
1.0
 40
1.0
 40
1.0
 10
118.8770709135003
 20
141.2000000000017
 30
0.0
 10
118.8770709086655
 20
141.6589074660815
 30
0.0
 10
118.9690085339889
 20
142.1178790300551
 30
0.0
 10
119.3221032544556
 20
142.9650667110329
 30
0.0
 10
119.5833193138363
 20
143.353420563136
 30
0.0
 10
120.2341483900698
 20
144.0005165324914
 30
0.0
 10
120.6239106396668
 20
144.2594091501448
 30
0.0
 10
121.4724356044469
 20
144.6090857177328
 30
0.0
 10
122.390168604021
 20
144.790760633212
 30
0.0
 10
123.3079865664993
 20
144.6093674227556
 30
0.0
 10
124.1565500129256
 20
144.2597934949234
 30
0.0
 10
124.5463114085121
 20
144.0008629751631
 30
0.0
 10
125.1970016465056
 20
143.3536314497446
 30
0.0
 10
125.4580783124438
 20
142.9651789670748
 30
0.0
 10
125.8109379808151
 20
142.1178898293703
 30
0.0
 10
125.9946034904199
 20
141.200003130653
 30
0.0
 10
125.8109396221156
 20
140.2821160773178
 30
0.0
 10
125.458081328913
 20
139.434826099222
 30
0.0
 10
125.1970051884735
 20
139.0463730211307
 30
0.0
 10
124.5463157900197
 20
138.3991403197256
 30
0.0
 10
124.1565547029699
 20
138.1402091589661
 30
0.0
 10
123.3079917711414
 20
137.7906339808461
 30
0.0
 10
122.3901742243715
 20
137.6092394249127
 30
0.0
 10
121.4724411157556
 20
137.7909128592516
 30
0.0
 10
120.6239157122588
 20
138.1405880060672
 30
0.0
 10
120.2341531196676
 20
138.3994799255994
 30
0.0
 10
119.5833229968368
 20
139.0465747042748
 30
0.0
 10
119.3221062835343
 20
139.4349280349993
 30
0.0
 10
118.9690093472501
 20
140.2821169493199
 30
0.0
 10
118.8770709183352
 20
140.7410905397505
 30
0.0
 10
118.8770709135003
 20
141.2000000000017
 30
0.0
  0
SPLINE
  5
78
330
1F
100
AcDbEntity
  8
0
  6
Continuous
 62
     7
370
    25
100
AcDbSpline
210
0.0
220
0.0
230
1.0
 70
    11
 71
     3
 72
    35
 73
    31
 74
     0
 42
0.00000001
 43
0.00000001
 40
0.0
 40
0.0
 40
0.0
 40
0.0
 40
0.0624952460993433
 40
0.0625039790372303
 40
0.1249939041850333
 40
0.1250062398354649
 40
0.1874961419759063
 40
0.187504868854573
 40
0.2500001356097088
 40
0.3124950081843041
 40
0.3125037300306225
 40
0.3749929286634686
 40
0.3750052524924958
 40
0.4374950461859101
 40
0.4375037547380849
 40
0.4999998604153825
 40
0.5624959756253997
 40
0.5625046861957987
 40
0.6249945014561783
 40
0.6250068269784108
 40
0.6874960336533283
 40
0.6875047582503458
 40
0.7499996174065319
 40
0.8124948764802548
 40
0.8125036015029167
 40
0.8749934960603751
 40
0.8750058292473989
 40
0.9374957528250466
 40
0.9375044823290765
 40
1.0
 40
1.0
 40
1.0
 40
1.0
 10
118.8770709135032
 20
-61.09999999999833
 30
0.0
 10
118.8770709086683
 20
-60.64109253391844
 30
0.0
 10
118.9690085339917
 20
-60.18212096994493
 30
0.0
 10
119.3221032544583
 20
-59.33493328896712
 30
0.0
 10
119.5833193138391
 20
-58.946579436864
 30
0.0
 10
120.2341483900726
 20
-58.29948346750863
 30
0.0
 10
120.6239106396695
 20
-58.0405908498553
 30
0.0
 10
121.4724356044497
 20
-57.69091428226734
 30
0.0
 10
122.3901686040239
 20
-57.5092393667879
 30
0.0
 10
123.3079865665021
 20
-57.69063257724445
 30
0.0
 10
124.1565500129284
 20
-58.04020650507669
 30
0.0
 10
124.5463114085149
 20
-58.29913702483691
 30
0.0
 10
125.1970016465084
 20
-58.94636855025541
 30
0.0
 10
125.4580783124466
 20
-59.3348210329253
 30
0.0
 10
125.8109379808179
 20
-60.18211017062972
 30
0.0
 10
125.9946034904226
 20
-61.09999686934701
 30
0.0
 10
125.8109396221184
 20
-62.01788392268224
 30
0.0
 10
125.4580813289158
 20
-62.86517390077805
 30
0.0
 10
125.1970051884763
 20
-63.25362697886937
 30
0.0
 10
124.5463157900225
 20
-63.90085968027437
 30
0.0
 10
124.1565547029727
 20
-64.15979084103391
 30
0.0
 10
123.3079917711442
 20
-64.50936601915387
 30
0.0
 10
122.3901742243742
 20
-64.69076057508741
 30
0.0
 10
121.4724411157584
 20
-64.50908714074848
 30
0.0
 10
120.6239157122616
 20
-64.15941199393282
 30
0.0
 10
120.2341531196703
 20
-63.90052007440056
 30
0.0
 10
119.5833229968395
 20
-63.25342529572526
 30
0.0
 10
119.322106283537
 20
-62.86507196500075
 30
0.0
 10
118.9690093472529
 20
-62.0178830506802
 30
0.0
 10
118.877070918338
 20
-61.55890946024952
 30
0.0
 10
118.8770709135032
 20
-61.09999999999833
 30
0.0
  0
SPLINE
  5
79
330
1F
100
AcDbEntity
  8
0
  6
Continuous
 62
     7
370
    25
100
AcDbSpline
210
0.0
220
0.0
230
1.0
 70
    11
 71
     3
 72
    35
 73
    31
 74
     0
 42
0.00000001
 43
0.00000001
 40
0.0
 40
0.0
 40
0.0
 40
0.0
 40
0.0624961247274993
 40
0.0625048339860884
 40
0.1249946386149729
 40
0.1250069633605613
 40
0.1874961669068611
 40
0.1875048901919421
 40
0.2499997456198506
 40
0.3124949977958053
 40
0.3125037241054637
 40
0.3749936235932363
 40
0.37500595747256
 40
0.4374959055931822
 40
0.4375046367590671
 40
0.5000001517759176
 40
0.5624956532445562
 40
0.5625043814892474
 40
0.6249942935327616
 40
0.6250066252882778
 40
0.6874965140256484
 40
0.6875052371186344
 40
0.7500005111542588
 40
0.8124953918616626
 40
0.8125041176266109
 40
0.8749933235104397
 40
0.8750056512404997
 40
0.9374954445562379
 40
0.9375041575098233
 40
1.0
 40
1.0
 40
1.0
 40
1.0
 10
187.741266600071
 20
141.2000000000027
 30
0.0
 10
187.7412666050144
 20
141.6589115499048
 30
0.0
 10
187.8331053929356
 20
142.1178870818171
 30
0.0
 10
188.1859644965617
 20
142.9651767109424
 30
0.0
 10
188.4470409389421
 20
143.3536294604558
 30
0.0
 10
189.0977308269019
 20
144.0008615131809
 30
0.0
 10
189.4874920997663
 20
144.2597923207937
 30
0.0
 10
190.3360552765195
 20
144.6093667734861
 30
0.0
 10
191.2538728826289
 20
144.7907605597878
 30
0.0
 10
192.1716057726376
 20
144.6090864170263
 30
0.0
 10
193.0201309001093
 20
144.2594106230468
 30
0.0
 10
193.4098933320979
 20
144.0005183709906
 30
0.0
 10
194.0607230822557
 20
143.3534229011088
 30
0.0
 10
194.321939561272
 20
142.9650691519325
 30
0.0
 10
194.6750357255231
 20
142.1178797180269
 30
0.0
 10
194.8588987904481
 20
141.1999966034295
 30
0.0
 10
194.6750339416376
 20
140.2821138861585
 30
0.0
 10
194.3219363561792
 20
139.4349254898789
 30
0.0
 10
194.0607193948771
 20
139.0465724639086
 30
0.0
 10
193.4098888746387
 20
138.3994782794383
 30
0.0
 10
193.0201261448403
 20
138.1405866840909
 30
0.0
 10
192.1716004332342
 20
137.7909121272457
 30
0.0
 10
191.2538669161017
 20
137.609239346213
 30
0.0
 10
190.3360492389196
 20
137.7906347791912
 30
0.0
 10
189.4874865084576
 20
138.1402108258323
 30
0.0
 10
189.0977256541022
 20
138.3991423742673
 30
0.0
 10
188.4470370070894
 20
139.0463756177462
 30
0.0
 10
188.1859613143173
 20
139.4348288369497
 30
0.0
 10
187.8331045491473
 20
140.2821170951657
 30
0.0
 10
187.7412665951276
 20
140.7410905225805
 30
0.0
 10
187.741266600071
 20
141.2000000000027
 30
0.0
  0
SPLINE
  5
7A
330
1F
100
AcDbEntity
  8
0
  6
Continuous
 62
     7
370
    25
100
AcDbSpline
210
0.0
220
0.0
230
1.0
 70
    11
 71
     3
 72
    35
 73
    31
 74
     0
 42
0.00000001
 43
0.00000001
 40
0.0
 40
0.0
 40
0.0
 40
0.0
 40
0.0624961247274959
 40
0.0625048339860902
 40
0.1249946386149727
 40
0.1250069633605649
 40
0.1874961669068591
 40
0.1875048901919453
 40
0.2499997456198518
 40
0.3124949977958048
 40
0.3125037241054656
 40
0.3749936235932408
 40
0.375005957472559
 40
0.4374959055931834
 40
0.4375046367590686
 40
0.5000001517759203
 40
0.5624956532445586
 40
0.5625043814892523
 40
0.6249942935327627
 40
0.6250066252882812
 40
0.6874965140256489
 40
0.6875052371186334
 40
0.7500005111542584
 40
0.8124953918616635
 40
0.8125041176266091
 40
0.8749933235104447
 40
0.875005651240497
 40
0.9374954445562397
 40
0.9375041575098235
 40
1.0
 40
1.0
 40
1.0
 40
1.0
 10
187.7412666000738
 20
-61.09999999999737
 30
0.0
 10
187.7412666050172
 20
-60.64108845009527
 30
0.0
 10
187.8331053929384
 20
-60.18211291818294
 30
0.0
 10
188.1859644965645
 20
-59.3348232890576
 30
0.0
 10
188.4470409389448
 20
-58.94637053954421
 30
0.0
 10
189.0977308269048
 20
-58.2991384868191
 30
0.0
 10
189.4874920997693
 20
-58.04020767920635
 30
0.0
 10
190.3360552765224
 20
-57.69063322651389
 30
0.0
 10
191.2538728826317
 20
-57.50923944021227
 30
0.0
 10
192.1716057726404
 20
-57.69091358297374
 30
0.0
 10
193.0201309001121
 20
-58.04058937695316
 30
0.0
 10
193.4098933321007
 20
-58.29948162900938
 30
0.0
 10
194.0607230822586
 20
-58.94657709889121
 30
0.0
 10
194.3219395612749
 20
-59.33493084806755
 30
0.0
 10
194.6750357255259
 20
-60.18212028197309
 30
0.0
 10
194.8588987904508
 20
-61.10000339657049
 30
0.0
 10
194.6750339416405
 20
-62.01788611384148
 30
0.0
 10
194.321936356182
 20
-62.8650745101211
 30
0.0
 10
194.0607193948799
 20
-63.25342753609146
 30
0.0
 10
193.4098888746416
 20
-63.90052172056171
 30
0.0
 10
193.0201261448431
 20
-64.15941331590919
 30
0.0
 10
192.171600433237
 20
-64.5090878727543
 30
0.0
 10
191.2538669161045
 20
-64.690760653787
 30
0.0
 10
190.3360492389225
 20
-64.50936522080883
 30
0.0
 10
189.4874865084604
 20
-64.15978917416774
 30
0.0
 10
189.0977256541051
 20
-63.90085762573263
 30
0.0
 10
188.4470370070923
 20
-63.25362438225368
 30
0.0
 10
188.1859613143202
 20
-62.86517116305023
 30
0.0
 10
187.8331045491502
 20
-62.0178829048343
 30
0.0
 10
187.7412665951304
 20
-61.55890947741952
 30
0.0
 10
187.7412666000738
 20
-61.09999999999737
 30
0.0
  0
SPLINE
  5
7F
330
1F
100
AcDbEntity
  8
0
  6
Continuous
 62
     7
370
    25
100
AcDbSpline
210
0.0
220
0.0
230
1.0
 70
     8
 71
     3
 72
     9
 73
     5
 74
     0
 42
0.00000001
 43
0.00000001
 40
0.0
 40
0.0
 40
0.0
 40
0.0
 40
0.7689591425862625
 40
1.0
 40
1.0
 40
1.0
 40
1.0
 10
313.644044163791
 20
122.4500000000044
 30
0.0
 10
313.3657963977877
 20
122.437643001227
 30
0.0
 10
313.0039465274978
 20
122.4215732283444
 30
0.0
 10
312.7004007521315
 20
122.2386706774866
 30
0.0
 10
312.6302692759265
 20
122.1964127153133
 30
0.0
  0
SPLINE
  5
80
330
1F
100
AcDbEntity
  8
0
  6
Continuous
 62
     7
370
    25
100
AcDbSpline
210
0.0
220
0.0
230
1.0
 70
     8
 71
     3
 72
     9
 73
     5
 74
     0
 42
0.00000001
 43
0.00000001
 40
0.0
 40
0.0
 40
0.0
 40
0.0
 40
0.7689591425863477
 40
1.0
 40
1.0
 40
1.0
 40
1.0
 10
313.6440441637911
 20
110.4500000000044
 30
0.0
 10
313.365796397788
 20
110.4376430012271
 30
0.0
 10
313.0039465274979
 20
110.4215732283445
 30
0.0
 10
312.7004007521317
 20
110.2386706774867
 30
0.0
 10
312.6302692759268
 20
110.1964127153134
 30
0.0
  0
SPLINE
  5
81
330
1F
100
AcDbEntity
  8
0
  6
Continuous
 62
     7
370
    25
100
AcDbSpline
210
0.0
220
0.0
230
1.0
 70
     8
 71
     3
 72
    10
 73
     6
 74
     0
 42
0.00000001
 43
0.00000001
 40
0.0
 40
0.0
 40
0.0
 40
0.0
 40
0.1577536519088542
 40
0.8498431933071863
 40
0.9999999999999999
 40
0.9999999999999999
 40
0.9999999999999999
 40
0.9999999999999999
 10
187.7869250049233
 20
141.4677621979255
 30
0.0
 10
187.7760984992739
 20
141.3788796019491
 30
0.0
 10
187.7177744476771
 20
140.9000553827943
 30
0.0
 10
187.7950488984755
 20
140.2985726727863
 30
0.0
 10
188.0383419623233
 20
139.8852510416669
 30
0.0
 10
188.0817165755118
 20
139.8115635078395
 30
0.0
  0
SPLINE
  5
82
330
1F
100
AcDbEntity
  8
0
  6
Continuous
 62
     7
370
    25
100
AcDbSpline
210
0.0
220
0.0
230
1.0
 70
     8
 71
     3
 72
    10
 73
     6
 74
     0
 42
0.00000001
 43
0.00000001
 40
0.0
 40
0.0
 40
0.0
 40
0.0
 40
0.1577536519087685
 40
0.8498431933071426
 40
1.0
 40
1.0
 40
1.0
 40
1.0
 10
187.786925004926
 20
-60.83223780207471
 30
0.0
 10
187.7760984992766
 20
-60.92112039805111
 30
0.0
 10
187.71777444768
 20
-61.39994461720581
 30
0.0
 10
187.7950488984785
 20
-62.00142732721363
 30
0.0
 10
188.0383419623261
 20
-62.41474895833304
 30
0.0
 10
188.0817165755146
 20
-62.48843649216044
 30
0.0
  0
SPLINE
  5
83
330
1F
100
AcDbEntity
  8
0
  6
Continuous
 62
     7
370
    25
100
AcDbSpline
210
0.0
220
0.0
230
1.0
 70
     8
 71
     3
 72
     9
 73
     5
 74
     0
 42
0.00000001
 43
0.00000001
 40
0.0
 40
0.0
 40
0.0
 40
0.0
 40
0.3479057080957194
 40
0.9999999999999999
 40
0.9999999999999999
 40
0.9999999999999999
 40
0.9999999999999999
 10
118.9782506960526
 20
141.7933589279151
 30
0.0
 10
118.947954471365
 20
141.595271128594
 30
0.0
 10
118.8608727593302
 20
141.0258990409519
 30
0.0
 10
119.007829520656
 20
140.4639995420618
 30
0.0
 10
119.1036591858733
 20
140.0975880862117
 30
0.0
  0
SPLINE
  5
84
330
1F
100
AcDbEntity
  8
0
  6
Continuous
 62
     7
370
    25
100
AcDbSpline
210
0.0
220
0.0
230
1.0
 70
     8
 71
     3
 72
     9
 73
     5
 74
     0
 42
0.00000001
 43
0.00000001
 40
0.0
 40
0.0
 40
0.0
 40
0.0
 40
0.3479039189982213
 40
0.9999999999999999
 40
0.9999999999999999
 40
0.9999999999999999
 40
0.9999999999999999
 10
118.9782501148363
 20
-60.50664542730547
 30
0.0
 10
118.9479542020282
 20
-60.70473177303529
 30
0.0
 10
118.8608729386284
 20
-61.27410261053609
 30
0.0
 10
119.0078296274946
 20
-61.83600082830941
 30
0.0
 10
119.1036595083812
 20
-62.20241245404125
 30
0.0
  0
LINE
  5
85
330
1F
100
AcDbEntity
  8
0
  6
Continuous
 62
     7
370
    25
100
AcDbLine
 10
0.0
 20
200.0
 30
0.0
 11
0.0
 21
-200.0
 31
0.0
  0
LINE
  5
86
330
1F
100
AcDbEntity
  8
0
  6
Continuous
 62
     7
370
    25
100
AcDbLine
 10
635.9732534251
 20
200.0
 30
0.0
 11
0.0
 21
200.0
 31
0.0
  0
LINE
  5
87
330
1F
100
AcDbEntity
  8
0
  6
Continuous
 62
     7
370
    25
100
AcDbLine
 10
635.9732534251
 20
200.0
 30
0.0
 11
635.9732534252
 21
-200.0
 31
0.0
  0
LINE
  5
88
330
1F
100
AcDbEntity
  8
0
  6
Continuous
 62
     7
370
    25
100
AcDbLine
 10
635.9732534252
 20
-200.0
 30
0.0
 11
0.0
 21
-200.0
 31
0.0
  0
ENDSEC
  0
SECTION
  2
OBJECTS
  0
DICTIONARY
  5
C
330
0
100
AcDbDictionary
281
     1
  3
ACAD_GROUP
350
D
  3
ACAD_LAYOUT
350
1A
  3
ACAD_MLINESTYLE
350
17
  3
ACAD_PLOTSETTINGS
350
19
  3
ACAD_PLOTSTYLENAME
350
E
  3
ACAD_SCALELIST
350
47
  3
DWGPROPS
350
89
  0
DICTIONARY
  5
D
102
{ACAD_REACTORS
330
C
102
}
330
C
100
AcDbDictionary
281
     1
  0
DICTIONARY
  5
1A
102
{ACAD_REACTORS
330
C
102
}
330
C
100
AcDbDictionary
281
     1
  3
Layout1
350
1E
  3
Layout2
350
26
  3
Model
350
22
  0
DICTIONARY
  5
17
102
{ACAD_REACTORS
330
C
102
}
330
C
100
AcDbDictionary
281
     1
  3
Standard
350
18
  0
DICTIONARY
  5
19
102
{ACAD_REACTORS
330
C
102
}
330
C
100
AcDbDictionary
281
     1
  0
ACDBDICTIONARYWDFLT
  5
E
102
{ACAD_REACTORS
330
C
102
}
330
C
100
AcDbDictionary
281
     1
  3
Normal
350
F
100
AcDbDictionaryWithDefault
340
F
  0
DICTIONARY
  5
47
102
{ACAD_REACTORS
330
C
102
}
330
C
100
AcDbDictionary
281
     1
  3
A0
350
48
  3
A1
350
49
  3
A2
350
4A
  3
A3
350
4B
  3
A4
350
4C
  3
A5
350
4D
  3
A6
350
4E
  3
A7
350
4F
  3
A8
350
50
  3
A9
350
51
  3
B0
350
52
  3
B1
350
53
  3
B2
350
54
  3
B3
350
55
  3
B4
350
56
  3
B5
350
57
  3
B6
350
58
  3
B7
350
59
  3
B8
350
5A
  3
B9
350
5B
  3
C0
350
5C
  3
C1
350
5D
  3
C2
350
5E
  3
C3
350
5F
  3
C4
350
60
  3
C5
350
61
  3
C6
350
62
  3
C7
350
63
  3
C8
350
64
  3
C9
350
65
  3
D0
350
66
  3
D1
350
67
  3
D2
350
68
  0
XRECORD
  5
89
102
{ACAD_REACTORS
330
C
102
}
330
C
100
AcDbXrecord
280
     1
  1
DWGPROPS COOKIE
  2

  3

  4

  6

  7

  8
vip78
  9

300
=
301
=
302
=
303
=
304
=
305
=
306
=
307
=
308
=
309
=
 40
0.0
 41
2459990.404410474
 42
2459990.404430648
  1

 90
        0
  0
LAYOUT
  5
1E
102
{ACAD_REACTORS
330
1A
102
}
330
1A
100
AcDbPlotSettings
  1

  2
none_device
  4

  6

 40
0.0
 41
0.0
 42
0.0
 43
0.0
 44
0.0
 45
0.0
 46
0.0
 47
0.0
 48
0.0
 49
0.0
140
0.0
141
0.0
142
1.0
143
1.0
 70
   688
 72
     1
 73
     0
 74
     5
  7

 75
    16
147
1.0
148
0.0
149
0.0
100
AcDbLayout
  1
Layout1
 70
     1
 71
     1
 10
0.0
 20
0.0
 11
420.0
 21
297.0
 12
0.0
 22
0.0
 32
0.0
 14
1.0000000000E+20
 24
1.0000000000E+20
 34
1.0000000000E+20
 15
-1.0000000000E+20
 25
-1.0000000000E+20
 35
-1.0000000000E+20
146
0.0
 13
0.0
 23
0.0
 33
0.0
 16
1.0
 26
0.0
 36
0.0
 17
0.0
 27
1.0
 37
0.0
 76
     0
330
1B
  0
LAYOUT
  5
26
102
{ACAD_REACTORS
330
1A
102
}
330
1A
100
AcDbPlotSettings
  1

  2
none_device
  4

  6

 40
0.0
 41
0.0
 42
0.0
 43
0.0
 44
0.0
 45
0.0
 46
0.0
 47
0.0
 48
0.0
 49
0.0
140
0.0
141
0.0
142
1.0
143
1.0
 70
   688
 72
     1
 73
     0
 74
     5
  7

 75
    16
147
1.0
148
0.0
149
0.0
100
AcDbLayout
  1
Layout2
 70
     1
 71
     2
 10
0.0
 20
0.0
 11
0.0
 21
0.0
 12
0.0
 22
0.0
 32
0.0
 14
0.0
 24
0.0
 34
0.0
 15
0.0
 25
0.0
 35
0.0
146
0.0
 13
0.0
 23
0.0
 33
0.0
 16
1.0
 26
0.0
 36
0.0
 17
0.0
 27
1.0
 37
0.0
 76
     0
330
23
  0
LAYOUT
  5
22
102
{ACAD_REACTORS
330
1A
102
}
330
1A
100
AcDbPlotSettings
  1

  2
none_device
  4
ANSI_A_(11.00_x_8.50_Inches)
  6

 40
6.35
 41
19.05
 42
6.35000508
 43
19.05000254
 44
279.4
 45
215.9
 46
-4.95300254
 47
88.89999873
 48
0.0
 49
0.0
140
0.0
141
0.0
142
0.0171233616
143
1.0
 70
  1696
 72
     0
 73
     0
 74
     0
  7

 75
     0
147
0.0179189148
148
-1300.4909072572
149
0.0
100
AcDbLayout
  1
Model
 70
     1
 71
     0
 10
0.0
 20
0.0
 11
420.0
 21
297.0
 12
0.0
 22
0.0
 32
0.0
 14
0.0
 24
-200.0
 34
0.0
 15
635.9732534252
 25
200.0
 35
0.0
146
0.0
 13
0.0
 23
0.0
 33
0.0
 16
1.0
 26
0.0
 36
0.0
 17
0.0
 27
1.0
 37
0.0
 76
     0
330
1F
331
29
  0
MLINESTYLE
  5
18
102
{ACAD_REACTORS
330
17
102
}
330
17
100
AcDbMlineStyle
  2
Standard
 70
     0
  3

 62
   256
 51
90.0
 52
90.0
 71
     2
 49
0.5
 62
   256
  6
BYLAYER
 49
-0.5
 62
   256
  6
BYLAYER
  0
ACDBPLACEHOLDER
  5
F
102
{ACAD_REACTORS
330
E
102
}
330
E
  0
SCALE
  5
48
102
{ACAD_REACTORS
330
47
102
}
330
47
100
AcDbScale
 70
     0
300
1:1
140
1.0
141
1.0
290
     1
  0
SCALE
  5
49
102
{ACAD_REACTORS
330
47
102
}
330
47
100
AcDbScale
 70
     0
300
1:2
140
1.0
141
2.0
290
     0
  0
SCALE
  5
4A
102
{ACAD_REACTORS
330
47
102
}
330
47
100
AcDbScale
 70
     0
300
1:4
140
1.0
141
4.0
290
     0
  0
SCALE
  5
4B
102
{ACAD_REACTORS
330
47
102
}
330
47
100
AcDbScale
 70
     0
300
1:5
140
1.0
141
5.0
290
     0
  0
SCALE
  5
4C
102
{ACAD_REACTORS
330
47
102
}
330
47
100
AcDbScale
 70
     0
300
1:8
140
1.0
141
8.0
290
     0
  0
SCALE
  5
4D
102
{ACAD_REACTORS
330
47
102
}
330
47
100
AcDbScale
 70
     0
300
1:10
140
1.0
141
10.0
290
     0
  0
SCALE
  5
4E
102
{ACAD_REACTORS
330
47
102
}
330
47
100
AcDbScale
 70
     0
300
1:16
140
1.0
141
16.0
290
     0
  0
SCALE
  5
4F
102
{ACAD_REACTORS
330
47
102
}
330
47
100
AcDbScale
 70
     0
300
1:20
140
1.0
141
20.0
290
     0
  0
SCALE
  5
50
102
{ACAD_REACTORS
330
47
102
}
330
47
100
AcDbScale
 70
     0
300
1:30
140
1.0
141
30.0
290
     0
  0
SCALE
  5
51
102
{ACAD_REACTORS
330
47
102
}
330
47
100
AcDbScale
 70
     0
300
1:40
140
1.0
141
40.0
290
     0
  0
SCALE
  5
52
102
{ACAD_REACTORS
330
47
102
}
330
47
100
AcDbScale
 70
     0
300
1:50
140
1.0
141
50.0
290
     0
  0
SCALE
  5
53
102
{ACAD_REACTORS
330
47
102
}
330
47
100
AcDbScale
 70
     0
300
1:100
140
1.0
141
100.0
290
     0
  0
SCALE
  5
54
102
{ACAD_REACTORS
330
47
102
}
330
47
100
AcDbScale
 70
     0
300
2:1
140
2.0
141
1.0
290
     0
  0
SCALE
  5
55
102
{ACAD_REACTORS
330
47
102
}
330
47
100
AcDbScale
 70
     0
300
4:1
140
4.0
141
1.0
290
     0
  0
SCALE
  5
56
102
{ACAD_REACTORS
330
47
102
}
330
47
100
AcDbScale
 70
     0
300
8:1
140
8.0
141
1.0
290
     0
  0
SCALE
  5
57
102
{ACAD_REACTORS
330
47
102
}
330
47
100
AcDbScale
 70
     0
300
10:1
140
10.0
141
1.0
290
     0
  0
SCALE
  5
58
102
{ACAD_REACTORS
330
47
102
}
330
47
100
AcDbScale
 70
     0
300
100:1
140
100.0
141
1.0
290
     0
  0
SCALE
  5
59
102
{ACAD_REACTORS
330
47
102
}
330
47
100
AcDbScale
 70
     0
300
1/128" = 1'-0"
140
0.0078125
141
12.0
290
     0
  0
SCALE
  5
5A
102
{ACAD_REACTORS
330
47
102
}
330
47
100
AcDbScale
 70
     0
300
1/64" = 1'-0"
140
0.015625
141
12.0
290
     0
  0
SCALE
  5
5B
102
{ACAD_REACTORS
330
47
102
}
330
47
100
AcDbScale
 70
     0
300
1/32" = 1'-0"
140
0.03125
141
12.0
290
     0
  0
SCALE
  5
5C
102
{ACAD_REACTORS
330
47
102
}
330
47
100
AcDbScale
 70
     0
300
1/16" = 1'-0"
140
0.0625
141
12.0
290
     0
  0
SCALE
  5
5D
102
{ACAD_REACTORS
330
47
102
}
330
47
100
AcDbScale
 70
     0
300
3/32" = 1'-0"
140
0.09375
141
12.0
290
     0
  0
SCALE
  5
5E
102
{ACAD_REACTORS
330
47
102
}
330
47
100
AcDbScale
 70
     0
300
1/8" = 1'-0"
140
0.125
141
12.0
290
     0
  0
SCALE
  5
5F
102
{ACAD_REACTORS
330
47
102
}
330
47
100
AcDbScale
 70
     0
300
3/16" = 1'-0"
140
0.1875
141
12.0
290
     0
  0
SCALE
  5
60
102
{ACAD_REACTORS
330
47
102
}
330
47
100
AcDbScale
 70
     0
300
1/4" = 1'-0"
140
0.25
141
12.0
290
     0
  0
SCALE
  5
61
102
{ACAD_REACTORS
330
47
102
}
330
47
100
AcDbScale
 70
     0
300
3/8" = 1'-0"
140
0.375
141
12.0
290
     0
  0
SCALE
  5
62
102
{ACAD_REACTORS
330
47
102
}
330
47
100
AcDbScale
 70
     0
300
1/2" = 1'-0"
140
0.5
141
12.0
290
     0
  0
SCALE
  5
63
102
{ACAD_REACTORS
330
47
102
}
330
47
100
AcDbScale
 70
     0
300
3/4" = 1'-0"
140
0.75
141
12.0
290
     0
  0
SCALE
  5
64
102
{ACAD_REACTORS
330
47
102
}
330
47
100
AcDbScale
 70
     0
300
1" = 1'-0"
140
1.0
141
12.0
290
     0
  0
SCALE
  5
65
102
{ACAD_REACTORS
330
47
102
}
330
47
100
AcDbScale
 70
     0
300
1-1/2" = 1'-0"
140
1.5
141
12.0
290
     0
  0
SCALE
  5
66
102
{ACAD_REACTORS
330
47
102
}
330
47
100
AcDbScale
 70
     0
300
3" = 1'-0"
140
3.0
141
12.0
290
     0
  0
SCALE
  5
67
102
{ACAD_REACTORS
330
47
102
}
330
47
100
AcDbScale
 70
     0
300
6" = 1'-0"
140
6.0
141
12.0
290
     0
  0
SCALE
  5
68
102
{ACAD_REACTORS
330
47
102
}
330
47
100
AcDbScale
 70
     0
300
1'-0" = 1'-0"
140
12.0
141
12.0
290
     0
  0
ENDSEC
  0
EOF
