  0
SECTION
  2
HEADER
  9
$ACADVER
  1
AC1015
  9
$ACADMAINTVER
 70
     6
  9
$DWGCODEPAGE
  3
ANSI_1251
  9
$INSBASE
 10
0.0
 20
0.0
 30
0.0
  9
$EXTMIN
 10
0.0
 20
-200.0
 30
0.0
  9
$EXTMAX
 10
1578.4413219709
 20
200.0
 30
0.0
  9
$LIMMIN
 10
0.0
 20
0.0
  9
$LIMMAX
 10
420.0
 20
297.0
  9
$ORTHOMODE
 70
     0
  9
$REGENMODE
 70
     1
  9
$FILLMODE
 70
     1
  9
$QTEXTMODE
 70
     0
  9
$MIRRTEXT
 70
     1
  9
$LTSCALE
 40
1.0
  9
$ATTMODE
 70
     1
  9
$TEXTSIZE
 40
4.0
  9
$TRACEWID
 40
1.0
  9
$TEXTSTYLE
  7
Standard
  9
$CLAYER
  8
0
  9
$CELTYPE
  6
ByLayer
  9
$CECOLOR
 62
   256
  9
$CELTSCALE
 40
1.0
  9
$DISPSILH
 70
     0
  9
$DIMSCALE
 40
1.0
  9
$DIMASZ
 40
6.0
  9
$DIMEXO
 40
0.0
  9
$DIMDLI
 40
3.75
  9
$DIMRND
 40
0.0
  9
$DIMDLE
 40
0.0
  9
$DIMEXE
 40
1.0
  9
$DIMTP
 40
0.0
  9
$DIMTM
 40
0.0
  9
$DIMTXT
 40
4.0
  9
$DIMCEN
 40
2.5
  9
$DIMTSZ
 40
0.0
  9
$DIMTOL
 70
     0
  9
$DIMLIM
 70
     0
  9
$DIMTIH
 70
     1
  9
$DIMTOH
 70
     1
  9
$DIMSE1
 70
     0
  9
$DIMSE2
 70
     0
  9
$DIMTAD
 70
     1
  9
$DIMZIN
 70
     0
  9
$DIMBLK
  1

  9
$DIMASO
 70
     1
  9
$DIMSHO
 70
     1
  9
$DIMPOST
  1

  9
$DIMAPOST
  1

  9
$DIMALT
 70
     0
  9
$DIMALTD
 70
     3
  9
$DIMALTF
 40
0.0393700787
  9
$DIMLFAC
 40
1.0
  9
$DIMTOFL
 70
     1
  9
$DIMTVP
 40
0.0
  9
$DIMTIX
 70
     0
  9
$DIMSOXD
 70
     0
  9
$DIMSAH
 70
     0
  9
$DIMBLK1
  1

  9
$DIMBLK2
  1

  9
$DIMSTYLE
  2
ISO-25
  9
$DIMCLRD
 70
     0
  9
$DIMCLRE
 70
     0
  9
$DIMCLRT
 70
     0
  9
$DIMTFAC
 40
1.0
  9
$DIMGAP
 40
3.0
  9
$DIMJUST
 70
     0
  9
$DIMSD1
 70
     0
  9
$DIMSD2
 70
     0
  9
$DIMTOLJ
 70
     0
  9
$DIMTZIN
 70
     0
  9
$DIMALTZ
 70
     0
  9
$DIMALTTZ
 70
     0
  9
$DIMUPT
 70
     0
  9
$DIMDEC
 70
     2
  9
$DIMTDEC
 70
     4
  9
$DIMALTU
 70
     2
  9
$DIMALTTD
 70
     3
  9
$DIMTXSTY
  7
Standard
  9
$DIMAUNIT
 70
     0
  9
$DIMADEC
 70
     2
  9
$DIMALTRND
 40
0.0
  9
$DIMAZIN
 70
     0
  9
$DIMDSEP
 70
    44
  9
$DIMATFIT
 70
     3
  9
$DIMFRAC
 70
     0
  9
$DIMLDRBLK
  1

  9
$DIMLUNIT
 70
     2
  9
$DIMLWD
 70
    -2
  9
$DIMLWE
 70
    -2
  9
$DIMTMOVE
 70
     0
  9
$LUNITS
 70
     2
  9
$LUPREC
 70
     2
  9
$SKETCHINC
 40
1.0
  9
$FILLETRAD
 40
10.0
  9
$AUNITS
 70
     0
  9
$AUPREC
 70
     2
  9
$MENU
  1
.
  9
$ELEVATION
 40
0.0
  9
$PELEVATION
 40
0.0
  9
$THICKNESS
 40
0.0
  9
$LIMCHECK
 70
     0
  9
$CHAMFERA
 40
0.0
  9
$CHAMFERB
 40
0.0
  9
$CHAMFERC
 40
0.0
  9
$CHAMFERD
 40
0.0
  9
$SKPOLY
 70
     0
  9
$TDCREATE
 40
2460018.670806979
  9
$TDUCREATE
 40
2460018.545806979
  9
$TDUPDATE
 40
2460018.670828044
  9
$TDUUPDATE
 40
2460018.545828044
  9
$TDINDWG
 40
0.0000000116
  9
$TDUSRTIMER
 40
0.0000000116
  9
$USRTIMER
 70
     1
  9
$ANGBASE
 50
0.0
  9
$ANGDIR
 70
     0
  9
$PDMODE
 70
     0
  9
$PDSIZE
 40
-1.0
  9
$PLINEWID
 40
0.0
  9
$SPLFRAME
 70
     0
  9
$SPLINETYPE
 70
     6
  9
$SPLINESEGS
 70
     8
  9
$HANDSEED
  5
8A
  9
$SURFTAB1
 70
     6
  9
$SURFTAB2
 70
     6
  9
$SURFTYPE
 70
     6
  9
$SURFU
 70
     6
  9
$SURFV
 70
     6
  9
$UCSBASE
  2

  9
$UCSNAME
  2

  9
$UCSORG
 10
0.0
 20
0.0
 30
0.0
  9
$UCSXDIR
 10
1.0
 20
0.0
 30
0.0
  9
$UCSYDIR
 10
0.0
 20
1.0
 30
0.0
  9
$UCSORTHOREF
  2

  9
$UCSORTHOVIEW
 70
     0
  9
$UCSORGTOP
 10
0.0
 20
0.0
 30
0.0
  9
$UCSORGBOTTOM
 10
0.0
 20
0.0
 30
0.0
  9
$UCSORGLEFT
 10
0.0
 20
0.0
 30
0.0
  9
$UCSORGRIGHT
 10
0.0
 20
0.0
 30
0.0
  9
$UCSORGFRONT
 10
0.0
 20
0.0
 30
0.0
  9
$UCSORGBACK
 10
0.0
 20
0.0
 30
0.0
  9
$PUCSBASE
  2

  9
$PUCSNAME
  2

  9
$PUCSORG
 10
0.0
 20
0.0
 30
0.0
  9
$PUCSXDIR
 10
1.0
 20
0.0
 30
0.0
  9
$PUCSYDIR
 10
0.0
 20
1.0
 30
0.0
  9
$PUCSORTHOREF
  2

  9
$PUCSORTHOVIEW
 70
     0
  9
$PUCSORGTOP
 10
0.0
 20
0.0
 30
0.0
  9
$PUCSORGBOTTOM
 10
0.0
 20
0.0
 30
0.0
  9
$PUCSORGLEFT
 10
0.0
 20
0.0
 30
0.0
  9
$PUCSORGRIGHT
 10
0.0
 20
0.0
 30
0.0
  9
$PUCSORGFRONT
 10
0.0
 20
0.0
 30
0.0
  9
$PUCSORGBACK
 10
0.0
 20
0.0
 30
0.0
  9
$USERI1
 70
     0
  9
$USERI2
 70
     0
  9
$USERI3
 70
     0
  9
$USERI4
 70
     0
  9
$USERI5
 70
     0
  9
$USERR1
 40
0.0
  9
$USERR2
 40
0.0
  9
$USERR3
 40
0.0
  9
$USERR4
 40
0.0
  9
$USERR5
 40
0.0
  9
$WORLDVIEW
 70
     1
  9
$SHADEDGE
 70
     3
  9
$SHADEDIF
 70
    70
  9
$TILEMODE
 70
     1
  9
$MAXACTVP
 70
    64
  9
$PINSBASE
 10
0.0
 20
0.0
 30
0.0
  9
$PLIMCHECK
 70
     0
  9
$PEXTMIN
 10
1.0000000000E+20
 20
1.0000000000E+20
 30
1.0000000000E+20
  9
$PEXTMAX
 10
-1.0000000000E+20
 20
-1.0000000000E+20
 30
-1.0000000000E+20
  9
$PLIMMIN
 10
0.0
 20
0.0
  9
$PLIMMAX
 10
420.0
 20
297.0
  9
$UNITMODE
 70
     0
  9
$VISRETAIN
 70
     1
  9
$PLINEGEN
 70
     0
  9
$PSLTSCALE
 70
     1
  9
$TREEDEPTH
 70
  3020
  9
$CMLSTYLE
  2
Standard
  9
$CMLJUST
 70
     0
  9
$CMLSCALE
 40
20.0
  9
$PROXYGRAPHICS
 70
     1
  9
$MEASUREMENT
 70
     1
  9
$CELWEIGHT
370
    -1
  9
$ENDCAPS
280
     0
  9
$JOINSTYLE
280
     0
  9
$LWDISPLAY
290
     1
  9
$INSUNITS
 70
     4
  9
$HYPERLINKBASE
  1

  9
$STYLESHEET
  1

  9
$XEDIT
290
     1
  9
$CEPSNTYPE
380
     0
  9
$PSTYLEMODE
290
     1
  9
$FINGERPRINTGUID
  2
{768d9fc9-dead-4641-8d1b-4f2271bcfae9}
  9
$VERSIONGUID
  2
{FAEB1C32-E019-11D5-929B-00C0DF256EC4}
  9
$EXTNAMES
290
     1
  9
$PSVPSCALE
 40
0.0
  9
$OLESTARTUP
290
     0
  0
ENDSEC
  0
SECTION
  2
CLASSES
  0
CLASS
  1
ACDBDICTIONARYWDFLT
  2
AcDbDictionaryWithDefault
  3
ObjectDBX Classes
 90
        0
280
     0
281
     0
  0
CLASS
  1
VISUALSTYLE
  2
AcDbVisualStyle
  3
ObjectDBX Classes
 90
     4095
280
     0
281
     0
  0
CLASS
  1
MATERIAL
  2
AcDbMaterial
  3
ObjectDBX Classes
 90
     1153
280
     0
281
     0
  0
CLASS
  1
SCALE
  2
AcDbScale
  3
ObjectDBX Classes
 90
     1153
280
     0
281
     0
  0
CLASS
  1
TABLESTYLE
  2
AcDbTableStyle
  3
ObjectDBX Classes
 90
     4095
280
     0
281
     0
  0
CLASS
  1
MLEADERSTYLE
  2
AcDbMLeaderStyle
  3
ACDB_MLEADERSTYLE_CLASS
 90
     4095
280
     0
281
     0
  0
CLASS
  1
SUN
  2
AcDbSun
  3
SCENEOE
 90
     1153
280
     0
281
     0
  0
CLASS
  1
ACDBPLACEHOLDER
  2
AcDbPlaceHolder
  3
ObjectDBX Classes
 90
        0
280
     0
281
     0
  0
CLASS
  1
LAYOUT
  2
AcDbLayout
  3
ObjectDBX Classes
 90
        0
280
     0
281
     0
  0
ENDSEC
  0
SECTION
  2
TABLES
  0
TABLE
  2
VPORT
  5
8
330
0
100
AcDbSymbolTable
 70
     1
  0
VPORT
  5
29
330
8
100
AcDbSymbolTableRecord
100
AcDbViewportTableRecord
  2
*Active
 70
     0
 10
0.0
 20
0.0
 11
1.0
 21
1.0
 12
789.2206609854
 22
0.0
 13
0.0
 23
0.0
 14
10.0
 24
10.0
 15
10.0
 25
10.0
 16
0.0
 26
0.0
 36
1.0
 17
0.0
 27
0.0
 37
0.0
 40
408.0
 41
3.9461033049
 42
50.0
 43
0.0
 44
0.0
 50
0.0
 51
0.0
 71
     0
 72
   100
 73
     1
 74
     3
 75
     0
 76
     0
 77
     0
 78
     0
281
     0
 65
     1
110
0.0
120
0.0
130
0.0
111
1.0
121
0.0
131
0.0
112
0.0
122
1.0
132
0.0
 79
     0
146
0.0
  0
ENDTAB
  0
TABLE
  2
LTYPE
  5
5
330
0
100
AcDbSymbolTable
 70
     6
  0
LTYPE
  5
14
330
5
100
AcDbSymbolTableRecord
100
AcDbLinetypeTableRecord
  2
ByBlock
 70
     0
  3

 72
    65
 73
     0
 40
0.0
  0
LTYPE
  5
15
330
5
100
AcDbSymbolTableRecord
100
AcDbLinetypeTableRecord
  2
ByLayer
 70
     0
  3

 72
    65
 73
     0
 40
0.0
  0
LTYPE
  5
16
330
5
100
AcDbSymbolTableRecord
100
AcDbLinetypeTableRecord
  2
Continuous
 70
     0
  3
Solid line
 72
    65
 73
     0
 40
0.0
  0
LTYPE
  5
6E
330
5
100
AcDbSymbolTableRecord
100
AcDbLinetypeTableRecord
  2
HIDDEN
 70
     0
  3
Hidden __ __ __ __ __ __ __ __ __ __ __ __ __ __
 72
    65
 73
     2
 40
1.905
 49
1.27
 74
     0
 49
-0.635
 74
     0
  0
LTYPE
  5
6F
330
5
100
AcDbSymbolTableRecord
100
AcDbLinetypeTableRecord
  2
PHANTOM
 70
     0
  3
Phantom ______  __  __  ______  __  __  ______
 72
    65
 73
     6
 40
12.7
 49
6.35
 74
     0
 49
-1.27
 74
     0
 49
1.27
 74
     0
 49
-1.27
 74
     0
 49
1.27
 74
     0
 49
-1.27
 74
     0
  0
LTYPE
  5
70
330
5
100
AcDbSymbolTableRecord
100
AcDbLinetypeTableRecord
  2
CENTER
 70
     0
  3
Center ____ _ ____ _ ____ _ ____ _ ____ _ ____
 72
    65
 73
     4
 40
10.16
 49
6.35
 74
     0
 49
-1.27
 74
     0
 49
1.27
 74
     0
 49
-1.27
 74
     0
  0
LTYPE
  5
71
330
5
100
AcDbSymbolTableRecord
100
AcDbLinetypeTableRecord
  2
CENTERX2
 70
     0
  3
Center (2x) ________  __  ________  __  _____
 72
    65
 73
     4
 40
20.32
 49
12.7
 74
     0
 49
-2.54
 74
     0
 49
2.54
 74
     0
 49
-2.54
 74
     0
  0
LTYPE
  5
72
330
5
100
AcDbSymbolTableRecord
100
AcDbLinetypeTableRecord
  2
DOT2
 70
     0
  3
Dot (.5x) ........................................
 72
    65
 73
     2
 40
0.635
 49
0.0
 74
     0
 49
-0.635
 74
     0
  0
ENDTAB
  0
TABLE
  2
LAYER
  5
2
330
0
100
AcDbSymbolTable
 70
     1
  0
LAYER
  5
10
330
2
100
AcDbSymbolTableRecord
100
AcDbLayerTableRecord
  2
0
 70
     0
 62
     7
  6
Continuous
370
    -3
390
F
  0
ENDTAB
  0
TABLE
  2
STYLE
  5
3
330
0
100
AcDbSymbolTable
 70
     1
  0
STYLE
  5
11
330
3
100
AcDbSymbolTableRecord
100
AcDbTextStyleTableRecord
  2
Standard
 70
     0
 40
0.0
 41
1.0
 50
0.0
 71
     0
 42
4.0
  3
txt
  4

  0
ENDTAB
  0
TABLE
  2
VIEW
  5
6
330
0
100
AcDbSymbolTable
 70
     0
  0
ENDTAB
  0
TABLE
  2
UCS
  5
7
330
0
100
AcDbSymbolTable
 70
     0
  0
ENDTAB
  0
TABLE
  2
APPID
  5
9
330
0
100
AcDbSymbolTable
 70
     1
  0
APPID
  5
12
330
9
100
AcDbSymbolTableRecord
100
AcDbRegAppTableRecord
  2
ACAD
 70
     0
  0
ENDTAB
  0
TABLE
  2
DIMSTYLE
  5
A
330
0
100
AcDbSymbolTable
 70
     1
100
AcDbDimStyleTable
  0
DIMSTYLE
105
27
330
A
100
AcDbSymbolTableRecord
100
AcDbDimStyleTableRecord
  2
ISO-25
 70
     0
 41
2.5
 42
0.625
 43
3.75
 44
1.25
 73
     0
 74
     0
 77
     1
 78
     8
140
2.5
141
2.5
143
0.0393700787
147
0.625
171
     3
172
     1
178
     0
271
     2
272
     2
274
     3
278
    44
283
     0
284
     8
340
11
  0
ENDTAB
  0
TABLE
  2
BLOCK_RECORD
  5
1
330
0
100
AcDbSymbolTable
 70
     1
  0
BLOCK_RECORD
  5
1F
330
1
100
AcDbSymbolTableRecord
100
AcDbBlockTableRecord
  2
*Model_Space
340
22
  0
BLOCK_RECORD
  5
1B
330
1
100
AcDbSymbolTableRecord
100
AcDbBlockTableRecord
  2
*Paper_Space
340
1E
  0
BLOCK_RECORD
  5
23
330
1
100
AcDbSymbolTableRecord
100
AcDbBlockTableRecord
  2
*Paper_Space0
340
26
  0
ENDTAB
  0
ENDSEC
  0
SECTION
  2
BLOCKS
  0
BLOCK
  5
20
330
1F
100
AcDbEntity
  8
0
100
AcDbBlockBegin
  2
*Model_Space
 70
     0
 10
0.0
 20
0.0
 30
0.0
  3
*Model_Space
  1

  0
ENDBLK
  5
21
330
1F
100
AcDbEntity
  8
0
100
AcDbBlockEnd
  0
BLOCK
  5
1C
330
1B
100
AcDbEntity
 67
     1
  8
0
100
AcDbBlockBegin
  2
*Paper_Space
 70
     0
 10
0.0
 20
0.0
 30
0.0
  3
*Paper_Space
  1

  0
ENDBLK
  5
1D
330
1B
100
AcDbEntity
 67
     1
  8
0
100
AcDbBlockEnd
  0
BLOCK
  5
24
330
23
100
AcDbEntity
  8
0
100
AcDbBlockBegin
  2
*Paper_Space0
 70
     0
 10
0.0
 20
0.0
 30
0.0
  3
*Paper_Space0
  1

  0
ENDBLK
  5
25
330
23
100
AcDbEntity
  8
0
100
AcDbBlockEnd
  0
ENDSEC
  0
SECTION
  2
ENTITIES
  0
SPLINE
  5
73
330
1F
100
AcDbEntity
  8
0
  6
Continuous
 62
     7
370
    25
100
AcDbSpline
210
0.0
220
0.0
230
1.0
 70
    11
 71
     3
 72
    39
 73
    35
 74
     0
 42
0.00000001
 43
0.00000001
 40
0.0
 40
0.0
 40
0.0
 40
0.0
 40
0.0312563418171035
 40
0.0625002534613008
 40
0.0937397742935129
 40
0.1250001497283627
 40
0.1562306958928248
 40
0.1874999070470421
 40
0.2187247202991411
 40
0.2499998592520773
 40
0.28122447465048
 40
0.3124997335238727
 40
0.3437330824960541
 40
0.3749995397486663
 40
0.4062384477012013
 40
0.4375000293638862
 40
0.4687347645496305
 40
0.4999997813786593
 40
0.5312329011360065
 40
0.5624997573660587
 40
0.5937442950290275
 40
0.625000164884893
 40
0.6562497790314209
 40
0.6875003253874474
 40
0.7187370822273705
 40
0.7499997863987614
 40
0.7812238981914222
 40
0.8124993368369731
 40
0.8437223618582383
 40
0.874999289154087
 40
0.9062250166530977
 40
0.9374991926669795
 40
0.968746792725754
 40
1.0
 40
1.0
 40
1.0
 40
1.0
 10
1177.325564440898
 20
88.24999979670085
 30
0.0
 10
1177.538541305808
 20
88.24989110022003
 30
0.0
 10
1177.964379169802
 20
88.20902548049095
 30
0.0
 10
1178.577936545896
 20
88.02128415513566
 30
0.0
 10
1179.144798134935
 20
87.72061257539615
 30
0.0
 10
1179.6399431503
 20
87.31261880835306
 30
0.0
 10
1180.048813667236
 20
86.81792825122056
 30
0.0
 10
1180.350015193364
 20
86.2514684982934
 30
0.0
 10
1180.538236637606
 20
85.63782672459193
 30
0.0
 10
1180.599291195918
 20
84.99917018422227
 30
0.0
 10
1180.53789318558
 20
84.36020974714046
 30
0.0
 10
1180.349326515697
 20
83.74691636762859
 30
0.0
 10
1180.047705041219
 20
83.18030251784933
 30
0.0
 10
1179.638552006389
 20
82.6860174666779
 30
0.0
 10
1179.143007122892
 20
82.27813246036122
 30
0.0
 10
1178.575960481553
 20
81.97791255282252
 30
0.0
 10
1177.962162240539
 20
81.79048945324494
 30
0.0
 10
1177.32346334929
 20
81.7296613633003
 30
0.0
 10
1176.68458238191
 20
81.79085767272224
 30
0.0
 10
1176.071021470891
 20
81.9786919539651
 30
0.0
 10
1175.503947332351
 20
82.279308695874
 30
0.0
 10
1175.008785167597
 20
82.68750394817307
 30
0.0
 10
1174.599944867518
 20
83.18217696250406
 30
0.0
 10
1174.298726096264
 20
83.74872460625538
 30
0.0
 10
1174.110619350831
 20
84.3622636713926
 30
0.0
 10
1174.049519424116
 20
85.00090662379864
 30
0.0
 10
1174.110979160111
 20
85.63977370849064
 30
0.0
 10
1174.299459298598
 20
86.25301546397549
 30
0.0
 10
1174.601105491092
 20
86.81961865765442
 30
0.0
 10
1175.010158168428
 20
87.31386775947581
 30
0.0
 10
1175.505731452853
 20
87.72183210297834
 30
0.0
 10
1176.072861807377
 20
88.02205554390284
 30
0.0
 10
1176.6867049629
 20
88.20968128017473
 30
0.0
 10
1177.112608934376
 20
88.25010848228102
 30
0.0
 10
1177.325564440898
 20
88.24999979670085
 30
0.0
  0
SPLINE
  5
74
330
1F
100
AcDbEntity
  8
0
  6
Continuous
 62
     7
370
    25
100
AcDbSpline
210
0.0
220
0.0
230
1.0
 70
    11
 71
     3
 72
    39
 73
    35
 74
     0
 42
0.00000001
 43
0.00000001
 40
0.0
 40
0.0
 40
0.0
 40
0.0
 40
0.0312463187396306
 40
0.0625002360027503
 40
0.0937472144590845
 40
0.1250004790297085
 40
0.1562530584659278
 40
0.1875004962792219
 40
0.2187517576865705
 40
0.2500000078204926
 40
0.2812389554228948
 40
0.3124995898317625
 40
0.3437334422605428
 40
0.3749995398278397
 40
0.4062381736453851
 40
0.4374997950654032
 40
0.4687418549396494
 40
0.4999999836906149
 40
0.531239891848238
 40
0.5625000836367179
 40
0.5937419130800601
 40
0.6250004181048916
 40
0.6562481411956799
 40
0.6875003594443028
 40
0.7187465737487773
 40
0.7499999462032546
 40
0.7812435055256302
 40
0.812499620005986
 40
0.8437405916565166
 40
0.8749993958804488
 40
0.9062353350247264
 40
0.9374995078754449
 40
0.968740541890909
 40
0.9999999999999999
 40
0.9999999999999999
 40
0.9999999999999999
 40
0.9999999999999999
 10
392.4444936016784
 20
76.50000053594422
 30
0.0
 10
391.8876221809195
 20
76.49982685739292
 30
0.0
 10
390.7737187002384
 20
76.60579374346672
 30
0.0
 10
389.1685196102339
 20
77.09593182601591
 30
0.0
 10
387.6850296386288
 20
77.8811717572197
 30
0.0
 10
386.3889658822141
 20
78.94771134281888
 30
0.0
 10
385.3184563996366
 20
80.2405444466825
 30
0.0
 10
384.5293148758735
 20
81.72196822101525
 30
0.0
 10
384.0358555740228
 20
83.32622241391472
 30
0.0
 10
383.8749375852463
 20
84.99679664800625
 30
0.0
 10
384.0346936343789
 20
86.66763198383086
 30
0.0
 10
384.5268215345658
 20
88.27205251729798
 30
0.0
 10
385.3149533484915
 20
89.75419098063355
 30
0.0
 10
386.3843094606704
 20
91.04765075271092
 30
0.0
 10
387.6797509315383
 20
92.1153092042008
 30
0.0
 10
389.162476597562
 20
92.90156406498741
 30
0.0
 10
390.7675300579227
 20
93.39301824346
 30
0.0
 10
392.4381124005758
 20
93.55319313393376
 30
0.0
 10
394.1091070623794
 20
93.39419845776116
 30
0.0
 10
395.7142308143182
 20
92.90414568068081
 30
0.0
 10
397.1978548181867
 20
92.11891660301757
 30
0.0
 10
398.4938492073586
 20
91.05241322445323
 30
0.0
 10
399.5644076405941
 20
89.75951140589929
 30
0.0
 10
400.3535580234823
 20
88.27819670037745
 30
0.0
 10
400.8471114349147
 20
86.6738755941253
 30
0.0
 10
401.0079763605908
 20
85.00321683476766
 30
0.0
 10
400.8483668014999
 20
83.33226860463189
 30
0.0
 10
400.3560349230661
 20
81.72776241408982
 30
0.0
 10
399.5678504437388
 20
80.24576144322447
 30
0.0
 10
398.4985998173763
 20
78.95228164554803
 30
0.0
 10
397.2031859637136
 20
77.88479404511003
 30
0.0
 10
395.7205363021115
 20
77.09847205306691
 30
0.0
 10
394.1154567898687
 20
76.60688111570646
 30
0.0
 10
393.0015991920814
 20
76.50017428752898
 30
0.0
 10
392.4444936016784
 20
76.50000053594422
 30
0.0
  0
SPLINE
  5
75
330
1F
100
AcDbEntity
  8
0
  6
Continuous
 62
     7
370
    25
100
AcDbSpline
210
0.0
220
0.0
230
1.0
 70
    11
 71
     3
 72
    35
 73
    31
 74
     0
 42
0.00000001
 43
0.00000001
 40
0.0
 40
0.0
 40
0.0
 40
0.0
 40
0.0624975568950229
 40
0.0625010306798878
 40
0.1249968057919818
 40
0.1250017155469146
 40
0.1874977463837877
 40
0.1875012164741646
 40
0.2499997353981346
 40
0.3124980406747981
 40
0.3125015087095201
 40
0.3749975442845053
 40
0.3750024501905862
 40
0.4374982178543882
 40
0.4375016881447413
 40
0.4999997324382998
 40
0.5624978044739746
 40
0.5625012762324796
 40
0.6249970473156079
 40
0.6250019597438365
 40
0.6874976700499351
 40
0.6875011405994993
 40
0.749999735828609
 40
0.8124982900679921
 40
0.8125017581143837
 40
0.8749977553461098
 40
0.8750026622258867
 40
0.9374984592109302
 40
0.9375019295352993
 40
1.0
 40
1.0
 40
1.0
 40
1.0
 10
784.8829422022634
 20
110.4500000000114
 30
0.0
 10
785.2038021811376
 20
110.4499999982387
 30
0.0
 10
785.5246799542086
 20
110.3863164424699
 30
0.0
 10
786.1177410608417
 20
110.1411653021292
 30
0.0
 10
786.3899622943093
 20
109.9596802730226
 30
0.0
 10
786.8442102947367
 20
109.5063697435415
 30
0.0
 10
787.0262781432468
 20
109.2345019648584
 30
0.0
 10
787.2723054299319
 20
108.6417773183345
 30
0.0
 10
787.40025183294
 20
108.000005286391
 30
0.0
 10
787.2723080114112
 20
107.3582329092728
 30
0.0
 10
787.0262839402224
 20
106.7655081367344
 30
0.0
 10
786.8442173923772
 20
106.4936394895342
 30
0.0
 10
786.3899715830133
 20
106.0403268251931
 30
0.0
 10
786.1177512916381
 20
105.8588405441287
 30
0.0
 10
785.524689041169
 20
105.6136856535717
 30
0.0
 10
784.882946301372
 20
105.486318960909
 30
0.0
 10
784.2412031227741
 20
105.6136835478409
 30
0.0
 10
783.6481399338572
 20
105.8588366045135
 30
0.0
 10
783.3759190104174
 20
106.040322054932
 30
0.0
 10
782.9216729093705
 20
106.4936321025559
 30
0.0
 10
782.7396061924045
 20
106.7654985256802
 30
0.0
 10
782.493579159015
 20
107.3582218824835
 30
0.0
 10
782.3656322972109
 20
107.9999955926827
 30
0.0
 10
782.4935768659205
 20
108.641769720286
 30
0.0
 10
782.7396022683898
 20
109.2344951123659
 30
0.0
 10
782.9216691456389
 20
109.5063632902879
 30
0.0
 10
783.3759155605362
 20
109.9596753039088
 30
0.0
 10
783.6481362291023
 20
110.1411613090924
 30
0.0
 10
784.241199114637
 20
110.3863154064808
 30
0.0
 10
784.5620795867428
 20
110.4500000017842
 30
0.0
 10
784.8829422022634
 20
110.4500000000114
 30
0.0
  0
SPLINE
  5
76
330
1F
100
AcDbEntity
  8
0
  6
Continuous
 62
     7
370
    25
100
AcDbSpline
210
0.0
220
0.0
230
1.0
 70
    11
 71
     3
 72
    35
 73
    31
 74
     0
 42
0.00000001
 43
0.00000001
 40
0.0
 40
0.0
 40
0.0
 40
0.0
 40
0.0624975568950293
 40
0.0625010306798809
 40
0.1249968057919709
 40
0.125001715546909
 40
0.1874977463837822
 40
0.1875012164741605
 40
0.2499997353981303
 40
0.3124980406747898
 40
0.3125015087095205
 40
0.3749975442845017
 40
0.3750024501905842
 40
0.437498217854386
 40
0.4375016881447517
 40
0.4999997324382878
 40
0.5624978044739684
 40
0.5625012762324697
 40
0.6249970473156139
 40
0.6250019597438274
 40
0.6874976700499342
 40
0.6875011405994931
 40
0.7499997358286079
 40
0.8124982900679861
 40
0.8125017581143816
 40
0.8749977553461006
 40
0.8750026622258708
 40
0.9374984592109158
 40
0.9375019295353062
 40
1.0
 40
1.0
 40
1.0
 40
1.0
 10
784.8829422022634
 20
122.4500000000114
 30
0.0
 10
785.2038021811376
 20
122.4499999982387
 30
0.0
 10
785.5246799542085
 20
122.3863164424699
 30
0.0
 10
786.1177410608417
 20
122.1411653021292
 30
0.0
 10
786.3899622943089
 20
121.9596802730226
 30
0.0
 10
786.8442102947364
 20
121.5063697435415
 30
0.0
 10
787.0262781432466
 20
121.2345019648583
 30
0.0
 10
787.2723054299315
 20
120.6417773183345
 30
0.0
 10
787.4002518329394
 20
120.000005286391
 30
0.0
 10
787.2723080114106
 20
119.3582329092727
 30
0.0
 10
787.0262839402219
 20
118.7655081367343
 30
0.0
 10
786.8442173923769
 20
118.4936394895341
 30
0.0
 10
786.389971583013
 20
118.0403268251931
 30
0.0
 10
786.1177512916379
 20
117.8588405441286
 30
0.0
 10
785.5246890411688
 20
117.6136856535717
 30
0.0
 10
784.8829463013718
 20
117.486318960909
 30
0.0
 10
784.2412031227739
 20
117.6136835478409
 30
0.0
 10
783.648139933857
 20
117.8588366045134
 30
0.0
 10
783.3759190104172
 20
118.0403220549319
 30
0.0
 10
782.9216729093703
 20
118.4936321025559
 30
0.0
 10
782.7396061924044
 20
118.7654985256802
 30
0.0
 10
782.493579159015
 20
119.3582218824836
 30
0.0
 10
782.3656322972108
 20
119.9999955926826
 30
0.0
 10
782.4935768659205
 20
120.641769720286
 30
0.0
 10
782.7396022683897
 20
121.2344951123658
 30
0.0
 10
782.9216691456386
 20
121.5063632902879
 30
0.0
 10
783.3759155605356
 20
121.9596753039089
 30
0.0
 10
783.6481362291021
 20
122.1411613090925
 30
0.0
 10
784.2411991146369
 20
122.3863154064808
 30
0.0
 10
784.5620795867428
 20
122.4500000017842
 30
0.0
 10
784.8829422022634
 20
122.4500000000114
 30
0.0
  0
SPLINE
  5
77
330
1F
100
AcDbEntity
  8
0
  6
Continuous
 62
     7
370
    25
100
AcDbSpline
210
0.0
220
0.0
230
1.0
 70
    11
 71
     3
 72
    35
 73
    31
 74
     0
 42
0.00000001
 43
0.00000001
 40
0.0
 40
0.0
 40
0.0
 40
0.0
 40
0.0624982249771037
 40
0.0625017086639792
 40
0.1249976497036838
 40
0.1250025770843092
 40
0.1874983229567859
 40
0.1875018086975541
 40
0.2499998170720484
 40
0.3124978183016572
 40
0.3125013025754582
 40
0.3749970397089041
 40
0.3750019656252852
 40
0.4374979035332806
 40
0.437501385564853
 40
0.4999998602546569
 40
0.5624983437721003
 40
0.5625018267044997
 40
0.6249977880650517
 40
0.6250027146949279
 40
0.6874984641499339
 40
0.687501949586162
 40
0.749999937333932
 40
0.8124979242831066
 40
0.8125014091747019
 40
0.8749971466960648
 40
0.875002073008139
 40
0.937498020791872
 40
0.9375015031054783
 40
1.0
 40
1.0
 40
1.0
 40
1.0
 10
354.0995011424185
 20
141.2000000000052
 30
0.0
 10
354.0995011375406
 20
141.6583976018438
 30
0.0
 10
354.1908988913611
 20
142.1168207266674
 30
0.0
 10
354.5423778059001
 20
142.963568886156
 30
0.0
 10
354.8024819901991
 20
143.3519490511858
 30
0.0
 10
355.4514165126078
 20
143.9995339214878
 30
0.0
 10
355.8403058786992
 20
144.2587991189802
 30
0.0
 10
356.6875434502296
 20
144.6090202131798
 30
0.0
 10
357.6043239669868
 20
144.7909743859746
 30
0.0
 10
358.5211044109336
 20
144.6090207758731
 30
0.0
 10
359.3683424336492
 20
144.2588011826644
 30
0.0
 10
359.7572323287098
 20
143.9995372077803
 30
0.0
 10
360.406169150753
 20
143.351954814015
 30
0.0
 10
360.6662750714902
 20
142.9635759150242
 30
0.0
 10
361.0177581300048
 20
142.1168274932523
 30
0.0
 10
361.2005519887367
 20
141.200003133763
 30
0.0
 10
361.0177597665746
 20
140.2831784317944
 30
0.0
 10
360.6662780868355
 20
139.4364291701274
 30
0.0
 10
360.4061726955423
 20
139.0480496767822
 30
0.0
 10
359.757236691068
 20
138.4004660782238
 30
0.0
 10
359.3683470928165
 20
138.1412014559233
 30
0.0
 10
358.5211095823203
 20
137.7909806232502
 30
0.0
 10
357.6043296701087
 20
137.6090256910624
 30
0.0
 10
356.6875491384892
 20
137.7909783208899
 30
0.0
 10
355.8403111848682
 20
138.1411978912947
 30
0.0
 10
355.4514214383128
 20
138.4004623712854
 30
0.0
 10
354.8024857687837
 20
139.0480460582601
 30
0.0
 10
354.5423808648612
 20
139.4364257712833
 30
0.0
 10
354.1908997041517
 20
140.2831752379002
 30
0.0
 10
354.0995011472964
 20
140.7416004037692
 30
0.0
 10
354.0995011424185
 20
141.2000000000052
 30
0.0
  0
SPLINE
  5
78
330
1F
100
AcDbEntity
  8
0
  6
Continuous
 62
     7
370
    25
100
AcDbSpline
210
0.0
220
0.0
230
1.0
 70
    11
 71
     3
 72
    35
 73
    31
 74
     0
 42
0.00000001
 43
0.00000001
 40
0.0
 40
0.0
 40
0.0
 40
0.0
 40
0.0624982249771063
 40
0.0625017086639795
 40
0.1249976497036861
 40
0.1250025770843133
 40
0.1874983229567819
 40
0.1875018086975577
 40
0.2499998170720495
 40
0.3124978183016598
 40
0.3125013025754595
 40
0.374997039708906
 40
0.3750019656252899
 40
0.4374979035332867
 40
0.4375013855648556
 40
0.4999998602546555
 40
0.562498343772102
 40
0.5625018267045014
 40
0.6249977880650524
 40
0.6250027146949311
 40
0.6874984641499415
 40
0.6875019495861687
 40
0.7499999373339375
 40
0.8124979242831066
 40
0.8125014091747021
 40
0.874997146696064
 40
0.8750020730081379
 40
0.9374980207918727
 40
0.9375015031054779
 40
1.0
 40
1.0
 40
1.0
 40
1.0
 10
354.0995011424214
 20
-61.0999999999948
 30
0.0
 10
354.0995011375435
 20
-60.64160239815614
 30
0.0
 10
354.190898891364
 20
-60.18317927333264
 30
0.0
 10
354.5423778059029
 20
-59.33643111384404
 30
0.0
 10
354.8024819902021
 20
-58.94805094881413
 30
0.0
 10
355.4514165126108
 20
-58.30046607851214
 30
0.0
 10
355.8403058787021
 20
-58.04120088101983
 30
0.0
 10
356.6875434502325
 20
-57.69097978682024
 30
0.0
 10
357.6043239669898
 20
-57.50902561402535
 30
0.0
 10
358.5211044109365
 20
-57.69097922412693
 30
0.0
 10
359.3683424336522
 20
-58.04119881733561
 30
0.0
 10
359.7572323287126
 20
-58.30046279221968
 30
0.0
 10
360.4061691507559
 20
-58.94804518598499
 30
0.0
 10
360.6662750714931
 20
-59.3364240849759
 30
0.0
 10
361.0177581300077
 20
-60.18317250674774
 30
0.0
 10
361.2005519887394
 20
-61.09999686623705
 30
0.0
 10
361.0177597665774
 20
-62.01682156820574
 30
0.0
 10
360.6662780868382
 20
-62.86357082987262
 30
0.0
 10
360.4061726955453
 20
-63.25195032321795
 30
0.0
 10
359.7572366910708
 20
-63.89953392177627
 30
0.0
 10
359.3683470928192
 20
-64.1587985440767
 30
0.0
 10
358.521109582323
 20
-64.50901937674976
 30
0.0
 10
357.6043296701116
 20
-64.69097430893774
 30
0.0
 10
356.687549138492
 20
-64.50902167911009
 30
0.0
 10
355.8403111848712
 20
-64.15880210870529
 30
0.0
 10
355.4514214383156
 20
-63.89953762871471
 30
0.0
 10
354.8024857687867
 20
-63.25195394173995
 30
0.0
 10
354.5423808648641
 20
-62.8635742287167
 30
0.0
 10
354.1908997041548
 20
-62.01682476209982
 30
0.0
 10
354.0995011472994
 20
-61.55839959623077
 30
0.0
 10
354.0995011424214
 20
-61.0999999999948
 30
0.0
  0
SPLINE
  5
79
330
1F
100
AcDbEntity
  8
0
  6
Continuous
 62
     7
370
    25
100
AcDbSpline
210
0.0
220
0.0
230
1.0
 70
    11
 71
     3
 72
    35
 73
    31
 74
     0
 42
0.00000001
 43
0.00000001
 40
0.0
 40
0.0
 40
0.0
 40
0.0
 40
0.0624984935169047
 40
0.06250197587596
 40
0.1249979243760357
 40
0.1250028507070553
 40
0.1874985921310657
 40
0.1875020770265595
 40
0.2500000659289006
 40
0.3124980517827792
 40
0.3125015372151514
 40
0.3749972827571693
 40
0.3750022093682822
 40
0.4374981699338304
 40
0.4375016528199691
 40
0.500000139078695
 40
0.5624986177284417
 40
0.5625020997158197
 40
0.6249980369131389
 40
0.6250029628117457
 40
0.6874986960490231
 40
0.6875021803200315
 40
0.7500001783806209
 40
0.8124981898369591
 40
0.8125016755802051
 40
0.874997425383507
 40
0.8750023527819041
 40
0.9374982946094127
 40
0.9375017783411554
 40
1.0
 40
1.0
 40
1.0
 40
1.0
 10
423.7737841708587
 20
141.2000000000061
 30
0.0
 10
423.773784175736
 20
141.6583995849322
 30
0.0
 10
423.8651832864894
 20
142.1168247398209
 30
0.0
 10
424.2166657746943
 20
142.9635736460068
 30
0.0
 10
424.4767714635175
 20
143.3519528053838
 30
0.0
 10
425.1257079204557
 20
143.9995357245086
 30
0.0
 10
425.5145976764857
 20
144.2587999840554
 30
0.0
 10
426.361835419902
 20
144.6090201148696
 30
0.0
 10
427.2786154762799
 20
144.7909743090349
 30
0.0
 10
428.1953958646197
 20
144.6090209408418
 30
0.0
 10
429.0426335867258
 20
144.2588006673187
 30
0.0
 10
429.4315231747404
 20
143.9995358248747
 30
0.0
 10
430.0804583905312
 20
143.3519514591269
 30
0.0
 10
430.3405629965499
 20
142.9635714126405
 30
0.0
 10
430.6920433485877
 20
142.1168215914935
 30
0.0
 10
430.8748344632868
 20
141.199996867739
 30
0.0
 10
430.6920417128179
 20
140.2831724862492
 30
0.0
 10
430.3405599806142
 20
139.4364235014151
 30
0.0
 10
430.0804548457515
 20
139.0480440498116
 30
0.0
 10
429.4315188121736
 20
138.4004608890291
 30
0.0
 10
429.0426289266507
 20
138.141196693484
 30
0.0
 10
428.1953906939999
 20
137.7909776603525
 30
0.0
 10
427.2786097751245
 20
137.6090256141516
 30
0.0
 10
426.3618297346052
 20
137.7909813503512
 30
0.0
 10
425.5145923694394
 20
138.1412030065135
 30
0.0
 10
425.1257029953346
 20
138.4004679820637
 30
0.0
 10
424.4767676863295
 20
139.0480520832457
 30
0.0
 10
424.2166627165875
 20
139.4364316949319
 30
0.0
 10
423.8651824738691
 20
140.2831792947589
 30
0.0
 10
423.7737841659815
 20
140.7416024090421
 30
0.0
 10
423.7737841708587
 20
141.2000000000061
 30
0.0
  0
SPLINE
  5
7A
330
1F
100
AcDbEntity
  8
0
  6
Continuous
 62
     7
370
    25
100
AcDbSpline
210
0.0
220
0.0
230
1.0
 70
    11
 71
     3
 72
    35
 73
    31
 74
     0
 42
0.00000001
 43
0.00000001
 40
0.0
 40
0.0
 40
0.0
 40
0.0
 40
0.0624984935169037
 40
0.0625019758759613
 40
0.1249979243760327
 40
0.1250028507070488
 40
0.187498592131066
 40
0.1875020770265605
 40
0.2500000659288933
 40
0.3124980517827814
 40
0.3125015372151625
 40
0.3749972827571649
 40
0.3750022093682853
 40
0.437498169933827
 40
0.4375016528199674
 40
0.5000001390786928
 40
0.5624986177284461
 40
0.5625020997158179
 40
0.6249980369131413
 40
0.6250029628117414
 40
0.6874986960490189
 40
0.6875021803200299
 40
0.7500001783806216
 40
0.8124981898369543
 40
0.812501675580201
 40
0.8749974253835038
 40
0.8750023527818978
 40
0.9374982946094136
 40
0.937501778341154
 40
1.0
 40
1.0
 40
1.0
 40
1.0
 10
423.7737841708616
 20
-61.09999999999383
 30
0.0
 10
423.773784175739
 20
-60.6416004150678
 30
0.0
 10
423.8651832864923
 20
-60.18317526017903
 30
0.0
 10
424.2166657746972
 20
-59.33642635399313
 30
0.0
 10
424.4767714635203
 20
-58.94804719461611
 30
0.0
 10
425.1257079204586
 20
-58.3004642754914
 30
0.0
 10
425.5145976764886
 20
-58.04120001594464
 30
0.0
 10
426.3618354199049
 20
-57.69097988513054
 30
0.0
 10
427.2786154762831
 20
-57.50902569096519
 30
0.0
 10
428.1953958646227
 20
-57.69097905915816
 30
0.0
 10
429.0426335867288
 20
-58.04119933268132
 30
0.0
 10
429.4315231747432
 20
-58.30046417512528
 30
0.0
 10
430.0804583905338
 20
-58.94804854087308
 30
0.0
 10
430.3405629965525
 20
-59.33642858735941
 30
0.0
 10
430.6920433485905
 20
-60.18317840850643
 30
0.0
 10
430.87483446329
 20
-61.10000313226113
 30
0.0
 10
430.6920417128205
 20
-62.01682751375073
 30
0.0
 10
430.3405599806169
 20
-62.86357649858484
 30
0.0
 10
430.0804548457542
 20
-63.25195595018828
 30
0.0
 10
429.4315188121765
 20
-63.89953911097084
 30
0.0
 10
429.0426289266538
 20
-64.15880330651596
 30
0.0
 10
428.1953906940029
 20
-64.50902233964757
 30
0.0
 10
427.2786097751276
 20
-64.69097438584834
 30
0.0
 10
426.3618297346082
 20
-64.50901864964874
 30
0.0
 10
425.5145923694424
 20
-64.15879699348646
 30
0.0
 10
425.1257029953375
 20
-63.8995320179363
 30
0.0
 10
424.4767676863324
 20
-63.25194791675438
 30
0.0
 10
424.2166627165905
 20
-62.86356830506818
 30
0.0
 10
423.8651824738719
 20
-62.01682070524107
 30
0.0
 10
423.7737841659844
 20
-61.55839759095788
 30
0.0
 10
423.7737841708616
 20
-61.09999999999383
 30
0.0
  0
SPLINE
  5
7F
330
1F
100
AcDbEntity
  8
0
  6
Continuous
 62
     7
370
    25
100
AcDbSpline
210
0.0
220
0.0
230
1.0
 70
     8
 71
     3
 72
     9
 73
     5
 74
     0
 42
0.00000001
 43
0.00000001
 40
0.0
 40
0.0
 40
0.0
 40
0.0
 40
0.758225886363382
 40
1.0
 40
1.0
 40
1.0
 40
1.0
 10
784.8829422022633
 20
122.4500000000114
 30
0.0
 10
784.6050012759353
 20
122.4374026038263
 30
0.0
 10
784.238433830367
 20
122.4207882987602
 30
0.0
 10
783.9306235945202
 20
122.2353212568186
 30
0.0
 10
783.8562030475798
 20
122.1904801271443
 30
0.0
  0
SPLINE
  5
80
330
1F
100
AcDbEntity
  8
0
  6
Continuous
 62
     7
370
    25
100
AcDbSpline
210
0.0
220
0.0
230
1.0
 70
     8
 71
     3
 72
     9
 73
     5
 74
     0
 42
0.00000001
 43
0.00000001
 40
0.0
 40
0.0
 40
0.0
 40
0.0
 40
0.1493654765998296
 40
0.9999999999999999
 40
0.9999999999999999
 40
0.9999999999999999
 40
0.9999999999999999
 10
423.8035705438545
 20
141.3746862754485
 30
0.0
 10
423.7962316783826
 20
141.3164194523513
 30
0.0
 10
423.7470980657235
 20
140.9263237995704
 30
0.0
 10
423.8585090737787
 20
140.5413466414444
 30
0.0
 10
423.9532791235173
 20
140.213871780022
 30
0.0
  0
SPLINE
  5
81
330
1F
100
AcDbEntity
  8
0
  6
Continuous
 62
     7
370
    25
100
AcDbSpline
210
0.0
220
0.0
230
1.0
 70
     8
 71
     3
 72
    10
 73
     6
 74
     0
 42
0.00000001
 43
0.00000001
 40
0.0
 40
0.0
 40
0.0
 40
0.0
 40
0.1068101086995836
 40
0.8232571919135306
 40
1.0
 40
1.0
 40
1.0
 40
1.0
 10
423.8035705438573
 20
-60.92531372455198
 30
0.0
 10
423.7967549381768
 20
-60.98337677730625
 30
0.0
 10
423.7442224909949
 20
-61.43090769311929
 30
0.0
 10
423.8256011407969
 20
-62.0103909390431
 30
0.0
 10
424.0749382991972
 20
-62.43214663024832
 30
0.0
 10
424.1242766873331
 20
-62.51560288732881
 30
0.0
  0
SPLINE
  5
82
330
1F
100
AcDbEntity
  8
0
  6
Continuous
 62
     7
370
    25
100
AcDbSpline
210
0.0
220
0.0
230
1.0
 70
     8
 71
     3
 72
     9
 73
     5
 74
     0
 42
0.00000001
 43
0.00000001
 40
0.0
 40
0.0
 40
0.0
 40
0.0
 40
0.8009449367411791
 40
1.0
 40
1.0
 40
1.0
 40
1.0
 10
354.1105550888013
 20
141.2000000000052
 30
0.0
 10
354.1266550550019
 20
140.7953003487841
 30
0.0
 10
354.1467562697824
 20
140.2900226041393
 30
0.0
 10
354.4002804194228
 20
139.8667565338287
 30
0.0
 10
354.4507456850671
 20
139.7825032794277
 30
0.0
  0
LINE
  5
84
330
1F
100
AcDbEntity
  8
0
  6
Continuous
 62
     7
370
    25
100
AcDbLine
 10
0.0
 20
200.0
 30
0.0
 11
0.0
 21
-200.0
 31
0.0
  0
LINE
  5
85
330
1F
100
AcDbEntity
  8
0
  6
Continuous
 62
     7
370
    25
100
AcDbLine
 10
1578.4413219708
 20
200.0
 30
0.0
 11
0.0
 21
200.0
 31
0.0
  0
LINE
  5
86
330
1F
100
AcDbEntity
  8
0
  6
Continuous
 62
     7
370
    25
100
AcDbLine
 10
1578.4413219708
 20
200.0
 30
0.0
 11
1578.4413219709
 21
-200.0
 31
0.0
  0
LINE
  5
87
330
1F
100
AcDbEntity
  8
0
  6
Continuous
 62
     7
370
    25
100
AcDbLine
 10
1578.4413219709
 20
-200.0
 30
0.0
 11
0.0
 21
-200.0
 31
0.0
  0
LINE
  5
88
330
1F
100
AcDbEntity
  8
0
  6
Continuous
 62
     7
370
    25
100
AcDbLine
 10
354.1105550888
 20
-61.1
 30
0.0
 11
354.2784764222
 21
-62.0848256637
 31
0.0
  0
ENDSEC
  0
SECTION
  2
OBJECTS
  0
DICTIONARY
  5
C
330
0
100
AcDbDictionary
281
     1
  3
ACAD_GROUP
350
D
  3
ACAD_LAYOUT
350
1A
  3
ACAD_MLINESTYLE
350
17
  3
ACAD_PLOTSETTINGS
350
19
  3
ACAD_PLOTSTYLENAME
350
E
  3
ACAD_SCALELIST
350
47
  3
DWGPROPS
350
89
  0
DICTIONARY
  5
D
102
{ACAD_REACTORS
330
C
102
}
330
C
100
AcDbDictionary
281
     1
  0
DICTIONARY
  5
1A
102
{ACAD_REACTORS
330
C
102
}
330
C
100
AcDbDictionary
281
     1
  3
Layout1
350
1E
  3
Layout2
350
26
  3
Model
350
22
  0
DICTIONARY
  5
17
102
{ACAD_REACTORS
330
C
102
}
330
C
100
AcDbDictionary
281
     1
  3
Standard
350
18
  0
DICTIONARY
  5
19
102
{ACAD_REACTORS
330
C
102
}
330
C
100
AcDbDictionary
281
     1
  0
ACDBDICTIONARYWDFLT
  5
E
102
{ACAD_REACTORS
330
C
102
}
330
C
100
AcDbDictionary
281
     1
  3
Normal
350
F
100
AcDbDictionaryWithDefault
340
F
  0
DICTIONARY
  5
47
102
{ACAD_REACTORS
330
C
102
}
330
C
100
AcDbDictionary
281
     1
  3
A0
350
48
  3
A1
350
49
  3
A2
350
4A
  3
A3
350
4B
  3
A4
350
4C
  3
A5
350
4D
  3
A6
350
4E
  3
A7
350
4F
  3
A8
350
50
  3
A9
350
51
  3
B0
350
52
  3
B1
350
53
  3
B2
350
54
  3
B3
350
55
  3
B4
350
56
  3
B5
350
57
  3
B6
350
58
  3
B7
350
59
  3
B8
350
5A
  3
B9
350
5B
  3
C0
350
5C
  3
C1
350
5D
  3
C2
350
5E
  3
C3
350
5F
  3
C4
350
60
  3
C5
350
61
  3
C6
350
62
  3
C7
350
63
  3
C8
350
64
  3
C9
350
65
  3
D0
350
66
  3
D1
350
67
  3
D2
350
68
  0
XRECORD
  5
89
102
{ACAD_REACTORS
330
C
102
}
330
C
100
AcDbXrecord
280
     1
  1
DWGPROPS COOKIE
  2

  3

  4

  6

  7

  8
vip78
  9

300
=
301
=
302
=
303
=
304
=
305
=
306
=
307
=
308
=
309
=
 40
0.0
 41
2460018.545806979
 42
2460018.545828044
  1

 90
        0
  0
LAYOUT
  5
1E
102
{ACAD_REACTORS
330
1A
102
}
330
1A
100
AcDbPlotSettings
  1

  2
none_device
  4

  6

 40
0.0
 41
0.0
 42
0.0
 43
0.0
 44
0.0
 45
0.0
 46
0.0
 47
0.0
 48
0.0
 49
0.0
140
0.0
141
0.0
142
1.0
143
1.0
 70
   688
 72
     1
 73
     0
 74
     5
  7

 75
    16
147
1.0
148
0.0
149
0.0
100
AcDbLayout
  1
Layout1
 70
     1
 71
     1
 10
0.0
 20
0.0
 11
420.0
 21
297.0
 12
0.0
 22
0.0
 32
0.0
 14
1.0000000000E+20
 24
1.0000000000E+20
 34
1.0000000000E+20
 15
-1.0000000000E+20
 25
-1.0000000000E+20
 35
-1.0000000000E+20
146
0.0
 13
0.0
 23
0.0
 33
0.0
 16
1.0
 26
0.0
 36
0.0
 17
0.0
 27
1.0
 37
0.0
 76
     0
330
1B
  0
LAYOUT
  5
26
102
{ACAD_REACTORS
330
1A
102
}
330
1A
100
AcDbPlotSettings
  1

  2
none_device
  4

  6

 40
0.0
 41
0.0
 42
0.0
 43
0.0
 44
0.0
 45
0.0
 46
0.0
 47
0.0
 48
0.0
 49
0.0
140
0.0
141
0.0
142
1.0
143
1.0
 70
   688
 72
     1
 73
     0
 74
     5
  7

 75
    16
147
1.0
148
0.0
149
0.0
100
AcDbLayout
  1
Layout2
 70
     1
 71
     2
 10
0.0
 20
0.0
 11
0.0
 21
0.0
 12
0.0
 22
0.0
 32
0.0
 14
0.0
 24
0.0
 34
0.0
 15
0.0
 25
0.0
 35
0.0
146
0.0
 13
0.0
 23
0.0
 33
0.0
 16
1.0
 26
0.0
 36
0.0
 17
0.0
 27
1.0
 37
0.0
 76
     0
330
23
  0
LAYOUT
  5
22
102
{ACAD_REACTORS
330
1A
102
}
330
1A
100
AcDbPlotSettings
  1

  2
none_device
  4
ANSI_A_(11.00_x_8.50_Inches)
  6

 40
6.35
 41
19.05
 42
6.35000508
 43
19.05000254
 44
279.4
 45
215.9
 46
-4.95300254
 47
88.89999873
 48
0.0
 49
0.0
140
0.0
141
0.0
142
0.0068992112
143
1.0
 70
  1696
 72
     0
 73
     0
 74
     0
  7

 75
     0
147
0.0179189148
148
-1300.4909072572
149
0.0
100
AcDbLayout
  1
Model
 70
     1
 71
     0
 10
0.0
 20
0.0
 11
420.0
 21
297.0
 12
0.0
 22
0.0
 32
0.0
 14
0.0
 24
-200.0
 34
0.0
 15
1578.4413219709
 25
200.0
 35
0.0
146
0.0
 13
0.0
 23
0.0
 33
0.0
 16
1.0
 26
0.0
 36
0.0
 17
0.0
 27
1.0
 37
0.0
 76
     0
330
1F
331
29
  0
MLINESTYLE
  5
18
102
{ACAD_REACTORS
330
17
102
}
330
17
100
AcDbMlineStyle
  2
Standard
 70
     0
  3

 62
   256
 51
90.0
 52
90.0
 71
     2
 49
0.5
 62
   256
  6
BYLAYER
 49
-0.5
 62
   256
  6
BYLAYER
  0
ACDBPLACEHOLDER
  5
F
102
{ACAD_REACTORS
330
E
102
}
330
E
  0
SCALE
  5
48
102
{ACAD_REACTORS
330
47
102
}
330
47
100
AcDbScale
 70
     0
300
1:1
140
1.0
141
1.0
290
     1
  0
SCALE
  5
49
102
{ACAD_REACTORS
330
47
102
}
330
47
100
AcDbScale
 70
     0
300
1:2
140
1.0
141
2.0
290
     0
  0
SCALE
  5
4A
102
{ACAD_REACTORS
330
47
102
}
330
47
100
AcDbScale
 70
     0
300
1:4
140
1.0
141
4.0
290
     0
  0
SCALE
  5
4B
102
{ACAD_REACTORS
330
47
102
}
330
47
100
AcDbScale
 70
     0
300
1:5
140
1.0
141
5.0
290
     0
  0
SCALE
  5
4C
102
{ACAD_REACTORS
330
47
102
}
330
47
100
AcDbScale
 70
     0
300
1:8
140
1.0
141
8.0
290
     0
  0
SCALE
  5
4D
102
{ACAD_REACTORS
330
47
102
}
330
47
100
AcDbScale
 70
     0
300
1:10
140
1.0
141
10.0
290
     0
  0
SCALE
  5
4E
102
{ACAD_REACTORS
330
47
102
}
330
47
100
AcDbScale
 70
     0
300
1:16
140
1.0
141
16.0
290
     0
  0
SCALE
  5
4F
102
{ACAD_REACTORS
330
47
102
}
330
47
100
AcDbScale
 70
     0
300
1:20
140
1.0
141
20.0
290
     0
  0
SCALE
  5
50
102
{ACAD_REACTORS
330
47
102
}
330
47
100
AcDbScale
 70
     0
300
1:30
140
1.0
141
30.0
290
     0
  0
SCALE
  5
51
102
{ACAD_REACTORS
330
47
102
}
330
47
100
AcDbScale
 70
     0
300
1:40
140
1.0
141
40.0
290
     0
  0
SCALE
  5
52
102
{ACAD_REACTORS
330
47
102
}
330
47
100
AcDbScale
 70
     0
300
1:50
140
1.0
141
50.0
290
     0
  0
SCALE
  5
53
102
{ACAD_REACTORS
330
47
102
}
330
47
100
AcDbScale
 70
     0
300
1:100
140
1.0
141
100.0
290
     0
  0
SCALE
  5
54
102
{ACAD_REACTORS
330
47
102
}
330
47
100
AcDbScale
 70
     0
300
2:1
140
2.0
141
1.0
290
     0
  0
SCALE
  5
55
102
{ACAD_REACTORS
330
47
102
}
330
47
100
AcDbScale
 70
     0
300
4:1
140
4.0
141
1.0
290
     0
  0
SCALE
  5
56
102
{ACAD_REACTORS
330
47
102
}
330
47
100
AcDbScale
 70
     0
300
8:1
140
8.0
141
1.0
290
     0
  0
SCALE
  5
57
102
{ACAD_REACTORS
330
47
102
}
330
47
100
AcDbScale
 70
     0
300
10:1
140
10.0
141
1.0
290
     0
  0
SCALE
  5
58
102
{ACAD_REACTORS
330
47
102
}
330
47
100
AcDbScale
 70
     0
300
100:1
140
100.0
141
1.0
290
     0
  0
SCALE
  5
59
102
{ACAD_REACTORS
330
47
102
}
330
47
100
AcDbScale
 70
     0
300
1/128" = 1'-0"
140
0.0078125
141
12.0
290
     0
  0
SCALE
  5
5A
102
{ACAD_REACTORS
330
47
102
}
330
47
100
AcDbScale
 70
     0
300
1/64" = 1'-0"
140
0.015625
141
12.0
290
     0
  0
SCALE
  5
5B
102
{ACAD_REACTORS
330
47
102
}
330
47
100
AcDbScale
 70
     0
300
1/32" = 1'-0"
140
0.03125
141
12.0
290
     0
  0
SCALE
  5
5C
102
{ACAD_REACTORS
330
47
102
}
330
47
100
AcDbScale
 70
     0
300
1/16" = 1'-0"
140
0.0625
141
12.0
290
     0
  0
SCALE
  5
5D
102
{ACAD_REACTORS
330
47
102
}
330
47
100
AcDbScale
 70
     0
300
3/32" = 1'-0"
140
0.09375
141
12.0
290
     0
  0
SCALE
  5
5E
102
{ACAD_REACTORS
330
47
102
}
330
47
100
AcDbScale
 70
     0
300
1/8" = 1'-0"
140
0.125
141
12.0
290
     0
  0
SCALE
  5
5F
102
{ACAD_REACTORS
330
47
102
}
330
47
100
AcDbScale
 70
     0
300
3/16" = 1'-0"
140
0.1875
141
12.0
290
     0
  0
SCALE
  5
60
102
{ACAD_REACTORS
330
47
102
}
330
47
100
AcDbScale
 70
     0
300
1/4" = 1'-0"
140
0.25
141
12.0
290
     0
  0
SCALE
  5
61
102
{ACAD_REACTORS
330
47
102
}
330
47
100
AcDbScale
 70
     0
300
3/8" = 1'-0"
140
0.375
141
12.0
290
     0
  0
SCALE
  5
62
102
{ACAD_REACTORS
330
47
102
}
330
47
100
AcDbScale
 70
     0
300
1/2" = 1'-0"
140
0.5
141
12.0
290
     0
  0
SCALE
  5
63
102
{ACAD_REACTORS
330
47
102
}
330
47
100
AcDbScale
 70
     0
300
3/4" = 1'-0"
140
0.75
141
12.0
290
     0
  0
SCALE
  5
64
102
{ACAD_REACTORS
330
47
102
}
330
47
100
AcDbScale
 70
     0
300
1" = 1'-0"
140
1.0
141
12.0
290
     0
  0
SCALE
  5
65
102
{ACAD_REACTORS
330
47
102
}
330
47
100
AcDbScale
 70
     0
300
1-1/2" = 1'-0"
140
1.5
141
12.0
290
     0
  0
SCALE
  5
66
102
{ACAD_REACTORS
330
47
102
}
330
47
100
AcDbScale
 70
     0
300
3" = 1'-0"
140
3.0
141
12.0
290
     0
  0
SCALE
  5
67
102
{ACAD_REACTORS
330
47
102
}
330
47
100
AcDbScale
 70
     0
300
6" = 1'-0"
140
6.0
141
12.0
290
     0
  0
SCALE
  5
68
102
{ACAD_REACTORS
330
47
102
}
330
47
100
AcDbScale
 70
     0
300
1'-0" = 1'-0"
140
12.0
141
12.0
290
     0
  0
ENDSEC
  0
EOF
