  0
SECTION
  2
HEADER
  9
$ACADVER
  1
AC1015
  9
$ACADMAINTVER
 70
     6
  9
$DWGCODEPAGE
  3
ANSI_1251
  9
$INSBASE
 10
0.0
 20
0.0
 30
0.0
  9
$EXTMIN
 10
0.0
 20
-200.0
 30
0.0
  9
$EXTMAX
 10
997.2505116072
 20
200.0
 30
0.0
  9
$LIMMIN
 10
0.0
 20
0.0
  9
$LIMMAX
 10
420.0
 20
297.0
  9
$ORTHOMODE
 70
     0
  9
$REGENMODE
 70
     1
  9
$FILLMODE
 70
     1
  9
$QTEXTMODE
 70
     0
  9
$MIRRTEXT
 70
     1
  9
$LTSCALE
 40
1.0
  9
$ATTMODE
 70
     1
  9
$TEXTSIZE
 40
4.0
  9
$TRACEWID
 40
1.0
  9
$TEXTSTYLE
  7
Standard
  9
$CLAYER
  8
0
  9
$CELTYPE
  6
ByLayer
  9
$CECOLOR
 62
   256
  9
$CELTSCALE
 40
1.0
  9
$DISPSILH
 70
     0
  9
$DIMSCALE
 40
1.0
  9
$DIMASZ
 40
6.0
  9
$DIMEXO
 40
0.0
  9
$DIMDLI
 40
3.75
  9
$DIMRND
 40
0.0
  9
$DIMDLE
 40
0.0
  9
$DIMEXE
 40
1.0
  9
$DIMTP
 40
0.0
  9
$DIMTM
 40
0.0
  9
$DIMTXT
 40
4.0
  9
$DIMCEN
 40
2.5
  9
$DIMTSZ
 40
0.0
  9
$DIMTOL
 70
     0
  9
$DIMLIM
 70
     0
  9
$DIMTIH
 70
     1
  9
$DIMTOH
 70
     1
  9
$DIMSE1
 70
     0
  9
$DIMSE2
 70
     0
  9
$DIMTAD
 70
     1
  9
$DIMZIN
 70
     0
  9
$DIMBLK
  1

  9
$DIMASO
 70
     1
  9
$DIMSHO
 70
     1
  9
$DIMPOST
  1

  9
$DIMAPOST
  1

  9
$DIMALT
 70
     0
  9
$DIMALTD
 70
     3
  9
$DIMALTF
 40
0.0393700787
  9
$DIMLFAC
 40
1.0
  9
$DIMTOFL
 70
     1
  9
$DIMTVP
 40
0.0
  9
$DIMTIX
 70
     0
  9
$DIMSOXD
 70
     0
  9
$DIMSAH
 70
     0
  9
$DIMBLK1
  1

  9
$DIMBLK2
  1

  9
$DIMSTYLE
  2
ISO-25
  9
$DIMCLRD
 70
     0
  9
$DIMCLRE
 70
     0
  9
$DIMCLRT
 70
     0
  9
$DIMTFAC
 40
1.0
  9
$DIMGAP
 40
3.0
  9
$DIMJUST
 70
     0
  9
$DIMSD1
 70
     0
  9
$DIMSD2
 70
     0
  9
$DIMTOLJ
 70
     0
  9
$DIMTZIN
 70
     0
  9
$DIMALTZ
 70
     0
  9
$DIMALTTZ
 70
     0
  9
$DIMUPT
 70
     0
  9
$DIMDEC
 70
     2
  9
$DIMTDEC
 70
     4
  9
$DIMALTU
 70
     2
  9
$DIMALTTD
 70
     3
  9
$DIMTXSTY
  7
Standard
  9
$DIMAUNIT
 70
     0
  9
$DIMADEC
 70
     2
  9
$DIMALTRND
 40
0.0
  9
$DIMAZIN
 70
     0
  9
$DIMDSEP
 70
    44
  9
$DIMATFIT
 70
     3
  9
$DIMFRAC
 70
     0
  9
$DIMLDRBLK
  1

  9
$DIMLUNIT
 70
     2
  9
$DIMLWD
 70
    -2
  9
$DIMLWE
 70
    -2
  9
$DIMTMOVE
 70
     0
  9
$LUNITS
 70
     2
  9
$LUPREC
 70
     2
  9
$SKETCHINC
 40
1.0
  9
$FILLETRAD
 40
10.0
  9
$AUNITS
 70
     0
  9
$AUPREC
 70
     2
  9
$MENU
  1
.
  9
$ELEVATION
 40
0.0
  9
$PELEVATION
 40
0.0
  9
$THICKNESS
 40
0.0
  9
$LIMCHECK
 70
     0
  9
$CHAMFERA
 40
0.0
  9
$CHAMFERB
 40
0.0
  9
$CHAMFERC
 40
0.0
  9
$CHAMFERD
 40
0.0
  9
$SKPOLY
 70
     0
  9
$TDCREATE
 40
2460045.623250579
  9
$TDUCREATE
 40
2460045.498250579
  9
$TDUPDATE
 40
2460045.623307801
  9
$TDUUPDATE
 40
2460045.498307801
  9
$TDINDWG
 40
0.0000000116
  9
$TDUSRTIMER
 40
0.0000000116
  9
$USRTIMER
 70
     1
  9
$ANGBASE
 50
0.0
  9
$ANGDIR
 70
     0
  9
$PDMODE
 70
     0
  9
$PDSIZE
 40
-1.0
  9
$PLINEWID
 40
0.0
  9
$SPLFRAME
 70
     0
  9
$SPLINETYPE
 70
     6
  9
$SPLINESEGS
 70
     8
  9
$HANDSEED
  5
89
  9
$SURFTAB1
 70
     6
  9
$SURFTAB2
 70
     6
  9
$SURFTYPE
 70
     6
  9
$SURFU
 70
     6
  9
$SURFV
 70
     6
  9
$UCSBASE
  2

  9
$UCSNAME
  2

  9
$UCSORG
 10
0.0
 20
0.0
 30
0.0
  9
$UCSXDIR
 10
1.0
 20
0.0
 30
0.0
  9
$UCSYDIR
 10
0.0
 20
1.0
 30
0.0
  9
$UCSORTHOREF
  2

  9
$UCSORTHOVIEW
 70
     0
  9
$UCSORGTOP
 10
0.0
 20
0.0
 30
0.0
  9
$UCSORGBOTTOM
 10
0.0
 20
0.0
 30
0.0
  9
$UCSORGLEFT
 10
0.0
 20
0.0
 30
0.0
  9
$UCSORGRIGHT
 10
0.0
 20
0.0
 30
0.0
  9
$UCSORGFRONT
 10
0.0
 20
0.0
 30
0.0
  9
$UCSORGBACK
 10
0.0
 20
0.0
 30
0.0
  9
$PUCSBASE
  2

  9
$PUCSNAME
  2

  9
$PUCSORG
 10
0.0
 20
0.0
 30
0.0
  9
$PUCSXDIR
 10
1.0
 20
0.0
 30
0.0
  9
$PUCSYDIR
 10
0.0
 20
1.0
 30
0.0
  9
$PUCSORTHOREF
  2

  9
$PUCSORTHOVIEW
 70
     0
  9
$PUCSORGTOP
 10
0.0
 20
0.0
 30
0.0
  9
$PUCSORGBOTTOM
 10
0.0
 20
0.0
 30
0.0
  9
$PUCSORGLEFT
 10
0.0
 20
0.0
 30
0.0
  9
$PUCSORGRIGHT
 10
0.0
 20
0.0
 30
0.0
  9
$PUCSORGFRONT
 10
0.0
 20
0.0
 30
0.0
  9
$PUCSORGBACK
 10
0.0
 20
0.0
 30
0.0
  9
$USERI1
 70
     0
  9
$USERI2
 70
     0
  9
$USERI3
 70
     0
  9
$USERI4
 70
     0
  9
$USERI5
 70
     0
  9
$USERR1
 40
0.0
  9
$USERR2
 40
0.0
  9
$USERR3
 40
0.0
  9
$USERR4
 40
0.0
  9
$USERR5
 40
0.0
  9
$WORLDVIEW
 70
     1
  9
$SHADEDGE
 70
     3
  9
$SHADEDIF
 70
    70
  9
$TILEMODE
 70
     1
  9
$MAXACTVP
 70
    64
  9
$PINSBASE
 10
0.0
 20
0.0
 30
0.0
  9
$PLIMCHECK
 70
     0
  9
$PEXTMIN
 10
1.0000000000E+20
 20
1.0000000000E+20
 30
1.0000000000E+20
  9
$PEXTMAX
 10
-1.0000000000E+20
 20
-1.0000000000E+20
 30
-1.0000000000E+20
  9
$PLIMMIN
 10
0.0
 20
0.0
  9
$PLIMMAX
 10
420.0
 20
297.0
  9
$UNITMODE
 70
     0
  9
$VISRETAIN
 70
     1
  9
$PLINEGEN
 70
     0
  9
$PSLTSCALE
 70
     1
  9
$TREEDEPTH
 70
  3020
  9
$CMLSTYLE
  2
Standard
  9
$CMLJUST
 70
     0
  9
$CMLSCALE
 40
20.0
  9
$PROXYGRAPHICS
 70
     1
  9
$MEASUREMENT
 70
     1
  9
$CELWEIGHT
370
    -1
  9
$ENDCAPS
280
     0
  9
$JOINSTYLE
280
     0
  9
$LWDISPLAY
290
     1
  9
$INSUNITS
 70
     4
  9
$HYPERLINKBASE
  1

  9
$STYLESHEET
  1

  9
$XEDIT
290
     1
  9
$CEPSNTYPE
380
     0
  9
$PSTYLEMODE
290
     1
  9
$FINGERPRINTGUID
  2
{1705052f-8e21-422f-980a-2ae9d7a902aa}
  9
$VERSIONGUID
  2
{FAEB1C32-E019-11D5-929B-00C0DF256EC4}
  9
$EXTNAMES
290
     1
  9
$PSVPSCALE
 40
0.0
  9
$OLESTARTUP
290
     0
  0
ENDSEC
  0
SECTION
  2
CLASSES
  0
CLASS
  1
ACDBDICTIONARYWDFLT
  2
AcDbDictionaryWithDefault
  3
ObjectDBX Classes
 90
        0
280
     0
281
     0
  0
CLASS
  1
VISUALSTYLE
  2
AcDbVisualStyle
  3
ObjectDBX Classes
 90
     4095
280
     0
281
     0
  0
CLASS
  1
MATERIAL
  2
AcDbMaterial
  3
ObjectDBX Classes
 90
     1153
280
     0
281
     0
  0
CLASS
  1
SCALE
  2
AcDbScale
  3
ObjectDBX Classes
 90
     1153
280
     0
281
     0
  0
CLASS
  1
TABLESTYLE
  2
AcDbTableStyle
  3
ObjectDBX Classes
 90
     4095
280
     0
281
     0
  0
CLASS
  1
MLEADERSTYLE
  2
AcDbMLeaderStyle
  3
ACDB_MLEADERSTYLE_CLASS
 90
     4095
280
     0
281
     0
  0
CLASS
  1
SUN
  2
AcDbSun
  3
SCENEOE
 90
     1153
280
     0
281
     0
  0
CLASS
  1
ACDBPLACEHOLDER
  2
AcDbPlaceHolder
  3
ObjectDBX Classes
 90
        0
280
     0
281
     0
  0
CLASS
  1
LAYOUT
  2
AcDbLayout
  3
ObjectDBX Classes
 90
        0
280
     0
281
     0
  0
ENDSEC
  0
SECTION
  2
TABLES
  0
TABLE
  2
VPORT
  5
8
330
0
100
AcDbSymbolTable
 70
     1
  0
VPORT
  5
29
330
8
100
AcDbSymbolTableRecord
100
AcDbViewportTableRecord
  2
*Active
 70
     0
 10
0.0
 20
0.0
 11
1.0
 21
1.0
 12
498.6252558036
 22
0.0
 13
0.0
 23
0.0
 14
10.0
 24
10.0
 15
10.0
 25
10.0
 16
0.0
 26
0.0
 36
1.0
 17
0.0
 27
0.0
 37
0.0
 40
408.0
 41
2.493126279
 42
50.0
 43
0.0
 44
0.0
 50
0.0
 51
0.0
 71
     0
 72
   100
 73
     1
 74
     3
 75
     0
 76
     0
 77
     0
 78
     0
281
     0
 65
     1
110
0.0
120
0.0
130
0.0
111
1.0
121
0.0
131
0.0
112
0.0
122
1.0
132
0.0
 79
     0
146
0.0
  0
ENDTAB
  0
TABLE
  2
LTYPE
  5
5
330
0
100
AcDbSymbolTable
 70
     6
  0
LTYPE
  5
14
330
5
100
AcDbSymbolTableRecord
100
AcDbLinetypeTableRecord
  2
ByBlock
 70
     0
  3

 72
    65
 73
     0
 40
0.0
  0
LTYPE
  5
15
330
5
100
AcDbSymbolTableRecord
100
AcDbLinetypeTableRecord
  2
ByLayer
 70
     0
  3

 72
    65
 73
     0
 40
0.0
  0
LTYPE
  5
16
330
5
100
AcDbSymbolTableRecord
100
AcDbLinetypeTableRecord
  2
Continuous
 70
     0
  3
Solid line
 72
    65
 73
     0
 40
0.0
  0
LTYPE
  5
6E
330
5
100
AcDbSymbolTableRecord
100
AcDbLinetypeTableRecord
  2
HIDDEN
 70
     0
  3
Hidden __ __ __ __ __ __ __ __ __ __ __ __ __ __
 72
    65
 73
     2
 40
1.905
 49
1.27
 74
     0
 49
-0.635
 74
     0
  0
LTYPE
  5
6F
330
5
100
AcDbSymbolTableRecord
100
AcDbLinetypeTableRecord
  2
PHANTOM
 70
     0
  3
Phantom ______  __  __  ______  __  __  ______
 72
    65
 73
     6
 40
12.7
 49
6.35
 74
     0
 49
-1.27
 74
     0
 49
1.27
 74
     0
 49
-1.27
 74
     0
 49
1.27
 74
     0
 49
-1.27
 74
     0
  0
LTYPE
  5
70
330
5
100
AcDbSymbolTableRecord
100
AcDbLinetypeTableRecord
  2
CENTER
 70
     0
  3
Center ____ _ ____ _ ____ _ ____ _ ____ _ ____
 72
    65
 73
     4
 40
10.16
 49
6.35
 74
     0
 49
-1.27
 74
     0
 49
1.27
 74
     0
 49
-1.27
 74
     0
  0
LTYPE
  5
71
330
5
100
AcDbSymbolTableRecord
100
AcDbLinetypeTableRecord
  2
CENTERX2
 70
     0
  3
Center (2x) ________  __  ________  __  _____
 72
    65
 73
     4
 40
20.32
 49
12.7
 74
     0
 49
-2.54
 74
     0
 49
2.54
 74
     0
 49
-2.54
 74
     0
  0
LTYPE
  5
72
330
5
100
AcDbSymbolTableRecord
100
AcDbLinetypeTableRecord
  2
DOT2
 70
     0
  3
Dot (.5x) ........................................
 72
    65
 73
     2
 40
0.635
 49
0.0
 74
     0
 49
-0.635
 74
     0
  0
ENDTAB
  0
TABLE
  2
LAYER
  5
2
330
0
100
AcDbSymbolTable
 70
     1
  0
LAYER
  5
10
330
2
100
AcDbSymbolTableRecord
100
AcDbLayerTableRecord
  2
0
 70
     0
 62
     7
  6
Continuous
370
    -3
390
F
  0
ENDTAB
  0
TABLE
  2
STYLE
  5
3
330
0
100
AcDbSymbolTable
 70
     1
  0
STYLE
  5
11
330
3
100
AcDbSymbolTableRecord
100
AcDbTextStyleTableRecord
  2
Standard
 70
     0
 40
0.0
 41
1.0
 50
0.0
 71
     0
 42
4.0
  3
txt
  4

  0
ENDTAB
  0
TABLE
  2
VIEW
  5
6
330
0
100
AcDbSymbolTable
 70
     0
  0
ENDTAB
  0
TABLE
  2
UCS
  5
7
330
0
100
AcDbSymbolTable
 70
     0
  0
ENDTAB
  0
TABLE
  2
APPID
  5
9
330
0
100
AcDbSymbolTable
 70
     1
  0
APPID
  5
12
330
9
100
AcDbSymbolTableRecord
100
AcDbRegAppTableRecord
  2
ACAD
 70
     0
  0
ENDTAB
  0
TABLE
  2
DIMSTYLE
  5
A
330
0
100
AcDbSymbolTable
 70
     1
100
AcDbDimStyleTable
  0
DIMSTYLE
105
27
330
A
100
AcDbSymbolTableRecord
100
AcDbDimStyleTableRecord
  2
ISO-25
 70
     0
 41
2.5
 42
0.625
 43
3.75
 44
1.25
 73
     0
 74
     0
 77
     1
 78
     8
140
2.5
141
2.5
143
0.0393700787
147
0.625
171
     3
172
     1
178
     0
271
     2
272
     2
274
     3
278
    44
283
     0
284
     8
340
11
  0
ENDTAB
  0
TABLE
  2
BLOCK_RECORD
  5
1
330
0
100
AcDbSymbolTable
 70
     1
  0
BLOCK_RECORD
  5
1F
330
1
100
AcDbSymbolTableRecord
100
AcDbBlockTableRecord
  2
*Model_Space
340
22
  0
BLOCK_RECORD
  5
1B
330
1
100
AcDbSymbolTableRecord
100
AcDbBlockTableRecord
  2
*Paper_Space
340
1E
  0
BLOCK_RECORD
  5
23
330
1
100
AcDbSymbolTableRecord
100
AcDbBlockTableRecord
  2
*Paper_Space0
340
26
  0
ENDTAB
  0
ENDSEC
  0
SECTION
  2
BLOCKS
  0
BLOCK
  5
20
330
1F
100
AcDbEntity
  8
0
100
AcDbBlockBegin
  2
*Model_Space
 70
     0
 10
0.0
 20
0.0
 30
0.0
  3
*Model_Space
  1

  0
ENDBLK
  5
21
330
1F
100
AcDbEntity
  8
0
100
AcDbBlockEnd
  0
BLOCK
  5
1C
330
1B
100
AcDbEntity
 67
     1
  8
0
100
AcDbBlockBegin
  2
*Paper_Space
 70
     0
 10
0.0
 20
0.0
 30
0.0
  3
*Paper_Space
  1

  0
ENDBLK
  5
1D
330
1B
100
AcDbEntity
 67
     1
  8
0
100
AcDbBlockEnd
  0
BLOCK
  5
24
330
23
100
AcDbEntity
  8
0
100
AcDbBlockBegin
  2
*Paper_Space0
 70
     0
 10
0.0
 20
0.0
 30
0.0
  3
*Paper_Space0
  1

  0
ENDBLK
  5
25
330
23
100
AcDbEntity
  8
0
100
AcDbBlockEnd
  0
ENDSEC
  0
SECTION
  2
ENTITIES
  0
SPLINE
  5
73
330
1F
100
AcDbEntity
  8
0
  6
Continuous
 62
     7
370
    25
100
AcDbSpline
210
0.0
220
0.0
230
1.0
 70
    11
 71
     3
 72
    39
 73
    35
 74
     0
 42
0.00000001
 43
0.00000001
 40
0.0
 40
0.0
 40
0.0
 40
0.0
 40
0.0312572269612384
 40
0.0625004446385194
 40
0.0937422108429956
 40
0.1250004377843319
 40
0.1562335969511074
 40
0.1875001191810158
 40
0.2187259808958945
 40
0.2499998629255621
 40
0.2812230859037463
 40
0.3124995263136769
 40
0.3437302516032467
 40
0.374999253840495
 40
0.4062361430530489
 40
0.4374998338578567
 40
0.4687339694431915
 40
0.4999997736471707
 40
0.5312337346875864
 40
0.5624999430230044
 40
0.5937465612583541
 40
0.625000443649366
 40
0.6562525004194416
 40
0.6875005430331522
 40
0.718738383360484
 40
0.7499997894965927
 40
0.7812225762180376
 40
0.8124991241014836
 40
0.8437194573203198
 40
0.8749990019758481
 40
0.9062225888713202
 40
0.9374989933648558
 40
0.9687459469672323
 40
1.0
 40
1.0
 40
1.0
 40
1.0
 10
741.4295858498924
 20
88.24999979627637
 30
0.0
 10
741.6426557899879
 20
88.24989100871078
 30
0.0
 10
742.0686690141291
 20
88.20905506403408
 30
0.0
 10
742.6825501413708
 20
88.02144031976019
 30
0.0
 10
743.2497883911849
 20
87.72093313832914
 30
0.0
 10
743.7453984247211
 20
87.31306423682751
 30
0.0
 10
744.1547400626648
 20
86.8184358825906
 30
0.0
 10
744.4563783742142
 20
86.25189600685661
 30
0.0
 10
744.6449052566737
 20
85.63808131314686
 30
0.0
 10
744.7060646135556
 20
84.99916904415966
 30
0.0
 10
744.6445609874603
 20
84.35995192007859
 30
0.0
 10
744.4556871968837
 20
83.74648597672179
 30
0.0
 10
744.1536287143057
 20
83.1797911358405
 30
0.0
 10
743.7440024970655
 20
82.6855692032141
 30
0.0
 10
743.2479922053353
 20
82.27781062975298
 30
0.0
 10
742.6805684773105
 20
81.97775532159355
 30
0.0
 10
742.0664472705903
 20
81.79045965291473
 30
0.0
 10
741.4274803794058
 20
81.72967567414757
 30
0.0
 10
740.7883316706027
 20
81.79082831394207
 30
0.0
 10
740.1744478652412
 20
81.97853529380106
 30
0.0
 10
739.606997136137
 20
82.2789882028961
 30
0.0
 10
739.1113697018503
 20
82.68705648757954
 30
0.0
 10
738.7020562906775
 20
83.18166738418034
 30
0.0
 10
738.4004018526554
 20
83.74829627496689
 30
0.0
 10
738.2119892054423
 20
84.36200929529612
 30
0.0
 10
738.1507850551443
 20
85.00090849051125
 30
0.0
 10
738.2123506398251
 20
85.6400317998996
 30
0.0
 10
738.4011369057648
 20
86.2534459138506
 30
0.0
 10
738.7032203357554
 20
86.82012943240419
 30
0.0
 10
739.1127450966303
 20
87.31431524755216
 30
0.0
 10
739.6087841072509
 20
87.72215362621105
 30
0.0
 10
740.1762912492571
 20
88.02221235521687
 30
0.0
 10
740.790458174193
 20
88.209711442107
 30
0.0
 10
741.2165375453934
 20
88.2501085727954
 30
0.0
 10
741.4295858498924
 20
88.24999979627636
 30
0.0
  0
SPLINE
  5
74
330
1F
100
AcDbEntity
  8
0
  6
Continuous
 62
     7
370
    25
100
AcDbSpline
210
0.0
220
0.0
230
1.0
 70
    11
 71
     3
 72
    39
 73
    35
 74
     0
 42
0.00000001
 43
0.00000001
 40
0.0
 40
0.0
 40
0.0
 40
0.0
 40
0.0312463762277423
 40
0.0625005059386735
 40
0.0937501010124778
 40
0.1250009625116222
 40
0.1562581962502554
 40
0.1875008867353707
 40
0.2187533824155712
 40
0.249999987948646
 40
0.2812351238968072
 40
0.3124992007324537
 40
0.3437271539297245
 40
0.3749991304898866
 40
0.4062364708036589
 40
0.4374996133648993
 40
0.468742854498697
 40
0.4999999799533071
 40
0.5312406441953954
 40
0.5625003989914097
 40
0.5937449614451252
 40
0.6250008331982253
 40
0.6562536616578283
 40
0.6875007244507196
 40
0.718750740654805
 40
0.7499999710022611
 40
0.7812413972229015
 40
0.8124992517345128
 40
0.8437357083610527
 40
0.8749990196057538
 40
0.9062353256588555
 40
0.9374993841362635
 40
0.9687424728945015
 40
1.0
 40
1.0
 40
1.0
 40
1.0
 10
247.1460406104908
 20
76.0000005770423
 30
0.0
 10
246.5561014227263
 20
75.99981147881009
 30
0.0
 10
245.3760477582827
 20
76.11196077406014
 30
0.0
 10
243.6753292673475
 20
76.63065465547727
 30
0.0
 10
242.1032914774573
 20
77.46163633286773
 30
0.0
 10
240.7293222321784
 20
78.590478582712
 30
0.0
 10
239.5940462631633
 20
79.95902970650991
 30
0.0
 10
238.7566072624617
 20
81.52769586919104
 30
0.0
 10
238.2327352776877
 20
83.22682302074246
 30
0.0
 10
238.0618676322524
 20
84.99653824646022
 30
0.0
 10
238.2314875117082
 20
86.76657204107705
 30
0.0
 10
238.7539154988628
 20
88.46586413862536
 30
0.0
 10
239.5902597320876
 20
90.03535338242777
 30
0.0
 10
240.7243546380572
 20
91.40456763283225
 30
0.0
 10
242.0976669906715
 20
92.53462852851173
 30
0.0
 10
243.6689153508148
 20
93.36669022660122
 30
0.0
 10
245.3694595723467
 20
93.88677172602429
 30
0.0
 10
247.1392570721981
 20
94.0562949605631
 30
0.0
 10
248.9094658515155
 20
93.88804326029644
 30
0.0
 10
250.6101039697012
 20
93.36941888782401
 30
0.0
 10
252.1822569455504
 20
92.53843281390745
 30
0.0
 10
253.5561705366769
 20
91.4096465852441
 30
0.0
 10
254.69152473815
 20
90.04104293567495
 30
0.0
 10
255.5289535434077
 20
88.47242557309808
 30
0.0
 10
256.0529238751288
 20
86.77323466925019
 30
0.0
 10
256.2237284368219
 20
85.0033958812893
 30
0.0
 10
256.0542409129613
 20
83.23329161280125
 30
0.0
 10
255.5315935485211
 20
81.53388601700114
 30
0.0
 10
254.695204189698
 20
79.96457019980299
 30
0.0
 10
253.561192656728
 20
78.59531881675713
 30
0.0
 10
252.1879233344515
 20
77.46546093357215
 30
0.0
 10
250.6167368737798
 20
76.63332673495948
 30
0.0
 10
248.916188256502
 20
76.11313588107366
 30
0.0
 10
247.7361903295412
 20
76.00018974275793
 30
0.0
 10
247.1460406104908
 20
76.0000005770423
 30
0.0
  0
SPLINE
  5
75
330
1F
100
AcDbEntity
  8
0
  6
Continuous
 62
     7
370
    25
100
AcDbSpline
210
0.0
220
0.0
230
1.0
 70
    11
 71
     3
 72
    35
 73
    31
 74
     0
 42
0.00000001
 43
0.00000001
 40
0.0
 40
0.0
 40
0.0
 40
0.0
 40
0.0624963738447266
 40
0.0625018906529063
 40
0.1249951736466578
 40
0.1250029690672372
 40
0.1874966209491532
 40
0.1875021298503625
 40
0.2499997360434701
 40
0.3124971300496844
 40
0.3125026357002763
 40
0.3749962941742155
 40
0.3750040834633641
 40
0.4374973608286879
 40
0.4375028720807803
 40
0.4999997324880354
 40
0.5624966211824496
 40
0.5625021347704378
 40
0.624995413963265
 40
0.6250032136294698
 40
0.6874965437825651
 40
0.687502053415149
 40
0.7499997357594504
 40
0.8124973785807698
 40
0.812502884240369
 40
0.8749965045057613
 40
0.8750042953519737
 40
0.9374976017787261
 40
0.9375031130865639
 40
1.0
 40
1.0
 40
1.0
 40
1.0
 10
494.2856217452054
 20
110.4500000000069
 30
0.0
 10
494.60660198754
 20
110.4499999985575
 30
0.0
 10
494.9276105244036
 20
110.3863735301064
 30
0.0
 10
495.5210037847474
 20
110.1413805253156
 30
0.0
 10
495.7934489343191
 20
109.9599867964293
 30
0.0
 10
496.2481541566142
 20
109.5067802489686
 30
0.0
 10
496.4304795804757
 20
109.2349003616433
 30
0.0
 10
496.6768721713862
 20
108.6420464824029
 30
0.0
 10
496.8050503764025
 20
108.00000526394
 30
0.0
 10
496.6768747437933
 20
107.3579637093167
 30
0.0
 10
496.4304853624459
 20
106.7651097037769
 30
0.0
 10
496.2481612419939
 20
106.4932289571427
 30
0.0
 10
495.7934582002385
 20
106.0400202759494
 30
0.0
 10
495.5210139996981
 20
105.8586253057957
 30
0.0
 10
494.9276195914578
 20
105.6136285597217
 30
0.0
 10
494.2856258385004
 20
105.4863781265631
 30
0.0
 10
493.6436316436817
 20
105.6136264590586
 30
0.0
 10
493.0502363056644
 20
105.8586213743848
 30
0.0
 10
492.7777914628784
 20
106.0400155243975
 30
0.0
 10
492.3230881384437
 20
106.4932215912983
 30
0.0
 10
492.1407638452119
 20
106.765100125091
 30
0.0
 10
491.8943715085737
 20
107.3579527032831
 30
0.0
 10
491.7661928389966
 20
107.9999955991612
 30
0.0
 10
491.8943692156291
 20
108.6420389048601
 30
0.0
 10
492.14075992669
 20
109.2348935322645
 30
0.0
 10
492.3230843780343
 20
109.5067738143567
 30
0.0
 10
492.7777880264869
 20
109.9599818481704
 30
0.0
 10
493.0502326053427
 20
110.141376543514
 30
0.0
 10
493.6436276446379
 20
110.386372496853
 30
0.0
 10
493.9646388677593
 20
110.4500000014563
 30
0.0
 10
494.2856217452054
 20
110.4500000000069
 30
0.0
  0
SPLINE
  5
76
330
1F
100
AcDbEntity
  8
0
  6
Continuous
 62
     7
370
    25
100
AcDbSpline
210
0.0
220
0.0
230
1.0
 70
    11
 71
     3
 72
    35
 73
    31
 74
     0
 42
0.00000001
 43
0.00000001
 40
0.0
 40
0.0
 40
0.0
 40
0.0
 40
0.0624963738447268
 40
0.0625018906529111
 40
0.1249951736466632
 40
0.1250029690672458
 40
0.1874966209491586
 40
0.1875021298503746
 40
0.2499997360434765
 40
0.3124971300496912
 40
0.3125026357002819
 40
0.3749962941742208
 40
0.3750040834633621
 40
0.4374973608286833
 40
0.4375028720807883
 40
0.4999997324880321
 40
0.5624966211824564
 40
0.5625021347704452
 40
0.624995413963267
 40
0.6250032136294854
 40
0.687496543782572
 40
0.6875020534151635
 40
0.7499997357594568
 40
0.8124973785807742
 40
0.8125028842403782
 40
0.8749965045057719
 40
0.8750042953519842
 40
0.937497601778732
 40
0.9375031130865786
 40
1.0
 40
1.0
 40
1.0
 40
1.0
 10
494.285621745205
 20
122.4500000000068
 30
0.0
 10
494.6066019875397
 20
122.4499999985574
 30
0.0
 10
494.9276105244035
 20
122.3863735301063
 30
0.0
 10
495.5210037847471
 20
122.1413805253156
 30
0.0
 10
495.7934489343187
 20
121.9599867964293
 30
0.0
 10
496.2481541566139
 20
121.5067802489686
 30
0.0
 10
496.4304795804754
 20
121.2349003616433
 30
0.0
 10
496.6768721713859
 20
120.6420464824029
 30
0.0
 10
496.8050503764021
 20
120.00000526394
 30
0.0
 10
496.6768747437931
 20
119.3579637093167
 30
0.0
 10
496.4304853624458
 20
118.7651097037769
 30
0.0
 10
496.2481612419938
 20
118.4932289571429
 30
0.0
 10
495.7934582002384
 20
118.0400202759495
 30
0.0
 10
495.5210139996981
 20
117.8586253057956
 30
0.0
 10
494.9276195914576
 20
117.6136285597216
 30
0.0
 10
494.2856258385
 20
117.4863781265632
 30
0.0
 10
493.6436316436814
 20
117.6136264590586
 30
0.0
 10
493.0502363056643
 20
117.8586213743848
 30
0.0
 10
492.7777914628783
 20
118.0400155243975
 30
0.0
 10
492.3230881384435
 20
118.4932215912983
 30
0.0
 10
492.1407638452116
 20
118.765100125091
 30
0.0
 10
491.8943715085735
 20
119.3579527032831
 30
0.0
 10
491.7661928389968
 20
119.9999955991612
 30
0.0
 10
491.8943692156288
 20
120.6420389048601
 30
0.0
 10
492.1407599266896
 20
121.2348935322645
 30
0.0
 10
492.3230843780341
 20
121.5067738143568
 30
0.0
 10
492.7777880264867
 20
121.9599818481704
 30
0.0
 10
493.0502326053425
 20
122.1413765435139
 30
0.0
 10
493.6436276446375
 20
122.3863724968529
 30
0.0
 10
493.964638867759
 20
122.4500000014563
 30
0.0
 10
494.285621745205
 20
122.4500000000068
 30
0.0
  0
SPLINE
  5
77
330
1F
100
AcDbEntity
  8
0
  6
Continuous
 62
     7
370
    25
100
AcDbSpline
210
0.0
220
0.0
230
1.0
 70
    11
 71
     3
 72
    35
 73
    31
 74
     0
 42
0.00000001
 43
0.00000001
 40
0.0
 40
0.0
 40
0.0
 40
0.0
 40
0.0624973208265631
 40
0.06250285092834
 40
0.1249963880079673
 40
0.1250042113237135
 40
0.1874973959841764
 40
0.1875029317342988
 40
0.2499997173868481
 40
0.3124966175938863
 40
0.3125021512014424
 40
0.374995537282343
 40
0.3750033597444829
 40
0.4374969323949309
 40
0.437502463595872
 40
0.4999998560615664
 40
0.562497259826965
 40
0.5625027925883643
 40
0.6249963922833786
 40
0.6250042159484215
 40
0.6874976136589266
 40
0.6875031491758636
 40
0.750000032040266
 40
0.8124967964262017
 40
0.8125023307549283
 40
0.8749955090521202
 40
0.8750033306069763
 40
0.9374968760967805
 40
0.9375024039656382
 40
1.0
 40
1.0
 40
1.0
 40
1.0
 10
208.9443074392446
 20
141.2000000000029
 30
0.0
 10
208.9443074342938
 20
141.6585914594945
 30
0.0
 10
209.0358715775818
 20
142.117223468904
 30
0.0
 10
209.3878736522855
 20
142.9641755252259
 30
0.0
 10
209.6483477571826
 20
143.352583297886
 30
0.0
 10
210.2979497151011
 20
144.0000310890168
 30
0.0
 10
210.6871713023106
 20
144.2591672327768
 30
0.0
 10
211.5349104644951
 20
144.6091432264357
 30
0.0
 10
212.4520802046503
 20
144.7908903224538
 30
0.0
 10
213.3692244108791
 20
144.6090599230436
 30
0.0
 10
214.2169527571533
 20
144.2590553449671
 30
0.0
 10
214.606175348574
 20
143.9999322107155
 30
0.0
 10
215.2558218276874
 20
143.3525281113748
 30
0.0
 10
215.5163397870424
 20
142.9641513746588
 30
0.0
 10
215.868417331614
 20
142.1172291731626
 30
0.0
 10
216.0516005743502
 20
141.2000032138952
 30
0.0
 10
215.8684190133323
 20
140.2827768950707
 30
0.0
 10
215.5163428601137
 20
139.435853793099
 30
0.0
 10
215.255825417619
 20
139.0474764246653
 30
0.0
 10
214.6061797426976
 20
138.4000710965809
 30
0.0
 10
214.216957446429
 20
138.1409473098124
 30
0.0
 10
213.3692296410761
 20
137.7909414951039
 30
0.0
 10
212.4520859948622
 20
137.6091097595786
 30
0.0
 10
211.5349162660827
 20
137.790855279478
 30
0.0
 10
210.6871767007774
 20
138.1408297271118
 30
0.0
 10
210.2979547214546
 20
138.3999651456661
 30
0.0
 10
209.6483515854033
 20
139.0474117518586
 30
0.0
 10
209.3878767512124
 20
139.435819066828
 30
0.0
 10
209.0358724004888
 20
140.2827724511776
 30
0.0
 10
208.9443074441955
 20
140.7414065210977
 30
0.0
 10
208.9443074392446
 20
141.2000000000029
 30
0.0
  0
SPLINE
  5
78
330
1F
100
AcDbEntity
  8
0
  6
Continuous
 62
     7
370
    25
100
AcDbSpline
210
0.0
220
0.0
230
1.0
 70
    11
 71
     3
 72
    35
 73
    31
 74
     0
 42
0.00000001
 43
0.00000001
 40
0.0
 40
0.0
 40
0.0
 40
0.0
 40
0.0624973208265628
 40
0.062502850928344
 40
0.1249963880079665
 40
0.1250042113237142
 40
0.187497395984175
 40
0.1875029317343022
 40
0.2499997173868471
 40
0.312496617593892
 40
0.3125021512014418
 40
0.3749955372823455
 40
0.3750033597444837
 40
0.4374969323949337
 40
0.4375024635958711
 40
0.499999856061566
 40
0.5624972598269627
 40
0.5625027925883671
 40
0.6249963922833773
 40
0.6250042159484256
 40
0.687497613658927
 40
0.6875031491758667
 40
0.7500000320402685
 40
0.812496796426202
 40
0.8125023307549253
 40
0.874995509052122
 40
0.8750033306069748
 40
0.9374968760967798
 40
0.9375024039656397
 40
1.0
 40
1.0
 40
1.0
 40
1.0
 10
208.9443074392474
 20
-61.09999999999711
 30
0.0
 10
208.9443074342966
 20
-60.64140854050554
 30
0.0
 10
209.0358715775845
 20
-60.182776531096
 30
0.0
 10
209.3878736522884
 20
-59.33582447477414
 30
0.0
 10
209.6483477571855
 20
-58.94741670211405
 30
0.0
 10
210.2979497151041
 20
-58.29996891098325
 30
0.0
 10
210.6871713023135
 20
-58.04083276722319
 30
0.0
 10
211.534910464498
 20
-57.69085677356425
 30
0.0
 10
212.4520802046534
 20
-57.50910967754614
 30
0.0
 10
213.3692244108819
 20
-57.69094007695641
 30
0.0
 10
214.2169527571561
 20
-58.04094465503289
 30
0.0
 10
214.6061753485768
 20
-58.30006778928445
 30
0.0
 10
215.2558218276902
 20
-58.94747188862511
 30
0.0
 10
215.5163397870452
 20
-59.33584862534116
 30
0.0
 10
215.8684173316168
 20
-60.18277082683739
 30
0.0
 10
216.0516005743529
 20
-61.0999967861048
 30
0.0
 10
215.8684190133351
 20
-62.01722310492949
 30
0.0
 10
215.5163428601166
 20
-62.86414620690115
 30
0.0
 10
215.2558254176219
 20
-63.25252357533487
 30
0.0
 10
214.6061797427005
 20
-63.89992890341915
 30
0.0
 10
214.2169574464318
 20
-64.15905269018761
 30
0.0
 10
213.3692296410789
 20
-64.50905850489617
 30
0.0
 10
212.4520859948651
 20
-64.69089024042142
 30
0.0
 10
211.5349162660856
 20
-64.50914472052195
 30
0.0
 10
210.6871767007803
 20
-64.15917027288819
 30
0.0
 10
210.2979547214576
 20
-63.90003485433392
 30
0.0
 10
209.6483515854061
 20
-63.25258824814139
 30
0.0
 10
209.3878767512153
 20
-62.86418093317209
 30
0.0
 10
209.0358724004916
 20
-62.0172275488225
 30
0.0
 10
208.9443074441982
 20
-61.55859347890237
 30
0.0
 10
208.9443074392474
 20
-61.09999999999711
 30
0.0
  0
SPLINE
  5
79
330
1F
100
AcDbEntity
  8
0
  6
Continuous
 62
     7
370
    25
100
AcDbSpline
210
0.0
220
0.0
230
1.0
 70
    11
 71
     3
 72
    35
 73
    31
 74
     0
 42
0.00000001
 43
0.00000001
 40
0.0
 40
0.0
 40
0.0
 40
0.0
 40
0.0624974110943229
 40
0.0625029428996736
 40
0.1249965264148576
 40
0.125004349610795
 40
0.1874977403938037
 40
0.1875032750600792
 40
0.2500001615530176
 40
0.312496925550763
 40
0.3125024607349661
 40
0.3749956454042553
 40
0.3750034674444582
 40
0.4374970248266453
 40
0.4375025535824625
 40
0.5000001387133027
 40
0.5624977167370792
 40
0.5625032441095252
 40
0.6249967789882125
 40
0.6250045999096228
 40
0.6874977738356455
 40
0.6875033072014157
 40
0.7500000819236626
 40
0.8124969883166965
 40
0.8125025242819365
 40
0.874995922995818
 40
0.8750037478510491
 40
0.9374973268768871
 40
0.9375028608645628
 40
1.0
 40
1.0
 40
1.0
 40
1.0
 10
278.3256083013446
 20
141.2000000000039
 30
0.0
 10
278.3256083062612
 20
141.6585928534189
 30
0.0
 10
278.4172036008295
 20
142.1172263265509
 30
0.0
 10
278.7692805529584
 20
142.964149025059
 30
0.0
 10
279.0297982747866
 20
143.3525260343519
 30
0.0
 10
279.6794443797765
 20
143.9999306794682
 30
0.0
 10
280.0686668344184
 20
144.2590541114451
 30
0.0
 10
280.9163948894095
 20
144.6090592407637
 30
0.0
 10
281.833538701982
 20
144.7908902451019
 30
0.0
 10
282.750708312921
 20
144.6091439753101
 30
0.0
 10
283.5984476398023
 20
144.259168817217
 30
0.0
 10
283.9876694520326
 20
144.0000330382843
 30
0.0
 10
284.6372721212554
 20
143.3525857630984
 30
0.0
 10
284.8977466555686
 20
142.964178116594
 30
0.0
 10
285.2497501959641
 20
142.1172243808604
 30
0.0
 10
285.4328711017313
 20
141.1999968675728
 30
0.0
 10
285.2497485579319
 20
140.2827697016012
 30
0.0
 10
284.897743636563
 20
139.4358167998614
 30
0.0
 10
284.6372685746642
 20
139.0474097492159
 30
0.0
 10
283.9876650791329
 20
138.3999636698862
 30
0.0
 10
283.5984429661738
 20
138.1408285370006
 30
0.0
 10
282.7507031242807
 20
137.790854622554
 30
0.0
 10
281.8335330184723
 20
137.6091096838343
 30
0.0
 10
280.9163892492424
 20
137.7909422134999
 30
0.0
 10
280.0686615834891
 20
138.1409488432994
 30
0.0
 10
279.679439503189
 20
138.4000729837527
 30
0.0
 10
279.0297945227765
 20
139.0474788097928
 30
0.0
 10
278.7692775007595
 20
139.4358562930401
 30
0.0
 10
278.4172027872394
 20
140.2827777055839
 30
0.0
 10
278.325608296428
 20
140.741409142166
 30
0.0
 10
278.3256083013446
 20
141.2000000000039
 30
0.0
  0
SPLINE
  5
7A
330
1F
100
AcDbEntity
  8
0
  6
Continuous
 62
     7
370
    25
100
AcDbSpline
210
0.0
220
0.0
230
1.0
 70
    11
 71
     3
 72
    35
 73
    31
 74
     0
 42
0.00000001
 43
0.00000001
 40
0.0
 40
0.0
 40
0.0
 40
0.0
 40
0.0624974110943222
 40
0.0625029428996707
 40
0.124996526414859
 40
0.125004349610795
 40
0.1874977403938063
 40
0.1875032750600794
 40
0.2500001615530211
 40
0.3124969255507607
 40
0.3125024607349673
 40
0.374995645404256
 40
0.3750034674444592
 40
0.4374970248266451
 40
0.4375025535824629
 40
0.5000001387133017
 40
0.5624977167370794
 40
0.5625032441095228
 40
0.6249967789882125
 40
0.6250045999096245
 40
0.6874977738356458
 40
0.6875033072014135
 40
0.7500000819236627
 40
0.8124969883166943
 40
0.8125025242819333
 40
0.8749959229958167
 40
0.8750037478510455
 40
0.9374973268768884
 40
0.9375028608645627
 40
1.0
 40
1.0
 40
1.0
 40
1.0
 10
278.3256083013474
 20
-61.09999999999611
 30
0.0
 10
278.325608306264
 20
-60.64140714658114
 30
0.0
 10
278.4172036008322
 20
-60.18277367344919
 30
0.0
 10
278.769280552961
 20
-59.33585097494106
 30
0.0
 10
279.0297982747894
 20
-58.94747396564817
 30
0.0
 10
279.6794443797793
 20
-58.30006932053179
 30
0.0
 10
280.0686668344213
 20
-58.04094588855497
 30
0.0
 10
280.9163948894123
 20
-57.69094075923636
 30
0.0
 10
281.8335387019849
 20
-57.50910975489807
 30
0.0
 10
282.7507083129237
 20
-57.69085602468989
 30
0.0
 10
283.5984476398049
 20
-58.04083118278299
 30
0.0
 10
283.9876694520353
 20
-58.29996696171581
 30
0.0
 10
284.6372721212582
 20
-58.9474142369017
 30
0.0
 10
284.8977466555713
 20
-59.33582188340613
 30
0.0
 10
285.2497501959669
 20
-60.18277561913964
 30
0.0
 10
285.4328711017343
 20
-61.10000313242718
 30
0.0
 10
285.2497485579347
 20
-62.01723029839878
 30
0.0
 10
284.8977436365658
 20
-62.86418320013859
 30
0.0
 10
284.6372685746671
 20
-63.2525902507841
 30
0.0
 10
283.9876650791357
 20
-63.90003633011382
 30
0.0
 10
283.5984429661766
 20
-64.15917146299934
 30
0.0
 10
282.7507031242835
 20
-64.50914537744598
 30
0.0
 10
281.8335330184751
 20
-64.69089031616569
 30
0.0
 10
280.9163892492454
 20
-64.50905778650012
 30
0.0
 10
280.0686615834921
 20
-64.15905115670063
 30
0.0
 10
279.679439503192
 20
-63.89992701624719
 30
0.0
 10
279.0297945227792
 20
-63.25252119020715
 30
0.0
 10
278.7692775007624
 20
-62.86414370695989
 30
0.0
 10
278.4172027872422
 20
-62.01722229441618
 30
0.0
 10
278.3256082964308
 20
-61.558590857834
 30
0.0
 10
278.3256083013474
 20
-61.09999999999611
 30
0.0
  0
SPLINE
  5
7F
330
1F
100
AcDbEntity
  8
0
  6
Continuous
 62
     7
370
    25
100
AcDbSpline
210
0.0
220
0.0
230
1.0
 70
     8
 71
     3
 72
     9
 73
     5
 74
     0
 42
0.00000001
 43
0.00000001
 40
0.0
 40
0.0
 40
0.0
 40
0.0
 40
0.7623938735466412
 40
1.0
 40
1.0
 40
1.0
 40
1.0
 10
494.2856217452054
 20
110.4500000000069
 30
0.0
 10
494.0075697714083
 20
110.4374967008228
 30
0.0
 10
493.6428606840917
 20
110.4210966488052
 30
0.0
 10
493.3367291279696
 20
110.236639706761
 30
0.0
 10
493.2639903947343
 20
110.1928116072644
 30
0.0
  0
SPLINE
  5
80
330
1F
100
AcDbEntity
  8
0
  6
Continuous
 62
     7
370
    25
100
AcDbSpline
210
0.0
220
0.0
230
1.0
 70
     8
 71
     3
 72
    10
 73
     6
 74
     0
 42
0.00000001
 43
0.00000001
 40
0.0
 40
0.0
 40
0.0
 40
0.0
 40
0.2030319203660303
 40
0.8791688054954588
 40
0.9999999999999999
 40
0.9999999999999999
 40
0.9999999999999999
 40
0.9999999999999999
 10
278.3856500176134
 20
141.5521182708544
 30
0.0
 10
278.3710163207773
 20
141.435374083143
 30
0.0
 10
278.3076494878964
 20
140.9298484107581
 30
0.0
 10
278.3797153540134
 20
140.3146265338652
 30
0.0
 10
278.6135474886701
 20
139.9141432534622
 30
0.0
 10
278.6489996188949
 20
139.8534245441603
 30
0.0
  0
SPLINE
  5
81
330
1F
100
AcDbEntity
  8
0
  6
Continuous
 62
     7
370
    25
100
AcDbSpline
210
0.0
220
0.0
230
1.0
 70
     8
 71
     3
 72
    10
 73
     6
 74
     0
 42
0.00000001
 43
0.00000001
 40
0.0
 40
0.0
 40
0.0
 40
0.0
 40
0.203031920364297
 40
0.8791688054962373
 40
1.0
 40
1.0
 40
1.0
 40
1.0
 10
278.3856500176156
 20
-60.74788172914929
 30
0.0
 10
278.3710163207798
 20
-60.86462591685936
 30
0.0
 10
278.3076494878992
 20
-61.37015158924392
 30
0.0
 10
278.3797153540162
 20
-61.98537346613583
 30
0.0
 10
278.6135474886734
 20
-62.38585674653862
 30
0.0
 10
278.6489996188978
 20
-62.44657545583998
 30
0.0
  0
SPLINE
  5
82
330
1F
100
AcDbEntity
  8
0
  6
Continuous
 62
     7
370
    25
100
AcDbSpline
210
0.0
220
0.0
230
1.0
 70
     8
 71
     3
 72
    10
 73
     6
 74
     0
 42
0.00000001
 43
0.00000001
 40
0.0
 40
0.0
 40
0.0
 40
0.0
 40
0.1179994993302422
 40
0.8283813507503369
 40
1.0
 40
1.0
 40
1.0
 40
1.0
 10
208.9775293356499
 20
141.3948324576085
 30
0.0
 10
208.9698647922408
 20
141.330091866596
 30
0.0
 10
208.9160580823972
 20
140.8755992752235
 30
0.0
 10
208.9967179804267
 20
140.2906160697036
 30
0.0
 10
209.2452145154736
 20
139.8700736300678
 30
0.0
 10
209.2935666872191
 20
139.7882449628645
 30
0.0
  0
SPLINE
  5
83
330
1F
100
AcDbEntity
  8
0
  6
Continuous
 62
     7
370
    25
100
AcDbSpline
210
0.0
220
0.0
230
1.0
 70
     8
 71
     3
 72
    10
 73
     6
 74
     0
 42
0.00000001
 43
0.00000001
 40
0.0
 40
0.0
 40
0.0
 40
0.0
 40
0.1179994993326778
 40
0.8283813507512738
 40
1.0
 40
1.0
 40
1.0
 40
1.0
 10
208.9775293356533
 20
-60.90516754238732
 30
0.0
 10
208.969864792244
 20
-60.96990813340117
 30
0.0
 10
208.9160580824
 20
-61.42440072477468
 30
0.0
 10
208.9967179804293
 20
-62.00938393029519
 30
0.0
 10
209.2452145154757
 20
-62.42992636993039
 30
0.0
 10
209.2935666872209
 20
-62.51175503713334
 30
0.0
  0
LINE
  5
84
330
1F
100
AcDbEntity
  8
0
  6
Continuous
 62
     7
370
    25
100
AcDbLine
 10
0.0
 20
200.0
 30
0.0
 11
0.0
 21
-200.0
 31
0.0
  0
LINE
  5
85
330
1F
100
AcDbEntity
  8
0
  6
Continuous
 62
     7
370
    25
100
AcDbLine
 10
997.2505116072
 20
200.0
 30
0.0
 11
0.0
 21
200.0
 31
0.0
  0
LINE
  5
86
330
1F
100
AcDbEntity
  8
0
  6
Continuous
 62
     7
370
    25
100
AcDbLine
 10
997.2505116072
 20
200.0
 30
0.0
 11
997.2505116072
 21
-200.0
 31
0.0
  0
LINE
  5
87
330
1F
100
AcDbEntity
  8
0
  6
Continuous
 62
     7
370
    25
100
AcDbLine
 10
997.2505116072
 20
-200.0
 30
0.0
 11
0.0
 21
-200.0
 31
0.0
  0
ENDSEC
  0
SECTION
  2
OBJECTS
  0
DICTIONARY
  5
C
330
0
100
AcDbDictionary
281
     1
  3
ACAD_GROUP
350
D
  3
ACAD_LAYOUT
350
1A
  3
ACAD_MLINESTYLE
350
17
  3
ACAD_PLOTSETTINGS
350
19
  3
ACAD_PLOTSTYLENAME
350
E
  3
ACAD_SCALELIST
350
47
  3
DWGPROPS
350
88
  0
DICTIONARY
  5
D
102
{ACAD_REACTORS
330
C
102
}
330
C
100
AcDbDictionary
281
     1
  0
DICTIONARY
  5
1A
102
{ACAD_REACTORS
330
C
102
}
330
C
100
AcDbDictionary
281
     1
  3
Layout1
350
1E
  3
Layout2
350
26
  3
Model
350
22
  0
DICTIONARY
  5
17
102
{ACAD_REACTORS
330
C
102
}
330
C
100
AcDbDictionary
281
     1
  3
Standard
350
18
  0
DICTIONARY
  5
19
102
{ACAD_REACTORS
330
C
102
}
330
C
100
AcDbDictionary
281
     1
  0
ACDBDICTIONARYWDFLT
  5
E
102
{ACAD_REACTORS
330
C
102
}
330
C
100
AcDbDictionary
281
     1
  3
Normal
350
F
100
AcDbDictionaryWithDefault
340
F
  0
DICTIONARY
  5
47
102
{ACAD_REACTORS
330
C
102
}
330
C
100
AcDbDictionary
281
     1
  3
A0
350
48
  3
A1
350
49
  3
A2
350
4A
  3
A3
350
4B
  3
A4
350
4C
  3
A5
350
4D
  3
A6
350
4E
  3
A7
350
4F
  3
A8
350
50
  3
A9
350
51
  3
B0
350
52
  3
B1
350
53
  3
B2
350
54
  3
B3
350
55
  3
B4
350
56
  3
B5
350
57
  3
B6
350
58
  3
B7
350
59
  3
B8
350
5A
  3
B9
350
5B
  3
C0
350
5C
  3
C1
350
5D
  3
C2
350
5E
  3
C3
350
5F
  3
C4
350
60
  3
C5
350
61
  3
C6
350
62
  3
C7
350
63
  3
C8
350
64
  3
C9
350
65
  3
D0
350
66
  3
D1
350
67
  3
D2
350
68
  0
XRECORD
  5
88
102
{ACAD_REACTORS
330
C
102
}
330
C
100
AcDbXrecord
280
     1
  1
DWGPROPS COOKIE
  2

  3

  4

  6

  7

  8
vip
  9

300
=
301
=
302
=
303
=
304
=
305
=
306
=
307
=
308
=
309
=
 40
0.0
 41
2460045.498250579
 42
2460045.498307801
  1

 90
        0
  0
LAYOUT
  5
1E
102
{ACAD_REACTORS
330
1A
102
}
330
1A
100
AcDbPlotSettings
  1

  2
none_device
  4

  6

 40
0.0
 41
0.0
 42
0.0
 43
0.0
 44
0.0
 45
0.0
 46
0.0
 47
0.0
 48
0.0
 49
0.0
140
0.0
141
0.0
142
1.0
143
1.0
 70
   688
 72
     1
 73
     0
 74
     5
  7

 75
    16
147
1.0
148
0.0
149
0.0
100
AcDbLayout
  1
Layout1
 70
     1
 71
     1
 10
0.0
 20
0.0
 11
420.0
 21
297.0
 12
0.0
 22
0.0
 32
0.0
 14
1.0000000000E+20
 24
1.0000000000E+20
 34
1.0000000000E+20
 15
-1.0000000000E+20
 25
-1.0000000000E+20
 35
-1.0000000000E+20
146
0.0
 13
0.0
 23
0.0
 33
0.0
 16
1.0
 26
0.0
 36
0.0
 17
0.0
 27
1.0
 37
0.0
 76
     0
330
1B
  0
LAYOUT
  5
26
102
{ACAD_REACTORS
330
1A
102
}
330
1A
100
AcDbPlotSettings
  1

  2
none_device
  4

  6

 40
0.0
 41
0.0
 42
0.0
 43
0.0
 44
0.0
 45
0.0
 46
0.0
 47
0.0
 48
0.0
 49
0.0
140
0.0
141
0.0
142
1.0
143
1.0
 70
   688
 72
     1
 73
     0
 74
     5
  7

 75
    16
147
1.0
148
0.0
149
0.0
100
AcDbLayout
  1
Layout2
 70
     1
 71
     2
 10
0.0
 20
0.0
 11
0.0
 21
0.0
 12
0.0
 22
0.0
 32
0.0
 14
0.0
 24
0.0
 34
0.0
 15
0.0
 25
0.0
 35
0.0
146
0.0
 13
0.0
 23
0.0
 33
0.0
 16
1.0
 26
0.0
 36
0.0
 17
0.0
 27
1.0
 37
0.0
 76
     0
330
23
  0
LAYOUT
  5
22
102
{ACAD_REACTORS
330
1A
102
}
330
1A
100
AcDbPlotSettings
  1

  2
none_device
  4
ANSI_A_(11.00_x_8.50_Inches)
  6

 40
6.35
 41
19.05
 42
6.35000508
 43
19.05000254
 44
279.4
 45
215.9
 46
-4.95300254
 47
88.89999873
 48
0.0
 49
0.0
140
0.0
141
0.0
142
0.0109200245
143
1.0
 70
  1696
 72
     0
 73
     0
 74
     0
  7

 75
     0
147
0.0179189148
148
-1300.4909072572
149
0.0
100
AcDbLayout
  1
Model
 70
     1
 71
     0
 10
0.0
 20
0.0
 11
420.0
 21
297.0
 12
0.0
 22
0.0
 32
0.0
 14
0.0
 24
-200.0
 34
0.0
 15
997.2505116072
 25
200.0
 35
0.0
146
0.0
 13
0.0
 23
0.0
 33
0.0
 16
1.0
 26
0.0
 36
0.0
 17
0.0
 27
1.0
 37
0.0
 76
     0
330
1F
331
29
  0
MLINESTYLE
  5
18
102
{ACAD_REACTORS
330
17
102
}
330
17
100
AcDbMlineStyle
  2
Standard
 70
     0
  3

 62
   256
 51
90.0
 52
90.0
 71
     2
 49
0.5
 62
   256
  6
BYLAYER
 49
-0.5
 62
   256
  6
BYLAYER
  0
ACDBPLACEHOLDER
  5
F
102
{ACAD_REACTORS
330
E
102
}
330
E
  0
SCALE
  5
48
102
{ACAD_REACTORS
330
47
102
}
330
47
100
AcDbScale
 70
     0
300
1:1
140
1.0
141
1.0
290
     1
  0
SCALE
  5
49
102
{ACAD_REACTORS
330
47
102
}
330
47
100
AcDbScale
 70
     0
300
1:2
140
1.0
141
2.0
290
     0
  0
SCALE
  5
4A
102
{ACAD_REACTORS
330
47
102
}
330
47
100
AcDbScale
 70
     0
300
1:4
140
1.0
141
4.0
290
     0
  0
SCALE
  5
4B
102
{ACAD_REACTORS
330
47
102
}
330
47
100
AcDbScale
 70
     0
300
1:5
140
1.0
141
5.0
290
     0
  0
SCALE
  5
4C
102
{ACAD_REACTORS
330
47
102
}
330
47
100
AcDbScale
 70
     0
300
1:8
140
1.0
141
8.0
290
     0
  0
SCALE
  5
4D
102
{ACAD_REACTORS
330
47
102
}
330
47
100
AcDbScale
 70
     0
300
1:10
140
1.0
141
10.0
290
     0
  0
SCALE
  5
4E
102
{ACAD_REACTORS
330
47
102
}
330
47
100
AcDbScale
 70
     0
300
1:16
140
1.0
141
16.0
290
     0
  0
SCALE
  5
4F
102
{ACAD_REACTORS
330
47
102
}
330
47
100
AcDbScale
 70
     0
300
1:20
140
1.0
141
20.0
290
     0
  0
SCALE
  5
50
102
{ACAD_REACTORS
330
47
102
}
330
47
100
AcDbScale
 70
     0
300
1:30
140
1.0
141
30.0
290
     0
  0
SCALE
  5
51
102
{ACAD_REACTORS
330
47
102
}
330
47
100
AcDbScale
 70
     0
300
1:40
140
1.0
141
40.0
290
     0
  0
SCALE
  5
52
102
{ACAD_REACTORS
330
47
102
}
330
47
100
AcDbScale
 70
     0
300
1:50
140
1.0
141
50.0
290
     0
  0
SCALE
  5
53
102
{ACAD_REACTORS
330
47
102
}
330
47
100
AcDbScale
 70
     0
300
1:100
140
1.0
141
100.0
290
     0
  0
SCALE
  5
54
102
{ACAD_REACTORS
330
47
102
}
330
47
100
AcDbScale
 70
     0
300
2:1
140
2.0
141
1.0
290
     0
  0
SCALE
  5
55
102
{ACAD_REACTORS
330
47
102
}
330
47
100
AcDbScale
 70
     0
300
4:1
140
4.0
141
1.0
290
     0
  0
SCALE
  5
56
102
{ACAD_REACTORS
330
47
102
}
330
47
100
AcDbScale
 70
     0
300
8:1
140
8.0
141
1.0
290
     0
  0
SCALE
  5
57
102
{ACAD_REACTORS
330
47
102
}
330
47
100
AcDbScale
 70
     0
300
10:1
140
10.0
141
1.0
290
     0
  0
SCALE
  5
58
102
{ACAD_REACTORS
330
47
102
}
330
47
100
AcDbScale
 70
     0
300
100:1
140
100.0
141
1.0
290
     0
  0
SCALE
  5
59
102
{ACAD_REACTORS
330
47
102
}
330
47
100
AcDbScale
 70
     0
300
1/128" = 1'-0"
140
0.0078125
141
12.0
290
     0
  0
SCALE
  5
5A
102
{ACAD_REACTORS
330
47
102
}
330
47
100
AcDbScale
 70
     0
300
1/64" = 1'-0"
140
0.015625
141
12.0
290
     0
  0
SCALE
  5
5B
102
{ACAD_REACTORS
330
47
102
}
330
47
100
AcDbScale
 70
     0
300
1/32" = 1'-0"
140
0.03125
141
12.0
290
     0
  0
SCALE
  5
5C
102
{ACAD_REACTORS
330
47
102
}
330
47
100
AcDbScale
 70
     0
300
1/16" = 1'-0"
140
0.0625
141
12.0
290
     0
  0
SCALE
  5
5D
102
{ACAD_REACTORS
330
47
102
}
330
47
100
AcDbScale
 70
     0
300
3/32" = 1'-0"
140
0.09375
141
12.0
290
     0
  0
SCALE
  5
5E
102
{ACAD_REACTORS
330
47
102
}
330
47
100
AcDbScale
 70
     0
300
1/8" = 1'-0"
140
0.125
141
12.0
290
     0
  0
SCALE
  5
5F
102
{ACAD_REACTORS
330
47
102
}
330
47
100
AcDbScale
 70
     0
300
3/16" = 1'-0"
140
0.1875
141
12.0
290
     0
  0
SCALE
  5
60
102
{ACAD_REACTORS
330
47
102
}
330
47
100
AcDbScale
 70
     0
300
1/4" = 1'-0"
140
0.25
141
12.0
290
     0
  0
SCALE
  5
61
102
{ACAD_REACTORS
330
47
102
}
330
47
100
AcDbScale
 70
     0
300
3/8" = 1'-0"
140
0.375
141
12.0
290
     0
  0
SCALE
  5
62
102
{ACAD_REACTORS
330
47
102
}
330
47
100
AcDbScale
 70
     0
300
1/2" = 1'-0"
140
0.5
141
12.0
290
     0
  0
SCALE
  5
63
102
{ACAD_REACTORS
330
47
102
}
330
47
100
AcDbScale
 70
     0
300
3/4" = 1'-0"
140
0.75
141
12.0
290
     0
  0
SCALE
  5
64
102
{ACAD_REACTORS
330
47
102
}
330
47
100
AcDbScale
 70
     0
300
1" = 1'-0"
140
1.0
141
12.0
290
     0
  0
SCALE
  5
65
102
{ACAD_REACTORS
330
47
102
}
330
47
100
AcDbScale
 70
     0
300
1-1/2" = 1'-0"
140
1.5
141
12.0
290
     0
  0
SCALE
  5
66
102
{ACAD_REACTORS
330
47
102
}
330
47
100
AcDbScale
 70
     0
300
3" = 1'-0"
140
3.0
141
12.0
290
     0
  0
SCALE
  5
67
102
{ACAD_REACTORS
330
47
102
}
330
47
100
AcDbScale
 70
     0
300
6" = 1'-0"
140
6.0
141
12.0
290
     0
  0
SCALE
  5
68
102
{ACAD_REACTORS
330
47
102
}
330
47
100
AcDbScale
 70
     0
300
1'-0" = 1'-0"
140
12.0
141
12.0
290
     0
  0
ENDSEC
  0
EOF
