  0
SECTION
  2
HEADER
  9
$ACADVER
  1
AC1015
  9
$ACADMAINTVER
 70
     6
  9
$DWGCODEPAGE
  3
ANSI_1251
  9
$INSBASE
 10
0.0
 20
0.0
 30
0.0
  9
$EXTMIN
 10
0.0
 20
-200.0
 30
0.0
  9
$EXTMAX
 10
321.8298022907
 20
200.0
 30
0.0
  9
$LIMMIN
 10
0.0
 20
0.0
  9
$LIMMAX
 10
420.0
 20
297.0
  9
$ORTHOMODE
 70
     0
  9
$REGENMODE
 70
     1
  9
$FILLMODE
 70
     1
  9
$QTEXTMODE
 70
     0
  9
$MIRRTEXT
 70
     1
  9
$LTSCALE
 40
1.0
  9
$ATTMODE
 70
     1
  9
$TEXTSIZE
 40
4.0
  9
$TRACEWID
 40
1.0
  9
$TEXTSTYLE
  7
Standard
  9
$CLAYER
  8
0
  9
$CELTYPE
  6
ByLayer
  9
$CECOLOR
 62
   256
  9
$CELTSCALE
 40
1.0
  9
$DISPSILH
 70
     0
  9
$DIMSCALE
 40
1.0
  9
$DIMASZ
 40
6.0
  9
$DIMEXO
 40
0.0
  9
$DIMDLI
 40
3.75
  9
$DIMRND
 40
0.0
  9
$DIMDLE
 40
0.0
  9
$DIMEXE
 40
1.0
  9
$DIMTP
 40
0.0
  9
$DIMTM
 40
0.0
  9
$DIMTXT
 40
4.0
  9
$DIMCEN
 40
2.5
  9
$DIMTSZ
 40
0.0
  9
$DIMTOL
 70
     0
  9
$DIMLIM
 70
     0
  9
$DIMTIH
 70
     1
  9
$DIMTOH
 70
     1
  9
$DIMSE1
 70
     0
  9
$DIMSE2
 70
     0
  9
$DIMTAD
 70
     1
  9
$DIMZIN
 70
     0
  9
$DIMBLK
  1

  9
$DIMASO
 70
     1
  9
$DIMSHO
 70
     1
  9
$DIMPOST
  1

  9
$DIMAPOST
  1

  9
$DIMALT
 70
     0
  9
$DIMALTD
 70
     3
  9
$DIMALTF
 40
0.0393700787
  9
$DIMLFAC
 40
1.0
  9
$DIMTOFL
 70
     1
  9
$DIMTVP
 40
0.0
  9
$DIMTIX
 70
     0
  9
$DIMSOXD
 70
     0
  9
$DIMSAH
 70
     0
  9
$DIMBLK1
  1

  9
$DIMBLK2
  1

  9
$DIMSTYLE
  2
ISO-25
  9
$DIMCLRD
 70
     0
  9
$DIMCLRE
 70
     0
  9
$DIMCLRT
 70
     0
  9
$DIMTFAC
 40
1.0
  9
$DIMGAP
 40
3.0
  9
$DIMJUST
 70
     0
  9
$DIMSD1
 70
     0
  9
$DIMSD2
 70
     0
  9
$DIMTOLJ
 70
     0
  9
$DIMTZIN
 70
     0
  9
$DIMALTZ
 70
     0
  9
$DIMALTTZ
 70
     0
  9
$DIMUPT
 70
     0
  9
$DIMDEC
 70
     2
  9
$DIMTDEC
 70
     4
  9
$DIMALTU
 70
     2
  9
$DIMALTTD
 70
     3
  9
$DIMTXSTY
  7
Standard
  9
$DIMAUNIT
 70
     0
  9
$DIMADEC
 70
     2
  9
$DIMALTRND
 40
0.0
  9
$DIMAZIN
 70
     0
  9
$DIMDSEP
 70
    44
  9
$DIMATFIT
 70
     3
  9
$DIMFRAC
 70
     0
  9
$DIMLDRBLK
  1

  9
$DIMLUNIT
 70
     2
  9
$DIMLWD
 70
    -2
  9
$DIMLWE
 70
    -2
  9
$DIMTMOVE
 70
     0
  9
$LUNITS
 70
     2
  9
$LUPREC
 70
     2
  9
$SKETCHINC
 40
1.0
  9
$FILLETRAD
 40
10.0
  9
$AUNITS
 70
     0
  9
$AUPREC
 70
     2
  9
$MENU
  1
.
  9
$ELEVATION
 40
0.0
  9
$PELEVATION
 40
0.0
  9
$THICKNESS
 40
0.0
  9
$LIMCHECK
 70
     0
  9
$CHAMFERA
 40
0.0
  9
$CHAMFERB
 40
0.0
  9
$CHAMFERC
 40
0.0
  9
$CHAMFERD
 40
0.0
  9
$SKPOLY
 70
     0
  9
$TDCREATE
 40
2459671.477740046
  9
$TDUCREATE
 40
2459671.352740046
  9
$TDUPDATE
 40
2459671.477809375
  9
$TDUUPDATE
 40
2459671.352809375
  9
$TDINDWG
 40
0.0000000116
  9
$TDUSRTIMER
 40
0.0000000116
  9
$USRTIMER
 70
     1
  9
$ANGBASE
 50
0.0
  9
$ANGDIR
 70
     0
  9
$PDMODE
 70
     0
  9
$PDSIZE
 40
-1.0
  9
$PLINEWID
 40
0.0
  9
$SPLFRAME
 70
     0
  9
$SPLINETYPE
 70
     6
  9
$SPLINESEGS
 70
     8
  9
$HANDSEED
  5
8B
  9
$SURFTAB1
 70
     6
  9
$SURFTAB2
 70
     6
  9
$SURFTYPE
 70
     6
  9
$SURFU
 70
     6
  9
$SURFV
 70
     6
  9
$UCSBASE
  2

  9
$UCSNAME
  2

  9
$UCSORG
 10
0.0
 20
0.0
 30
0.0
  9
$UCSXDIR
 10
1.0
 20
0.0
 30
0.0
  9
$UCSYDIR
 10
0.0
 20
1.0
 30
0.0
  9
$UCSORTHOREF
  2

  9
$UCSORTHOVIEW
 70
     0
  9
$UCSORGTOP
 10
0.0
 20
0.0
 30
0.0
  9
$UCSORGBOTTOM
 10
0.0
 20
0.0
 30
0.0
  9
$UCSORGLEFT
 10
0.0
 20
0.0
 30
0.0
  9
$UCSORGRIGHT
 10
0.0
 20
0.0
 30
0.0
  9
$UCSORGFRONT
 10
0.0
 20
0.0
 30
0.0
  9
$UCSORGBACK
 10
0.0
 20
0.0
 30
0.0
  9
$PUCSBASE
  2

  9
$PUCSNAME
  2

  9
$PUCSORG
 10
0.0
 20
0.0
 30
0.0
  9
$PUCSXDIR
 10
1.0
 20
0.0
 30
0.0
  9
$PUCSYDIR
 10
0.0
 20
1.0
 30
0.0
  9
$PUCSORTHOREF
  2

  9
$PUCSORTHOVIEW
 70
     0
  9
$PUCSORGTOP
 10
0.0
 20
0.0
 30
0.0
  9
$PUCSORGBOTTOM
 10
0.0
 20
0.0
 30
0.0
  9
$PUCSORGLEFT
 10
0.0
 20
0.0
 30
0.0
  9
$PUCSORGRIGHT
 10
0.0
 20
0.0
 30
0.0
  9
$PUCSORGFRONT
 10
0.0
 20
0.0
 30
0.0
  9
$PUCSORGBACK
 10
0.0
 20
0.0
 30
0.0
  9
$USERI1
 70
     0
  9
$USERI2
 70
     0
  9
$USERI3
 70
     0
  9
$USERI4
 70
     0
  9
$USERI5
 70
     0
  9
$USERR1
 40
0.0
  9
$USERR2
 40
0.0
  9
$USERR3
 40
0.0
  9
$USERR4
 40
0.0
  9
$USERR5
 40
0.0
  9
$WORLDVIEW
 70
     1
  9
$SHADEDGE
 70
     3
  9
$SHADEDIF
 70
    70
  9
$TILEMODE
 70
     1
  9
$MAXACTVP
 70
    64
  9
$PINSBASE
 10
0.0
 20
0.0
 30
0.0
  9
$PLIMCHECK
 70
     0
  9
$PEXTMIN
 10
1.0000000000E+20
 20
1.0000000000E+20
 30
1.0000000000E+20
  9
$PEXTMAX
 10
-1.0000000000E+20
 20
-1.0000000000E+20
 30
-1.0000000000E+20
  9
$PLIMMIN
 10
0.0
 20
0.0
  9
$PLIMMAX
 10
420.0
 20
297.0
  9
$UNITMODE
 70
     0
  9
$VISRETAIN
 70
     1
  9
$PLINEGEN
 70
     0
  9
$PSLTSCALE
 70
     1
  9
$TREEDEPTH
 70
  3020
  9
$CMLSTYLE
  2
Standard
  9
$CMLJUST
 70
     0
  9
$CMLSCALE
 40
20.0
  9
$PROXYGRAPHICS
 70
     1
  9
$MEASUREMENT
 70
     1
  9
$CELWEIGHT
370
    -1
  9
$ENDCAPS
280
     0
  9
$JOINSTYLE
280
     0
  9
$LWDISPLAY
290
     1
  9
$INSUNITS
 70
     4
  9
$HYPERLINKBASE
  1

  9
$STYLESHEET
  1

  9
$XEDIT
290
     1
  9
$CEPSNTYPE
380
     0
  9
$PSTYLEMODE
290
     1
  9
$FINGERPRINTGUID
  2
{f08faa03-918c-4f75-97bf-41060417e9e8}
  9
$VERSIONGUID
  2
{FAEB1C32-E019-11D5-929B-00C0DF256EC4}
  9
$EXTNAMES
290
     1
  9
$PSVPSCALE
 40
0.0
  9
$OLESTARTUP
290
     0
  0
ENDSEC
  0
SECTION
  2
CLASSES
  0
CLASS
  1
ACDBDICTIONARYWDFLT
  2
AcDbDictionaryWithDefault
  3
ObjectDBX Classes
 90
        0
280
     0
281
     0
  0
CLASS
  1
VISUALSTYLE
  2
AcDbVisualStyle
  3
ObjectDBX Classes
 90
     4095
280
     0
281
     0
  0
CLASS
  1
MATERIAL
  2
AcDbMaterial
  3
ObjectDBX Classes
 90
     1153
280
     0
281
     0
  0
CLASS
  1
SCALE
  2
AcDbScale
  3
ObjectDBX Classes
 90
     1153
280
     0
281
     0
  0
CLASS
  1
TABLESTYLE
  2
AcDbTableStyle
  3
ObjectDBX Classes
 90
     4095
280
     0
281
     0
  0
CLASS
  1
MLEADERSTYLE
  2
AcDbMLeaderStyle
  3
ACDB_MLEADERSTYLE_CLASS
 90
     4095
280
     0
281
     0
  0
CLASS
  1
SUN
  2
AcDbSun
  3
SCENEOE
 90
     1153
280
     0
281
     0
  0
CLASS
  1
ACDBPLACEHOLDER
  2
AcDbPlaceHolder
  3
ObjectDBX Classes
 90
        0
280
     0
281
     0
  0
CLASS
  1
LAYOUT
  2
AcDbLayout
  3
ObjectDBX Classes
 90
        0
280
     0
281
     0
  0
ENDSEC
  0
SECTION
  2
TABLES
  0
TABLE
  2
VPORT
  5
8
330
0
100
AcDbSymbolTable
 70
     1
  0
VPORT
  5
29
330
8
100
AcDbSymbolTableRecord
100
AcDbViewportTableRecord
  2
*Active
 70
     0
 10
0.0
 20
0.0
 11
1.0
 21
1.0
 12
160.9149011454
 22
0.0
 13
0.0
 23
0.0
 14
10.0
 24
10.0
 15
10.0
 25
10.0
 16
0.0
 26
0.0
 36
1.0
 17
0.0
 27
0.0
 37
0.0
 40
408.0
 41
0.8045745057
 42
50.0
 43
0.0
 44
0.0
 50
0.0
 51
0.0
 71
     0
 72
   100
 73
     1
 74
     3
 75
     0
 76
     0
 77
     0
 78
     0
281
     0
 65
     1
110
0.0
120
0.0
130
0.0
111
1.0
121
0.0
131
0.0
112
0.0
122
1.0
132
0.0
 79
     0
146
0.0
  0
ENDTAB
  0
TABLE
  2
LTYPE
  5
5
330
0
100
AcDbSymbolTable
 70
     6
  0
LTYPE
  5
14
330
5
100
AcDbSymbolTableRecord
100
AcDbLinetypeTableRecord
  2
ByBlock
 70
     0
  3

 72
    65
 73
     0
 40
0.0
  0
LTYPE
  5
15
330
5
100
AcDbSymbolTableRecord
100
AcDbLinetypeTableRecord
  2
ByLayer
 70
     0
  3

 72
    65
 73
     0
 40
0.0
  0
LTYPE
  5
16
330
5
100
AcDbSymbolTableRecord
100
AcDbLinetypeTableRecord
  2
Continuous
 70
     0
  3
Solid line
 72
    65
 73
     0
 40
0.0
  0
LTYPE
  5
6E
330
5
100
AcDbSymbolTableRecord
100
AcDbLinetypeTableRecord
  2
HIDDEN
 70
     0
  3
Hidden __ __ __ __ __ __ __ __ __ __ __ __ __ __
 72
    65
 73
     2
 40
1.905
 49
1.27
 74
     0
 49
-0.635
 74
     0
  0
LTYPE
  5
6F
330
5
100
AcDbSymbolTableRecord
100
AcDbLinetypeTableRecord
  2
PHANTOM
 70
     0
  3
Phantom ______  __  __  ______  __  __  ______
 72
    65
 73
     6
 40
12.7
 49
6.35
 74
     0
 49
-1.27
 74
     0
 49
1.27
 74
     0
 49
-1.27
 74
     0
 49
1.27
 74
     0
 49
-1.27
 74
     0
  0
LTYPE
  5
70
330
5
100
AcDbSymbolTableRecord
100
AcDbLinetypeTableRecord
  2
CENTER
 70
     0
  3
Center ____ _ ____ _ ____ _ ____ _ ____ _ ____
 72
    65
 73
     4
 40
10.16
 49
6.35
 74
     0
 49
-1.27
 74
     0
 49
1.27
 74
     0
 49
-1.27
 74
     0
  0
LTYPE
  5
71
330
5
100
AcDbSymbolTableRecord
100
AcDbLinetypeTableRecord
  2
CENTERX2
 70
     0
  3
Center (2x) ________  __  ________  __  _____
 72
    65
 73
     4
 40
20.32
 49
12.7
 74
     0
 49
-2.54
 74
     0
 49
2.54
 74
     0
 49
-2.54
 74
     0
  0
LTYPE
  5
72
330
5
100
AcDbSymbolTableRecord
100
AcDbLinetypeTableRecord
  2
DOT2
 70
     0
  3
Dot (.5x) ........................................
 72
    65
 73
     2
 40
0.635
 49
0.0
 74
     0
 49
-0.635
 74
     0
  0
ENDTAB
  0
TABLE
  2
LAYER
  5
2
330
0
100
AcDbSymbolTable
 70
     1
  0
LAYER
  5
10
330
2
100
AcDbSymbolTableRecord
100
AcDbLayerTableRecord
  2
0
 70
     0
 62
     7
  6
Continuous
370
    -3
390
F
  0
ENDTAB
  0
TABLE
  2
STYLE
  5
3
330
0
100
AcDbSymbolTable
 70
     1
  0
STYLE
  5
11
330
3
100
AcDbSymbolTableRecord
100
AcDbTextStyleTableRecord
  2
Standard
 70
     0
 40
0.0
 41
1.0
 50
0.0
 71
     0
 42
4.0
  3
txt
  4

  0
ENDTAB
  0
TABLE
  2
VIEW
  5
6
330
0
100
AcDbSymbolTable
 70
     0
  0
ENDTAB
  0
TABLE
  2
UCS
  5
7
330
0
100
AcDbSymbolTable
 70
     0
  0
ENDTAB
  0
TABLE
  2
APPID
  5
9
330
0
100
AcDbSymbolTable
 70
     1
  0
APPID
  5
12
330
9
100
AcDbSymbolTableRecord
100
AcDbRegAppTableRecord
  2
ACAD
 70
     0
  0
ENDTAB
  0
TABLE
  2
DIMSTYLE
  5
A
330
0
100
AcDbSymbolTable
 70
     1
100
AcDbDimStyleTable
  0
DIMSTYLE
105
27
330
A
100
AcDbSymbolTableRecord
100
AcDbDimStyleTableRecord
  2
ISO-25
 70
     0
 41
2.5
 42
0.625
 43
3.75
 44
1.25
 73
     0
 74
     0
 77
     1
 78
     8
140
2.5
141
2.5
143
0.0393700787
147
0.625
171
     3
172
     1
178
     0
271
     2
272
     2
274
     3
278
    44
283
     0
284
     8
340
11
  0
ENDTAB
  0
TABLE
  2
BLOCK_RECORD
  5
1
330
0
100
AcDbSymbolTable
 70
     1
  0
BLOCK_RECORD
  5
1F
330
1
100
AcDbSymbolTableRecord
100
AcDbBlockTableRecord
  2
*Model_Space
340
22
  0
BLOCK_RECORD
  5
1B
330
1
100
AcDbSymbolTableRecord
100
AcDbBlockTableRecord
  2
*Paper_Space
340
1E
  0
BLOCK_RECORD
  5
23
330
1
100
AcDbSymbolTableRecord
100
AcDbBlockTableRecord
  2
*Paper_Space0
340
26
  0
ENDTAB
  0
ENDSEC
  0
SECTION
  2
BLOCKS
  0
BLOCK
  5
20
330
1F
100
AcDbEntity
  8
0
100
AcDbBlockBegin
  2
*Model_Space
 70
     0
 10
0.0
 20
0.0
 30
0.0
  3
*Model_Space
  1

  0
ENDBLK
  5
21
330
1F
100
AcDbEntity
  8
0
100
AcDbBlockEnd
  0
BLOCK
  5
1C
330
1B
100
AcDbEntity
 67
     1
  8
0
100
AcDbBlockBegin
  2
*Paper_Space
 70
     0
 10
0.0
 20
0.0
 30
0.0
  3
*Paper_Space
  1

  0
ENDBLK
  5
1D
330
1B
100
AcDbEntity
 67
     1
  8
0
100
AcDbBlockEnd
  0
BLOCK
  5
24
330
23
100
AcDbEntity
  8
0
100
AcDbBlockBegin
  2
*Paper_Space0
 70
     0
 10
0.0
 20
0.0
 30
0.0
  3
*Paper_Space0
  1

  0
ENDBLK
  5
25
330
23
100
AcDbEntity
  8
0
100
AcDbBlockEnd
  0
ENDSEC
  0
SECTION
  2
ENTITIES
  0
SPLINE
  5
73
330
1F
100
AcDbEntity
  8
0
  6
Continuous
 62
     7
370
    25
100
AcDbSpline
210
0.0
220
0.0
230
1.0
 70
    11
 71
     3
 72
    39
 73
    35
 74
     0
 42
0.00000001
 43
0.00000001
 40
0.0
 40
0.0
 40
0.0
 40
0.0
 40
0.0312609411260555
 40
0.0625015223782524
 40
0.0937557121299443
 40
0.125002192475229
 40
0.1562540478800226
 40
0.1875014656045062
 40
0.2187358138660584
 40
0.2499997693034253
 40
0.2812120703775167
 40
0.3124979844151894
 40
0.343710703812417
 40
0.3749973024393995
 40
0.4062240803390405
 40
0.4374985177652762
 40
0.4687310124249884
 40
0.4999995222228048
 40
0.5312365139722367
 40
0.5625007804025172
 40
0.5937585683994001
 40
0.6250019664111363
 40
0.6562720147742791
 40
0.687501716580853
 40
0.7187488525271168
 40
0.7499994759495696
 40
0.7812121091577668
 40
0.8124973128183653
 40
0.8436954174941781
 40
0.874997050160544
 40
0.9062071658416713
 40
0.9374977739859999
 40
0.9687438013257474
 40
1.0
 40
1.0
 40
1.0
 40
1.0
 10
234.8477936341642
 20
88.2499997899516
 30
0.0
 10
235.0614311172698
 20
88.24989008804766
 30
0.0
 10
235.488535589469
 20
88.20920920155542
 30
0.0
 10
236.1043957008158
 20
88.02229886871514
 30
0.0
 10
236.6739461232139
 20
87.72274183158727
 30
0.0
 10
237.1724504449836
 20
87.31563914620136
 30
0.0
 10
237.5847906182776
 20
86.82145239343653
 30
0.0
 10
237.8892865765683
 20
86.25448018831437
 30
0.0
 10
238.079844668228
 20
85.63964477116599
 30
0.0
 10
238.14171080352
 20
84.9991555610899
 30
0.0
 10
238.0794937523223
 20
84.35835428084759
 30
0.0
 10
237.8885717429656
 20
83.74386727396657
 30
0.0
 10
237.583655166408
 20
83.17673253265322
 30
0.0
 10
237.1710061939122
 20
82.68295953704106
 30
0.0
 10
236.6720979235642
 20
82.27598640359345
 30
0.0
 10
236.1023574497019
 20
81.9768810016931
 30
0.0
 10
235.4862661720965
 20
81.79029924500134
 30
0.0
 10
234.8456455987213
 20
81.72975247784106
 30
0.0
 10
234.2048453364752
 20
81.79067510382558
 30
0.0
 10
233.5889888057842
 20
81.9776703377156
 30
0.0
 10
233.01922146812
 20
82.27717448318975
 30
0.0
 10
232.5206986928465
 20
82.68446838191409
 30
0.0
 10
232.1083720079505
 20
83.17863801451638
 30
0.0
 10
231.8038646822743
 20
83.74570936105533
 30
0.0
 10
231.6134162131041
 20
84.36044623927273
 30
0.0
 10
231.551509110297
 20
85.00092850037616
 30
0.0
 10
231.6137947996546
 20
85.64162725627921
 30
0.0
 10
231.8046050613463
 20
86.25604097942318
 30
0.0
 10
232.1095689965052
 20
86.8231465752223
 30
0.0
 10
232.5220751380619
 20
87.3168865149026
 30
0.0
 10
233.0210129742463
 20
87.72399284676811
 30
0.0
 10
233.5908580486111
 20
88.02307858062954
 30
0.0
 10
234.2070165755669
 20
88.20987293870188
 30
0.0
 10
234.6341885610063
 20
88.25010947521316
 30
0.0
 10
234.8477936341642
 20
88.2499997899516
 30
0.0
  0
SPLINE
  5
74
330
1F
100
AcDbEntity
  8
0
  6
Continuous
 62
     7
370
    25
100
AcDbSpline
210
0.0
220
0.0
230
1.0
 70
    11
 71
     3
 72
    39
 73
    35
 74
     0
 42
0.00000001
 43
0.00000001
 40
0.0
 40
0.0
 40
0.0
 40
0.0
 40
0.0312342702208834
 40
0.0625015229962439
 40
0.0937533670245747
 40
0.1250039952437872
 40
0.1563108276541797
 40
0.187504191655341
 40
0.2187873738375442
 40
0.2499999996663813
 40
0.2811943822874323
 40
0.3124957248814574
 40
0.3436745227810644
 40
0.374995887769596
 40
0.406231497654882
 40
0.4374983272084286
 40
0.468754094808803
 40
0.4999998461756947
 40
0.5312289540789139
 40
0.5625013041226191
 40
0.5937493245337935
 40
0.6250037944933207
 40
0.6563055502734139
 40
0.6875039535817011
 40
0.7187863979704511
 40
0.7499998566617785
 40
0.7812050086575075
 40
0.8124957564354209
 40
0.8436813124223497
 40
0.8749957919948896
 40
0.9062272194288435
 40
0.9374981425262918
 40
0.9687528199990914
 40
1.0
 40
1.0
 40
1.0
 40
1.0
 10
78.2855708962858
 20
76.5000006571822
 30
0.0
 10
77.72640943122238
 20
76.49980411185423
 30
0.0
 10
76.60746651430333
 20
76.60560407569145
 30
0.0
 10
74.99398191732617
 20
77.0943550389452
 30
0.0
 10
73.50042635745784
 20
77.8768834823095
 30
0.0
 10
72.1907999360871
 20
78.94002245776208
 30
0.0
 10
71.10455726383033
 20
80.2294706181775
 30
0.0
 10
70.29876891166461
 20
81.71128915269007
 30
0.0
 10
69.79268750664534
 20
83.31891415640142
 30
0.0
 10
69.6269411563948
 20
84.99629485327111
 30
0.0
 10
69.79117591540266
 20
86.67414584756354
 30
0.0
 10
70.29590590803015
 20
88.28194374133265
 30
0.0
 10
71.10059656966577
 20
89.76470587247454
 30
0.0
 10
72.18559876627953
 20
91.05486550189043
 30
0.0
 10
73.49453218934607
 20
92.11925131807507
 30
0.0
 10
74.9872855536558
 20
92.90289224418683
 30
0.0
 10
76.60059870852788
 20
93.39307918866427
 30
0.0
 10
78.27852225235515
 20
93.55310934849301
 30
0.0
 10
79.95684701888996
 20
93.39439654199171
 30
0.0
 10
81.57027380483294
 20
92.90570163559349
 30
0.0
 10
83.06393460356738
 20
92.12317929381534
 30
0.0
 10
84.37349616095798
 20
91.06009352401219
 30
0.0
 10
85.45976678282922
 20
89.77058536975535
 30
0.0
 10
86.26558812513115
 20
88.28881066492775
 30
0.0
 10
86.77185653780947
 20
86.6811339263163
 30
0.0
 10
86.93743767088925
 20
85.00353944665349
 30
0.0
 10
86.77327636861536
 20
83.325664957415
 30
0.0
 10
86.26839529544968
 20
81.71777150207576
 30
0.0
 10
85.4636259550454
 20
80.23528390649551
 30
0.0
 10
84.37880632464358
 20
78.94508298021546
 30
0.0
 10
83.069914944078
 20
77.88082985545073
 30
0.0
 10
81.57721954769347
 20
77.09715064987506
 30
0.0
 10
79.96385331249853
 20
76.60682830652873
 30
0.0
 10
78.84496347452912
 20
76.5001972837465
 30
0.0
 10
78.2855708962858
 20
76.5000006571822
 30
0.0
  0
SPLINE
  5
75
330
1F
100
AcDbEntity
  8
0
  6
Continuous
 62
     7
370
    25
100
AcDbSpline
210
0.0
220
0.0
230
1.0
 70
    11
 71
     3
 72
    36
 73
    32
 74
     0
 42
0.00000001
 43
0.00000001
 40
0.0
 40
0.0
 40
0.0
 40
0.0
 40
0.062489496101522
 40
0.0625069279601579
 40
0.1249860461503487
 40
0.1250106507689493
 40
0.1874905786034839
 40
0.1875079767682419
 40
0.2499997556163014
 40
0.2499997676510872
 40
0.3124913267664221
 40
0.3125087149394425
 40
0.3749886620026176
 40
0.3750132461272997
 40
0.4374923671250939
 40
0.437509780795308
 40
0.4999997394129722
 40
0.5624897313571218
 40
0.5625071528825135
 40
0.6249862746008547
 40
0.6250108923283582
 40
0.6874904882527926
 40
0.6875078889077212
 40
0.7499997387243038
 40
0.8124915600037851
 40
0.8125089479321552
 40
0.8749888611878668
 40
0.8750134508066878
 40
0.9374925995980569
 40
0.9375100136248774
 40
1.0
 40
1.0
 40
1.0
 40
1.0
 10
156.5644114843004
 20
110.4500000000022
 30
0.0
 10
156.8861230095534
 20
110.4500000014564
 30
0.0
 10
157.2079242429054
 20
110.3866891363961
 30
0.0
 10
157.8033158713417
 20
110.1426088933514
 30
0.0
 10
158.0770983285437
 20
109.9617550838735
 30
0.0
 10
158.5345954884145
 20
109.5091955275309
 30
0.0
 10
158.7185183879844
 20
109.2372786273743
 30
0.0
 10
158.9672052229345
 20
108.6436748615936
 30
0.0
 10
159.0320495357105
 20
108.3217945232922
 30
0.0
 10
159.0320505134322
 20
107.6782140545145
 30
0.0
 10
158.9672076439297
 20
107.3563347405624
 30
0.0
 10
158.7185238848319
 20
106.762730879859
 30
0.0
 10
158.534602241404
 20
106.4908131846036
 30
0.0
 10
158.0771071102566
 20
106.0382515741985
 30
0.0
 10
157.8033256273882
 20
105.8573966468369
 30
0.0
 10
157.2079328929866
 20
105.6133128538958
 30
0.0
 10
156.5644154326134
 20
105.4867058147847
 30
0.0
 10
155.9208975187099
 20
105.6133108367766
 30
0.0
 10
155.3255038795347
 20
105.8573928962662
 30
0.0
 10
155.0517216754803
 20
106.038247129813
 30
0.0
 10
154.5942263816783
 20
106.490806207832
 30
0.0
 10
154.4103046074302
 20
106.7627217429156
 30
0.0
 10
154.1616179888393
 20
107.3563241459856
 30
0.0
 10
154.0319471234771
 20
107.9999956995971
 30
0.0
 10
154.1616157270485
 20
108.6436676122885
 30
0.0
 10
154.410300805568
 20
109.2372721877417
 30
0.0
 10
154.5942227721392
 20
109.5091894582954
 30
0.0
 10
155.0517185015911
 20
109.9617504596886
 30
0.0
 10
155.3255003675892
 20
110.1426051314091
 30
0.0
 10
155.9208936984743
 20
110.3866881553389
 30
0.0
 10
156.2426974349965
 20
110.4499999985481
 30
0.0
 10
156.5644114843004
 20
110.4500000000022
 30
0.0
  0
SPLINE
  5
76
330
1F
100
AcDbEntity
  8
0
  6
Continuous
 62
     7
370
    25
100
AcDbSpline
210
0.0
220
0.0
230
1.0
 70
    11
 71
     3
 72
    36
 73
    32
 74
     0
 42
0.00000001
 43
0.00000001
 40
0.0
 40
0.0
 40
0.0
 40
0.0
 40
0.0624894961015305
 40
0.0625069279601543
 40
0.1249860461503539
 40
0.125010650768946
 40
0.1874905786034873
 40
0.1875079767682412
 40
0.2499997556163035
 40
0.2499997676510847
 40
0.3124913267664194
 40
0.3125087149394454
 40
0.374988662002613
 40
0.3750132461273016
 40
0.4374923671250887
 40
0.4375097807953079
 40
0.4999997394129725
 40
0.562489731357122
 40
0.5625071528825099
 40
0.624986274600855
 40
0.6250108923283558
 40
0.6874904882527924
 40
0.6875078889077156
 40
0.7499997387243049
 40
0.8124915600037836
 40
0.8125089479321554
 40
0.8749888611878606
 40
0.8750134508066922
 40
0.937492599598052
 40
0.9375100136248773
 40
1.0
 40
1.0
 40
1.0
 40
1.0
 10
156.5644114843003
 20
122.4500000000022
 30
0.0
 10
156.8861230095533
 20
122.4500000014563
 30
0.0
 10
157.2079242429052
 20
122.386689136396
 30
0.0
 10
157.8033158713417
 20
122.1426088933512
 30
0.0
 10
158.0770983285434
 20
121.9617550838735
 30
0.0
 10
158.5345954884144
 20
121.5091955275308
 30
0.0
 10
158.7185183879841
 20
121.2372786273742
 30
0.0
 10
158.9672052229339
 20
120.6436748615935
 30
0.0
 10
159.0320495357101
 20
120.3217945232921
 30
0.0
 10
159.0320505134318
 20
119.6782140545145
 30
0.0
 10
158.9672076439293
 20
119.3563347405624
 30
0.0
 10
158.7185238848315
 20
118.762730879859
 30
0.0
 10
158.5346022414037
 20
118.4908131846036
 30
0.0
 10
158.0771071102563
 20
118.0382515741985
 30
0.0
 10
157.8033256273877
 20
117.8573966468368
 30
0.0
 10
157.2079328929864
 20
117.6133128538957
 30
0.0
 10
156.564415432613
 20
117.4867058147847
 30
0.0
 10
155.9208975187098
 20
117.6133108367766
 30
0.0
 10
155.3255038795344
 20
117.8573928962662
 30
0.0
 10
155.0517216754802
 20
118.038247129813
 30
0.0
 10
154.5942263816783
 20
118.4908062078321
 30
0.0
 10
154.4103046074302
 20
118.7627217429156
 30
0.0
 10
154.1616179888393
 20
119.3563241459856
 30
0.0
 10
154.0319471234771
 20
119.9999956995972
 30
0.0
 10
154.1616157270485
 20
120.6436676122884
 30
0.0
 10
154.410300805568
 20
121.2372721877416
 30
0.0
 10
154.5942227721391
 20
121.5091894582954
 30
0.0
 10
155.051718501591
 20
121.9617504596886
 30
0.0
 10
155.3255003675891
 20
122.1426051314091
 30
0.0
 10
155.9208936984742
 20
122.3866881553389
 30
0.0
 10
156.2426974349965
 20
122.4499999985481
 30
0.0
 10
156.5644114843003
 20
122.4500000000022
 30
0.0
  0
SPLINE
  5
77
330
1F
100
AcDbEntity
  8
0
  6
Continuous
 62
     7
370
    25
100
AcDbSpline
210
0.0
220
0.0
230
1.0
 70
    11
 71
     3
 72
    37
 73
    33
 74
     0
 42
0.00000001
 43
0.00000001
 40
0.0
 40
0.0
 40
0.0
 40
0.0
 40
0.0624891735322429
 40
0.0625067843770036
 40
0.1249868353977469
 40
0.1250115872603921
 40
0.1874925310564301
 40
0.1875100293958792
 40
0.2500009406407539
 40
0.2500009681840004
 40
0.3124904850646351
 40
0.3125079663457748
 40
0.3749864490248749
 40
0.375011135572159
 40
0.4374907682011492
 40
0.4375082262583543
 40
0.4999998587736662
 40
0.5624915060889425
 40
0.5625089667927516
 40
0.6249886231869106
 40
0.6250133123621332
 40
0.6874917886230453
 40
0.6875092744005702
 40
0.7499987905557212
 40
0.7499988136729443
 40
0.8124897459794159
 40
0.8125072422534264
 40
0.8749881825021435
 40
0.8750129309442938
 40
0.9374929562230658
 40
0.9375105607242883
 40
1.0
 40
1.0
 40
1.0
 40
1.0
 10
41.38722123989697
 20
141.2000000000007
 30
0.0
 10
41.38722123619659
 20
141.6598291154155
 30
0.0
 10
41.48026579747221
 20
142.1197877916776
 30
0.0
 10
41.83654476824404
 20
142.967664487067
 30
0.0
 10
42.09990282687846
 20
143.355857961991
 30
0.0
 10
42.75426214441878
 20
144.0019822590423
 30
0.0
 10
43.14556676436984
 20
144.2602133659931
 30
0.0
 10
43.99638137408354
 20
144.6090349788774
 30
0.0
 10
44.45616694722052
 20
144.6997479963234
 30
0.0
 10
45.37562146821924
 20
144.700250866979
 30
0.0
 10
45.83554793774255
 20
144.6100449248958
 30
0.0
 10
46.68650086159375
 20
144.2615915399898
 30
0.0
 10
47.0778035454118
 20
144.003224774546
 30
0.0
 10
47.731661976957
 20
143.3566074281154
 30
0.0
 10
47.99451552793643
 20
142.9680534920769
 30
0.0
 10
48.34993603895635
 20
142.1198095865511
 30
0.0
 10
48.5352740000016
 20
141.2000031396076
 30
0.0
 10
48.34993770108436
 20
140.2801963206341
 30
0.0
 10
47.99451853729148
 20
139.4319515157385
 30
0.0
 10
47.73166548465829
 20
139.0433969620229
 30
0.0
 10
47.07780792584701
 20
138.3967785201817
 30
0.0
 10
46.6865056271449
 20
138.1384111658658
 30
0.0
 10
45.83555324937535
 20
137.7899565006081
 30
0.0
 10
45.3756269227222
 20
137.6997498653928
 30
0.0
 10
44.45617228179406
 20
137.7002513321646
 30
0.0
 10
43.9963864581346
 20
137.7909636915752
 30
0.0
 10
43.14557124637558
 20
138.139784136838
 30
0.0
 10
42.75426631462438
 20
138.3980146417876
 30
0.0
 10
42.09990619569398
 20
139.044137772496
 30
0.0
 10
41.83654765751069
 20
139.4323305718981
 30
0.0
 10
41.4802665940919
 20
140.2802082854997
 30
0.0
 10
41.38722124359734
 20
140.7401689291018
 30
0.0
 10
41.38722123989697
 20
141.2000000000007
 30
0.0
  0
SPLINE
  5
78
330
1F
100
AcDbEntity
  8
0
  6
Continuous
 62
     7
370
    25
100
AcDbSpline
210
0.0
220
0.0
230
1.0
 70
    11
 71
     3
 72
    37
 73
    33
 74
     0
 42
0.00000001
 43
0.00000001
 40
0.0
 40
0.0
 40
0.0
 40
0.0
 40
0.0624891735322446
 40
0.0625067843770007
 40
0.1249868353977468
 40
0.125011587260389
 40
0.1874925310564311
 40
0.187510029395876
 40
0.2500009406407551
 40
0.2500009681839982
 40
0.3124904850646338
 40
0.3125079663457768
 40
0.3749864490248731
 40
0.3750111355721594
 40
0.4374907682011471
 40
0.4375082262583557
 40
0.4999998587736685
 40
0.5624915060889418
 40
0.5625089667927474
 40
0.6249886231869113
 40
0.6250133123621295
 40
0.6874917886230464
 40
0.6875092744005656
 40
0.7499987905557183
 40
0.7499988136729454
 40
0.8124897459794127
 40
0.8125072422534265
 40
0.8749881825021397
 40
0.8750129309442933
 40
0.9374929562230634
 40
0.9375105607242892
 40
1.0
 40
1.0
 40
1.0
 40
1.0
 10
41.38722123989972
 20
-61.0999999999994
 30
0.0
 10
41.38722123619937
 20
-60.64017088458454
 30
0.0
 10
41.4802657974751
 20
-60.18021220832234
 30
0.0
 10
41.83654476824693
 20
-59.33233551293306
 30
0.0
 10
42.09990282688133
 20
-58.94414203800908
 30
0.0
 10
42.75426214442166
 20
-58.29801774095766
 30
0.0
 10
43.14556676437273
 20
-58.03978663400688
 30
0.0
 10
43.99638137408643
 20
-57.69096502112252
 30
0.0
 10
44.4561669472234
 20
-57.60025200367656
 30
0.0
 10
45.37562146822214
 20
-57.59974913302098
 30
0.0
 10
45.83554793774544
 20
-57.68995507510423
 30
0.0
 10
46.68650086159662
 20
-58.03840846001018
 30
0.0
 10
47.07780354541467
 20
-58.29677522545401
 30
0.0
 10
47.73166197695988
 20
-58.94339257188462
 30
0.0
 10
47.99451552793933
 20
-59.3319465079231
 30
0.0
 10
48.34993603895924
 20
-60.18019041344894
 30
0.0
 10
48.53527400000451
 20
-61.09999686039244
 30
0.0
 10
48.34993770108726
 20
-62.01980367936598
 30
0.0
 10
47.99451853729436
 20
-62.86804848426157
 30
0.0
 10
47.73166548466118
 20
-63.25660303797702
 30
0.0
 10
47.07780792584987
 20
-63.90322147981825
 30
0.0
 10
46.68650562714778
 20
-64.16158883413414
 30
0.0
 10
45.83555324937824
 20
-64.510043499392
 30
0.0
 10
45.37562692272532
 20
-64.6002501346072
 30
0.0
 10
44.45617228179696
 20
-64.59974866783544
 30
0.0
 10
43.99638645813749
 20
-64.50903630842485
 30
0.0
 10
43.14557124637847
 20
-64.1602158631619
 30
0.0
 10
42.75426631462703
 20
-63.90198535821234
 30
0.0
 10
42.09990619569685
 20
-63.25586222750402
 30
0.0
 10
41.83654765751357
 20
-62.86766942810197
 30
0.0
 10
41.48026659409477
 20
-62.01979171450042
 30
0.0
 10
41.38722124360012
 20
-61.55983107089833
 30
0.0
 10
41.38722123989972
 20
-61.0999999999994
 30
0.0
  0
SPLINE
  5
79
330
1F
100
AcDbEntity
  8
0
  6
Continuous
 62
     7
370
    25
100
AcDbSpline
210
0.0
220
0.0
230
1.0
 70
    11
 71
     3
 72
    37
 73
    33
 74
     0
 42
0.00000001
 43
0.00000001
 40
0.0
 40
0.0
 40
0.0
 40
0.0
 40
0.062491651353742
 40
0.0625091102619278
 40
0.1249887565769604
 40
0.1250134443405132
 40
0.1874919366086939
 40
0.1875094202143814
 40
0.2499989224513612
 40
0.249998947924808
 40
0.3124898527887949
 40
0.3125073510469074
 40
0.3749882821606301
 40
0.3750130314501959
 40
0.4374931149444296
 40
0.4375107235633698
 40
0.5000001854093366
 40
0.5624896149334083
 40
0.5625072147031009
 40
0.6249872260653205
 40
0.6250119696596135
 40
0.687492899131988
 40
0.6875103896210993
 40
0.7500013580461152
 40
0.7500013755073892
 40
0.8124908995334186
 40
0.8125083894548756
 40
0.8749868654427012
 40
0.8750115602655736
 40
0.9374911861582489
 40
0.9375086533102966
 40
1.0
 40
1.0
 40
1.0
 40
1.0
 10
108.1217930777021
 20
141.2000000000016
 30
0.0
 10
108.1217930817435
 20
141.6598391463935
 30
0.0
 10
108.2144746306218
 20
142.1198067950006
 30
0.0
 10
108.5698945781872
 20
142.9680512168434
 30
0.0
 10
108.832747921876
 20
143.3566054402872
 30
0.0
 10
109.4866060544237
 20
144.0032233470504
 30
0.0
 10
109.8779086618169
 20
144.2615904149672
 30
0.0
 10
110.7288613584867
 20
144.6100443021226
 30
0.0
 10
111.1887876574722
 20
144.7002505176052
 30
0.0
 10
112.1082420059416
 20
144.6997482841938
 30
0.0
 10
112.5680275794878
 20
144.6090356105471
 30
0.0
 10
113.4188423201099
 20
144.2602146946132
 30
0.0
 10
113.8101470457315
 20
144.0019839717572
 30
0.0
 10
114.4645070167181
 20
143.3558601586703
 30
0.0
 10
114.7278655088402
 20
142.9676667166886
 30
0.0
 10
115.0841459399914
 20
142.1197880088117
 30
0.0
 10
115.2702093808351
 20
141.1999959223457
 30
0.0
 10
115.0841437731387
 20
140.2802043862454
 30
0.0
 10
114.727861852902
 20
139.4323272876312
 30
0.0
 10
114.4645030297509
 20
139.0441349183882
 30
0.0
 10
113.8101424558514
 20
138.3980125828919
 30
0.0
 10
113.4188374265968
 20
138.1397825266963
 30
0.0
 10
112.5680217761849
 20
137.7909627681535
 30
0.0
 10
112.1082356679789
 20
137.7002508163387
 30
0.0
 10
111.1887807393078
 20
137.6997503253312
 30
0.0
 10
110.7288544600751
 20
137.7899574621963
 30
0.0
 10
109.8779023919191
 20
138.1384131143686
 30
0.0
 10
109.4866003269318
 20
138.3967809586607
 30
0.0
 10
108.8327436654258
 20
139.043400046957
 30
0.0
 10
108.5698911347346
 20
139.4319547792593
 30
0.0
 10
108.2144737231091
 20
140.2801976928727
 30
0.0
 10
108.1217930736607
 20
140.7401630954524
 30
0.0
 10
108.1217930777021
 20
141.2000000000016
 30
0.0
  0
SPLINE
  5
7A
330
1F
100
AcDbEntity
  8
0
  6
Continuous
 62
     7
370
    25
100
AcDbSpline
210
0.0
220
0.0
230
1.0
 70
    11
 71
     3
 72
    37
 73
    33
 74
     0
 42
0.00000001
 43
0.00000001
 40
0.0
 40
0.0
 40
0.0
 40
0.0
 40
0.0624916513537444
 40
0.0625091102619287
 40
0.1249887565769608
 40
0.1250134443405138
 40
0.1874919366086958
 40
0.1875094202143831
 40
0.2499989224513638
 40
0.2499989479248065
 40
0.3124898527887976
 40
0.312507351046907
 40
0.3749882821606308
 40
0.3750130314501961
 40
0.4374931149444284
 40
0.4375107235633687
 40
0.5000001854093381
 40
0.5624896149334087
 40
0.5625072147031008
 40
0.6249872260653205
 40
0.6250119696596141
 40
0.6874928991319881
 40
0.6875103896211003
 40
0.7500013580461149
 40
0.7500013755073904
 40
0.8124908995334195
 40
0.8125083894548734
 40
0.8749868654427027
 40
0.875011560265573
 40
0.9374911861582504
 40
0.9375086533102974
 40
1.0
 40
1.0
 40
1.0
 40
1.0
 10
108.1217930777048
 20
-61.09999999999845
 30
0.0
 10
108.1217930817462
 20
-60.64016085360655
 30
0.0
 10
108.2144746306244
 20
-60.18019320499947
 30
0.0
 10
108.5698945781901
 20
-59.33194878315668
 30
0.0
 10
108.8327479218789
 20
-58.94339455971281
 30
0.0
 10
109.4866060544266
 20
-58.29677665294962
 30
0.0
 10
109.8779086618198
 20
-58.03840958503274
 30
0.0
 10
110.7288613584896
 20
-57.68995569787734
 30
0.0
 10
111.1887876574751
 20
-57.59974948239485
 30
0.0
 10
112.1082420059445
 20
-57.60025171580619
 30
0.0
 10
112.5680275794907
 20
-57.69096438945288
 30
0.0
 10
113.4188423201128
 20
-58.03978530538682
 30
0.0
 10
113.8101470457344
 20
-58.29801602824279
 30
0.0
 10
114.4645070167209
 20
-58.94413984132971
 30
0.0
 10
114.7278655088428
 20
-59.33233328331141
 30
0.0
 10
115.0841459399943
 20
-60.18021199118837
 30
0.0
 10
115.270209380838
 20
-61.10000407765433
 30
0.0
 10
115.0841437731414
 20
-62.01979561375462
 30
0.0
 10
114.7278618529047
 20
-62.86767271236884
 30
0.0
 10
114.4645030297538
 20
-63.25586508161177
 30
0.0
 10
113.8101424558543
 20
-63.9019874171081
 30
0.0
 10
113.4188374265997
 20
-64.16021747330373
 30
0.0
 10
112.5680217761878
 20
-64.50903723184653
 30
0.0
 10
112.1082356679817
 20
-64.5997491836613
 30
0.0
 10
111.1887807393107
 20
-64.60024967466879
 30
0.0
 10
110.728854460078
 20
-64.51004253780377
 30
0.0
 10
109.8779023919219
 20
-64.16158688563144
 30
0.0
 10
109.4866003269346
 20
-63.90321904133939
 30
0.0
 10
108.8327436654287
 20
-63.25659995304306
 30
0.0
 10
108.5698911347375
 20
-62.86804522074074
 30
0.0
 10
108.2144737231119
 20
-62.01980230712724
 30
0.0
 10
108.1217930736634
 20
-61.55983690454764
 30
0.0
 10
108.1217930777048
 20
-61.09999999999845
 30
0.0
  0
SPLINE
  5
7F
330
1F
100
AcDbEntity
  8
0
  6
Continuous
 62
     7
370
    25
100
AcDbSpline
210
0.0
220
0.0
230
1.0
 70
     8
 71
     3
 72
     9
 73
     5
 74
     0
 42
0.00000001
 43
0.00000001
 40
0.0
 40
0.0
 40
0.0
 40
0.0
 40
0.7904827941423577
 40
1.0
 40
1.0
 40
1.0
 40
1.0
 10
156.5644114843002
 20
122.4500000000022
 30
0.0
 10
156.2866511536967
 20
122.4383573125234
 30
0.0
 10
155.9352705383795
 20
122.423628734539
 30
0.0
 10
155.6407235213516
 20
122.2469325288561
 30
0.0
 10
155.5790108533503
 20
122.2099116335558
 30
0.0
  0
SPLINE
  5
80
330
1F
100
AcDbEntity
  8
0
  6
Continuous
 62
     7
370
    25
100
AcDbSpline
210
0.0
220
0.0
230
1.0
 70
     8
 71
     3
 72
    10
 73
     6
 74
     0
 42
0.00000001
 43
0.00000001
 40
0.0
 40
0.0
 40
0.0
 40
0.0
 40
0.3037020569845675
 40
0.9320521094950153
 40
1.0
 40
1.0
 40
1.0
 40
1.0
 10
108.2189744829415
 20
141.7698731294495
 30
0.0
 10
108.1942702968726
 20
141.5814450071632
 30
0.0
 10
108.1184539228661
 20
141.0031649961257
 30
0.0
 10
108.1808461619442
 20
140.3363572270515
 30
0.0
 10
108.3993236587872
 20
139.956356320961
 30
0.0
 10
108.4206436772968
 20
139.9192741204205
 30
0.0
  0
SPLINE
  5
81
330
1F
100
AcDbEntity
  8
0
  6
Continuous
 62
     7
370
    25
100
AcDbSpline
210
0.0
220
0.0
230
1.0
 70
     8
 71
     3
 72
     9
 73
     5
 74
     0
 42
0.00000001
 43
0.00000001
 40
0.0
 40
0.0
 40
0.0
 40
0.0
 40
0.3407406637171134
 40
1.0
 40
1.0
 40
1.0
 40
1.0
 10
108.2189744829442
 20
-60.53012687055131
 30
0.0
 10
108.1901410149474
 20
-60.72036930714268
 30
0.0
 10
108.1055210353938
 20
-61.2786896276939
 30
0.0
 10
108.2501071420526
 20
-61.82965293336028
 30
0.0
 10
108.3454268827641
 20
-62.19288063657011
 30
0.0
  0
SPLINE
  5
82
330
1F
100
AcDbEntity
  8
0
  6
Continuous
 62
     7
370
    25
100
AcDbSpline
210
0.0
220
0.0
230
1.0
 70
     8
 71
     3
 72
     9
 73
     5
 74
     0
 42
0.00000001
 43
0.00000001
 40
0.0
 40
0.0
 40
0.0
 40
0.0
 40
0.5011085052128925
 40
1.0
 40
1.0
 40
1.0
 40
1.0
 10
41.4623871741753
 20
141.2000000000006
 30
0.0
 10
41.49727541921222
 20
140.8005945201582
 30
0.0
 10
41.56689755628226
 20
140.0035506151207
 30
0.0
 10
42.01089596310262
 20
139.338061864978
 30
0.0
 10
42.23240299196431
 20
139.0060551876552
 30
0.0
  0
SPLINE
  5
83
330
1F
100
AcDbEntity
  8
0
  6
Continuous
 62
     7
370
    25
100
AcDbSpline
210
0.0
220
0.0
230
1.0
 70
     8
 71
     3
 72
    10
 73
     6
 74
     0
 42
0.00000001
 43
0.00000001
 40
0.0
 40
0.0
 40
0.0
 40
0.0
 40
0.3650175008625059
 40
0.7554075872883902
 40
1.0
 40
1.0
 40
1.0
 40
1.0
 10
42.68910471567344
 20
143.8532372774125
 30
0.0
 10
42.43041292211715
 20
143.5910300606798
 30
0.0
 10
41.89504751317122
 20
143.048389446206
 30
0.0
 10
41.51979275255515
 20
142.0803810893156
 30
0.0
 10
41.47835053184942
 20
141.4448165947447
 30
0.0
 10
41.4623871741753
 20
141.2000000000006
 30
0.0
  0
SPLINE
  5
84
330
1F
100
AcDbEntity
  8
0
  6
Continuous
 62
     7
370
    25
100
AcDbSpline
210
0.0
220
0.0
230
1.0
 70
     8
 71
     3
 72
     9
 73
     5
 74
     0
 42
0.00000001
 43
0.00000001
 40
0.0
 40
0.0
 40
0.0
 40
0.0
 40
0.5011085052130574
 40
1.0
 40
1.0
 40
1.0
 40
1.0
 10
41.46238717417819
 20
-61.0999999999994
 30
0.0
 10
41.49727541921508
 20
-61.49940547984184
 30
0.0
 10
41.56689755628509
 20
-62.29644938487917
 30
0.0
 10
42.01089596310531
 20
-62.96193813502185
 30
0.0
 10
42.2324029919669
 20
-63.29394481234444
 30
0.0
  0
SPLINE
  5
85
330
1F
100
AcDbEntity
  8
0
  6
Continuous
 62
     7
370
    25
100
AcDbSpline
210
0.0
220
0.0
230
1.0
 70
     8
 71
     3
 72
    10
 73
     6
 74
     0
 42
0.00000001
 43
0.00000001
 40
0.0
 40
0.0
 40
0.0
 40
0.0
 40
0.3650175008624162
 40
0.7554075872883002
 40
1.0
 40
1.0
 40
1.0
 40
1.0
 10
42.68910471567617
 20
-58.44676272258759
 30
0.0
 10
42.43041292212005
 20
-58.70896993932033
 30
0.0
 10
41.89504751317444
 20
-59.25161055379412
 30
0.0
 10
41.51979275255796
 20
-60.21961891068421
 30
0.0
 10
41.47835053185229
 20
-60.85518340525521
 30
0.0
 10
41.46238717417819
 20
-61.0999999999994
 30
0.0
  0
LINE
  5
86
330
1F
100
AcDbEntity
  8
0
  6
Continuous
 62
     7
370
    25
100
AcDbLine
 10
0.0
 20
200.0
 30
0.0
 11
0.0
 21
-200.0
 31
0.0
  0
LINE
  5
87
330
1F
100
AcDbEntity
  8
0
  6
Continuous
 62
     7
370
    25
100
AcDbLine
 10
321.8298022907
 20
200.0
 30
0.0
 11
0.0
 21
200.0
 31
0.0
  0
LINE
  5
88
330
1F
100
AcDbEntity
  8
0
  6
Continuous
 62
     7
370
    25
100
AcDbLine
 10
321.8298022907
 20
200.0
 30
0.0
 11
321.8298022907
 21
-200.0
 31
0.0
  0
LINE
  5
89
330
1F
100
AcDbEntity
  8
0
  6
Continuous
 62
     7
370
    25
100
AcDbLine
 10
321.8298022907
 20
-200.0
 30
0.0
 11
0.0
 21
-200.0
 31
0.0
  0
ENDSEC
  0
SECTION
  2
OBJECTS
  0
DICTIONARY
  5
C
330
0
100
AcDbDictionary
281
     1
  3
ACAD_GROUP
350
D
  3
ACAD_LAYOUT
350
1A
  3
ACAD_MLINESTYLE
350
17
  3
ACAD_PLOTSETTINGS
350
19
  3
ACAD_PLOTSTYLENAME
350
E
  3
ACAD_SCALELIST
350
47
  3
DWGPROPS
350
8A
  0
DICTIONARY
  5
D
102
{ACAD_REACTORS
330
C
102
}
330
C
100
AcDbDictionary
281
     1
  0
DICTIONARY
  5
1A
102
{ACAD_REACTORS
330
C
102
}
330
C
100
AcDbDictionary
281
     1
  3
Layout1
350
1E
  3
Layout2
350
26
  3
Model
350
22
  0
DICTIONARY
  5
17
102
{ACAD_REACTORS
330
C
102
}
330
C
100
AcDbDictionary
281
     1
  3
Standard
350
18
  0
DICTIONARY
  5
19
102
{ACAD_REACTORS
330
C
102
}
330
C
100
AcDbDictionary
281
     1
  0
ACDBDICTIONARYWDFLT
  5
E
102
{ACAD_REACTORS
330
C
102
}
330
C
100
AcDbDictionary
281
     1
  3
Normal
350
F
100
AcDbDictionaryWithDefault
340
F
  0
DICTIONARY
  5
47
102
{ACAD_REACTORS
330
C
102
}
330
C
100
AcDbDictionary
281
     1
  3
A0
350
48
  3
A1
350
49
  3
A2
350
4A
  3
A3
350
4B
  3
A4
350
4C
  3
A5
350
4D
  3
A6
350
4E
  3
A7
350
4F
  3
A8
350
50
  3
A9
350
51
  3
B0
350
52
  3
B1
350
53
  3
B2
350
54
  3
B3
350
55
  3
B4
350
56
  3
B5
350
57
  3
B6
350
58
  3
B7
350
59
  3
B8
350
5A
  3
B9
350
5B
  3
C0
350
5C
  3
C1
350
5D
  3
C2
350
5E
  3
C3
350
5F
  3
C4
350
60
  3
C5
350
61
  3
C6
350
62
  3
C7
350
63
  3
C8
350
64
  3
C9
350
65
  3
D0
350
66
  3
D1
350
67
  3
D2
350
68
  0
XRECORD
  5
8A
102
{ACAD_REACTORS
330
C
102
}
330
C
100
AcDbXrecord
280
     1
  1
DWGPROPS COOKIE
  2

  3

  4

  6

  7

  8
vip
  9

300
=
301
=
302
=
303
=
304
=
305
=
306
=
307
=
308
=
309
=
 40
0.0
 41
2459671.352740046
 42
2459671.352809375
  1

 90
        0
  0
LAYOUT
  5
1E
102
{ACAD_REACTORS
330
1A
102
}
330
1A
100
AcDbPlotSettings
  1

  2
none_device
  4

  6

 40
0.0
 41
0.0
 42
0.0
 43
0.0
 44
0.0
 45
0.0
 46
0.0
 47
0.0
 48
0.0
 49
0.0
140
0.0
141
0.0
142
1.0
143
1.0
 70
   688
 72
     1
 73
     0
 74
     5
  7

 75
    16
147
1.0
148
0.0
149
0.0
100
AcDbLayout
  1
Layout1
 70
     1
 71
     1
 10
0.0
 20
0.0
 11
420.0
 21
297.0
 12
0.0
 22
0.0
 32
0.0
 14
1.0000000000E+20
 24
1.0000000000E+20
 34
1.0000000000E+20
 15
-1.0000000000E+20
 25
-1.0000000000E+20
 35
-1.0000000000E+20
146
0.0
 13
0.0
 23
0.0
 33
0.0
 16
1.0
 26
0.0
 36
0.0
 17
0.0
 27
1.0
 37
0.0
 76
     0
330
1B
  0
LAYOUT
  5
26
102
{ACAD_REACTORS
330
1A
102
}
330
1A
100
AcDbPlotSettings
  1

  2
none_device
  4

  6

 40
0.0
 41
0.0
 42
0.0
 43
0.0
 44
0.0
 45
0.0
 46
0.0
 47
0.0
 48
0.0
 49
0.0
140
0.0
141
0.0
142
1.0
143
1.0
 70
   688
 72
     1
 73
     0
 74
     5
  7

 75
    16
147
1.0
148
0.0
149
0.0
100
AcDbLayout
  1
Layout2
 70
     1
 71
     2
 10
0.0
 20
0.0
 11
0.0
 21
0.0
 12
0.0
 22
0.0
 32
0.0
 14
0.0
 24
0.0
 34
0.0
 15
0.0
 25
0.0
 35
0.0
146
0.0
 13
0.0
 23
0.0
 33
0.0
 16
1.0
 26
0.0
 36
0.0
 17
0.0
 27
1.0
 37
0.0
 76
     0
330
23
  0
LAYOUT
  5
22
102
{ACAD_REACTORS
330
1A
102
}
330
1A
100
AcDbPlotSettings
  1

  2
none_device
  4
ANSI_A_(11.00_x_8.50_Inches)
  6

 40
6.35
 41
19.05
 42
6.35000508
 43
19.05000254
 44
279.4
 45
215.9
 46
47.3647177457
 47
88.89999873
 48
0.0
 49
0.0
140
0.0
141
0.0
142
0.0210375
143
1.0
 70
  1696
 72
     0
 73
     0
 74
     0
  7

 75
     0
147
0.0179189148
148
-1300.4909072572
149
0.0
100
AcDbLayout
  1
Model
 70
     1
 71
     0
 10
0.0
 20
0.0
 11
420.0
 21
297.0
 12
0.0
 22
0.0
 32
0.0
 14
0.0
 24
-200.0
 34
0.0
 15
321.8298022907
 25
200.0
 35
0.0
146
0.0
 13
0.0
 23
0.0
 33
0.0
 16
1.0
 26
0.0
 36
0.0
 17
0.0
 27
1.0
 37
0.0
 76
     0
330
1F
331
29
  0
MLINESTYLE
  5
18
102
{ACAD_REACTORS
330
17
102
}
330
17
100
AcDbMlineStyle
  2
Standard
 70
     0
  3

 62
   256
 51
90.0
 52
90.0
 71
     2
 49
0.5
 62
   256
  6
BYLAYER
 49
-0.5
 62
   256
  6
BYLAYER
  0
ACDBPLACEHOLDER
  5
F
102
{ACAD_REACTORS
330
E
102
}
330
E
  0
SCALE
  5
48
102
{ACAD_REACTORS
330
47
102
}
330
47
100
AcDbScale
 70
     0
300
1:1
140
1.0
141
1.0
290
     1
  0
SCALE
  5
49
102
{ACAD_REACTORS
330
47
102
}
330
47
100
AcDbScale
 70
     0
300
1:2
140
1.0
141
2.0
290
     0
  0
SCALE
  5
4A
102
{ACAD_REACTORS
330
47
102
}
330
47
100
AcDbScale
 70
     0
300
1:4
140
1.0
141
4.0
290
     0
  0
SCALE
  5
4B
102
{ACAD_REACTORS
330
47
102
}
330
47
100
AcDbScale
 70
     0
300
1:5
140
1.0
141
5.0
290
     0
  0
SCALE
  5
4C
102
{ACAD_REACTORS
330
47
102
}
330
47
100
AcDbScale
 70
     0
300
1:8
140
1.0
141
8.0
290
     0
  0
SCALE
  5
4D
102
{ACAD_REACTORS
330
47
102
}
330
47
100
AcDbScale
 70
     0
300
1:10
140
1.0
141
10.0
290
     0
  0
SCALE
  5
4E
102
{ACAD_REACTORS
330
47
102
}
330
47
100
AcDbScale
 70
     0
300
1:16
140
1.0
141
16.0
290
     0
  0
SCALE
  5
4F
102
{ACAD_REACTORS
330
47
102
}
330
47
100
AcDbScale
 70
     0
300
1:20
140
1.0
141
20.0
290
     0
  0
SCALE
  5
50
102
{ACAD_REACTORS
330
47
102
}
330
47
100
AcDbScale
 70
     0
300
1:30
140
1.0
141
30.0
290
     0
  0
SCALE
  5
51
102
{ACAD_REACTORS
330
47
102
}
330
47
100
AcDbScale
 70
     0
300
1:40
140
1.0
141
40.0
290
     0
  0
SCALE
  5
52
102
{ACAD_REACTORS
330
47
102
}
330
47
100
AcDbScale
 70
     0
300
1:50
140
1.0
141
50.0
290
     0
  0
SCALE
  5
53
102
{ACAD_REACTORS
330
47
102
}
330
47
100
AcDbScale
 70
     0
300
1:100
140
1.0
141
100.0
290
     0
  0
SCALE
  5
54
102
{ACAD_REACTORS
330
47
102
}
330
47
100
AcDbScale
 70
     0
300
2:1
140
2.0
141
1.0
290
     0
  0
SCALE
  5
55
102
{ACAD_REACTORS
330
47
102
}
330
47
100
AcDbScale
 70
     0
300
4:1
140
4.0
141
1.0
290
     0
  0
SCALE
  5
56
102
{ACAD_REACTORS
330
47
102
}
330
47
100
AcDbScale
 70
     0
300
8:1
140
8.0
141
1.0
290
     0
  0
SCALE
  5
57
102
{ACAD_REACTORS
330
47
102
}
330
47
100
AcDbScale
 70
     0
300
10:1
140
10.0
141
1.0
290
     0
  0
SCALE
  5
58
102
{ACAD_REACTORS
330
47
102
}
330
47
100
AcDbScale
 70
     0
300
100:1
140
100.0
141
1.0
290
     0
  0
SCALE
  5
59
102
{ACAD_REACTORS
330
47
102
}
330
47
100
AcDbScale
 70
     0
300
1/128" = 1'-0"
140
0.0078125
141
12.0
290
     0
  0
SCALE
  5
5A
102
{ACAD_REACTORS
330
47
102
}
330
47
100
AcDbScale
 70
     0
300
1/64" = 1'-0"
140
0.015625
141
12.0
290
     0
  0
SCALE
  5
5B
102
{ACAD_REACTORS
330
47
102
}
330
47
100
AcDbScale
 70
     0
300
1/32" = 1'-0"
140
0.03125
141
12.0
290
     0
  0
SCALE
  5
5C
102
{ACAD_REACTORS
330
47
102
}
330
47
100
AcDbScale
 70
     0
300
1/16" = 1'-0"
140
0.0625
141
12.0
290
     0
  0
SCALE
  5
5D
102
{ACAD_REACTORS
330
47
102
}
330
47
100
AcDbScale
 70
     0
300
3/32" = 1'-0"
140
0.09375
141
12.0
290
     0
  0
SCALE
  5
5E
102
{ACAD_REACTORS
330
47
102
}
330
47
100
AcDbScale
 70
     0
300
1/8" = 1'-0"
140
0.125
141
12.0
290
     0
  0
SCALE
  5
5F
102
{ACAD_REACTORS
330
47
102
}
330
47
100
AcDbScale
 70
     0
300
3/16" = 1'-0"
140
0.1875
141
12.0
290
     0
  0
SCALE
  5
60
102
{ACAD_REACTORS
330
47
102
}
330
47
100
AcDbScale
 70
     0
300
1/4" = 1'-0"
140
0.25
141
12.0
290
     0
  0
SCALE
  5
61
102
{ACAD_REACTORS
330
47
102
}
330
47
100
AcDbScale
 70
     0
300
3/8" = 1'-0"
140
0.375
141
12.0
290
     0
  0
SCALE
  5
62
102
{ACAD_REACTORS
330
47
102
}
330
47
100
AcDbScale
 70
     0
300
1/2" = 1'-0"
140
0.5
141
12.0
290
     0
  0
SCALE
  5
63
102
{ACAD_REACTORS
330
47
102
}
330
47
100
AcDbScale
 70
     0
300
3/4" = 1'-0"
140
0.75
141
12.0
290
     0
  0
SCALE
  5
64
102
{ACAD_REACTORS
330
47
102
}
330
47
100
AcDbScale
 70
     0
300
1" = 1'-0"
140
1.0
141
12.0
290
     0
  0
SCALE
  5
65
102
{ACAD_REACTORS
330
47
102
}
330
47
100
AcDbScale
 70
     0
300
1-1/2" = 1'-0"
140
1.5
141
12.0
290
     0
  0
SCALE
  5
66
102
{ACAD_REACTORS
330
47
102
}
330
47
100
AcDbScale
 70
     0
300
3" = 1'-0"
140
3.0
141
12.0
290
     0
  0
SCALE
  5
67
102
{ACAD_REACTORS
330
47
102
}
330
47
100
AcDbScale
 70
     0
300
6" = 1'-0"
140
6.0
141
12.0
290
     0
  0
SCALE
  5
68
102
{ACAD_REACTORS
330
47
102
}
330
47
100
AcDbScale
 70
     0
300
1'-0" = 1'-0"
140
12.0
141
12.0
290
     0
  0
ENDSEC
  0
EOF
