  0
SECTION
  2
HEADER
  9
$ACADVER
  1
AC1015
  9
$ACADMAINTVER
 70
     6
  9
$DWGCODEPAGE
  3
ANSI_1251
  9
$INSBASE
 10
0.0
 20
0.0
 30
0.0
  9
$EXTMIN
 10
0.0
 20
-105.0
 30
0.0
  9
$EXTMAX
 10
997.2505116072
 20
105.0
 30
0.0
  9
$LIMMIN
 10
0.0
 20
0.0
  9
$LIMMAX
 10
420.0
 20
297.0
  9
$ORTHOMODE
 70
     0
  9
$REGENMODE
 70
     1
  9
$FILLMODE
 70
     1
  9
$QTEXTMODE
 70
     0
  9
$MIRRTEXT
 70
     1
  9
$LTSCALE
 40
1.0
  9
$ATTMODE
 70
     1
  9
$TEXTSIZE
 40
4.0
  9
$TRACEWID
 40
1.0
  9
$TEXTSTYLE
  7
Standard
  9
$CLAYER
  8
0
  9
$CELTYPE
  6
ByLayer
  9
$CECOLOR
 62
   256
  9
$CELTSCALE
 40
1.0
  9
$DISPSILH
 70
     0
  9
$DIMSCALE
 40
1.0
  9
$DIMASZ
 40
6.0
  9
$DIMEXO
 40
0.0
  9
$DIMDLI
 40
3.75
  9
$DIMRND
 40
0.0
  9
$DIMDLE
 40
0.0
  9
$DIMEXE
 40
1.0
  9
$DIMTP
 40
0.0
  9
$DIMTM
 40
0.0
  9
$DIMTXT
 40
4.0
  9
$DIMCEN
 40
2.5
  9
$DIMTSZ
 40
0.0
  9
$DIMTOL
 70
     0
  9
$DIMLIM
 70
     0
  9
$DIMTIH
 70
     1
  9
$DIMTOH
 70
     1
  9
$DIMSE1
 70
     0
  9
$DIMSE2
 70
     0
  9
$DIMTAD
 70
     1
  9
$DIMZIN
 70
     0
  9
$DIMBLK
  1

  9
$DIMASO
 70
     1
  9
$DIMSHO
 70
     1
  9
$DIMPOST
  1

  9
$DIMAPOST
  1

  9
$DIMALT
 70
     0
  9
$DIMALTD
 70
     3
  9
$DIMALTF
 40
0.0393700787
  9
$DIMLFAC
 40
1.0
  9
$DIMTOFL
 70
     1
  9
$DIMTVP
 40
0.0
  9
$DIMTIX
 70
     0
  9
$DIMSOXD
 70
     0
  9
$DIMSAH
 70
     0
  9
$DIMBLK1
  1

  9
$DIMBLK2
  1

  9
$DIMSTYLE
  2
ISO-25
  9
$DIMCLRD
 70
     0
  9
$DIMCLRE
 70
     0
  9
$DIMCLRT
 70
     0
  9
$DIMTFAC
 40
1.0
  9
$DIMGAP
 40
3.0
  9
$DIMJUST
 70
     0
  9
$DIMSD1
 70
     0
  9
$DIMSD2
 70
     0
  9
$DIMTOLJ
 70
     0
  9
$DIMTZIN
 70
     0
  9
$DIMALTZ
 70
     0
  9
$DIMALTTZ
 70
     0
  9
$DIMUPT
 70
     0
  9
$DIMDEC
 70
     2
  9
$DIMTDEC
 70
     4
  9
$DIMALTU
 70
     2
  9
$DIMALTTD
 70
     3
  9
$DIMTXSTY
  7
Standard
  9
$DIMAUNIT
 70
     0
  9
$DIMADEC
 70
     2
  9
$DIMALTRND
 40
0.0
  9
$DIMAZIN
 70
     0
  9
$DIMDSEP
 70
    44
  9
$DIMATFIT
 70
     3
  9
$DIMFRAC
 70
     0
  9
$DIMLDRBLK
  1

  9
$DIMLUNIT
 70
     2
  9
$DIMLWD
 70
    -2
  9
$DIMLWE
 70
    -2
  9
$DIMTMOVE
 70
     0
  9
$LUNITS
 70
     2
  9
$LUPREC
 70
     2
  9
$SKETCHINC
 40
1.0
  9
$FILLETRAD
 40
10.0
  9
$AUNITS
 70
     0
  9
$AUPREC
 70
     2
  9
$MENU
  1
.
  9
$ELEVATION
 40
0.0
  9
$PELEVATION
 40
0.0
  9
$THICKNESS
 40
0.0
  9
$LIMCHECK
 70
     0
  9
$CHAMFERA
 40
0.0
  9
$CHAMFERB
 40
0.0
  9
$CHAMFERC
 40
0.0
  9
$CHAMFERD
 40
0.0
  9
$SKPOLY
 70
     0
  9
$TDCREATE
 40
2460056.426313484
  9
$TDUCREATE
 40
2460056.301313484
  9
$TDUPDATE
 40
2460056.426369352
  9
$TDUUPDATE
 40
2460056.301369352
  9
$TDINDWG
 40
0.0000000116
  9
$TDUSRTIMER
 40
0.0000000116
  9
$USRTIMER
 70
     1
  9
$ANGBASE
 50
0.0
  9
$ANGDIR
 70
     0
  9
$PDMODE
 70
     0
  9
$PDSIZE
 40
-1.0
  9
$PLINEWID
 40
0.0
  9
$SPLFRAME
 70
     0
  9
$SPLINETYPE
 70
     6
  9
$SPLINESEGS
 70
     8
  9
$HANDSEED
  5
84
  9
$SURFTAB1
 70
     6
  9
$SURFTAB2
 70
     6
  9
$SURFTYPE
 70
     6
  9
$SURFU
 70
     6
  9
$SURFV
 70
     6
  9
$UCSBASE
  2

  9
$UCSNAME
  2

  9
$UCSORG
 10
0.0
 20
0.0
 30
0.0
  9
$UCSXDIR
 10
1.0
 20
0.0
 30
0.0
  9
$UCSYDIR
 10
0.0
 20
1.0
 30
0.0
  9
$UCSORTHOREF
  2

  9
$UCSORTHOVIEW
 70
     0
  9
$UCSORGTOP
 10
0.0
 20
0.0
 30
0.0
  9
$UCSORGBOTTOM
 10
0.0
 20
0.0
 30
0.0
  9
$UCSORGLEFT
 10
0.0
 20
0.0
 30
0.0
  9
$UCSORGRIGHT
 10
0.0
 20
0.0
 30
0.0
  9
$UCSORGFRONT
 10
0.0
 20
0.0
 30
0.0
  9
$UCSORGBACK
 10
0.0
 20
0.0
 30
0.0
  9
$PUCSBASE
  2

  9
$PUCSNAME
  2

  9
$PUCSORG
 10
0.0
 20
0.0
 30
0.0
  9
$PUCSXDIR
 10
1.0
 20
0.0
 30
0.0
  9
$PUCSYDIR
 10
0.0
 20
1.0
 30
0.0
  9
$PUCSORTHOREF
  2

  9
$PUCSORTHOVIEW
 70
     0
  9
$PUCSORGTOP
 10
0.0
 20
0.0
 30
0.0
  9
$PUCSORGBOTTOM
 10
0.0
 20
0.0
 30
0.0
  9
$PUCSORGLEFT
 10
0.0
 20
0.0
 30
0.0
  9
$PUCSORGRIGHT
 10
0.0
 20
0.0
 30
0.0
  9
$PUCSORGFRONT
 10
0.0
 20
0.0
 30
0.0
  9
$PUCSORGBACK
 10
0.0
 20
0.0
 30
0.0
  9
$USERI1
 70
     0
  9
$USERI2
 70
     0
  9
$USERI3
 70
     0
  9
$USERI4
 70
     0
  9
$USERI5
 70
     0
  9
$USERR1
 40
0.0
  9
$USERR2
 40
0.0
  9
$USERR3
 40
0.0
  9
$USERR4
 40
0.0
  9
$USERR5
 40
0.0
  9
$WORLDVIEW
 70
     1
  9
$SHADEDGE
 70
     3
  9
$SHADEDIF
 70
    70
  9
$TILEMODE
 70
     1
  9
$MAXACTVP
 70
    64
  9
$PINSBASE
 10
0.0
 20
0.0
 30
0.0
  9
$PLIMCHECK
 70
     0
  9
$PEXTMIN
 10
1.0000000000E+20
 20
1.0000000000E+20
 30
1.0000000000E+20
  9
$PEXTMAX
 10
-1.0000000000E+20
 20
-1.0000000000E+20
 30
-1.0000000000E+20
  9
$PLIMMIN
 10
0.0
 20
0.0
  9
$PLIMMAX
 10
420.0
 20
297.0
  9
$UNITMODE
 70
     0
  9
$VISRETAIN
 70
     1
  9
$PLINEGEN
 70
     0
  9
$PSLTSCALE
 70
     1
  9
$TREEDEPTH
 70
  3020
  9
$CMLSTYLE
  2
Standard
  9
$CMLJUST
 70
     0
  9
$CMLSCALE
 40
20.0
  9
$PROXYGRAPHICS
 70
     1
  9
$MEASUREMENT
 70
     1
  9
$CELWEIGHT
370
    -1
  9
$ENDCAPS
280
     0
  9
$JOINSTYLE
280
     0
  9
$LWDISPLAY
290
     1
  9
$INSUNITS
 70
     4
  9
$HYPERLINKBASE
  1

  9
$STYLESHEET
  1

  9
$XEDIT
290
     1
  9
$CEPSNTYPE
380
     0
  9
$PSTYLEMODE
290
     1
  9
$FINGERPRINTGUID
  2
{44d163d5-8d1b-49fc-9540-8b5ccb6d9c49}
  9
$VERSIONGUID
  2
{FAEB1C32-E019-11D5-929B-00C0DF256EC4}
  9
$EXTNAMES
290
     1
  9
$PSVPSCALE
 40
0.0
  9
$OLESTARTUP
290
     0
  0
ENDSEC
  0
SECTION
  2
CLASSES
  0
CLASS
  1
ACDBDICTIONARYWDFLT
  2
AcDbDictionaryWithDefault
  3
ObjectDBX Classes
 90
        0
280
     0
281
     0
  0
CLASS
  1
VISUALSTYLE
  2
AcDbVisualStyle
  3
ObjectDBX Classes
 90
     4095
280
     0
281
     0
  0
CLASS
  1
MATERIAL
  2
AcDbMaterial
  3
ObjectDBX Classes
 90
     1153
280
     0
281
     0
  0
CLASS
  1
SCALE
  2
AcDbScale
  3
ObjectDBX Classes
 90
     1153
280
     0
281
     0
  0
CLASS
  1
TABLESTYLE
  2
AcDbTableStyle
  3
ObjectDBX Classes
 90
     4095
280
     0
281
     0
  0
CLASS
  1
MLEADERSTYLE
  2
AcDbMLeaderStyle
  3
ACDB_MLEADERSTYLE_CLASS
 90
     4095
280
     0
281
     0
  0
CLASS
  1
SUN
  2
AcDbSun
  3
SCENEOE
 90
     1153
280
     0
281
     0
  0
CLASS
  1
ACDBPLACEHOLDER
  2
AcDbPlaceHolder
  3
ObjectDBX Classes
 90
        0
280
     0
281
     0
  0
CLASS
  1
LAYOUT
  2
AcDbLayout
  3
ObjectDBX Classes
 90
        0
280
     0
281
     0
  0
ENDSEC
  0
SECTION
  2
TABLES
  0
TABLE
  2
VPORT
  5
8
330
0
100
AcDbSymbolTable
 70
     1
  0
VPORT
  5
29
330
8
100
AcDbSymbolTableRecord
100
AcDbViewportTableRecord
  2
*Active
 70
     0
 10
0.0
 20
0.0
 11
1.0
 21
1.0
 12
498.6252558036
 22
0.0
 13
0.0
 23
0.0
 14
10.0
 24
10.0
 15
10.0
 25
10.0
 16
0.0
 26
0.0
 36
1.0
 17
0.0
 27
0.0
 37
0.0
 40
214.2
 41
4.74881196
 42
50.0
 43
0.0
 44
0.0
 50
0.0
 51
0.0
 71
     0
 72
   100
 73
     1
 74
     3
 75
     0
 76
     0
 77
     0
 78
     0
281
     0
 65
     1
110
0.0
120
0.0
130
0.0
111
1.0
121
0.0
131
0.0
112
0.0
122
1.0
132
0.0
 79
     0
146
0.0
  0
ENDTAB
  0
TABLE
  2
LTYPE
  5
5
330
0
100
AcDbSymbolTable
 70
     6
  0
LTYPE
  5
14
330
5
100
AcDbSymbolTableRecord
100
AcDbLinetypeTableRecord
  2
ByBlock
 70
     0
  3

 72
    65
 73
     0
 40
0.0
  0
LTYPE
  5
15
330
5
100
AcDbSymbolTableRecord
100
AcDbLinetypeTableRecord
  2
ByLayer
 70
     0
  3

 72
    65
 73
     0
 40
0.0
  0
LTYPE
  5
16
330
5
100
AcDbSymbolTableRecord
100
AcDbLinetypeTableRecord
  2
Continuous
 70
     0
  3
Solid line
 72
    65
 73
     0
 40
0.0
  0
LTYPE
  5
6E
330
5
100
AcDbSymbolTableRecord
100
AcDbLinetypeTableRecord
  2
HIDDEN
 70
     0
  3
Hidden __ __ __ __ __ __ __ __ __ __ __ __ __ __
 72
    65
 73
     2
 40
1.905
 49
1.27
 74
     0
 49
-0.635
 74
     0
  0
LTYPE
  5
6F
330
5
100
AcDbSymbolTableRecord
100
AcDbLinetypeTableRecord
  2
PHANTOM
 70
     0
  3
Phantom ______  __  __  ______  __  __  ______
 72
    65
 73
     6
 40
12.7
 49
6.35
 74
     0
 49
-1.27
 74
     0
 49
1.27
 74
     0
 49
-1.27
 74
     0
 49
1.27
 74
     0
 49
-1.27
 74
     0
  0
LTYPE
  5
70
330
5
100
AcDbSymbolTableRecord
100
AcDbLinetypeTableRecord
  2
CENTER
 70
     0
  3
Center ____ _ ____ _ ____ _ ____ _ ____ _ ____
 72
    65
 73
     4
 40
10.16
 49
6.35
 74
     0
 49
-1.27
 74
     0
 49
1.27
 74
     0
 49
-1.27
 74
     0
  0
LTYPE
  5
71
330
5
100
AcDbSymbolTableRecord
100
AcDbLinetypeTableRecord
  2
CENTERX2
 70
     0
  3
Center (2x) ________  __  ________  __  _____
 72
    65
 73
     4
 40
20.32
 49
12.7
 74
     0
 49
-2.54
 74
     0
 49
2.54
 74
     0
 49
-2.54
 74
     0
  0
LTYPE
  5
72
330
5
100
AcDbSymbolTableRecord
100
AcDbLinetypeTableRecord
  2
DOT2
 70
     0
  3
Dot (.5x) ........................................
 72
    65
 73
     2
 40
0.635
 49
0.0
 74
     0
 49
-0.635
 74
     0
  0
ENDTAB
  0
TABLE
  2
LAYER
  5
2
330
0
100
AcDbSymbolTable
 70
     1
  0
LAYER
  5
10
330
2
100
AcDbSymbolTableRecord
100
AcDbLayerTableRecord
  2
0
 70
     0
 62
     7
  6
Continuous
370
    -3
390
F
  0
ENDTAB
  0
TABLE
  2
STYLE
  5
3
330
0
100
AcDbSymbolTable
 70
     1
  0
STYLE
  5
11
330
3
100
AcDbSymbolTableRecord
100
AcDbTextStyleTableRecord
  2
Standard
 70
     0
 40
0.0
 41
1.0
 50
0.0
 71
     0
 42
4.0
  3
txt
  4

  0
ENDTAB
  0
TABLE
  2
VIEW
  5
6
330
0
100
AcDbSymbolTable
 70
     0
  0
ENDTAB
  0
TABLE
  2
UCS
  5
7
330
0
100
AcDbSymbolTable
 70
     0
  0
ENDTAB
  0
TABLE
  2
APPID
  5
9
330
0
100
AcDbSymbolTable
 70
     1
  0
APPID
  5
12
330
9
100
AcDbSymbolTableRecord
100
AcDbRegAppTableRecord
  2
ACAD
 70
     0
  0
ENDTAB
  0
TABLE
  2
DIMSTYLE
  5
A
330
0
100
AcDbSymbolTable
 70
     1
100
AcDbDimStyleTable
  0
DIMSTYLE
105
27
330
A
100
AcDbSymbolTableRecord
100
AcDbDimStyleTableRecord
  2
ISO-25
 70
     0
 41
2.5
 42
0.625
 43
3.75
 44
1.25
 73
     0
 74
     0
 77
     1
 78
     8
140
2.5
141
2.5
143
0.0393700787
147
0.625
171
     3
172
     1
178
     0
271
     2
272
     2
274
     3
278
    44
283
     0
284
     8
340
11
  0
ENDTAB
  0
TABLE
  2
BLOCK_RECORD
  5
1
330
0
100
AcDbSymbolTable
 70
     1
  0
BLOCK_RECORD
  5
1F
330
1
100
AcDbSymbolTableRecord
100
AcDbBlockTableRecord
  2
*Model_Space
340
22
  0
BLOCK_RECORD
  5
1B
330
1
100
AcDbSymbolTableRecord
100
AcDbBlockTableRecord
  2
*Paper_Space
340
1E
  0
BLOCK_RECORD
  5
23
330
1
100
AcDbSymbolTableRecord
100
AcDbBlockTableRecord
  2
*Paper_Space0
340
26
  0
ENDTAB
  0
ENDSEC
  0
SECTION
  2
BLOCKS
  0
BLOCK
  5
20
330
1F
100
AcDbEntity
  8
0
100
AcDbBlockBegin
  2
*Model_Space
 70
     0
 10
0.0
 20
0.0
 30
0.0
  3
*Model_Space
  1

  0
ENDBLK
  5
21
330
1F
100
AcDbEntity
  8
0
100
AcDbBlockEnd
  0
BLOCK
  5
1C
330
1B
100
AcDbEntity
 67
     1
  8
0
100
AcDbBlockBegin
  2
*Paper_Space
 70
     0
 10
0.0
 20
0.0
 30
0.0
  3
*Paper_Space
  1

  0
ENDBLK
  5
1D
330
1B
100
AcDbEntity
 67
     1
  8
0
100
AcDbBlockEnd
  0
BLOCK
  5
24
330
23
100
AcDbEntity
  8
0
100
AcDbBlockBegin
  2
*Paper_Space0
 70
     0
 10
0.0
 20
0.0
 30
0.0
  3
*Paper_Space0
  1

  0
ENDBLK
  5
25
330
23
100
AcDbEntity
  8
0
100
AcDbBlockEnd
  0
ENDSEC
  0
SECTION
  2
ENTITIES
  0
SPLINE
  5
73
330
1F
100
AcDbEntity
  8
0
  6
Continuous
 62
     7
370
    25
100
AcDbSpline
210
0.0
220
0.0
230
1.0
 70
    11
 71
     3
 72
    39
 73
    35
 74
     0
 42
0.00000001
 43
0.00000001
 40
0.0
 40
0.0
 40
0.0
 40
0.0
 40
0.0312463762290282
 40
0.0625005059387237
 40
0.0937501010137666
 40
0.1250009625116213
 40
0.1562581962488478
 40
0.187500886735316
 40
0.218753382411132
 40
0.2499999879485279
 40
0.2812351238923628
 40
0.3124992007324003
 40
0.3437271539302041
 40
0.3749991304899618
 40
0.4062364708049019
 40
0.4374996133648725
 40
0.46874285449805
 40
0.4999999799533053
 40
0.5312406441953935
 40
0.562500398991408
 40
0.5937449614456645
 40
0.6250008331982463
 40
0.6562536616571018
 40
0.687500724450671
 40
0.7187507406565866
 40
0.7499999710023796
 40
0.7812413972257957
 40
0.8124992517345064
 40
0.8437357083603669
 40
0.8749990196057315
 40
0.9062353256586652
 40
0.937499384136275
 40
0.968742472894847
 40
1.0
 40
1.0
 40
1.0
 40
1.0
 10
247.1460406104931
 20
-83.9999994229577
 30
0.0
 10
246.5561014227039
 20
-84.00018852119432
 30
0.0
 10
245.3760477582569
 20
-83.88803922595741
 30
0.0
 10
243.6753292673048
 20
-83.3693453445047
 30
0.0
 10
242.103291477454
 20
-82.53836366709861
 30
0.0
 10
240.729322232176
 20
-81.40952141729531
 30
0.0
 10
239.5940462632061
 20
-80.04097029349572
 30
0.0
 10
238.756607262497
 20
-78.4723041309126
 30
0.0
 10
238.2327352777367
 20
-76.77317697933354
 30
0.0
 10
238.0618676322552
 20
-75.0034617537055
 30
0.0
 10
238.2314875116617
 20
-73.23342795899812
 30
0.0
 10
238.7539154988505
 20
-71.53413586144808
 30
0.0
 10
239.590259732043
 20
-69.96464661753181
 30
0.0
 10
240.724354638086
 20
-68.59543236714622
 30
0.0
 10
242.0976669907165
 20
-67.46537147151172
 30
0.0
 10
243.6689153508249
 20
-66.63330977339015
 30
0.0
 10
245.3694595723359
 20
-66.11322827396887
 30
0.0
 10
247.1392570721883
 20
-65.94370503943837
 30
0.0
 10
248.9094658515181
 20
-66.11195673970239
 30
0.0
 10
250.6101039697121
 20
-66.63058111218118
 30
0.0
 10
252.1822569455656
 20
-67.46156718609112
 30
0.0
 10
253.5561705366788
 20
-68.5903534147516
 30
0.0
 10
254.6915247381218
 20
-69.95895706433059
 30
0.0
 10
255.5289535434104
 20
-71.52757442692136
 30
0.0
 10
256.0529238752125
 20
-73.22676533076782
 30
0.0
 10
256.2237284368209
 20
-74.99660411879916
 30
0.0
 10
256.0542409128983
 20
-76.76670838724044
 30
0.0
 10
255.531593548517
 20
-78.4661139830399
 30
0.0
 10
254.6952041896984
 20
-80.03542980018173
 30
0.0
 10
253.5611926567422
 20
-81.40468118323051
 30
0.0
 10
252.1879233344657
 20
-82.53453906643924
 30
0.0
 10
250.6167368737786
 20
-83.36667326503981
 30
0.0
 10
248.9161882564971
 20
-83.88686411892355
 30
0.0
 10
247.7361903295374
 20
-83.9998102572377
 30
0.0
 10
247.1460406104931
 20
-83.9999994229577
 30
0.0
  0
SPLINE
  5
74
330
1F
100
AcDbEntity
  8
0
  6
Continuous
 62
     7
370
    25
100
AcDbSpline
210
0.0
220
0.0
230
1.0
 70
    11
 71
     3
 72
    35
 73
    31
 74
     0
 42
0.00000001
 43
0.00000001
 40
0.0
 40
0.0
 40
0.0
 40
0.0
 40
0.0624973208265613
 40
0.0625028509283433
 40
0.1249963880079641
 40
0.1250042113237122
 40
0.1874973959841793
 40
0.1875029317343011
 40
0.249999717386852
 40
0.3124966175938922
 40
0.3125021512014423
 40
0.3749955372823478
 40
0.3750033597444846
 40
0.4374969323949335
 40
0.4375024635958729
 40
0.4999998560615675
 40
0.5624972598269649
 40
0.5625027925883659
 40
0.6249963922833789
 40
0.6250042159484248
 40
0.6874976136589281
 40
0.6875031491758681
 40
0.7500000320402679
 40
0.8124967964262015
 40
0.8125023307549281
 40
0.8749955090521209
 40
0.8750033306069793
 40
0.9374968760967806
 40
0.9375024039656404
 40
1.0
 40
1.0
 40
1.0
 40
1.0
 10
208.9443074392477
 20
-18.79999999999716
 30
0.0
 10
208.9443074342968
 20
-18.34140854050571
 30
0.0
 10
209.0358715775847
 20
-17.88277653109625
 30
0.0
 10
209.3878736522882
 20
-17.03582447477455
 30
0.0
 10
209.6483477571853
 20
-16.64741670211452
 30
0.0
 10
210.2979497151037
 20
-15.99996891098384
 30
0.0
 10
210.6871713023132
 20
-15.74083276722391
 30
0.0
 10
211.5349104644976
 20
-15.39085677356508
 30
0.0
 10
212.4520802046527
 20
-15.20910967754697
 30
0.0
 10
213.3692244108811
 20
-15.39094007695726
 30
0.0
 10
214.216952757155
 20
-15.74094465503363
 30
0.0
 10
214.6061753485758
 20
-16.00006778928513
 30
0.0
 10
215.2558218276889
 20
-16.64747188862566
 30
0.0
 10
215.5163397870438
 20
-17.0358486253416
 30
0.0
 10
215.8684173316154
 20
-17.88277082683764
 30
0.0
 10
216.0516005743515
 20
-18.79999678610485
 30
0.0
 10
215.8684190133337
 20
-19.71722310492928
 30
0.0
 10
215.5163428601152
 20
-20.56414620690075
 30
0.0
 10
215.2558254176206
 20
-20.95252357533439
 30
0.0
 10
214.6061797426993
 20
-21.59992890341859
 30
0.0
 10
214.2169574464308
 20
-21.85905269018702
 30
0.0
 10
213.3692296410781
 20
-22.20905850489546
 30
0.0
 10
212.4520859948643
 20
-22.39089024042066
 30
0.0
 10
211.5349162660851
 20
-22.20914472052132
 30
0.0
 10
210.6871767007801
 20
-21.85917027288759
 30
0.0
 10
210.2979547214573
 20
-21.60003485433336
 30
0.0
 10
209.6483515854061
 20
-20.95258824814097
 30
0.0
 10
209.3878767512153
 20
-20.56418093317169
 30
0.0
 10
209.0358724004918
 20
-19.7172275488223
 30
0.0
 10
208.9443074441985
 20
-19.25859347890232
 30
0.0
 10
208.9443074392477
 20
-18.79999999999716
 30
0.0
  0
SPLINE
  5
75
330
1F
100
AcDbEntity
  8
0
  6
Continuous
 62
     7
370
    25
100
AcDbSpline
210
0.0
220
0.0
230
1.0
 70
    11
 71
     3
 72
    35
 73
    31
 74
     0
 42
0.00000001
 43
0.00000001
 40
0.0
 40
0.0
 40
0.0
 40
0.0
 40
0.0624963738447448
 40
0.0625018906529134
 40
0.1249951736466759
 40
0.1250029690672346
 40
0.1874966209491661
 40
0.1875021298503652
 40
0.249999736043483
 40
0.3124971300496832
 40
0.3125026357002874
 40
0.3749962941742185
 40
0.3750040834633745
 40
0.4374973608286772
 40
0.4375028720807903
 40
0.4999997324880491
 40
0.5624966211824592
 40
0.5625021347704443
 40
0.6249954139632792
 40
0.6250032136294711
 40
0.6874965437825773
 40
0.6875020534151518
 40
0.7499997357594627
 40
0.812497378580771
 40
0.8125028842403791
 40
0.8749965045057585
 40
0.8750042953519868
 40
0.9374976017787185
 40
0.9375031130865782
 40
1.0
 40
1.0
 40
1.0
 40
1.0
 10
494.2856217452073
 20
-37.54999999999324
 30
0.0
 10
494.6066019875421
 20
-37.55000000144266
 30
0.0
 10
494.927610524406
 20
-37.61362646989369
 30
0.0
 10
495.5210037847496
 20
-37.85861947468457
 30
0.0
 10
495.7934489343208
 20
-38.04001320357093
 30
0.0
 10
496.2481541566161
 20
-38.49321975103167
 30
0.0
 10
496.4304795804777
 20
-38.76509963835684
 30
0.0
 10
496.6768721713883
 20
-39.35795351759722
 30
0.0
 10
496.8050503764042
 20
-39.99999473606014
 30
0.0
 10
496.6768747437954
 20
-40.64203629068355
 30
0.0
 10
496.4304853624481
 20
-41.23489029622329
 30
0.0
 10
496.2481612419958
 20
-41.50677104285739
 30
0.0
 10
495.7934582002402
 20
-41.9599797240507
 30
0.0
 10
495.5210139997
 20
-42.14137469420455
 30
0.0
 10
494.9276195914597
 20
-42.38637144027857
 30
0.0
 10
494.2856258385023
 20
-42.51362187343686
 30
0.0
 10
493.6436316436835
 20
-42.38637354094153
 30
0.0
 10
493.0502363056664
 20
-42.14137862561528
 30
0.0
 10
492.7777914628804
 20
-41.95998447560256
 30
0.0
 10
492.3230881384457
 20
-41.50677840870168
 30
0.0
 10
492.1407638452139
 20
-41.23489987490908
 30
0.0
 10
491.8943715085756
 20
-40.642047296717
 30
0.0
 10
491.7661928389987
 20
-40.00000440083885
 30
0.0
 10
491.8943692156311
 20
-39.35796109514002
 30
0.0
 10
492.1407599266921
 20
-38.76510646773568
 30
0.0
 10
492.3230843780361
 20
-38.49322618564327
 30
0.0
 10
492.7777880264887
 20
-38.04001815182961
 30
0.0
 10
493.0502326053448
 20
-37.8586234564861
 30
0.0
 10
493.6436276446399
 20
-37.61362750314713
 30
0.0
 10
493.9646388677613
 20
-37.54999999854381
 30
0.0
 10
494.2856217452073
 20
-37.54999999999324
 30
0.0
  0
SPLINE
  5
76
330
1F
100
AcDbEntity
  8
0
  6
Continuous
 62
     7
370
    25
100
AcDbSpline
210
0.0
220
0.0
230
1.0
 70
    11
 71
     3
 72
    35
 73
    31
 74
     0
 42
0.00000001
 43
0.00000001
 40
0.0
 40
0.0
 40
0.0
 40
0.0
 40
0.0624963738447345
 40
0.0625018906529163
 40
0.124995173646667
 40
0.1250029690672338
 40
0.1874966209491652
 40
0.1875021298503692
 40
0.2499997360434842
 40
0.3124971300496879
 40
0.3125026357002885
 40
0.3749962941742219
 40
0.375004083463376
 40
0.437497360828686
 40
0.4375028720807992
 40
0.4999997324880481
 40
0.562496621182455
 40
0.5625021347704448
 40
0.6249954139632699
 40
0.6250032136294832
 40
0.6874965437825806
 40
0.6875020534151582
 40
0.7499997357594678
 40
0.8124973785807773
 40
0.8125028842403867
 40
0.8749965045057739
 40
0.8750042953519933
 40
0.937497601778733
 40
0.9375031130865884
 40
1.0
 40
1.0
 40
1.0
 40
1.0
 10
494.2856217452075
 20
-49.54999999999328
 30
0.0
 10
494.6066019875421
 20
-49.55000000144266
 30
0.0
 10
494.927610524406
 20
-49.61362646989367
 30
0.0
 10
495.5210037847497
 20
-49.85861947468452
 30
0.0
 10
495.793448934321
 20
-50.04001320357091
 30
0.0
 10
496.2481541566162
 20
-50.49321975103161
 30
0.0
 10
496.4304795804778
 20
-50.7650996383568
 30
0.0
 10
496.6768721713884
 20
-51.35795351759715
 30
0.0
 10
496.8050503764046
 20
-51.99999473606012
 30
0.0
 10
496.6768747437956
 20
-52.6420362906835
 30
0.0
 10
496.4304853624482
 20
-53.23489029622326
 30
0.0
 10
496.2481612419961
 20
-53.5067710428574
 30
0.0
 10
495.7934582002405
 20
-53.95997972405071
 30
0.0
 10
495.5210139997002
 20
-54.14137469420454
 30
0.0
 10
494.9276195914599
 20
-54.38637144027855
 30
0.0
 10
494.2856258385024
 20
-54.51362187343687
 30
0.0
 10
493.6436316436838
 20
-54.38637354094148
 30
0.0
 10
493.0502363056667
 20
-54.14137862561535
 30
0.0
 10
492.7777914628807
 20
-53.95998447560266
 30
0.0
 10
492.3230881384458
 20
-53.50677840870183
 30
0.0
 10
492.1407638452139
 20
-53.2348998749091
 30
0.0
 10
491.8943715085758
 20
-52.64204729671702
 30
0.0
 10
491.7661928389988
 20
-52.00000440083889
 30
0.0
 10
491.8943692156312
 20
-51.35796109513997
 30
0.0
 10
492.1407599266921
 20
-50.76510646773564
 30
0.0
 10
492.3230843780365
 20
-50.49322618564329
 30
0.0
 10
492.7777880264891
 20
-50.04001815182968
 30
0.0
 10
493.0502326053449
 20
-49.85862345648614
 30
0.0
 10
493.64362764464
 20
-49.61362750314717
 30
0.0
 10
493.9646388677614
 20
-49.54999999854385
 30
0.0
 10
494.2856217452075
 20
-49.54999999999328
 30
0.0
  0
SPLINE
  5
77
330
1F
100
AcDbEntity
  8
0
  6
Continuous
 62
     7
370
    25
100
AcDbSpline
210
0.0
220
0.0
230
1.0
 70
    11
 71
     3
 72
    35
 73
    31
 74
     0
 42
0.00000001
 43
0.00000001
 40
0.0
 40
0.0
 40
0.0
 40
0.0
 40
0.0624966430811775
 40
0.0625021766120259
 40
0.1249954699387317
 40
0.1250032905661365
 40
0.1874969036195343
 40
0.1875024304589395
 40
0.2499999349808056
 40
0.3124972628478556
 40
0.3125027888228717
 40
0.3749964224252456
 40
0.3750042414888545
 40
0.4374975209658775
 40
0.437503052463333
 40
0.4999998920169191
 40
0.5624967364910369
 40
0.562502268277264
 40
0.6249955458916143
 40
0.6250033742842267
 40
0.687496686475854
 40
0.6875022136147793
 40
0.7499998215561934
 40
0.8124973682554447
 40
0.8125028947718294
 40
0.8749964952785937
 40
0.8750043138604213
 40
0.9374976064381128
 40
0.9375031373696646
 40
1.0
 40
1.0
 40
1.0
 40
1.0
 10
741.4284326178099
 20
-78.2499999999899
 30
0.0
 10
741.0026359459227
 20
-78.25000000126195
 30
0.0
 10
740.5768015963795
 20
-78.16559395173168
 30
0.0
 10
739.7896361613044
 20
-77.84059967246678
 30
0.0
 10
739.428224408324
 20
-77.5999758794085
 30
0.0
 10
738.8250241638483
 20
-76.99878933066604
 30
0.0
 10
738.5831486076905
 20
-76.6381374197219
 30
0.0
 10
738.2562755114582
 20
-75.85169926270444
 30
0.0
 10
738.0862215980222
 20
-75.00000257699267
 30
0.0
 10
738.2562743758904
 20
-74.1483058593214
 30
0.0
 10
738.5831455182379
 20
-73.36186807821447
 30
0.0
 10
738.8250204217825
 20
-73.00121556359483
 30
0.0
 10
739.4282195440433
 20
-72.40002785532162
 30
0.0
 10
739.7896307395044
 20
-72.1594034600688
 30
0.0
 10
740.5767967208261
 20
-71.83440719788899
 30
0.0
 10
741.4284303565951
 20
-71.66560088040703
 30
0.0
 10
742.2800642235213
 20
-71.83440602453132
 30
0.0
 10
743.0672306671115
 20
-72.15940123162288
 30
0.0
 10
743.4286422422367
 20
-72.40002517444408
 30
0.0
 10
744.0318406381649
 20
-73.001210531034
 30
0.0
 10
744.2737150940563
 20
-73.36186058265439
 30
0.0
 10
744.600588691309
 20
-74.14829704620414
 30
0.0
 10
744.7706440040178
 20
-74.99999579582688
 30
0.0
 10
744.6005909052128
 20
-75.85169493922824
 30
0.0
 10
744.2737187596073
 20
-76.63813368176388
 30
0.0
 10
744.0318437248584
 20
-76.99878581324124
 30
0.0
 10
743.4286443895687
 20
-77.59997312676717
 30
0.0
 10
743.0672330271667
 20
-77.84059742042086
 30
0.0
 10
742.2800666589839
 20
-78.16559335714602
 30
0.0
 10
741.8542307855103
 20
-78.24999999871787
 30
0.0
 10
741.4284326178099
 20
-78.2499999999899
 30
0.0
  0
SPLINE
  5
7C
330
1F
100
AcDbEntity
  8
0
  6
Continuous
 62
     7
370
    25
100
AcDbSpline
210
0.0
220
0.0
230
1.0
 70
     8
 71
     3
 72
     9
 73
     5
 74
     0
 42
0.00000001
 43
0.00000001
 40
0.0
 40
0.0
 40
0.0
 40
0.0
 40
0.7623938735486334
 40
1.0
 40
1.0
 40
1.0
 40
1.0
 10
494.2856217452074
 20
-37.54999999999324
 30
0.0
 10
494.0075697714104
 20
-37.56250329917726
 30
0.0
 10
493.6428606840947
 20
-37.57890335119476
 30
0.0
 10
493.3367291279731
 20
-37.76336029323848
 30
0.0
 10
493.2639903947386
 20
-37.80718839273457
 30
0.0
  0
SPLINE
  5
7D
330
1F
100
AcDbEntity
  8
0
  6
Continuous
 62
     7
370
    25
100
AcDbSpline
210
0.0
220
0.0
230
1.0
 70
     8
 71
     3
 72
     9
 73
     5
 74
     0
 42
0.00000001
 43
0.00000001
 40
0.0
 40
0.0
 40
0.0
 40
0.0
 40
0.762393873547193
 40
1.0
 40
1.0
 40
1.0
 40
1.0
 10
494.2856217452075
 20
-49.54999999999325
 30
0.0
 10
494.0075697714105
 20
-49.56250329917732
 30
0.0
 10
493.6428606840939
 20
-49.57890335119492
 30
0.0
 10
493.3367291279721
 20
-49.76336029323911
 30
0.0
 10
493.2639903947369
 20
-49.80718839273556
 30
0.0
  0
SPLINE
  5
7E
330
1F
100
AcDbEntity
  8
0
  6
Continuous
 62
     7
370
    25
100
AcDbSpline
210
0.0
220
0.0
230
1.0
 70
     8
 71
     3
 72
     9
 73
     5
 74
     0
 42
0.00000001
 43
0.00000001
 40
0.0
 40
0.0
 40
0.0
 40
0.0
 40
0.163074358320255
 40
0.9999999999999999
 40
0.9999999999999999
 40
0.9999999999999999
 40
0.9999999999999999
 10
208.9775293356529
 20
-18.60516754239172
 30
0.0
 10
208.9692272327195
 20
-18.67015808661221
 30
0.0
 10
208.9183173102836
 20
-19.06869127656262
 30
0.0
 10
209.0313676746699
 20
-19.46199099278624
 30
0.0
 10
209.1259824234261
 20
-19.79115361015916
 30
0.0
  0
LINE
  5
7F
330
1F
100
AcDbEntity
  8
0
  6
Continuous
 62
     7
370
    25
100
AcDbLine
 10
0.0
 20
105.0
 30
0.0
 11
0.0
 21
-105.0
 31
0.0
  0
LINE
  5
80
330
1F
100
AcDbEntity
  8
0
  6
Continuous
 62
     7
370
    25
100
AcDbLine
 10
997.2505116072
 20
105.0
 30
0.0
 11
0.0
 21
105.0
 31
0.0
  0
LINE
  5
81
330
1F
100
AcDbEntity
  8
0
  6
Continuous
 62
     7
370
    25
100
AcDbLine
 10
997.2505116072
 20
105.0
 30
0.0
 11
997.2505116072
 21
-105.0
 31
0.0
  0
LINE
  5
82
330
1F
100
AcDbEntity
  8
0
  6
Continuous
 62
     7
370
    25
100
AcDbLine
 10
997.2505116072
 20
-105.0
 30
0.0
 11
0.0
 21
-105.0
 31
0.0
  0
ENDSEC
  0
SECTION
  2
OBJECTS
  0
DICTIONARY
  5
C
330
0
100
AcDbDictionary
281
     1
  3
ACAD_GROUP
350
D
  3
ACAD_LAYOUT
350
1A
  3
ACAD_MLINESTYLE
350
17
  3
ACAD_PLOTSETTINGS
350
19
  3
ACAD_PLOTSTYLENAME
350
E
  3
ACAD_SCALELIST
350
47
  3
DWGPROPS
350
83
  0
DICTIONARY
  5
D
102
{ACAD_REACTORS
330
C
102
}
330
C
100
AcDbDictionary
281
     1
  0
DICTIONARY
  5
1A
102
{ACAD_REACTORS
330
C
102
}
330
C
100
AcDbDictionary
281
     1
  3
Layout1
350
1E
  3
Layout2
350
26
  3
Model
350
22
  0
DICTIONARY
  5
17
102
{ACAD_REACTORS
330
C
102
}
330
C
100
AcDbDictionary
281
     1
  3
Standard
350
18
  0
DICTIONARY
  5
19
102
{ACAD_REACTORS
330
C
102
}
330
C
100
AcDbDictionary
281
     1
  0
ACDBDICTIONARYWDFLT
  5
E
102
{ACAD_REACTORS
330
C
102
}
330
C
100
AcDbDictionary
281
     1
  3
Normal
350
F
100
AcDbDictionaryWithDefault
340
F
  0
DICTIONARY
  5
47
102
{ACAD_REACTORS
330
C
102
}
330
C
100
AcDbDictionary
281
     1
  3
A0
350
48
  3
A1
350
49
  3
A2
350
4A
  3
A3
350
4B
  3
A4
350
4C
  3
A5
350
4D
  3
A6
350
4E
  3
A7
350
4F
  3
A8
350
50
  3
A9
350
51
  3
B0
350
52
  3
B1
350
53
  3
B2
350
54
  3
B3
350
55
  3
B4
350
56
  3
B5
350
57
  3
B6
350
58
  3
B7
350
59
  3
B8
350
5A
  3
B9
350
5B
  3
C0
350
5C
  3
C1
350
5D
  3
C2
350
5E
  3
C3
350
5F
  3
C4
350
60
  3
C5
350
61
  3
C6
350
62
  3
C7
350
63
  3
C8
350
64
  3
C9
350
65
  3
D0
350
66
  3
D1
350
67
  3
D2
350
68
  0
XRECORD
  5
83
102
{ACAD_REACTORS
330
C
102
}
330
C
100
AcDbXrecord
280
     1
  1
DWGPROPS COOKIE
  2

  3

  4

  6

  7

  8
vip
  9

300
=
301
=
302
=
303
=
304
=
305
=
306
=
307
=
308
=
309
=
 40
0.0
 41
2460056.301313484
 42
2460056.301369352
  1

 90
        0
  0
LAYOUT
  5
1E
102
{ACAD_REACTORS
330
1A
102
}
330
1A
100
AcDbPlotSettings
  1

  2
none_device
  4

  6

 40
0.0
 41
0.0
 42
0.0
 43
0.0
 44
0.0
 45
0.0
 46
0.0
 47
0.0
 48
0.0
 49
0.0
140
0.0
141
0.0
142
1.0
143
1.0
 70
   688
 72
     1
 73
     0
 74
     5
  7

 75
    16
147
1.0
148
0.0
149
0.0
100
AcDbLayout
  1
Layout1
 70
     1
 71
     1
 10
0.0
 20
0.0
 11
420.0
 21
297.0
 12
0.0
 22
0.0
 32
0.0
 14
1.0000000000E+20
 24
1.0000000000E+20
 34
1.0000000000E+20
 15
-1.0000000000E+20
 25
-1.0000000000E+20
 35
-1.0000000000E+20
146
0.0
 13
0.0
 23
0.0
 33
0.0
 16
1.0
 26
0.0
 36
0.0
 17
0.0
 27
1.0
 37
0.0
 76
     0
330
1B
  0
LAYOUT
  5
26
102
{ACAD_REACTORS
330
1A
102
}
330
1A
100
AcDbPlotSettings
  1

  2
none_device
  4

  6

 40
0.0
 41
0.0
 42
0.0
 43
0.0
 44
0.0
 45
0.0
 46
0.0
 47
0.0
 48
0.0
 49
0.0
140
0.0
141
0.0
142
1.0
143
1.0
 70
   688
 72
     1
 73
     0
 74
     5
  7

 75
    16
147
1.0
148
0.0
149
0.0
100
AcDbLayout
  1
Layout2
 70
     1
 71
     2
 10
0.0
 20
0.0
 11
0.0
 21
0.0
 12
0.0
 22
0.0
 32
0.0
 14
0.0
 24
0.0
 34
0.0
 15
0.0
 25
0.0
 35
0.0
146
0.0
 13
0.0
 23
0.0
 33
0.0
 16
1.0
 26
0.0
 36
0.0
 17
0.0
 27
1.0
 37
0.0
 76
     0
330
23
  0
LAYOUT
  5
22
102
{ACAD_REACTORS
330
1A
102
}
330
1A
100
AcDbPlotSettings
  1

  2
none_device
  4
ANSI_A_(11.00_x_8.50_Inches)
  6

 40
6.35
 41
19.05
 42
6.35000508
 43
19.05000254
 44
279.4
 45
215.9
 46
-4.95300254
 47
88.89999873
 48
0.0
 49
0.0
140
0.0
141
0.0
142
0.0109200245
143
1.0
 70
  1696
 72
     0
 73
     0
 74
     0
  7

 75
     0
147
0.0179189148
148
-1300.4909072572
149
0.0
100
AcDbLayout
  1
Model
 70
     1
 71
     0
 10
0.0
 20
0.0
 11
420.0
 21
297.0
 12
0.0
 22
0.0
 32
0.0
 14
0.0
 24
-105.0
 34
0.0
 15
997.2505116072
 25
105.0
 35
0.0
146
0.0
 13
0.0
 23
0.0
 33
0.0
 16
1.0
 26
0.0
 36
0.0
 17
0.0
 27
1.0
 37
0.0
 76
     0
330
1F
331
29
  0
MLINESTYLE
  5
18
102
{ACAD_REACTORS
330
17
102
}
330
17
100
AcDbMlineStyle
  2
Standard
 70
     0
  3

 62
   256
 51
90.0
 52
90.0
 71
     2
 49
0.5
 62
   256
  6
BYLAYER
 49
-0.5
 62
   256
  6
BYLAYER
  0
ACDBPLACEHOLDER
  5
F
102
{ACAD_REACTORS
330
E
102
}
330
E
  0
SCALE
  5
48
102
{ACAD_REACTORS
330
47
102
}
330
47
100
AcDbScale
 70
     0
300
1:1
140
1.0
141
1.0
290
     1
  0
SCALE
  5
49
102
{ACAD_REACTORS
330
47
102
}
330
47
100
AcDbScale
 70
     0
300
1:2
140
1.0
141
2.0
290
     0
  0
SCALE
  5
4A
102
{ACAD_REACTORS
330
47
102
}
330
47
100
AcDbScale
 70
     0
300
1:4
140
1.0
141
4.0
290
     0
  0
SCALE
  5
4B
102
{ACAD_REACTORS
330
47
102
}
330
47
100
AcDbScale
 70
     0
300
1:5
140
1.0
141
5.0
290
     0
  0
SCALE
  5
4C
102
{ACAD_REACTORS
330
47
102
}
330
47
100
AcDbScale
 70
     0
300
1:8
140
1.0
141
8.0
290
     0
  0
SCALE
  5
4D
102
{ACAD_REACTORS
330
47
102
}
330
47
100
AcDbScale
 70
     0
300
1:10
140
1.0
141
10.0
290
     0
  0
SCALE
  5
4E
102
{ACAD_REACTORS
330
47
102
}
330
47
100
AcDbScale
 70
     0
300
1:16
140
1.0
141
16.0
290
     0
  0
SCALE
  5
4F
102
{ACAD_REACTORS
330
47
102
}
330
47
100
AcDbScale
 70
     0
300
1:20
140
1.0
141
20.0
290
     0
  0
SCALE
  5
50
102
{ACAD_REACTORS
330
47
102
}
330
47
100
AcDbScale
 70
     0
300
1:30
140
1.0
141
30.0
290
     0
  0
SCALE
  5
51
102
{ACAD_REACTORS
330
47
102
}
330
47
100
AcDbScale
 70
     0
300
1:40
140
1.0
141
40.0
290
     0
  0
SCALE
  5
52
102
{ACAD_REACTORS
330
47
102
}
330
47
100
AcDbScale
 70
     0
300
1:50
140
1.0
141
50.0
290
     0
  0
SCALE
  5
53
102
{ACAD_REACTORS
330
47
102
}
330
47
100
AcDbScale
 70
     0
300
1:100
140
1.0
141
100.0
290
     0
  0
SCALE
  5
54
102
{ACAD_REACTORS
330
47
102
}
330
47
100
AcDbScale
 70
     0
300
2:1
140
2.0
141
1.0
290
     0
  0
SCALE
  5
55
102
{ACAD_REACTORS
330
47
102
}
330
47
100
AcDbScale
 70
     0
300
4:1
140
4.0
141
1.0
290
     0
  0
SCALE
  5
56
102
{ACAD_REACTORS
330
47
102
}
330
47
100
AcDbScale
 70
     0
300
8:1
140
8.0
141
1.0
290
     0
  0
SCALE
  5
57
102
{ACAD_REACTORS
330
47
102
}
330
47
100
AcDbScale
 70
     0
300
10:1
140
10.0
141
1.0
290
     0
  0
SCALE
  5
58
102
{ACAD_REACTORS
330
47
102
}
330
47
100
AcDbScale
 70
     0
300
100:1
140
100.0
141
1.0
290
     0
  0
SCALE
  5
59
102
{ACAD_REACTORS
330
47
102
}
330
47
100
AcDbScale
 70
     0
300
1/128" = 1'-0"
140
0.0078125
141
12.0
290
     0
  0
SCALE
  5
5A
102
{ACAD_REACTORS
330
47
102
}
330
47
100
AcDbScale
 70
     0
300
1/64" = 1'-0"
140
0.015625
141
12.0
290
     0
  0
SCALE
  5
5B
102
{ACAD_REACTORS
330
47
102
}
330
47
100
AcDbScale
 70
     0
300
1/32" = 1'-0"
140
0.03125
141
12.0
290
     0
  0
SCALE
  5
5C
102
{ACAD_REACTORS
330
47
102
}
330
47
100
AcDbScale
 70
     0
300
1/16" = 1'-0"
140
0.0625
141
12.0
290
     0
  0
SCALE
  5
5D
102
{ACAD_REACTORS
330
47
102
}
330
47
100
AcDbScale
 70
     0
300
3/32" = 1'-0"
140
0.09375
141
12.0
290
     0
  0
SCALE
  5
5E
102
{ACAD_REACTORS
330
47
102
}
330
47
100
AcDbScale
 70
     0
300
1/8" = 1'-0"
140
0.125
141
12.0
290
     0
  0
SCALE
  5
5F
102
{ACAD_REACTORS
330
47
102
}
330
47
100
AcDbScale
 70
     0
300
3/16" = 1'-0"
140
0.1875
141
12.0
290
     0
  0
SCALE
  5
60
102
{ACAD_REACTORS
330
47
102
}
330
47
100
AcDbScale
 70
     0
300
1/4" = 1'-0"
140
0.25
141
12.0
290
     0
  0
SCALE
  5
61
102
{ACAD_REACTORS
330
47
102
}
330
47
100
AcDbScale
 70
     0
300
3/8" = 1'-0"
140
0.375
141
12.0
290
     0
  0
SCALE
  5
62
102
{ACAD_REACTORS
330
47
102
}
330
47
100
AcDbScale
 70
     0
300
1/2" = 1'-0"
140
0.5
141
12.0
290
     0
  0
SCALE
  5
63
102
{ACAD_REACTORS
330
47
102
}
330
47
100
AcDbScale
 70
     0
300
3/4" = 1'-0"
140
0.75
141
12.0
290
     0
  0
SCALE
  5
64
102
{ACAD_REACTORS
330
47
102
}
330
47
100
AcDbScale
 70
     0
300
1" = 1'-0"
140
1.0
141
12.0
290
     0
  0
SCALE
  5
65
102
{ACAD_REACTORS
330
47
102
}
330
47
100
AcDbScale
 70
     0
300
1-1/2" = 1'-0"
140
1.5
141
12.0
290
     0
  0
SCALE
  5
66
102
{ACAD_REACTORS
330
47
102
}
330
47
100
AcDbScale
 70
     0
300
3" = 1'-0"
140
3.0
141
12.0
290
     0
  0
SCALE
  5
67
102
{ACAD_REACTORS
330
47
102
}
330
47
100
AcDbScale
 70
     0
300
6" = 1'-0"
140
6.0
141
12.0
290
     0
  0
SCALE
  5
68
102
{ACAD_REACTORS
330
47
102
}
330
47
100
AcDbScale
 70
     0
300
1'-0" = 1'-0"
140
12.0
141
12.0
290
     0
  0
ENDSEC
  0
EOF
